<svg width="105" height="306" fill="none" xmlns="http://www.w3.org/2000/svg"><g clip-path="url(#clip0)"><path d="M56.443 304.08c-.241.009-.507-.13-.617-.34-4.002-8.178-1.23-17.858 1.035-25.603.522-1.739 1.052-3.525 1.574-5.265 3.234-10.756 6.529-21.886 6.357-32.951-.413-17.87-4.277-35.48-8.936-54.994-2.92-11.891-6.56-26.73-1.498-39.879.147-.313.513-.494.832-.394.313.146.494.511.394.831-4.909 12.79-1.323 27.38 1.572 39.124 4.644 19.607 8.547 37.271 8.937 55.281.189 11.26-3.168 22.476-6.417 33.326a1627.16 1627.16 0 01-1.575 5.265c-2.188 7.566-4.914 16.964-1.124 24.677.142.311.027.724-.284.866-.047-.008-.148.024-.25.056z" fill="#FF9767"/><path d="M54.167 139.743c-3.62 1.866-10.172 9.359-6.668 11.459 2.542 1.513 4.638-1.03 6.396-2.092 2.296-1.407 2.415-.956 5.07-.144 7.313 2.328.935-9.597-3.434-9.628-.382-.013-.842.153-1.364.405z" fill="#ABE1FE"/><path d="M104.789 67.583c1.485 37.875-26.393 72.516-48.572 75.045-23.847 2.741-54.51-33.01-55.994-70.885C-1.262 33.868 20.982 2.257 49.812 1.086c28.923-1.157 53.492 28.622 54.977 66.497z" fill="#ABE1FE"/><path d="M26.023 101.493c-8.746-13.887-15.577-36.012-14.758-52.585 1.157-23.384 8.716-28.505 14.063-38.637C9.501 22.51-.697 45.639.31 71.675c1.485 37.874 32.153 73.577 55.991 70.883 6.51-.729 13.521-4.258 20.096-9.825-25.116-4.52-39.177-13.502-50.373-31.24z" fill="#87D4FE"/><path opacity=".6" d="M96.552 33.622c6.582 12.724 6.302 25.978-.672 29.56-6.973 3.584-17.932-3.796-24.507-16.567-6.582-12.725-6.302-25.978.672-29.561 6.974-3.583 17.925 3.843 24.507 16.568z" fill="#ECF8FF"/><path d="M53.768 68.232a2.5 2.5 0 00-3.536 0l-15.91 15.91a2.5 2.5 0 003.536 3.536L52 73.536l14.142 14.142a2.5 2.5 0 003.536-3.536l-15.91-15.91zm.732 5.186V70h-5v3.418h5z" fill="#FF9767"/></g><defs><clipPath id="clip0"><path fill="#fff" d="M0 0h105v306H0z"/></clipPath></defs></svg>