<svg width="172" height="170" fill="none" xmlns="http://www.w3.org/2000/svg"><path d="M60.65 51.594c4.28-6.303 8.354-13.013 15.69-15.86 1.63-.61 3.464-1.423 4.28.204.61 1.626-1.224 2.846-1.224 4.473 2.65 1.017 5.298-1.017 7.54-2.033 1.222-.61 9.984-4.27 9.17-.814-.205.814-2.038 3.254-1.427 4.067 1.834 2.44 5.705-.813 7.947 0 3.26 1.22.611 3.05 0 5.286-.815 3.05 2.649 3.254 4.89 3.864" fill="#C2A387"/><path d="M163.144 98.361c1.426 2.644 2.853 5.084 4.075 7.727 1.63 2.237 4.279 9.557 2.649 12.403-1.63 2.847-4.483-1.626-6.724-1.626-.408 2.033 1.019 3.863 1.834 5.693.815 2.033 1.63 4.27 1.834 6.507.203 1.626.203 4.27-2.242 4.27-1.426 0-2.649-2.034-4.483-2.034-.203 4.27 1.834 9.354-1.018 13.217-3.668 5.287-3.464-4.473-7.743-4.067m-141.209-42.7a504.075 504.075 0 00-5.298 10.167c-1.63 2.236-4.28 9.556-2.65 12.403 1.63 2.847 4.483-1.627 6.725-1.627.407 2.034-1.019 3.864-1.834 5.694-.815 2.033-1.63 4.27-1.834 6.507-.204 1.626-.204 4.27 2.242 4.27 1.426 0 2.649-2.034 4.482-2.034.204 4.27-1.833 9.354 1.02 13.217 3.667 5.287 3.463-4.473 7.742-4.067" fill="#A98F78"/><path d="M164.366 106.495c0 34.566-19.969 62.423-77.838 62.423-62.556 0-77.838-28.06-77.838-62.423 0-34.567 34.844-62.424 77.838-62.424 42.995 0 77.838 27.857 77.838 62.424z" fill="#A98F78"/><path d="M160.087 106.494c0 32.534-18.338 63.237-73.151 63.237-59.092 0-73.967-30.5-73.967-63.237 0-3.456-3.056-1.83-2.445-5.286 3.057-16.47 16.709-36.804 33.01-46.36 11.41-6.71 27.1-11.184 42.18-11.184 13.448 0 28.934 2.643 39.937 8.337 22.007 11.387 34.436 32.736 34.436 54.493z" fill="#C2A387"/><path d="M25.603 35.124c-10.392 0-18.95 6.914-21.6 16.47-.814-.203-1.222-.813-2.24-.61C.54 51.188.335 52.814.54 53.831c.203 2.44 2.445 5.287 2.037 7.727-1.426 0-3.056-.407-2.445 1.423.408 1.423 2.038 2.237 2.445 3.253 1.223.814 2.445 1.627 3.668 2.237 0 .203.204.203.204.407-1.63 1.016-2.242 2.846-.815 4.676 1.222 1.424 3.464.814 4.686 2.034-1.019 1.016-1.222 2.236 0 3.05 1.63 1.22 5.298.406 7.947-.204 2.242.814 4.89 1.22 7.336 1.22 12.225 0 22.21-9.963 22.21-22.163 0-12.403-9.985-22.367-22.21-22.367z" fill="#C2A387"/><path d="M22.139 70.301c5.297-5.693 11.41-10.573 17.523-15.453h.204c-1.222-6.1-6.724-10.777-13.245-10.777-7.539 0-13.448 6.1-13.448 13.42 0 5.897 3.871 10.98 8.966 12.81z" fill="#EAC1C2"/><path d="M19.082 53.628c.611-4.88 3.464-7.93 7.336-9.557-7.336 0-13.245 6.1-13.245 13.42 0 5.897 3.668 10.777 8.966 12.81.203-.406.61-.61.815-.813-2.853-4.88-4.687-10.574-3.872-15.86z" fill="#E8B4BB"/><path d="M35.18 59.525c-.408-.61-.816-2.237-1.63-2.034-1.63.204-1.427 3.66-3.465 3.05-.815-.203-1.426-.61-2.241-.203-.611.407-.815 1.22-1.019 2.033-.204.61-.204 1.83-.815 2.237-.815.407-2.038-.813-3.056-.813-1.223.203-2.038 2.236-2.038 3.253 0 1.423.815 2.847 1.223 4.27m123.277-36.193c10.392 0 18.95 6.913 21.599 16.47.815-.204 1.223-.814 2.242-.61 1.222.203 1.426 1.83 1.222 2.846-.203 2.44-2.445 5.287-2.037 7.727 1.426 0 3.056-.407 2.445 1.423-.408 1.424-2.038 2.237-2.445 3.254-1.223.813-2.445 1.627-3.668 2.237 0 .203-.204.203-.204.406 1.63 1.017 2.242 2.847.815 4.677-1.222 1.423-3.464.813-4.686 2.033 1.019 1.017 1.222 2.237 0 3.05-1.63 1.22-5.298.407-7.947-.203-2.242.813-4.89 1.22-7.336 1.22-12.226 0-22.21-9.963-22.21-22.163-.204-12.404 9.781-22.367 22.21-22.367z" fill="#C2A387"/><path d="M148.677 70.302c-5.298-5.694-11.411-10.574-17.524-15.454h-.204c1.223-6.1 6.724-10.777 13.245-10.777 7.539 0 13.448 6.1 13.448 13.42 0 5.897-3.668 10.98-8.965 12.81z" fill="#EAC1C2"/><path d="M133.598 56.678c1.426-1.627 2.853-3.05 4.687-4.067 5.909-3.456 12.429-2.643 18.542.204h.204c-1.834-5.084-6.928-8.947-12.634-8.947-6.52 0-12.022 4.677-13.244 10.777h.204c.611.813 1.426 1.423 2.241 2.033z" fill="#E8B4BB"/><path d="M135.636 59.525c.407-.61.815-2.237 1.63-2.034 1.63.204 1.426 3.66 3.464 3.05.815-.203 1.426-.61 2.241-.203.611.407.815 1.22 1.019 2.033.204.61.204 1.83.815 2.237.815.407 2.038-.813 3.056-.813 1.223.203 2.038 2.236 2.038 3.253 0 1.423-.815 2.847-1.222 4.27m9.576 23.79c1.019 2.033 4.687 7.93 5.706 10.167 1.426 1.83 3.464 7.726 2.037 9.963-1.426 2.237-3.464-1.22-5.297-1.22-.408 1.627.815 3.05 1.426 4.473.611 1.627 1.223 3.457 1.426 5.287.204 1.22.204 3.457-1.834 3.457-1.222 0-2.241-1.627-3.667-1.627-.204 3.457 1.426 7.524-.815 10.574-2.853 4.27-2.649-3.457-6.113-3.254M16.026 94.091c-1.223 2.237-5.91 9.354-6.928 11.59-1.427 1.83-3.668 8.134-2.242 10.574 1.427 2.44 3.668-1.424 5.706-1.424.407 1.627-1.02 3.254-1.63 4.88-.612 1.83-1.223 3.66-1.427 5.49-.204 1.424-.204 3.66 1.834 3.66 1.223 0 2.242-1.626 3.872-1.83.203 3.66-1.427 7.93.815 11.184 3.056 4.473 2.852-3.863 6.52-3.457" fill="#C2A387"/><path d="M70.838 47.121c-.203 0-.203 0-.407-.203-.408-.204-.408-.61-.204-1.017 1.426-2.237 3.26-4.27 4.28-5.287.203-.203.814-.203 1.018 0 .204.204.204.814 0 1.017-1.019 1.017-2.853 2.847-4.075 5.083-.204.204-.408.407-.612.407zm13.245 1.019h-.407c-.408-.204-.408-.61-.204-1.017 1.63-3.05 4.279-5.287 7.743-6.914.407-.203.815 0 1.019.407.204.407 0 .813-.408 1.017-3.26 1.423-5.501 3.66-6.928 6.303-.203 0-.611.203-.815.203zm9.577 2.846c-.204 0-.407 0-.407-.204-.204-.203-.204-.813 0-1.016 1.63-1.628 3.667-3.255 5.501-4.475.408-.203.815-.204 1.019.203.204.407.204.814-.204 1.017-1.834 1.424-3.668 2.848-5.298 4.475-.203-.204-.407 0-.61 0zm-8.15 14.231c-.408 0-.612-.203-.612-.61-.204-3.05.408-5.693 2.038-8.743.204-.407.611-.407 1.019-.203.407.203.407.61.203 1.016-1.426 2.644-2.037 5.084-1.834 7.93 0 .204-.407.407-.814.61zm-9.17-6.507c-.407 0-.611-.406-.611-.609 0-1.83.407-3.66.815-5.287.204-.406.204-.813.204-1.22 0-.406.407-.61.815-.61.407 0 .611.407.611.814 0 .406-.204.813-.204 1.22-.407 1.626-.815 3.253-.815 4.88-.204.61-.407.813-.815.813zm2.242 12.404c-.408 0-.612-.203-.612-.61-.204-1.627-.407-3.253-.815-5.287 0-.406.204-.813.611-.813.408 0 .816.204.816.61.203 1.83.407 3.66.61 5.287.205.406 0 .61-.61.813.203 0 .203 0 0 0zm5.501 11.592c-.407 0-.611-.407-.611-.61 0-.814 0-1.627-.204-2.237 0-.814-.204-1.627-.204-2.441 0-.407.408-.61.612-.61.407 0 .61.407.61.61 0 .814 0 1.627.205 2.237 0 .814.203 1.627.203 2.441.204.203-.203.61-.61.61zm3.667 5.286c-.407 0-.61-.407-.61-.61 0-1.017 0-2.034.203-3.051 0-.407.408-.61.815-.61.408 0 .612.407.612.813-.204.814-.204 1.831-.204 2.644-.204.61-.408.814-.815.814zm-6.927 8.338c-.408 0-.611-.407-.611-.61 0-1.424 0-2.848.203-4.475 0-.407.408-.61.815-.61.408 0 .612.406.612.813-.204 1.424-.204 2.644-.204 4.068-.204.61-.408.813-.815.813zm-2.853-9.152c-.407 0-.611-.407-.611-.61 0-1.22-.204-2.237-.204-3.457-.204-1.22-.204-2.44-.204-3.66 0-.406.408-.61.612-.61.407 0 .61.407.61.61 0 1.22.205 2.237.205 3.457.204 1.22.204 2.44.204 3.66 0 .203-.204.61-.612.61zm-5.298-9.353c-.407 0-.611-.204-.611-.61-.204-1.83-.611-3.457-1.019-5.084l-.204-1.017c0-.406.204-.813.612-.813.407 0 .815.203.815.61l.204 1.017c.407 1.83.815 3.456 1.018 5.286 0 .204-.203.61-.815.61.204 0 0 0 0 0zM68.8 65.218c-.203 0-.203 0 0 0-.407 0-.814-.407-.61-.814.203-1.016.203-1.83.203-2.846 0-1.017.204-1.83.204-2.847 0-.407.407-.61.815-.61s.611.407.611.813c-.203 1.017-.203 1.83-.203 2.847s-.204 1.83-.204 2.847c-.204.203-.612.61-.815.61zm23.026 2.035c-.204 0-.204 0 0 0-.407 0-.815-.407-.611-.814.204-1.627.407-3.254.407-4.881 0-.407.408-.61.612-.61.407 0 .611.407.611.61 0 1.627-.204 3.458-.408 5.085 0 .407-.407.61-.61.61zm-1.834 10.573c-.407 0-.611-.407-.611-.61 0-.61 0-1.017.204-1.424 0-.407.204-.814.204-1.424 0-.407.407-.61.61-.61.408 0 .612.407.612.61 0 .61 0 1.017-.204 1.424 0 .407-.203.813-.203 1.424.203.406-.204.61-.612.61zm-1.426 19.317c-.408 0-.815-.407-.611-.814.203-1.22.61-2.644 1.222-4.271.204-.407.611-.61 1.019-.407.407.204.611.61.407 1.017-.61 1.424-1.018 2.644-1.222 3.865 0 .406-.408.61-.815.61zm7.743-38.633h-.204c-.407-.204-.611-.611-.407-1.018l.611-1.83c.204-.61.407-1.424.611-2.034.204-.407.611-.61 1.02-.407.407.203.61.61.407 1.017l-.612 1.83c-.204.61-.407 1.424-.611 2.034-.407.204-.611.407-.815.407zM95.29 77.215c-.407 0-.815-.406-.611-.813.204-.814.204-1.83.407-2.644.204-.813.408-1.83.408-2.644 0-.407.407-.61.815-.61.407 0 .611.407.611.814-.204.813-.204 1.83-.407 2.643-.204.814-.408 1.83-.408 2.644-.204.407-.407.61-.815.61zm-2.649 13.422c-.407 0-.815-.407-.611-.814.204-1.424.611-2.644 1.019-3.865 0-.203.203-.61.203-.813.204-.407.408-.61.816-.407.407.203.61.407.407.814 0 .406-.204.61-.204.813-.407 1.22-.815 2.441-.815 3.661-.204.407-.407.61-.815.61zM63.707 57.694c-.408 0-.612-.406-.612-.61 0-2.033.204-3.863.408-5.693v-.61c0-.407.407-.61.815-.61.407 0 .611.406.611.813v.61c-.204 1.83-.407 3.66-.407 5.49 0 .407-.408.61-.815.61zM11.34 112.188c-.205 0-.205 0 0 0-.612-.203-.816-.61-.612-.813.815-2.847 2.445-5.49 3.871-7.524.204-.406.612-.406 1.02-.203.407.203.407.61.203 1.017-1.426 2.033-3.056 4.473-3.668 7.116-.204.204-.611.407-.815.407zm2.24 14.234c-.407 0-.815-.407-.61-.814.203-3.253 1.222-6.1 2.24-8.947.204-.406.612-.61.816-.406.407.203.611.61.407.813-1.019 2.847-1.834 5.694-2.037 8.54 0 .61-.408.814-.816.814zm5.095 8.743c-.408 0-.815-.407-.612-.813.204-2.034.408-4.27.612-6.71 0-.407.407-.61.815-.61.407 0 .611.406.611.813-.204 2.44-.407 4.473-.611 6.71-.204.407-.408.61-.815.61zm1.426-16.673h-.204c-.407-.203-.611-.61-.407-.813.407-1.22.611-2.644.815-3.864v-.61c0-.407.407-.61.815-.61.407 0 .611.406.611.813v.61c-.204 1.22-.407 2.847-.815 4.067-.204.204-.611.407-.815.407zm-1.631-10.776c-.203 0-.203 0 0 0-.61-.204-.814-.407-.61-.814l.61-2.847c0-.407.408-.61.816-.61.407 0 .611.406.611.813l-.611 2.848c-.204.406-.611.61-.815.61zm-2.037-9.965c-.611-.203-.815-.406-.611-.813.408-2.237 1.223-4.27 1.834-6.507.204-.406.611-.61.815-.406.407.203.611.61.407.813-.61 2.033-1.426 4.27-1.834 6.303 0 .407-.203.61-.61.61zm8.355 41.684c-.408 0-.612-.203-.612-.61-.407-3.05-.203-6.303 0-8.947 0-.406.408-.61.815-.61.408 0 .612.407.612.814-.204 2.643-.408 5.693 0 8.54 0 .406-.204.813-.815.813.203 0 0 0 0 0zm5.094 11.387c-.204 0-.612-.203-.612-.406-.407-1.017-1.018-1.627-1.63-2.441-.204-.406-.204-.813.204-1.016.408-.204.815-.204 1.019.203.611.813 1.223 1.627 1.63 2.643.204.407 0 .814-.407 1.017h-.204zm132.65-41.277c-.407 0-.611-.204-.611-.61-.815-2.643-2.241-5.083-3.668-7.117-.203-.406-.203-.813.204-1.016.408-.204.815-.204 1.019.203 1.426 2.033 3.056 4.676 3.872 7.523-.204.61-.408 1.017-.816 1.017zm-2.445 14.233c-.407 0-.611-.203-.611-.61-.204-3.05-1.222-5.897-2.038-8.54-.203-.407 0-.813.408-.813.408-.204.815 0 .815.406 1.019 2.847 1.834 5.694 2.241 8.947 0 .203-.407.61-.815.61zm-5.094 8.744c-.407 0-.611-.204-.611-.61-.204-2.034-.408-4.27-.611-6.71 0-.407.203-.814.611-.814.407 0 .815.203.815.61.204 2.44.407 4.474.611 6.71 0 .407-.204.814-.815.814.204 0 .204 0 0 0zm-1.426-16.672c-.204 0-.611-.204-.611-.407-.408-1.22-.612-2.847-.815-4.068v-.61c0-.407.203-.814.611-.814.407 0 .815.204.815.611v.61c.204 1.22.407 2.644.815 3.864.204.407 0 .814-.408.814h-.407zm1.834-10.777c-.408 0-.612-.204-.612-.61l-.611-2.848c0-.407.204-.814.611-.814.408 0 .816.204.816.611l.611 2.847c-.204.407-.408.814-.815.814zm1.834-9.965c-.408 0-.612-.203-.612-.61-.407-2.033-1.222-4.27-1.834-6.303-.203-.407 0-.814.408-.814.408-.203.815 0 .815.407.611 2.033 1.426 4.27 1.834 6.507.204.406 0 .813-.611.813zm-8.355 41.684c-.407 0-.815-.407-.611-.814.408-2.846.204-6.1 0-8.54 0-.406.204-.813.611-.813.408 0 .815.203.815.61.204 2.643.408 5.897 0 8.947-.203.406-.407.61-.815.61zm-4.89 11.387h-.408c-.407-.203-.407-.61-.407-1.017.611-1.017 1.019-1.83 1.63-2.644.204-.407.611-.407 1.019-.203.407.203.407.61.204 1.017-.612.813-1.223 1.627-1.631 2.44 0 .407-.203.407-.407.407z" fill="#B4967A"/><path d="M88.159 81.891c-29.343-4.677-39.123 40.26-28.731 61.611 6.928 14.436 35.047 13.42 44.624 6.1 9.17-6.914 9.17-21.757 7.947-32.534-1.63-16.063-6.113-26.23-16.709-32.534-2.241-1.423-4.686-2.236-7.132-2.643z" fill="#E2CDB2"/><path d="M77.359 113.205c-1.019 5.286 1.426 10.37 7.335 10.776 5.706.407 8.966-5.896 7.132-10.776-.611-1.424-2.852-.814-2.241.61 1.426 3.66-.815 7.726-4.89 7.726-4.28 0-5.706-4.27-5.095-7.93.408-1.22-1.834-1.83-2.241-.406z" fill="#625A4D"/><path d="M138.285 98.768c0 2.847-5.502 5.287-12.226 5.287-6.725 0-12.226-2.44-12.226-5.287s5.501-5.287 12.226-5.287c6.724 0 12.226 2.44 12.226 5.287zm-81.099-.407c0 2.847-5.501 5.287-12.226 5.287-6.724 0-12.226-2.44-12.226-5.287 0-2.846 5.502-5.286 12.226-5.286 6.725 0 12.226 2.44 12.226 5.286z" fill="#EAC1C2"/><path d="M96.309 93.278c0 1.22-.407 2.643-1.019 3.66-2.038 4.067-6.52 7.727-11.207 7.727-6.724 0-11.818-7.524-11.818-11.387 0-3.864 3.464-8.947 11.614-4.88 1.223.61 3.26-2.237 8.151-1.423 3.26.61 4.483 3.456 4.279 6.303z" fill="#423C32"/><path d="M95.29 90.839c-.204 1.017-1.834 1.424-3.464.813-1.63-.406-2.649-1.627-2.445-2.644.204-1.017 1.834-1.424 3.464-.813 1.63.61 2.649 1.83 2.445 2.644z" fill="#EFF3EF"/><path d="M62.892 83.924c0 5.287-3.464 9.557-7.744 9.557-4.279 0-7.742-4.27-7.742-9.556 0-5.287 3.464-9.557 7.742-9.557 4.28 0 7.744 4.27 7.744 9.556z" fill="#625A4D"/><path d="M63.095 83.52c0 1.83-1.426 3.254-3.26 3.254-1.834 0-3.26-1.424-3.26-3.254s1.426-3.254 3.26-3.254c1.834-.203 3.26 1.424 3.26 3.254zm-6.724-4.272c0 .813-.611 1.627-1.63 1.627s-1.63-.61-1.63-1.627.611-1.627 1.63-1.627 1.63.61 1.63 1.627z" fill="#fff"/><path d="M120.761 83.924c0 5.287-3.464 9.557-7.743 9.557s-7.743-4.27-7.743-9.556c0-5.287 3.464-9.557 7.743-9.557s7.743 4.27 7.743 9.556z" fill="#625A4D"/><path d="M120.965 83.52c0 1.83-1.427 3.254-3.261 3.254s-3.26-1.424-3.26-3.254 1.426-3.254 3.26-3.254c1.834-.203 3.261 1.424 3.261 3.254zm-6.725-4.272c0 .813-.611 1.627-1.63 1.627s-1.63-.61-1.63-1.627.611-1.627 1.63-1.627 1.63.61 1.63 1.627z" fill="#fff"/><path d="M115.667 22.316l-2.242-1.22c-4.686 11.793-8.965 8.54-8.965 8.54-4.687-1.424-1.223-12.607-1.223-12.607l-3.668-.814c-1.426 15.86-8.761 11.794-8.761 11.794-4.89-2.847-5.706-18.91-5.91-22.774h-2.852c-.204 3.864-1.02 19.927-5.91 22.774 0 0-7.335 4.27-8.761-11.794l-3.668.814s3.464 11.183-1.223 12.607c0 0-4.279 3.05-8.965-8.54l-2.242 1.22s4.687 10.98 3.872 27.45l27.304.203h1.63l27.305-.203c-.204-16.47 4.279-27.45 4.279-27.45z" fill="#F8BF90"/><path d="M111.795 46.308c-9.373 2.846-18.95 4.066-28.323 2.236-14.06-2.846-26.082-11.996-31.584-25.62-.203-.203 0-.407 0-.61l-.203.203s4.686 10.98 3.871 27.45l27.305.204h1.63l27.304-.203v-3.66z" fill="#F6AF80"/><path d="M56.779 21.704c0 2.237-1.834 3.863-3.872 3.863-2.241 0-3.871-1.83-3.871-3.863 0-2.237 1.834-3.863 3.871-3.863 2.038 0 3.872 1.626 3.872 3.863z" fill="#FBCC96"/><path d="M55.149 19.876c0 .61-.408 1.017-1.02 1.017-.61 0-1.018-.407-1.018-1.017 0-.61.408-1.018 1.019-1.018.407 0 1.019.407 1.019 1.018z" fill="#FDEEEC"/><path d="M69.208 16.417c0 2.237-1.834 3.864-3.871 3.864-2.038 0-3.872-1.83-3.872-3.864 0-2.236 1.834-3.863 3.872-3.863 2.037 0 3.871 1.83 3.871 3.863z" fill="#FBCC96"/><path d="M67.578 14.59c0 .61-.407 1.016-1.019 1.016-.61 0-1.018-.407-1.018-1.017 0-.61.407-1.017 1.019-1.017.407.203 1.018.61 1.018 1.017z" fill="#FDEEEC"/><path d="M105.682 16.62c0 2.237-1.834 3.864-3.871 3.864-2.242 0-3.872-1.83-3.872-3.863 0-2.237 1.834-3.864 3.872-3.864 2.241 0 3.871 1.83 3.871 3.864z" fill="#FBCC96"/><path d="M104.052 14.793c0 .61-.407 1.017-1.019 1.017-.611 0-1.018-.407-1.018-1.017 0-.61.407-1.018 1.018-1.018.612.204 1.019.61 1.019 1.018z" fill="#FDEEEC"/><path d="M118.723 21.704c0 2.237-1.834 3.863-3.871 3.863-2.038 0-3.872-1.83-3.872-3.863 0-2.237 1.834-3.863 3.872-3.863 2.037 0 3.871 1.626 3.871 3.863z" fill="#FBCC96"/><path d="M117.093 19.876c0 .61-.407 1.017-1.019 1.017-.611 0-1.019-.407-1.019-1.017 0-.61.408-1.018 1.019-1.018.612 0 1.019.407 1.019 1.018z" fill="#FDEEEC"/><path d="M87.547 4.828c0 2.236-1.834 3.863-3.871 3.863-2.242 0-3.872-1.83-3.872-3.863 0-2.034 1.834-3.864 3.872-3.864 2.037-.203 3.871 1.627 3.871 3.864z" fill="#FBCC96"/><path d="M85.713 3c0 .61-.407 1.017-1.018 1.017-.612 0-1.02-.407-1.02-1.018 0-.61.408-1.017 1.02-1.017.61 0 1.018.407 1.018 1.017z" fill="#FDEEEC"/><path d="M111.388 33.294s-1.019 3.253-1.223 13.014c0 0-1.834 3.253-2.241-.61-.408-4.067-.815-8.134 2.445-13.624 3.056-5.693 1.019 1.22 1.019 1.22z" fill="#FCDCBC"/></svg>