<svg width="1920" height="1472" fill="none" xmlns="http://www.w3.org/2000/svg"><g opacity=".8" clip-path="url(#clip0)"><path fill="#fff" d="M0 0h1920v1472H0z"/><g filter="url(#filter0_d)"><path d="M619.309 913.698C484.783 718.712 451.575 386.421 451.575 386.421L630.729 90.989 2054.24 324.638s-73.91 383.442-51.75 453.4c22.16 69.959-427.71 578.432-763.02 532.202-335.316-46.23-485.634-201.56-620.161-396.542z" fill="url(#paint0_linear)"/></g><g filter="url(#filter1_d)"><path d="M480.778 941.5c-61.501 153.5-349 340-515 284.5s0-1325 0-1325H1928.78s-133.5 816-705.5 674.5C651.277 434 542.278 788 480.778 941.5z" fill="url(#paint1_linear)"/></g><g filter="url(#filter2_d)"><path d="M244.278 285c-203 41.5-244.5 171-244.5 171V-2H1918.28s50.5 767 38.5 774.5-72.5 40-138.5 55.5-112 45.5-350.5 15-233.5-38-453.5-138C794.278 605 692.278 462 631.278 399s-184-155.5-387-114z" fill="url(#paint2_linear)"/></g><g filter="url(#filter3_d)"><path d="M1089.78 382C694.778 352.5 560.778-.5 560.778-.5H1918.28s529 349 0 213.5-433.5 198.5-828.5 169z" fill="url(#paint3_linear)"/></g></g><defs><linearGradient id="paint0_linear" x1="492.278" y1="1424.5" x2="1866.78" y2="626.5" gradientUnits="userSpaceOnUse"><stop offset=".052" stop-color="#FE5C6B"/><stop offset=".25" stop-color="#FEA977"/><stop offset=".448" stop-color="#FEE080"/><stop offset=".797" stop-color="#76CEFE"/></linearGradient><linearGradient id="paint1_linear" x1="49.778" y1="868.5" x2="1365.78" y2="373.5" gradientUnits="userSpaceOnUse"><stop offset=".17" stop-color="#FBA37A"/><stop offset=".589" stop-color="#FE5C6B"/></linearGradient><linearGradient id="paint2_linear" x1="65.778" y1="91.5" x2="1904.28" y2="1035.5" gradientUnits="userSpaceOnUse"><stop offset=".13" stop-color="#76CEFE"/><stop offset=".417" stop-color="#FEE080"/><stop offset=".667" stop-color="#FF9767"/><stop offset=".99" stop-color="#FE5C6B"/></linearGradient><linearGradient id="paint3_linear" x1="1014.28" y1="462" x2="1739.78" y2="240.5" gradientUnits="userSpaceOnUse"><stop stop-color="#FE5C6B"/><stop offset=".287" stop-color="#FF9767"/><stop offset="1" stop-color="#FEE080"/></linearGradient><filter id="filter0_d" x="287.778" y="24" width="1823.23" height="1446.17" filterUnits="userSpaceOnUse" color-interpolation-filters="sRGB"><feFlood flood-opacity="0" result="BackgroundImageFix"/><feColorMatrix in="SourceAlpha" values="0 0 0 0 0 0 0 0 0 0 0 0 0 0 0 0 0 0 127 0"/><feOffset dy="15"/><feGaussianBlur stdDeviation="10"/><feColorMatrix values="0 0 0 0 0 0 0 0 0 0 0 0 0 0 0 0 0 0 0.05 0"/><feBlend in2="BackgroundImageFix" result="effect1_dropShadow"/><feBlend in="SourceGraphic" in2="effect1_dropShadow" result="shape"/></filter><filter id="filter1_d" x="-128" y="-104" width="2076.78" height="1375.01" filterUnits="userSpaceOnUse" color-interpolation-filters="sRGB"><feFlood flood-opacity="0" result="BackgroundImageFix"/><feColorMatrix in="SourceAlpha" values="0 0 0 0 0 0 0 0 0 0 0 0 0 0 0 0 0 0 127 0"/><feOffset dy="15"/><feGaussianBlur stdDeviation="10"/><feColorMatrix values="0 0 0 0 0 0 0 0 0 0 0 0 0 0 0 0 0 0 0.05 0"/><feBlend in2="BackgroundImageFix" result="effect1_dropShadow"/><feBlend in="SourceGraphic" in2="effect1_dropShadow" result="shape"/></filter><filter id="filter2_d" x="-20.222" y="-7" width="1998.84" height="898.158" filterUnits="userSpaceOnUse" color-interpolation-filters="sRGB"><feFlood flood-opacity="0" result="BackgroundImageFix"/><feColorMatrix in="SourceAlpha" values="0 0 0 0 0 0 0 0 0 0 0 0 0 0 0 0 0 0 127 0"/><feOffset dy="15"/><feGaussianBlur stdDeviation="10"/><feColorMatrix values="0 0 0 0 0 0 0 0 0 0 0 0 0 0 0 0 0 0 0.05 0"/><feBlend in2="BackgroundImageFix" result="effect1_dropShadow"/><feBlend in="SourceGraphic" in2="effect1_dropShadow" result="shape"/></filter><filter id="filter3_d" x="540.778" y="-5.5" width="1632.61" height="424.355" filterUnits="userSpaceOnUse" color-interpolation-filters="sRGB"><feFlood flood-opacity="0" result="BackgroundImageFix"/><feColorMatrix in="SourceAlpha" values="0 0 0 0 0 0 0 0 0 0 0 0 0 0 0 0 0 0 127 0"/><feOffset dy="15"/><feGaussianBlur stdDeviation="10"/><feColorMatrix values="0 0 0 0 0 0 0 0 0 0 0 0 0 0 0 0 0 0 0.05 0"/><feBlend in2="BackgroundImageFix" result="effect1_dropShadow"/><feBlend in="SourceGraphic" in2="effect1_dropShadow" result="shape"/></filter><clipPath id="clip0"><path fill="#fff" d="M0 0h1920v1472H0z"/></clipPath></defs></svg>