<svg width="1920" height="2209" fill="none" xmlns="http://www.w3.org/2000/svg"><g opacity=".8" clip-path="url(#clip0)"><path fill="#fff" d="M0 0h1920v2209H0z"/><g filter="url(#filter0_d)"><path d="M969.661 1897.34c-133.28-80.36-330.86-265.53-377.063-391.26l623.442-280.71 808.9 133.44 78.66 222.03c-50.28 125.76 64.72-241-137.2 347.87 0 0-240.6 141.03-441.4 137.3-200.8-3.74-422.06-88.31-555.339-168.67z" fill="url(#paint0_linear)"/></g><g filter="url(#filter1_d)"><path d="M938.458 804.095L-104.769 1438.9l-7.289 4.68-32.462 416.28c77.14 38.29 279.391 109.93 471.275 90.2 239.855-24.66 690.465-83.72 898.355-266.24 166.31-146.01 78.05-153.55 13.13-139.07l131.33-152.65 218.66-296.55 155.65-226.153-805.422-65.302z" fill="url(#paint1_linear)"/></g><g filter="url(#filter2_d)"><path d="M303.124 496.307c-174.08 56.598-471.766 232.989-528.179 377.386-56.414 144.397-38.758 20.338 75.434 126.068 114.192 105.729 459.988 281.849 752.235 225.969 292.246-55.87 336.513-254.105 642.926-233.517 306.42 20.587 131.77 221.637 353.53 339.617 221.76 117.97 755.55 71.34 755.55 71.34l68.98-441.093s-160.86-517.573-183.65-666.319c-22.79-148.746-338.8-23.646-518.47 48.075-179.67 71.721-293.17 382.963-519.41 448.12C975.822 857.11 878.525 562.64 733.622 473.834c-144.903-88.806-256.417-34.125-430.498 22.473z" fill="url(#paint2_linear)"/></g><g filter="url(#filter3_d)"><path d="M-14.18 815.967c-266.473 122.761-321.299 82.504-321.299 82.504s-55.984 619.909 162.047 687.179c218.03 67.27 299.704-76.19 543.756-109.67 244.051-33.48 703.616 261.01 918.796 280.31 215.18 19.3 691.91 10.23 859.1-239.83 167.2-250.05 26.52-713.85-169.05-723.145-195.57-9.296-250.32 290.305-391.04 360.735-140.72 70.43-219.55 102.83-404.41 54.44-184.864-48.39-474.127-434.217-661.662-458.694-187.535-24.478-269.764-56.591-536.237 66.171z" fill="url(#paint3_linear)"/></g></g><defs><linearGradient id="paint0_linear" x1="2039.51" y1="2220.8" x2="346.74" y2="1025.91" gradientUnits="userSpaceOnUse"><stop offset=".153" stop-color="#D6EEFD"/><stop offset="1" stop-color="#76CEFE"/></linearGradient><linearGradient id="paint1_linear" x1="1187.5" y1="794.5" x2="-161.613" y2="2216.62" gradientUnits="userSpaceOnUse"><stop offset=".043" stop-color="#FEE080"/><stop offset=".649" stop-color="#F5A886"/><stop offset="1" stop-color="#FE5C6B"/></linearGradient><linearGradient id="paint2_linear" x1="-1540.66" y1="1077.97" x2="2683.3" y2="-277.927" gradientUnits="userSpaceOnUse"><stop offset=".275" stop-color="#76CEFE"/><stop offset=".427" stop-color="#D6EEFD"/><stop offset=".566" stop-color="#FEE080"/><stop offset=".729" stop-color="#F5A886"/><stop offset=".99" stop-color="#FE5C6B"/></linearGradient><linearGradient id="paint3_linear" x1="-584.805" y1="1544.09" x2="2698.33" y2="1379.84" gradientUnits="userSpaceOnUse"><stop offset=".069" stop-color="#FE5C6B"/><stop offset=".32" stop-color="#F5A886"/><stop offset=".459" stop-color="#FEE080"/><stop offset=".808" stop-color="#76CEFE"/><stop offset="1" stop-color="#76CEFE"/></linearGradient><filter id="filter0_d" x="572.598" y="1220.37" width="1551" height="880.707" filterUnits="userSpaceOnUse" color-interpolation-filters="sRGB"><feFlood flood-opacity="0" result="BackgroundImageFix"/><feColorMatrix in="SourceAlpha" values="0 0 0 0 0 0 0 0 0 0 0 0 0 0 0 0 0 0 127 0"/><feOffset dy="15"/><feGaussianBlur stdDeviation="10"/><feColorMatrix values="0 0 0 0 0 0 0 0 0 0 0 0 0 0 0 0 0 0 0.05 0"/><feBlend in2="BackgroundImageFix" result="effect1_dropShadow"/><feBlend in="SourceGraphic" in2="effect1_dropShadow" result="shape"/></filter><filter id="filter1_d" x="-176.817" y="695.768" width="1940.7" height="1425.45" filterUnits="userSpaceOnUse" color-interpolation-filters="sRGB"><feFlood flood-opacity="0" result="BackgroundImageFix"/><feColorMatrix in="SourceAlpha" values="0 0 0 0 0 0 0 0 0 0 0 0 0 0 0 0 0 0 127 0"/><feOffset dy="15"/><feGaussianBlur stdDeviation="10"/><feColorMatrix values="0 0 0 0 0 0 0 0 0 0 0 0 0 0 0 0 0 0 0.05 0"/><feBlend in2="BackgroundImageFix" result="effect1_dropShadow"/><feBlend in="SourceGraphic" in2="effect1_dropShadow" result="shape"/></filter><filter id="filter2_d" x="-299.669" y="2.986" width="2809.67" height="1480.49" filterUnits="userSpaceOnUse" color-interpolation-filters="sRGB"><feFlood flood-opacity="0" result="BackgroundImageFix"/><feColorMatrix in="SourceAlpha" values="0 0 0 0 0 0 0 0 0 0 0 0 0 0 0 0 0 0 127 0"/><feOffset dy="15"/><feGaussianBlur stdDeviation="10"/><feColorMatrix values="0 0 0 0 0 0 0 0 0 0 0 0 0 0 0 0 0 0 0.05 0"/><feBlend in2="BackgroundImageFix" result="effect1_dropShadow"/><feBlend in="SourceGraphic" in2="effect1_dropShadow" result="shape"/></filter><filter id="filter3_d" x="-361.924" y="721.893" width="2604.42" height="1075.88" filterUnits="userSpaceOnUse" color-interpolation-filters="sRGB"><feFlood flood-opacity="0" result="BackgroundImageFix"/><feColorMatrix in="SourceAlpha" values="0 0 0 0 0 0 0 0 0 0 0 0 0 0 0 0 0 0 127 0"/><feOffset dy="15"/><feGaussianBlur stdDeviation="10"/><feColorMatrix values="0 0 0 0 0 0 0 0 0 0 0 0 0 0 0 0 0 0 0.05 0"/><feBlend in2="BackgroundImageFix" result="effect1_dropShadow"/><feBlend in="SourceGraphic" in2="effect1_dropShadow" result="shape"/></filter><clipPath id="clip0"><path fill="#fff" d="M0 0h1920v2209H0z"/></clipPath></defs></svg>