<svg width="1920" height="1300" fill="none" xmlns="http://www.w3.org/2000/svg"><g opacity=".8" clip-path="url(#clip0)"><path fill="#fff" d="M0 0h1920v1300H0z"/><g filter="url(#filter0_d)"><path d="M387.5 325.518c-199.5-172-659.5-377.5-515.5-40C16 623.019-250 431.519-250 431.519L173.5 1651.52l2065-159.5s72-423.5 28-721.002c-44-297.5-273.5-213.999-387.5-89.999s-29.5 285.499-345.5 371.501c-316 86-539-144.002-810.5-325.502s-136-229.5-335.5-401.5z" fill="url(#paint0_linear)"/></g><g filter="url(#filter1_d)"><path d="M255.5 813.02C193 843.52-14 975.853-61 1010.52l59.5 325c111.833-142.83 383.1-437 573.5-471 238-42.5 308 37 522.5 105 171.6 54.4 822.17-7.667 1126-45.501-52.17-308-172.5-923-236.5-919-80 5-109 185.5-189 323.5S1535.5 593.52 1370 612.52s-336.5-37-518-7-534 177-596.5 207.5z" fill="url(#paint1_linear)"/></g><g filter="url(#filter2_d)"><path d="M245.5 597.519c-142.4-71.6-381.667-29.833-483.5 0l74 802.501c300.333 30 905 90.4 921 92 16 1.6 283.33-124.33 415-187.5-154.33-34.67-477-140.4-533-286-70-182-215.5-331.501-393.5-421.001z" fill="url(#paint2_linear)"/></g><g filter="url(#filter3_d)"><path d="M1609.5 719.02c197.5-180 321.5-213.5 599-299.5l-145.5 998.5s-1527.5 84-1723.5 0 449-386 581-431.5 491.5-87.5 689-267.5z" fill="url(#paint3_linear)"/></g></g><defs><linearGradient id="paint0_linear" x1="-102" y1="-41.98" x2="890.5" y2="1366.02" gradientUnits="userSpaceOnUse"><stop stop-color="#FE5C6B"/><stop offset=".354" stop-color="#FEE080"/><stop offset="1" stop-color="#76CEFE"/></linearGradient><linearGradient id="paint1_linear" x1="141.5" y1="964.52" x2="2262.5" y2="-77.981" gradientUnits="userSpaceOnUse"><stop offset=".154" stop-color="#FE5C6B"/><stop offset=".529" stop-color="#FEE080"/><stop offset=".769" stop-color="#CDE8F9"/><stop offset=".919" stop-color="#76CEFE"/><stop offset=".954" stop-color="#76CEFE"/></linearGradient><linearGradient id="paint2_linear" x1="679" y1="1248.52" x2="-32" y2="519.52" gradientUnits="userSpaceOnUse"><stop offset=".116" stop-color="#FEE080"/><stop offset=".351" stop-color="#FF9767"/><stop offset=".862" stop-color="#FE5C6B"/></linearGradient><linearGradient id="paint3_linear" x1="469" y1="581.52" x2="1931" y2="1544.02" gradientUnits="userSpaceOnUse"><stop offset=".12" stop-color="#FE5C6B"/><stop offset=".409" stop-color="#FEC376"/><stop offset=".564" stop-color="#FEE080"/><stop offset=".708" stop-color="#E1E5C7"/><stop offset=".825" stop-color="#CDE8F9"/><stop offset="1" stop-color="#76CEFE"/></linearGradient><filter id="filter0_d" x="-270" y="99.21" width="2570.74" height="1587.31" filterUnits="userSpaceOnUse" color-interpolation-filters="sRGB"><feFlood flood-opacity="0" result="BackgroundImageFix"/><feColorMatrix in="SourceAlpha" values="0 0 0 0 0 0 0 0 0 0 0 0 0 0 0 0 0 0 127 0"/><feOffset dy="15"/><feGaussianBlur stdDeviation="10"/><feColorMatrix values="0 0 0 0 0 0 0 0 0 0 0 0 0 0 0 0 0 0 0.05 0"/><feBlend in2="BackgroundImageFix" result="effect1_dropShadow"/><feBlend in="SourceGraphic" in2="effect1_dropShadow" result="shape"/></filter><filter id="filter1_d" x="-81" y="0" width="2321.5" height="1370.52" filterUnits="userSpaceOnUse" color-interpolation-filters="sRGB"><feFlood flood-opacity="0" result="BackgroundImageFix"/><feColorMatrix in="SourceAlpha" values="0 0 0 0 0 0 0 0 0 0 0 0 0 0 0 0 0 0 127 0"/><feOffset dy="15"/><feGaussianBlur stdDeviation="10"/><feColorMatrix values="0 0 0 0 0 0 0 0 0 0 0 0 0 0 0 0 0 0 0.05 0"/><feBlend in2="BackgroundImageFix" result="effect1_dropShadow"/><feBlend in="SourceGraphic" in2="effect1_dropShadow" result="shape"/></filter><filter id="filter2_d" x="-258" y="552.985" width="1450" height="974.049" filterUnits="userSpaceOnUse" color-interpolation-filters="sRGB"><feFlood flood-opacity="0" result="BackgroundImageFix"/><feColorMatrix in="SourceAlpha" values="0 0 0 0 0 0 0 0 0 0 0 0 0 0 0 0 0 0 127 0"/><feOffset dy="15"/><feGaussianBlur stdDeviation="10"/><feColorMatrix values="0 0 0 0 0 0 0 0 0 0 0 0 0 0 0 0 0 0 0.05 0"/><feBlend in2="BackgroundImageFix" result="effect1_dropShadow"/><feBlend in="SourceGraphic" in2="effect1_dropShadow" result="shape"/></filter><filter id="filter3_d" x="282.724" y="414.52" width="1945.78" height="1075.83" filterUnits="userSpaceOnUse" color-interpolation-filters="sRGB"><feFlood flood-opacity="0" result="BackgroundImageFix"/><feColorMatrix in="SourceAlpha" values="0 0 0 0 0 0 0 0 0 0 0 0 0 0 0 0 0 0 127 0"/><feOffset dy="15"/><feGaussianBlur stdDeviation="10"/><feColorMatrix values="0 0 0 0 0 0 0 0 0 0 0 0 0 0 0 0 0 0 0.05 0"/><feBlend in2="BackgroundImageFix" result="effect1_dropShadow"/><feBlend in="SourceGraphic" in2="effect1_dropShadow" result="shape"/></filter><clipPath id="clip0"><path fill="#fff" d="M0 0h1920v1300H0z"/></clipPath></defs></svg>