<svg width="40" height="41" fill="none" xmlns="http://www.w3.org/2000/svg"><path d="M20 40.82c11.046 0 20-8.935 20-19.957C40 9.84 31.046.905 20 .905S0 9.84 0 20.863C0 31.885 8.954 40.82 20 40.82z" fill="#76CEFE"/><path d="M31.27 28.203c-1.275 3.122-4.264 3.67-5.24 3.67-.287 0-4.753.241-11.172-5.981C9.692 20.884 9.06 15.5 9.005 14.477c-.053-.997.226-3.497 3.592-5.354.417-.23 1.244-.332 1.457-.114.095.097 2.92 4.846 2.994 5.004.074.157.111.312.111.463 0 .217-.151.488-.454.814a7.784 7.784 0 01-.987.895 9.665 9.665 0 00-.988.862c-.302.304-.453.554-.453.749.02.506.427 2.32 3.521 5.1 3.095 2.779 4.586 3.562 4.73 3.616.143.054.262.081.358.081.191 0 .435-.154.733-.463.297-.31 1.296-1.71 1.614-2.018.319-.31.584-.464.797-.464.148 0 .3.038.453.114.154.076 4.809 2.859 4.898 2.952.241.253.07 1.042-.112 1.489z" fill="#fff"/></svg>