<svg width="349" height="345" fill="none" xmlns="http://www.w3.org/2000/svg"><path d="M72.547 251.37c9.647-.473 15.086-3.812 19.118-12.519-11.977-6.804-19.914-19.275-20.57-33.546-.28-5.975.833-11.904 3.05-17.366-15.673-9.345-25.88-25.922-26.68-44.701-1.33-30.285 22.346-56.06 52.679-57.432 3.439-.171 6.852-.028 10.201.521 8.647-25.41 31.872-43.241 59.567-44.537 23.678-1.042 45.619 10.413 58.156 29.93 5.954-2.254 12.316-3.683 18.616-3.945 32.21-1.445 59.649 23.619 61.05 55.777a58.958 58.958 0 01-7.762 31.751c7.08 6.576 11.411 15.786 11.846 25.732.896 20.338-14.743 37.691-34.955 39.008-.35 1.587-.74 3.267-1.338 5.183-5.63 19.854-23.103 33.61-46.736 36.842a100.776 100.776 0 01-15.527 1.021c-9.78-.234-19.907-2.459-28.7-6.289-7.532 5.707-16.738 8.969-26.569 9.364a47.538 47.538 0 01-23.511-4.961c-.171.145-.288.421-.458.566-8.258 9.196-16.441 12.35-27.802 14.809-2.125.402-4.343.765-6.666.866-12.509.564-25.754-4.283-32.476-9.406-3.105-2.398-4.428-6.43-3.27-10.17 1.473-3.715 4.852-6.299 8.737-6.498zm33.257-26.602c2.417.698 4.443 2.315 5.604 4.433 1.253 2.157 1.457 4.739.755 7.153-2.107 7.244-5.391 15.725-11.831 22.436.708-.134 1.377-.176 2.086-.31 8.449-1.739 12.737-3.395 17.723-8.987 1.047-1.184 2.105-2.905 3.058-4.888 1.227-2.627 3.571-4.563 6.352-5.23.578-.081 1.063-.201 1.733-.243 2.323-.102 4.517.61 6.359 2.149 5.381 4.447 12.332 6.738 19.616 6.458 7.508-.293 14.352-3.363 19.405-8.6 2.945-3.093 7.656-3.702 11.416-1.568 1.907 1.132 3.155 1.769 3.484 2.017 6.73 3.065 14.545 4.854 22.12 4.914 3.767.076 8.007-.191 12.534-.878 7.729-1.068 26.226-5.497 31.217-23.343.364-1.364 1.518-6.625 1.866-8.973-.108-1.022-.124-2.004.123-3.093 1.036-4.985 5.989-8.204 10.98-7.176 1.59.347 3.165.471 4.596.426 10.408-.476 18.51-9.305 18.009-19.604-.281-6.736-4.289-12.88-10.349-15.987-2.498-1.274-4.303-3.665-4.875-6.402-.572-2.737.142-5.689 1.935-7.859 6.385-7.602 9.64-17.289 9.206-27.235-.954-21.99-19.654-39.016-41.586-37.994-6.524.276-12.99 2.204-18.652 5.557-2.293 1.307-5.049 1.66-7.558.923-2.51-.737-4.642-2.615-5.685-5.01-8.069-17.516-25.754-28.255-45.009-27.402-22.156 1.037-40.438 16.946-44.474 38.668-.465 2.623-2.112 4.963-4.445 6.362a9.303 9.303 0 01-7.743.845c-4.296-1.384-8.683-2.047-13.106-1.859-20.055.949-35.761 17.949-34.84 37.972.606 14.9 10.132 27.718 24.323 32.64 2.838.984 4.997 3.308 5.845 6.162a9.41 9.41 0 01-1.723 8.382 21.794 21.794 0 00-4.869 14.753c.683 9.617 7.19 17.795 16.4 20.391z" fill="#FEE080"/><path d="M103.308 233.691c-12.717-3.538-22.423-14.913-23.013-28.83-.31-7.942 2.282-15.306 6.9-21.053-17.082-6.036-29.662-21.882-30.528-41.015-1.107-25.2 18.499-46.515 43.739-47.656a44.894 44.894 0 0116.494 2.317c4.617-25.381 26.287-45.171 53.181-46.372 23.679-1.042 44.588 12.58 53.899 32.792a48.94 48.94 0 0123.006-6.86c27.117-1.214 50.094 19.792 51.272 46.866.56 12.711-3.779 24.434-11.329 33.496 8.742 4.459 14.975 13.28 15.451 23.895.686 15.476-11.355 28.712-26.948 29.38-2.323.102-4.713-.15-6.933-.547.776.219-1.962 11.752-2.184 12.526-5.122 17.899-21.137 27.717-38.996 30.138-4.619.649-9.435.996-13.965.924-8.834-.16-17.963-2.18-25.942-5.882-.368-.156-2.182-1.249-4.089-2.381-6.401 6.619-15.499 10.904-25.684 11.366a38.02 38.02 0 01-25.923-8.477c-1.227 2.626-2.769 5.228-4.614 7.267-6.661 7.486-13.061 9.767-22.743 11.852-12.162 2.554-26.196-2.735-31.51-6.828 19.307-.723 26.245-12.43 30.459-26.918z" fill="#FF9767"/><path d="M131.512 241.4c-.447.028-.801.095-1.247.123-2.165.494-3.867 1.943-4.82 3.926-1.031 2.167-2.207 4.164-3.424 5.493-5.366 5.973-10.179 7.842-18.982 9.648-2.65.614-5.695.627-8.715.325 8.922-6.421 13.016-16.294 15.683-25.362.559-1.825.265-3.685-.553-5.333-.95-1.595-2.463-2.886-4.236-3.311a24.365 24.365 0 01-17.915-22.443c-.226-5.845 1.61-11.685 5.312-16.301 1.413-1.789 1.852-4.097 1.269-6.297-.584-2.199-2.255-3.883-4.41-4.687-15.02-5.271-25.178-18.899-25.799-34.782-.911-21.322 15.71-39.453 37.065-40.394 4.778-.256 9.479.432 13.96 1.894 1.918.595 4.057.416 5.787-.588 1.73-1.003 2.92-2.777 3.334-4.771 4.191-22.85 23.363-39.577 46.595-40.591 20.24-.871 38.806 10.349 47.245 28.781.871 1.78 2.345 3.162 4.263 3.757 1.918.595 3.965.377 5.603-.665 5.964-3.551 12.784-5.546 19.662-5.89 23.232-1.014 43.024 17.017 44.007 40.212.422 10.484-2.976 20.761-9.74 28.745a7.104 7.104 0 00-1.52 5.866c.439 2.029 1.809 3.911 3.702 4.821 6.796 3.418 11.252 10.294 11.587 17.921.492 11.598-8.526 21.557-20.273 22.118-1.654.059-3.452-.051-5.226-.477a7.033 7.033 0 00-8.268 5.396c-.168.905-.205 1.757-.111 2.556-.309 2.256-1.566 8.015-2.009 9.564-5.486 19.264-25.085 23.986-33.168 25.12-4.711.61-9.082.93-12.941.815-7.851-.177-16.074-2.03-23.079-5.212-.368-.156-1.578-.884-3.668-2.095-2.787-1.613-6.344-1.166-8.53 1.163-5.432 5.62-12.931 8.954-20.977 9.237-7.863.36-15.365-2.164-21.167-6.898-.908-.926-2.643-1.443-4.296-1.384z" stroke="#F5F5F5" stroke-width="6" stroke-miterlimit="10" stroke-linecap="round" stroke-linejoin="round" stroke-dasharray="1 1"/><path d="M152.924 102.001c3.079-11.824 14.847-5.541 17.095.401 2.34-8.557 11.632-9.723 15.689-4.968 1.753 2.26 2.272 4.867 2.03 7.477.552.234 1.065.559 1.499 1.069 1.093 1.005 1.845 2.299 2.282 3.569 1.178-1.237 2.66-1.912 4.314-1.971 2.454-.154 4.69 1.226 5.589 3.451.715 2.147.446 4.311-.993 6.414-2.706 4.062-8.909 6.644-12.125 6.802-.67.042-1.077-.022-1.445-.178-2.103-.673-4.186-3.941-5.547-7.121-4.11 4.552-9.117 7.641-11.323 7.466-5.607-.095-19.273-13.907-17.065-22.411zm34.614 20.726c.092.039.368.156.946.075 2.861-.091 8.618-2.644 10.998-6.194 1.15-1.682 1.447-3.401.891-5.155-.687-1.702-2.449-2.664-4.327-2.591-1.654.059-3.122.957-4.233 2.547-.21.237-.472.343-.748.226-.276-.116-.513-.325-.488-.64-.082-1.337-.862-3.077-2.138-4.16-2.001-1.932-4.442-1.554-6.115 1.101-1.02 1.629-.986 4.356.152 7.55 1.205 3.547 3.42 6.763 5.062 7.241z" fill="#F5F5F5"/></svg>