<svg width="259" height="227" fill="none" xmlns="http://www.w3.org/2000/svg"><path d="M134.325 89.589l-2.422-1.593-3.529 5.365-1.203-.791 3.529-5.365-2.439-1.604-7.104 3.014-1.437-.945 7.978-3.397.019-8.105 1.336.88-.094 7.456 2.456 1.614 3.452-5.247 1.203.79-3.452 5.248 2.422 1.593 6.827-3.028 1.336.879-7.436 3.226.041 8.67-1.437-.944-.046-7.716zm29.967 10.632l-7.696 11.699-1.187-.78 6.158-9.36-9.773 4.851-.585-.384.552-10.843-6.125 9.309-1.186-.78 7.697-11.7 1.019.67-.628 12.015 10.735-5.368 1.019.671zm20.029 13.171l-7.697 11.699-1.186-.78 1.298-1.972c-1.678.876-3.441.706-5.29-.51-1.392-.915-2.208-2.051-2.449-3.406-.241-1.356.147-2.808 1.166-4.357l4.585-6.969 1.236.813-4.563 6.936c-.813 1.236-1.128 2.37-.944 3.401.194 1.038.837 1.915 1.929 2.633 1.147.755 2.258 1.006 3.332.755 1.094-.255 2.084-1.056 2.97-2.404l4.376-6.652 1.237.813z" fill="#FF9867"/><path d="M208.5 147.504c6.435 1.661 12.74 2.959 19.328 3.505M174 133.531c5.808 3.229 12.269 6.92 18.802 8.712M142 113.715c5.5 4.286 10.999 8.284 16.905 11.986M53.557 79.83c-7.168-1.688-14.227-2.09-22.614-.37M92 86.775c-8-2.497-14-3.995-22-4.701m57.902 21.948c-6.401-4.053-12.401-7.55-19.401-11.017" stroke="#FEE080" stroke-width="10" stroke-linecap="round" stroke-linejoin="round"/></svg>