<svg width="179" height="149" fill="none" xmlns="http://www.w3.org/2000/svg"><path d="M169.769 86.368c0 32.164-20.895 58.018-81.349 58.018-65.322 0-81.348-26.057-81.348-58.018 0-31.961 36.313-58.018 81.348-58.018 45.036-.204 81.349 25.853 81.349 58.018z" fill="#E17B6F"/><path d="M156.583 58.886c1.623 3.867 5.883 7.532 8.926 10.382 1.42-.204 3.854.61 5.883.407 1.623-.204 3.043-.814 3.854 1.221 1.42 3.665-5.071 6.311-2.637 9.161 1.42 1.832 3.652.407 4.869 1.629 1.623 1.425-.609 3.664-1.217 4.885-1.015 1.425-3.246 3.258-3.652 4.683-.811 2.85 1.826 2.442 2.637 3.867 1.217 1.833-1.014 4.275-2.231 5.7-3.246 4.479-8.926 9.772-14.201 10.993M21.476 56.646c-1.623 3.868-5.884 7.532-8.926 10.382-1.42-.203-3.855.611-5.884.408-1.622-.204-3.043-.815-3.854 1.221-1.42 3.664 5.072 6.31 2.637 9.16-1.42 1.833-3.651.408-4.868 1.63-1.623 1.424.608 3.664 1.217 4.885 1.014 1.425 3.245 3.257 3.651 4.682.812 2.85-1.826 2.443-2.637 3.868-1.217 1.832 1.014 4.275 2.232 5.7 3.245 4.479 8.925 9.772 14.2 10.993" fill="#E5987C"/><path d="M60.83 33.642c4.464-6.514 8.724-13.639 16.433-16.692 1.623-.611 3.651-1.425 4.463.203.609 1.832-1.217 3.054-1.217 4.682 2.84 1.222 5.477-1.018 7.911-2.239 1.218-.61 10.346-4.479 9.738-.814-.203.814-2.029 3.46-1.42 4.275 2.028 2.646 5.883-1.018 8.317 0 3.449 1.221.609 3.257 0 5.496-.811 3.257 2.84 3.257 5.072 4.071" fill="#E17B6F"/><path d="M165.306 86.368c0 30.332-21.504 62.293-78.509 62.293-20.286 0-41.18-6.107-57.41-19.747-6.289-5.292-10.955-12.01-13.795-19.543-.405-1.221-.811-2.239-1.217-3.46-2.028-6.718-4.463-13.029-4.26-20.154.203-6.718 2.029-13.232 5.072-19.136 6.086-12.01 16.634-21.782 28.4-28.093 11.97-6.31 28.401-10.382 44.022-10.382 14.2 0 30.227 2.443 41.79 7.736 23.126 10.382 35.907 30.128 35.907 50.486z" fill="#E5987C"/><path d="M159.22 88.607l-3.043-1.222c-.608-.203-2.029-.61-2.434-1.221-.406-.814.405-2.24.811-3.054 1.217-1.425 4.666-5.293 2.232-6.921-2.638-1.629-6.898.814-9.129-1.629-1.42-1.425.811-2.239 1.42-3.664.203-.61.608-2.036 0-2.443-.406-.203-2.029 0-2.637 0-8.926-1.018-15.215-8.143-28.198-6.718-11.158 1.222-24.547 6.311-28.604 18.525-.812 2.443-1.826 5.09-2.232 7.736l-.608-2.443c-1.218-3.46-2.638-6.921-4.666-9.975-2.637-4.071-6.289-7.736-10.955-9.975-1.826-1.018-3.854-1.628-5.68-2.036-12.578-2.85-24.14 4.072-36.921 5.497-.609 0-2.232-.407-2.637 0-.609.407-.203 1.832 0 2.443.608 1.221 2.84 2.035 1.42 3.664-2.232 2.24-6.492 0-9.13 1.629-2.636 1.628.812 5.496 2.03 6.921.608.61 1.42 2.24.81 3.054-.405.61-1.825 1.018-2.433 1.221l-3.043 1.222c-1.42.61-2.03.814-1.42 2.442.81 1.833 2.434 2.443 4.26 3.054 1.014.407 3.245.814 3.448 2.036.203 1.628-3.043 1.832-4.057 1.832-4.869-.204 0 3.054.811 3.868 1.015.814 2.638.814 2.03 2.443-.407 1.425-3.247.814-3.855 2.035-1.42 2.85 3.651 4.683 4.666 6.515 1.014 1.832-1.826 3.257-2.638 4.478-2.028 2.647 2.232 3.461 4.463 3.868 2.029.611 4.463.611 6.492 1.222 1.217.407 3.246 1.628 1.826 2.85-.812.814-2.637.407-3.652.61.203 2.24 2.638 3.461 5.275 4.072-.406 2.036 6.288 6.718 7.911 7.532 4.463 2.443 9.535 4.479 14.404 6.107C65.7 147.44 76.249 148.865 87 148.865c11.563 0 23.329-1.222 34.486-4.479 4.463-1.425 8.926-3.054 12.984-5.089 1.014-.611 4.26-2.036 4.26-3.461-.203-1.222-2.637-1.629-3.246-2.647-.406-.814-.203-1.832.406-2.646 4.463.204 11.157-.814 11.563-4.682-1.014-.204-2.84.203-3.652-.611-1.42-1.221.406-2.443 1.826-2.85 2.029-.611 4.463-.611 6.492-1.221 2.231-.611 6.289-1.222 4.463-3.868-.812-1.222-3.855-2.647-2.637-4.479 1.217-1.832 6.086-3.664 4.665-6.514-.608-1.222-3.448-.407-3.854-2.036-.609-1.629 1.014-1.629 2.029-2.443 1.014-.814 5.68-4.071.811-3.868-1.014 0-4.463-.203-4.057-1.832.203-1.221 2.434-1.629 3.449-2.036 1.825-.61 3.448-1.221 4.26-3.053 0-1.629-.812-2.036-2.029-2.443z" fill="#FBFBF9"/><path d="M73.815 35.477h-.406c-.406-.203-.406-.61-.203-.814 1.217-2.037 3.043-4.073 4.057-4.887.203-.204.609-.204 1.015 0 .202.203.202.61 0 1.018-.812.814-2.638 2.647-3.855 4.683h-.608zm12.171 1.015h-.405c-.406-.203-.406-.61-.203-.814 1.42-2.85 3.854-4.886 7.1-6.514.406-.204.811 0 .811.407.203.407 0 .814-.405.814-3.043 1.425-5.072 3.257-6.492 5.904 0 0-.203.203-.406.203zm14.607 16.084h-.406c-.406-.204-.406-.611-.406-.815 1.014-2.036 2.232-3.868 3.449-5.7.203-.204.608-.408.811-.204.203.203.406.61.203.814-1.217 1.833-2.434 3.665-3.246 5.497-.203.407-.203.408-.405.408zM96.94 36.697c-.202 0-.405 0-.405-.203-.203-.204-.203-.611 0-1.018a51.91 51.91 0 015.275-4.073c.202-.204.608-.204 1.014.204.203.203.203.61-.203 1.018-1.826 1.222-3.651 2.443-5.072 3.869-.405.203-.405.203-.608.203zm-9.534 15.674c-.406 0-.609-.204-.609-.61-.202-2.85.406-5.294 1.826-8.144.203-.407.609-.407.812-.203.406.203.406.61.203.814-1.42 2.443-1.826 4.682-1.623 7.329 0 .407-.203.61-.609.814zm-8.723-6.106c-.406 0-.609-.204-.609-.611 0-1.629.406-3.258.812-4.887 0-.407.203-.61.203-1.018 0-.407.406-.61.811-.407.406 0 .609.407.406.815 0 .407-.203.61-.203 1.018-.406 1.425-.811 3.054-.811 4.479.203.407-.203.61-.609.61zm2.232 11.603c-.406 0-.609-.203-.609-.61a160.007 160.007 0 01-.608-4.887c0-.407.202-.61.608-.814.406 0 .609.203.812.61.202 1.833.405 3.258.608 4.887 0 .407-.406.61-.811.814zm5.071 10.79c-.406 0-.609-.203-.609-.61 0-.815 0-1.426-.202-2.24 0-.815-.203-1.426-.203-2.24 0-.408.203-.611.608-.611.406 0 .609.203.609.61 0 .815 0 1.426.203 2.24 0 .815.203 1.426.203 2.24 0 .204-.203.611-.609.611zm3.246 4.886c-.406 0-.608-.204-.608-.611 0-.815 0-1.833.202-2.851 0-.407.406-.61.812-.407.405 0 .608.407.405.814-.202.815-.202 1.63-.202 2.444.203.407-.203.61-.609.61zm-12.78-13.03c-.406 0-.609-.204-.609-.611-.203-1.629-.609-3.054-.811-4.682l-.406-1.018c0-.407.203-.61.406-.815.405 0 .608.204.811.408l.203.814c.406 1.629.811 3.257.811 4.886.203.61 0 .814-.405 1.018zm-4.666-8.142c-.406 0-.609-.407-.609-.815.203-.814.203-1.832.203-2.646 0-.815.203-1.833.203-2.647 0-.407.406-.61.811-.61.406 0 .609.406.609.813-.203.815-.203 1.833-.203 2.647 0 .815-.203 1.833-.203 2.647-.203.203-.608.61-.811.61zm21.301 1.833c-.203 0-.203 0 0 0-.406 0-.609-.407-.609-.814.203-1.426.406-3.055.406-4.48 0-.408.203-.612.608-.612.406 0 .609.204.609.611 0 1.63-.203 3.259-.406 4.684 0 .407-.405.611-.608.611zm-1.623 9.975c-.406 0-.609-.204-.609-.612 0-.407 0-1.018.203-1.425 0-.407.203-.815.203-1.222 0-.407.203-.61.608-.61.406 0 .609.203.609.61s0 1.018-.203 1.426c0 .407-.203.814-.203 1.221 0 .204-.203.611-.608.611zm5.68-18.118h-.203c-.406-.204-.406-.611-.406-.815.203-.61.406-1.018.609-1.629l.608-1.833c.203-.407.609-.407.812-.407.406.204.406.611.406.815-.203.61-.406 1.018-.609 1.629l-.609 1.832c0 .408-.405.408-.608.408zm-.812 17.507c-.405 0-.608-.408-.608-.815.203-.814.203-1.629.405-2.443.203-.815.406-1.63.406-2.444 0-.407.406-.61.812-.61.405 0 .608.407.608.814-.203.815-.203 1.629-.406 2.443-.202.815-.405 1.63-.405 2.444-.203.407-.609.61-.812.61zM67.12 45.45c-.406 0-.609-.203-.609-.61 0-1.833.203-3.461.406-5.294v-.61c0-.408.406-.611.811-.611.406 0 .609.407.609.814v.61c-.203 1.63-.406 3.258-.406 5.09-.203.408-.405.612-.811.612z" fill="#E1805C"/><path d="M81.726 113.443c-.811 3.868 1.014 7.736 5.477 7.939 4.26.204 6.695-4.275 5.275-7.939-.406-1.018-2.029-.611-1.623.407 1.014 2.85-.609 5.7-3.652 5.7-3.245 0-4.26-3.257-3.651-5.904.203-.814-1.623-1.221-1.826-.203z" fill="#706A5B"/><path d="M144.208 96.546c0 3.054-5.68 5.497-12.78 5.497-7.101 0-12.781-2.443-12.781-5.497 0-3.053 5.68-5.496 12.781-5.496 7.1-.204 12.78 2.443 12.78 5.496zm-84.797-.61c0 3.053-5.68 5.496-12.78 5.496s-12.78-2.443-12.78-5.496c0-3.054 5.68-5.497 12.78-5.497s12.78 2.443 12.78 5.497z" fill="#F0B798"/><path d="M97.144 98.99c0 1.017-.406 2.035-.812 3.053-1.825 3.257-5.274 6.311-9.129 6.311-5.477 0-9.737-6.311-9.737-9.365 0-3.053 2.84-7.328 9.535-4.071 1.014.61 2.637-1.832 6.694-1.222 2.637.611 3.652 2.85 3.449 5.293z" fill="#423C32"/><path d="M96.332 96.955c-.203.815-1.42 1.018-2.84.815-1.42-.408-2.231-1.426-2.029-2.24.203-.815 1.42-1.019 2.84-.815 1.218.407 2.232 1.426 2.03 2.24z" fill="#F2F5F2"/><path d="M64.888 79.04c0 5.496-3.651 9.974-7.911 9.974-4.463 0-7.912-4.478-7.912-9.975 0-5.496 3.652-9.975 7.912-9.975 4.463 0 7.911 4.479 7.911 9.975z" fill="#625A4D"/><path d="M65.091 78.635c0 1.832-1.623 3.46-3.448 3.46-1.826 0-3.45-1.628-3.45-3.46 0-1.833 1.624-3.462 3.45-3.462 2.028 0 3.448 1.63 3.448 3.462zm-6.897-4.48c0 .814-.812 1.629-1.623 1.629-.811 0-1.623-.815-1.623-1.63 0-.814.812-1.628 1.623-1.628.812 0 1.623.814 1.623 1.629z" fill="#fff"/><path d="M126.762 79.04c0 5.496-3.652 9.974-7.912 9.974-4.463 0-7.912-4.478-7.912-9.975 0-5.496 3.652-9.975 7.912-9.975s7.912 4.479 7.912 9.975z" fill="#625A4D"/><path d="M126.965 78.635c0 1.832-1.623 3.46-3.449 3.46-1.826 0-3.449-1.628-3.449-3.46 0-1.833 1.623-3.462 3.449-3.462 1.826 0 3.449 1.63 3.449 3.462zm-7.101-4.48c0 .814-.811 1.629-1.622 1.629-.812 0-1.623-.815-1.623-1.63 0-.814.811-1.628 1.623-1.628.811 0 1.622.814 1.622 1.629z" fill="#fff"/><path d="M14.172 64.383S1.798 39.343 15.795 6.365c0 0 5.072-9.16 9.332-2.24C29.59 11.252 51.5 36.088 51.5 36.088" fill="#E17B6F"/><path d="M17.013 64.383S4.638 39.955 17.62 9.42c0 0 3.449-7.736 7.506-1.222 4.057 6.515 26.575 30.13 26.575 30.13" fill="#E5987C"/><path d="M21.273 58.478s-8.52-17.1.405-38.271c0 0 2.435-5.496 5.275-1.018 2.84 4.479 18.663 20.968 18.663 20.968" fill="#F0B89A"/><path d="M28.17 21.021c-.405-.61-.811-1.222-1.217-1.629-2.84-4.478-5.274 1.018-5.274 1.018-9.13 21.375-.406 38.272-.406 38.272l4.26-3.257c-5.68-14.454-6.086-24.022 2.637-34.404z" fill="#F1A793"/><path d="M13.97 62.957c-2.029-1.629-9.535-7.532-5.68-10.586 1.217-1.018 1.217-1.221.608-2.85-.811-2.035-2.029-3.868-2.231-6.107-.406-2.646 1.217-3.868 2.434-5.904-.203-.61-.406-1.832-.609-2.85-.405-1.221-.811-2.442-1.014-3.664 0-1.221-.203-2.036.811-2.646 1.015-.611 1.623-.815 1.826-2.24" fill="#E17B6F"/><path d="M21.678 60.31c-.202-2.646-.202-3.46-.405-6.31.405-1.629-.203-6.718 1.826-6.718 1.42 0 1.825 1.629 2.84 1.832 2.637.61 1.42-5.7 2.434-7.736 1.623-3.46 3.449-.407 4.869 1.425 3.245 3.868 2.84-2.646 4.666-3.867 2.637-2.036 6.288 3.257 7.911 4.682" fill="#E5987C"/><path d="M158.003 63.771s12.374-25.04-1.623-58.018c0 0-5.072-9.16-9.332-2.24-4.463 7.126-26.372 31.962-26.372 31.962" fill="#E17B6F"/><path d="M155.365 63.772s12.375-24.428-.608-54.964c0 0-3.449-7.736-7.506-1.222-4.057 6.515-26.575 30.129-26.575 30.129" fill="#E5987C"/><path d="M151.105 58.071s8.521-17.1-.405-38.271c0 0-2.435-5.497-5.275-1.018-2.84 4.478-18.663 20.968-18.663 20.968" fill="#F0B89A"/><path d="M144.208 20.614c.406-.611.811-1.222 1.217-1.629 2.84-4.478 5.275 1.018 5.275 1.018 9.128 21.375.405 38.272.405 38.272l-4.26-3.258c5.68-14.453 6.086-24.225-2.637-34.403z" fill="#F1A793"/><path d="M158.408 62.55c2.029-1.629 9.535-7.533 5.681-10.586-1.218-1.018-1.218-1.222-.609-2.85.811-2.036 2.029-3.868 2.231-6.107.406-2.647-1.217-3.868-2.434-5.904.203-.61.406-1.832.609-2.85.405-1.221.811-2.443 1.014-3.664.203-1.222.203-2.036-.811-2.647-1.015-.61-1.623-.814-1.826-2.24" fill="#E17B6F"/><path d="M150.7 59.903c.203-2.646.202-3.46.405-6.31-.405-1.629.203-6.718-1.825-6.718-1.42 0-1.826 1.628-2.841 1.832-2.637.61-1.42-5.7-2.434-7.736-1.623-3.46-3.449-.407-4.869 1.425-3.245 3.868-2.84-2.646-4.868-3.868-2.638-2.035-6.289 3.257-7.912 4.682" fill="#E5987C"/></svg>