<svg width="402" height="268" fill="none" xmlns="http://www.w3.org/2000/svg"><path d="M4.064 142.904c.755-20.648 17.4-37.634 39.715-43.152-.224-2.63-.443-5.416-.347-8.036 1.149-31.434 28.483-55.902 61.13-54.719 8.162.296 15.947 2.121 22.882 5.304C138.011 20.62 163.87 5.819 193.476 6.892c24.166.876 45.067 12.125 56.81 28.443 7.137-2.364 14.875-3.626 23.036-3.33 31.687 1.148 57.271 24.602 60.682 54.042a66.947 66.947 0 017.858-.178c31.047 1.125 55.401 23.146 54.449 49.188-.704 19.261-15.063 35.096-34.858 41.784.121 1.085.076 2.318.036 3.396-1.019 27.891-25.371 49.689-54.337 48.64-10.723-.389-20.532-3.83-28.662-9.371-11.763 19.323-36.104 32.019-63.629 31.021-22.085-.8-41.448-10.297-53.595-24.315-12.15 12.366-29.412 19.918-48.616 19.222-31.687-1.148-57.116-24.443-60.687-53.888-27.744-3.783-48.783-24.45-47.899-48.642z" fill="#E3F3FA"/><path d="M4.951 153.736c.755-20.649 17.4-37.635 39.716-43.152-.225-2.631-.444-5.417-.348-8.036 1.149-31.435 28.483-55.903 61.13-54.72 8.162.296 15.947 2.121 22.882 5.304 10.567-21.681 36.426-36.482 66.033-35.409 24.165.876 45.066 12.126 56.809 28.444 7.137-2.365 14.875-3.627 23.037-3.331 31.686 1.148 57.27 24.602 60.681 54.042a66.952 66.952 0 017.858-.178c31.047 1.125 55.401 23.147 54.449 49.188-.704 19.261-15.063 35.096-34.858 41.785-.039 1.079.076 2.317.036 3.396-1.019 27.891-25.371 49.689-54.337 48.64-10.722-.389-20.532-3.831-28.662-9.371-11.763 19.323-36.104 32.019-63.629 31.021-22.085-.8-41.448-10.297-53.595-24.315-12.15 12.366-29.412 19.918-48.616 19.222-31.687-1.148-57.116-24.443-60.687-53.888-27.75-3.629-48.783-24.45-47.899-48.642z" fill="#A1D8F4"/></svg>