<svg width="465" height="733" fill="none" xmlns="http://www.w3.org/2000/svg"><g clip-path="url(#clip0)"><path d="M359.4 142.6c0-13.4-10-24.8-23.8-28.9.2-1.7.4-3.5.4-5.2 0-20.4-16.5-36.9-36.9-36.9-5.1 0-10 1-14.4 2.9-6.1-14.3-21.9-24.5-40.4-24.5-15.1 0-28.4 6.8-36.1 17.1-4.4-1.7-9.2-2.7-14.3-2.7-19.8 0-36.3 14.6-39.1 33.6-1.6-.2-3.3-.3-4.9-.3-19.4 0-35.1 13.7-35.1 30.6 0 12.5 8.6 23.1 20.8 27.9-.1.7-.1 1.5-.1 2.2 0 18.1 14.7 32.8 32.8 32.8 6.7 0 12.9-2 18.1-5.4 6.9 12.8 21.8 21.6 39 21.6 13.8 0 26.1-5.7 34-14.5 7.3 8.3 17.9 13.6 29.9 13.6 19.8 0 36.2-14.5 39.1-33.5 17.4-1.8 31-14.7 31-30.4z" fill="#E3F3FA"/><path d="M358.6 149.6c0-13.4-10-24.8-23.8-28.9.2-1.7.4-3.5.4-5.2 0-20.4-16.5-36.9-36.9-36.9-5.1 0-10 1-14.4 2.9C277.8 67.2 262 57 243.5 57c-15.1 0-28.4 6.8-36.1 17.1-4.4-1.7-9.2-2.7-14.3-2.7-19.8 0-36.3 14.6-39.1 33.6-1.6-.2-3.3-.3-4.9-.3-19.4 0-35.1 13.7-35.1 30.6 0 12.5 8.6 23.1 20.8 27.9 0 .7-.1 1.5-.1 2.2 0 18.1 14.7 32.8 32.8 32.8 6.7 0 12.9-2 18.1-5.4 6.9 12.8 21.8 21.6 39 21.6 13.8 0 26.1-5.7 34-14.5 7.3 8.3 17.9 13.6 29.9 13.6 19.8 0 36.2-14.5 39.1-33.5 17.4-1.7 31-14.7 31-30.4z" fill="#A1D8F4"/><path d="M164.212 243.625c-.783 16.509 8.334 31.644 16.967 45.396 11.797 19.145 23.971 39.338 31.593 60.79 5.246 15.015 4.909 31.753 5.469 47.786.375 10.301.888 22.051 8.374 29.715" stroke="#C4BBD2" stroke-width="2" stroke-miterlimit="10" stroke-linecap="round" stroke-linejoin="round"/><path d="M161.193 237.578c-3.491 3.563-8.224 14.782-3.363 15.877 3.501.771 4.993-2.952 6.636-4.916 2.117-2.544 2.43-2.067 5.872-2.09 9.428-.077-2.577-11.539-7.728-9.898-.424.124-.937.489-1.417 1.027z" fill="#C1C9E2"/><path d="M192.471 134.006c16.255 43.518-2.824 94.5-27.7 105.937-26.73 12.279-76.123-17.575-92.386-61.136-16.256-43.519-2.554-88.838 30.603-101.21 33.158-12.372 73.227 12.89 89.483 56.409z" fill="#C1C9E2"/><path d="M113.777 203.73c-15.526-12.81-31.97-35.953-37.362-55.545-7.63-27.665-.844-36.543 1.52-50.355-13.755 20.339-16.726 51.119-5.543 81.02 16.256 43.518 65.649 73.372 92.379 61.093 7.292-3.341 14.07-10.117 19.624-19.12-30.902 4.392-50.786-.668-70.618-17.093z" fill="#AEB7D9"/><path d="M159.558 222.016c.912 2.465-.318 5.201-2.786 6.113-2.469.912-5.206-.316-6.118-2.781-.912-2.466.318-5.201 2.786-6.113 2.469-.913 5.214.358 6.118 2.781zM105.783 87.442c.912 2.465-.318 5.2-2.786 6.113-2.469.912-5.206-.316-6.118-2.781-.913-2.466.317-5.201 2.786-6.113 2.468-.912 5.206.315 6.118 2.78zm65.22 98.889c.913 2.466-.317 5.201-2.786 6.113-2.468.912-5.206-.315-6.118-2.781-.912-2.466.318-5.201 2.786-6.113 2.469-.912 5.206.315 6.118 2.781zm-41.727 13.674c.912 2.466-.318 5.201-2.787 6.113-2.468.913-5.206-.315-6.118-2.781-.912-2.465.318-5.201 2.787-6.113 2.468-.912 5.214.359 6.118 2.781zm-34.882-16.494c.912 2.466-.318 5.201-2.787 6.113-2.468.912-5.206-.315-6.118-2.781-.912-2.466.318-5.201 2.786-6.113 2.46-.955 5.206.315 6.119 2.781zm92.585-24.733c.913 2.466-.317 5.201-2.786 6.113-2.468.913-5.206-.315-6.118-2.781-.912-2.465.318-5.201 2.786-6.113 2.426-.904 5.171.367 6.118 2.781zm-48.273 10.527c.913 2.465-.317 5.201-2.786 6.113-2.468.912-5.206-.316-6.118-2.781-.912-2.466.318-5.201 2.786-6.113 2.417-.948 5.163.323 6.118 2.781zm-38.415-23.607c.912 2.465-.317 5.2-2.786 6.113-2.468.912-5.206-.316-6.118-2.782-.912-2.465.318-5.2 2.786-6.113 2.46-.955 5.206.316 6.118 2.782zm54.046-15.28c.912 2.465-.318 5.2-2.787 6.113-2.468.912-5.206-.316-6.118-2.782-.912-2.465.318-5.2 2.787-6.113 2.468-.912 5.206.316 6.118 2.782zm-36.316-14.839c.913 2.466-.317 5.201-2.786 6.113-2.468.912-5.206-.315-6.118-2.781-.912-2.466.318-5.201 2.786-6.113 2.469-.912 5.206.316 6.118 2.781zm-34.015 5.203c.912 2.465-.318 5.201-2.787 6.113-2.468.912-5.206-.316-6.118-2.781-.912-2.466.318-5.201 2.787-6.113 2.46-.956 5.206.315 6.118 2.781zm59.142-31.932c.912 2.466-.318 5.201-2.787 6.113-2.468.912-5.205-.315-6.118-2.78-.912-2.467.318-5.202 2.787-6.114 2.468-.912 5.206.316 6.118 2.781z" fill="#E1E4F3"/><path opacity=".4" d="M169.836 97.724c12.565 12.296 17.288 27.857 10.568 34.711-6.719 6.854-22.366 2.426-34.939-9.912-12.565-12.296-17.287-27.857-10.568-34.71 6.727-6.812 22.374-2.384 34.939 9.911z" fill="#FDF3F8"/><path d="M261.086 409.328c-4.285 14.308.38 29.567 4.931 43.506 6.154 19.36 12.401 39.685 14.385 60.188 1.312 14.327-2.657 28.888-5.673 43.046-1.914 9.078-4.06 19.541.865 27.867" stroke="#AAC4D2" stroke-width="2" stroke-miterlimit="10" stroke-linecap="round" stroke-linejoin="round"/><path d="M259.783 403.359c-3.813 2.328-10.425 11.174-6.429 13.148 2.916 1.462 5.046-1.488 6.89-2.863 2.4-1.749 2.584-1.247 5.578-.56 8.292 1.97.268-10.69-4.592-10.355a3.655 3.655 0 00-1.447.63z" fill="#BDD8F0"/><path d="M309.847 319.449c4.719 41.669-23.186 82.154-47.431 86.722-26.103 4.919-62.866-32.008-67.593-73.721-4.719-41.668 17.226-78.393 48.998-81.966 31.729-3.564 61.307 27.296 66.026 68.965z" fill="#A9DCF5"/><path d="M225.616 363.35c-10.77-14.645-19.874-38.5-20.598-56.827-.482-13.007 7.274-32.171 12.375-43.817-16.496 14.821-25.86 41.128-22.606 69.796 4.719 41.669 41.49 78.639 67.594 73.721 7.131-1.344 14.573-5.786 21.368-12.476-28.025-2.9-44.312-11.677-58.133-30.397z" fill="#7CCCF1"/><path d="M261.718 389.405c.266 2.363-1.44 4.473-3.806 4.74a4.29 4.29 0 01-4.744-3.8 4.277 4.277 0 013.763-4.732 4.294 4.294 0 014.787 3.792zm-17.632-129.672c.267 2.364-1.439 4.473-3.806 4.74a4.289 4.289 0 01-4.743-3.8c-.267-2.364 1.439-4.473 3.805-4.74a4.289 4.289 0 014.744 3.8zm35.476 100.873a4.276 4.276 0 01-3.762 4.732 4.29 4.29 0 01-4.744-3.8c-.266-2.364 1.44-4.474 3.806-4.741 2.331-.215 4.442 1.488 4.7 3.809zm-39.509 2.885c.266 2.364-1.439 4.473-3.806 4.74a4.289 4.289 0 01-4.743-3.8c-.267-2.364 1.439-4.473 3.805-4.74 2.323-.259 4.434 1.444 4.744 3.8zm-26.944-22.103c.267 2.364-1.439 4.473-3.805 4.74a4.289 4.289 0 01-4.744-3.8 4.276 4.276 0 013.762-4.732c2.375-.224 4.521 1.428 4.787 3.792zm86.465-1.406a4.278 4.278 0 01-3.763 4.732 4.289 4.289 0 01-4.743-3.8c-.267-2.364 1.439-4.474 3.805-4.741 2.323-.259 4.434 1.445 4.701 3.809zm-44.602-1.341a4.278 4.278 0 01-3.763 4.732 4.289 4.289 0 01-4.743-3.8 4.277 4.277 0 013.762-4.733c2.366-.267 4.477 1.437 4.744 3.801zm-28.443-29.108c.267 2.364-1.439 4.473-3.805 4.741a4.29 4.29 0 01-4.744-3.801c-.266-2.363 1.439-4.473 3.806-4.74 2.331-.216 4.485 1.479 4.743 3.8zm50.681-1.547a4.276 4.276 0 01-3.762 4.732 4.289 4.289 0 01-4.744-3.8c-.266-2.364 1.439-4.474 3.806-4.741 2.288-.207 4.434 1.445 4.7 3.809zm-28.553-20.906c.267 2.363-1.439 4.473-3.805 4.74a4.289 4.289 0 01-4.744-3.8 4.276 4.276 0 013.762-4.732 4.294 4.294 0 014.787 3.792zm-30.939-2.932c.267 2.363-1.439 4.473-3.805 4.74a4.289 4.289 0 01-4.744-3.8c-.267-2.364 1.439-4.473 3.806-4.741 2.374-.223 4.485 1.48 4.743 3.801zm58.795-15.013c.266 2.364-1.439 4.473-3.806 4.74a4.289 4.289 0 01-4.743-3.8 4.276 4.276 0 013.762-4.732c2.366-.267 4.521 1.428 4.787 3.792z" fill="#D6EDFC"/><path opacity=".6" d="M292.162 284.023c8.325 13.541 9.064 28.154 1.69 32.718-7.383 4.52-20.125-2.779-28.442-16.278-8.324-13.541-9.064-28.154-1.689-32.717 7.425-4.529 20.125 2.779 28.441 16.277z" fill="#EAEAF3"/><path d="M208.726 457.773c2.021 16.428 13.617 29.755 24.493 41.877 14.903 16.862 30.338 34.651 41.514 54.54 7.725 13.922 10.263 30.476 13.526 46.133 2.12 10.062 4.646 21.567 13.346 27.84" stroke="#D5A086" stroke-width="2" stroke-miterlimit="10" stroke-linecap="round" stroke-linejoin="round"/><path d="M204.699 452.318c-2.814 4.062-5.58 15.983-.615 16.21 3.612.168 4.433-3.786 5.682-5.944 1.654-2.86 2.046-2.442 5.425-3.034 9.265-1.656-4.524-10.949-9.288-8.442-.407.211-.826.602-1.204 1.21z" fill="#EECB9B"/><path d="M217.856 344.964c23.444 40.107 13.34 93.599-9.209 109.069-24.252 16.64-78.059-4.335-101.503-44.443-23.444-40.107-17.667-87.107 12.896-104.936 30.554-17.872 74.371.202 97.816 40.31z" fill="#FCD298"/><path d="M152.192 427.075c-17.455-9.988-37.644-29.967-46.302-48.363-12.228-25.948-7.07-35.861-7.075-49.897-10.06 22.37-7.788 53.19 8.372 80.767 23.445 40.107 77.259 61.126 101.504 44.443 6.615-4.555 12.164-12.395 16.096-22.167-29.788 9.592-50.228 7.99-72.595-4.783z" fill="#F8BF90"/><path d="M200.437 437.296a4.73 4.73 0 01-1.73 6.495c-2.258 1.32-5.173.572-6.493-1.682a4.73 4.73 0 011.73-6.495c2.249-1.363 5.173-.573 6.493 1.682zm-75.982-123.46a4.73 4.73 0 01-1.73 6.495 4.737 4.737 0 01-6.5-1.726 4.73 4.73 0 011.729-6.495c2.258-1.319 5.181-.529 6.501 1.726zm81.156 86.32a4.73 4.73 0 01-1.73 6.495 4.739 4.739 0 01-6.501-1.726 4.73 4.73 0 011.73-6.495c2.266-1.276 5.181-.529 6.501 1.726zm-38.762 20.625a4.73 4.73 0 01-1.73 6.495 4.737 4.737 0 01-6.501-1.725 4.73 4.73 0 011.73-6.495 4.737 4.737 0 016.501 1.725zm-37.22-10.376a4.73 4.73 0 01-1.73 6.495 4.74 4.74 0 01-6.501-1.725 4.731 4.731 0 011.73-6.496c2.266-1.276 5.181-.529 6.501 1.726zm87.007-40.088a4.73 4.73 0 01-1.73 6.495 4.739 4.739 0 01-6.501-1.726 4.732 4.732 0 011.73-6.495c2.266-1.276 5.181-.529 6.501 1.726zm-45.776 18.55a4.732 4.732 0 01-1.73 6.495 4.739 4.739 0 01-6.501-1.725 4.731 4.731 0 011.73-6.496c2.265-1.276 5.181-.529 6.501 1.726zm-41.858-16.7a4.73 4.73 0 01-1.73 6.495 4.737 4.737 0 01-6.5-1.726 4.73 4.73 0 011.729-6.495 4.738 4.738 0 016.501 1.726zm50.654-24.253a4.732 4.732 0 01-1.729 6.496 4.738 4.738 0 01-6.501-1.726 4.73 4.73 0 011.729-6.495c2.266-1.276 5.182-.529 6.501 1.725zm-38.285-8.432a4.73 4.73 0 01-1.73 6.495c-2.257 1.32-5.173.573-6.493-1.682a4.73 4.73 0 011.73-6.495c2.249-1.363 5.173-.572 6.493 1.682zm-32.675 10.896a4.73 4.73 0 01-1.73 6.495 4.737 4.737 0 01-6.5-1.726 4.73 4.73 0 011.729-6.495c2.258-1.319 5.181-.529 6.501 1.726zm52.817-41.513a4.73 4.73 0 01-1.73 6.495 4.739 4.739 0 01-6.501-1.726 4.73 4.73 0 011.73-6.495c2.258-1.319 5.181-.529 6.501 1.726z" fill="#FDE6CC"/><path opacity=".6" d="M189.333 313.055c14.462 10.015 21.802 24.502 16.347 32.37-5.446 7.91-21.615 6.174-36.113-3.79-14.462-10.016-21.801-24.503-16.347-32.37 5.489-7.919 21.658-6.182 36.113 3.79z" fill="#FDE6CC"/></g><defs><clipPath id="clip0"><path fill="#fff" transform="rotate(-10.671 367.093 288.103)" d="M0 0h394v671H0z"/></clipPath></defs></svg>