<svg width="468" height="666" fill="none" xmlns="http://www.w3.org/2000/svg"><g clip-path="url(#clip0)"><path d="M283 554.09c0-12.736-9.546-23.703-22.628-27.595.177-1.592.353-3.361.353-4.953 0-19.457-15.733-35.023-35.003-35.023-4.95 0-9.546 1.061-13.789 2.83-5.834-13.62-20.86-23.349-38.538-23.349-14.32 0-27.048 6.545-34.296 16.274a38.722 38.722 0 00-13.613-2.477c-18.915 0-34.472 13.974-37.3 32.017-1.592-.177-3.183-.354-4.774-.354C65.027 511.46 50 524.55 50 540.646c0 11.852 8.132 22.111 19.8 26.533 0 .708-.177 1.415-.177 2.123 0 17.335 13.966 31.309 31.291 31.309 6.364 0 12.198-1.946 17.147-5.13C124.602 607.686 138.745 616 155.186 616c13.082 0 24.75-5.483 32.351-13.797 6.895 7.96 17.148 12.913 28.462 12.913 18.739 0 34.473-13.798 37.125-31.84C270.095 581.33 283 569.125 283 554.09z" fill="#F0F0F0"/><path d="M278 561.09c0-12.736-9.546-23.703-22.628-27.595.177-1.592.353-3.361.353-4.953 0-19.457-15.733-35.023-35.003-35.023-4.95 0-9.546 1.061-13.789 2.83-5.834-13.62-20.86-23.349-38.538-23.349-14.32 0-27.048 6.545-34.296 16.274a38.722 38.722 0 00-13.613-2.477c-18.915 0-34.472 13.974-37.3 32.017-1.592-.177-3.183-.354-4.774-.354C60.027 518.46 45 531.55 45 547.646c0 11.852 8.132 22.111 19.8 26.533 0 .708-.177 1.415-.177 2.123 0 17.335 13.966 31.309 31.29 31.309 6.365 0 12.199-1.946 17.148-5.13C119.602 614.686 133.745 623 150.186 623c13.082 0 24.75-5.483 32.351-13.797 6.895 7.96 17.148 12.913 28.462 12.913 18.916 0 34.473-13.798 37.125-31.84C265.095 588.33 278 576.125 278 561.09z" fill="#EEF7FB"/><path d="M441.977 583.449c0-11.776-8.831-21.916-20.934-25.514.163-1.472.327-3.108.327-4.58 0-17.99-14.556-32.383-32.383-32.383-4.58 0-8.832.981-12.757 2.617-5.398-12.594-19.3-21.589-35.655-21.589-13.248 0-25.023 6.051-31.729 15.047a35.837 35.837 0 00-12.593-2.29c-17.5 0-31.893 12.921-34.51 29.603-1.472-.164-2.944-.327-4.416-.327-17.009 0-30.911 12.103-30.911 26.986 0 10.958 7.523 20.444 18.318 24.533 0 .654-.164 1.308-.164 1.962 0 16.029 12.921 28.949 28.949 28.949 5.888 0 11.285-1.799 15.864-4.743 6.052 11.285 19.136 18.972 34.346 18.972 12.103 0 22.898-5.07 29.93-12.757 6.379 7.36 15.865 11.939 26.332 11.939 17.337 0 31.893-12.757 34.346-29.439 15.701-1.799 27.64-13.084 27.64-26.986z" fill="#F0F0F0"/><path d="M437.562 590.318c0-11.776-8.832-21.916-20.935-25.514.163-1.472.327-3.107.327-4.579 0-17.991-14.556-32.384-32.383-32.384-4.58 0-8.832.982-12.757 2.617-5.398-12.593-19.299-21.589-35.655-21.589-13.247 0-25.023 6.052-31.729 15.047a35.833 35.833 0 00-12.593-2.29c-17.5 0-31.893 12.921-34.51 29.603-1.472-.163-2.944-.327-4.416-.327-17.009 0-30.911 12.103-30.911 26.986 0 10.958 7.523 20.444 18.318 24.533 0 .654-.164 1.308-.164 1.963 0 16.028 12.921 28.948 28.949 28.948 5.888 0 11.285-1.799 15.865-4.743 6.051 11.285 19.135 18.972 34.345 18.972 12.103 0 22.898-5.07 29.93-12.757 6.379 7.36 15.865 11.94 26.332 11.94 17.5 0 31.893-12.757 34.346-29.44 15.701-1.799 27.641-13.084 27.641-26.986z" fill="#EEF7FB"/><path d="M313.826 81.881c2.136-.91 13.323 11.329 13.323 11.329s15.354-5.74 16.924-4.55c1.57 1.192-6.682 16.127-6.682 16.127s10.207 13.055 9.561 14.658c-.694 1.49-17.439-1.342-17.439-1.342s-9.02 14.067-10.96 13.565c-1.941-.502-4.051-17.003-4.051-17.003s-15.442-4.449-16.321-6.2c-.878-1.752 14.849-9.111 14.849-9.111s-1.453-16.516.796-17.473z" fill="#FCD298"/><path d="M314.714 84.16s5.421 9.211 9.933 9.97c4.462.648-11.559-13.527-9.933-9.97z" fill="#FFF2CF"/><path d="M9.314 78.771c1.087-.518 7.055 5.147 7.055 5.147s7.4-3.39 8.19-2.949c.843.573-2.737 8.288-2.737 8.288s5.55 6.14 5.331 6.916c-.31.737-8.692.023-8.692.023s-3.963 7.337-4.962 7.132c-1.038-.112-2.687-8.296-2.687-8.296s-7.9-1.597-8.312-2.422c-.504-.863 7.022-5.069 7.022-5.069s-1.294-8.252-.208-8.77z" fill="#FCD298"/><path d="M10.134 79.66s2.888 4.474 5.187 4.684c2.168.263-6.103-6.373-5.187-4.685z" fill="#FFF2CF"/><path d="M460.079 65.928c1.131 1.518-6.353 12.67-6.353 12.67s7.443 10.986 6.83 12.406c-.612 1.42-14.025-2.16-14.025-2.16s-8.393 10.563-9.688 10.31c-1.295-.254-2.256-13.999-2.256-13.999s-12.793-4.399-12.754-6.021c-.051-1.591 12.531-6.472 12.531-6.472s.491-13.043 1.77-13.99c1.248-1.038 10.013 9.992 10.013 9.992s12.711-4.222 13.932-2.736z" fill="#FCD298"/><path d="M458.718 67.508s-6.412 5.851-6.154 9.483c.168 3.662 8.713-11.379 6.154-9.483z" fill="#FFF2CF"/><path d="M65.894 270.64l-18.936-8.784c-4.726-2.251-6.863-7.866-4.612-12.591 2.252-4.726 7.866-6.863 12.592-4.612l2.71 1.223 1.315-2.424c2.504-4.598 8.241-6.354 12.839-3.851 4.597 2.503 6.354 8.241 3.85 12.838l-9.758 18.201zM273.55 35.264l-3.069-20.647c-.716-5.185 2.8-10.057 7.985-10.773 5.185-.717 10.056 2.8 10.773 7.984l.467 2.937 2.749-.234c5.216-.435 9.838 3.393 10.273 8.61.435 5.216-3.393 9.837-8.609 10.272l-20.569 1.851z" fill="#FD9587"/><path d="M95.863 47.342l-19.963-6.1c-4.99-1.581-7.878-6.85-6.297-11.84 1.581-4.99 6.849-7.877 11.839-6.296l2.852.84.97-2.583c1.849-4.898 7.291-7.426 12.189-5.578 4.897 1.849 7.425 7.29 5.577 12.188l-7.167 19.369z" fill="#FCD298"/><path d="M393.949 171.104l-1.49-10.025c-.348-2.517 1.359-4.882 3.876-5.23 2.518-.348 4.883 1.359 5.23 3.876l.227 1.426 1.335-.113c2.533-.212 4.776 1.647 4.988 4.179.211 2.533-1.648 4.777-4.18 4.988l-9.986.899z" fill="#FD9587"/><path d="M399.284 243.831l-1.3-20.833c-.272-5.228 3.646-9.782 8.873-10.054 5.227-.273 9.782 3.645 10.054 8.872l.216 2.966 2.758.001c5.235.011 9.514 4.218 9.503 9.453-.01 5.234-4.218 9.513-9.452 9.502l-20.652.093z" fill="#FCD298"/><path d="M64.076 240.741c-.616 1.987 1.507 1.403 3.055 1.637 1.673.298 3.216 1.164 4.6 2.187 1.383 1.023 1.964 3.463 2.982 2.712 1.177-.908.462-2.463-.258-3.386-2.597-3.468-4.456-4.336-7.332-4.454-1.235.085-2.787.484-3.047 1.304zM297.529 17.313c-1.999.577-.344 2.03.311 3.452.671 1.562.796 3.326.701 5.044-.094 1.718-1.813 3.545-.626 3.982 1.406.485 2.312-.967 2.687-2.076 1.47-4.075 1.174-6.105-.309-8.574-.749-.984-1.936-2.062-2.764-1.828zm-207.572.663c-.338 2.053 1.685 1.183 3.25 1.202 1.699.065 3.346.711 4.857 1.534 1.51.824 2.421 3.16 3.326 2.277 1.042-1.06.12-2.503-.72-3.318-3.049-3.078-5.01-3.684-7.875-3.405-1.21.254-2.694.862-2.838 1.71zm315.634 144.412c-.971.28-.168.986.151 1.676.325.758.386 1.615.34 2.449-.046.834-.88 1.721-.304 1.934.682.235 1.122-.47 1.304-1.008.714-1.979.57-2.965-.15-4.163-.364-.478-.94-1.001-1.341-.888zm19.475 67.026c-2.07.213-.7 1.937-.308 3.452.383 1.657.191 3.415-.208 5.089-.398 1.674-2.415 3.165-1.325 3.807 1.297.727 2.447-.54 3.014-1.564 2.171-3.749 2.241-5.8 1.222-8.493-.563-1.101-1.538-2.373-2.395-2.291z" fill="#FFF2CF"/><path d="M232.697 446.073s-9.352-2.658-32.566-20.269c-18.182-13.813-36.032-25.301-51.128-42.532-3.466-3.987-7.691-8.022-13.435-7.5-5.412.522-9.732 5.222-12.818 9.351-3.75 4.937-8.355 11.108-7.026 17.659 1.377 6.788 6.219 11.772 11.489 15.854 5.886 4.557 11.915 8.687 17.565 13.529 9.779 8.496 19.131 17.61 28.103 27.009 2.137 2.231 42.156 37.548 44.197 39.826" fill="#FDD396"/><path d="M201.792 427.038c1.092 8.165 1.187 16.424-.475 24.446-1.519 7.405-5.506 13.956-7.263 21.266-.38 1.519-.665 3.085-.949 4.604 11.156 9.921 22.929 20.459 24.021 21.693l15.571-52.974s-8.925-2.563-30.905-19.035z" fill="#FAC491"/><path d="M175.255 425.139c7.121 3.371 18.277 5.317 25.92 1.377-.332-.237-.665-.522-1.044-.76-11.726-8.876-23.309-16.851-34.086-25.965-2.041 9.541-.664 20.649 9.21 25.348zm-21.458 15.143c1.14-8.165.76-20.839-10.349-20.744-3.893 0-7.595 1.187-11.013 2.991 4.225 3.132 8.402 6.218 12.39 9.683a287.072 287.072 0 018.972 8.07z" fill="#BF9C87"/><path d="M136.897 404.206c4.605-6.456 9.827-11.962 16.378-16.282-1.424-1.566-3.228-4.367-4.605-5.934-3.465-3.987-7.595-7.974-13.292-7.405-5.412.523-9.495 6.361-12.58 10.491-3.751 4.937-9.637 10.965-8.308 17.563 1.377 6.788 7.501 11.915 12.77 15.997.76.57 1.519 1.139 2.231 1.709 1.899-5.601 3.751-11.013 7.406-16.139z" fill="#A28673"/><path d="M128.304 419.301c-.094-.19-.142-.38-.094-.57-.38-.047-.807-.237-.997-.712-7.406-16.377-2.374-32.801 9.399-43.434-.427 0-.807 0-1.234.048-5.412.522-9.495 6.361-12.58 10.49-3.751 4.937-9.637 10.966-8.308 17.564 1.377 6.788 7.501 11.914 12.77 15.997l1.139.854c-.047-.095-.095-.19-.095-.237z" fill="#987D6C"/><path d="M138.321 376.579c-1.139 0-3.418.475-2.943 2.184.427 1.566 3.038 1.661 4.225 2.373 2.279 1.377 2.943 4.557 4.177 6.788.76 1.377 2.374-.237 2.849-.902 3.18-4.462-4.178-10.443-8.308-10.443z" fill="#BB9984"/><path d="M208.723 434.016c-1.234-.95-2.326-2.089-3.418-3.181-.759-.759-1.946.428-1.187 1.187 1.235 1.187 2.421 2.374 3.751 3.418.854.664 1.661-.76.854-1.424zm-45.479-35.079c-1.139-.902-2.231-1.947-3.37-2.848-.38-.285-.95-.048-1.14.284-.237.428-.047.855.285 1.14 1.045.807 1.994 1.756 3.039 2.563.854.664 2.041-.475 1.186-1.139zm-7.88-4.605c-1.187-1.234-2.421-2.421-3.656-3.607-.759-.76-1.946.427-1.186 1.186a262.86 262.86 0 013.655 3.608c.76.76 1.946-.427 1.187-1.187zm3.323 6.978c-.997-.997-2.089-1.851-3.181-2.706-.854-.664-1.661.807-.854 1.425.997.759 1.994 1.518 2.848 2.468.76.759 1.947-.427 1.187-1.187zm4.89 10.348c-1.709-1.566-3.371-3.133-4.937-4.841-.713-.807-1.899.379-1.187 1.186 1.519 1.709 3.228 3.276 4.937 4.842.807.712 1.946-.427 1.187-1.187zm33.373 22.88c-1.424-1.044-2.943-1.946-4.368-3.038-.854-.664-1.661.807-.854 1.424 1.424 1.044 2.943 1.946 4.367 3.038.902.617 1.709-.807.855-1.424zm-12.201-1.804c-1.661-1.234-3.418-2.326-5.032-3.56-.854-.664-1.661.807-.854 1.424 1.661 1.234 3.418 2.326 5.079 3.56.807.665 1.614-.807.807-1.424zm-11.678 19.7c-2.658-2.564-5.364-5.174-7.88-7.928-.712-.807-1.899.38-1.187 1.187 2.516 2.753 5.174 5.317 7.88 7.927.807.712 1.947-.427 1.187-1.186zm-14.431-12.342c-.428-.332-.807-.617-1.235-.95-.854-.664-1.661.807-.854 1.424.427.333.807.618 1.234.95.855.664 1.709-.807.855-1.424zm2.99-2.184c-1.329-1.566-2.611-3.085-4.082-4.509-.76-.76-1.947.427-1.187 1.186 1.472 1.424 2.753 2.943 4.083 4.462.712.855 1.898-.284 1.186-1.139zm-18.989-22.452c-.854-.95-1.851-1.662-2.848-2.421-.855-.665-1.662.807-.855 1.424.902.664 1.757 1.376 2.516 2.183.76.807 1.899-.379 1.187-1.186zm-6.646 3.18c1.044 0 1.044-1.661 0-1.661-1.044.047-1.044 1.661 0 1.661z" fill="#F9BB7A"/><path d="M349.859 549.601c20.556 5.839 44.102 4.747 59.483-11.772 16.094-17.278 11.346-41.772 3.039-61.282-1.662-3.939-7.359-.522-5.697 3.323 7.406 17.374 11.204 37.453-2.041 53.26-12.818 15.332-35.462 15.047-53.027 10.063-4.13-1.187-5.839 5.222-1.757 6.408z" fill="#FBC691"/><path d="M231.51 325.171s-3.988 39.731-7.928 76.851c0 0-23.831 65.554-21.837 121.234.332 9.019-56.967 47.374-56.967 47.374l19.416 39.636 73.962-37.31s49.467 11.25 86.543 1.993c0 0-9.874 20.934-17.233 30.712-8.83 11.725 23.404 35.791 23.404 35.791s31.807-6.17 50.321-59.193c7.406-21.123 11.394-43.433 4.937-65.316-8.355-28.291-27.534-55.158-49.561-74.573-17.66-15.569-40.162-24.968-52.79-45.569-14.574-23.83-11.915-72.2-11.915-72.2l-40.352.57z" fill="#FDD396"/><path d="M189.402 553.066c4.795 0 9.399-2.041 12.628-5.601 3.038-3.323 5.316-8.069 4.32-12.626-.808-3.703-3.086-6.409-5.935-8.497-3.323 4.936-12.675 12.864-22.786 20.648 3.038 3.466 6.978 6.076 11.773 6.076zm23.214-65.743c-1.994-2.848-4.985-5.412-8.308-6.883-1.234 8.687-2.136 17.563-2.516 26.392 9.02-2.753 17.897-9.588 10.824-19.509zm109.329-54.304c-22.502 8.259-9.257 35.221 9.305 38.782 10.491 1.993 17.28-4.7 21.458-13.386a178.085 178.085 0 00-16.094-16.14c-4.415-3.892-9.114-7.357-13.862-10.728.095.57-.142 1.187-.807 1.472zm-46.903-4.51c-1.376.523-2.8 1.187-4.367 1.852-3.75 1.614-7.311 4.129-10.302 6.835-6.076 5.459-10.111 13.244-5.934 21.076 5.887 11.108 23.309 10.823 31.712 2.611 5.982-5.839 9.067-15.048 7.121-23.307-1.187-5.032-4.415-9.636-9.874-10.348-3.229-.332-5.745.285-8.356 1.281zm-34.465-57.674c1.472-8.164-2.896-19.367-11.631-20.648-.996 9.921-2.231 21.93-3.56 34.414 6.456-2.373 13.862-6.408 15.191-13.766zm-7.453 76.235c-5.934-3.133-12.153.284-15.761 5.221-3.133 4.32-6.978 11.725-1.756 16.044 6.788 5.554 19.463 3.561 23.119-4.936 2.563-5.839.142-13.291-5.602-16.329zm76.241 42.626c-8.023-1.376-21.837 2.326-15.761 10.776 4.795 6.74 13.387 11.724 21.505 13.101 3.513.617 12.581 1.851 14.432-2.374 1.472-3.322-1.899-7.595-3.988-9.873-3.655-4.082-7.88-7.12-12.343-10.253-.949-.665-2.278-1.139-3.845-1.377zm-55.828-.522c-1.092 1.092-1.946 2.516-2.611 4.225-1.376 3.75-1.804 8.876-.474 12.626 2.943 8.497 15.096 7.121 20.081 1.045 4.462-5.412 1.281-13.386-3.181-17.706-4.368-4.13-10.159-3.987-13.815-.19zm-.759-86.677c-2.279-3.655-6.362-7.595-10.919-5.412-5.269 2.516-7.88 7.121-10.586 12.01-2.754 5.032-3.846 11.155.712 15.475 6.693 6.313 18.182 4.936 22.264-3.75 2.706-5.792 1.899-12.912-1.471-18.323zM370.13 561.801c-5.08 1.708-8.355 7.167-9.827 12.056-3.893 12.769 1.187 23.972 12.058 28.719 3.133-5.886 6.172-12.627 8.878-20.412 1.139-3.322 2.231-6.645 3.18-10.015-2.658-5.079-7.643-12.627-14.289-10.348zm-8.213-59.336c-.807 5.601 1.662 11.345 5.507 15.38 6.077 6.408 13.72 8.592 20.508 6.361-.474-2.469-1.044-4.937-1.756-7.358-2.706-9.209-6.599-18.275-11.346-27.009-5.887 2.136-11.963 5.981-12.913 12.626zm-79.232-107.8c-3.845 1.613-7.595 4.224-7.263 8.544.285 4.225 3.798 7.737 7.311 9.731 4.13 2.326 9.589 3.607 14.052 1.376.522-.284 1.044-.569 1.519-.901-5.507-4.795-10.444-10.206-14.432-16.709a28.93 28.93 0 01-1.187-2.041z" fill="#BF9C87"/><path d="M322.847 567.924c4.178-11.962 1.614-27.152-6.503-36.883 1.139 1.377-1.187 9.256-1.187 11.345-.048 3.086-.333 5.411-2.279 7.927-6.314 8.26-18.04 6.931-26.964 9.494-15.619 4.462-33.658-3.703-45.716-13.244-4.083-3.228-24.259-21.978-17.755-28.291-1.899 1.804-3.228 5.839-3.418 7.405-7.026 15.143-9.4 30.902-21.363 43.149-2.896 2.99-39.402 29.335-41.586 24.873l8.118 16.567 73.962-37.31s44.529 11.44 81.226 3.18c1.282-2.753 2.468-5.459 3.465-8.212z" fill="#FAC491"/><path d="M160.206 559.854c-8.782 6.266-15.476 10.728-15.476 10.728l19.416 39.636 23.12-11.629c3.75-6.219 5.317-18.038-3.466-29.811-6.076-8.164-14.859-12.009-23.594-8.924z" fill="#A28673"/><path d="M205.685 183.573s-11.916-9.921-19.226-21.219c-7.264-11.25-17.233-15.901-26.49-7.927-9.257 7.927-10.587 34.462 25.825 55.633" fill="#FBC993"/><path d="M180.714 186.136c-8.355-.759-17.327-4.604-22.217-11.677-1.709-2.468-2.991-5.079-4.035-7.832-.949 11.819 6.266 28.908 31.284 43.481l19.892-26.488s-1.994-1.661-4.843-4.367c-5.032 4.747-11.536 7.643-20.081 6.883z" fill="#F8BA8D"/><path d="M167.897 166.816s.285.475.712 1.377c.427.854.997 2.041 1.709 3.465.332.712.759 1.472 1.187 2.231.379.807.902 1.614 1.329 2.421.522.807.997 1.662 1.566 2.469.523.854 1.14 1.613 1.71 2.42.617.76 1.234 1.567 1.898 2.231.665.712 1.377 1.33 2.042 1.994.712.522 1.376 1.187 2.136 1.614.38.237.712.475 1.044.712.333.19.712.38 1.045.57.664.379 1.329.664 1.899.902a9.78 9.78 0 001.566.617c.902.332 1.425.569 1.425.569s-.523.095-1.52.238c-.237.047-.522.047-.807.095h-.949c-.665-.048-1.472-.048-2.326-.238-.428-.095-.855-.19-1.33-.285-.427-.142-.901-.332-1.376-.474-.95-.333-1.852-.855-2.849-1.424-.902-.617-1.851-1.282-2.658-2.089-.902-.759-1.614-1.661-2.326-2.563-.665-.95-1.329-1.852-1.852-2.848-.569-.95-.997-1.994-1.424-2.943-.332-.997-.712-1.947-.949-2.896a33.293 33.293 0 01-.57-2.658 21.568 21.568 0 01-.285-2.279c-.047-.664-.047-1.281-.047-1.756-.048-.949 0-1.472 0-1.472z" fill="#E6AD83"/><path d="M171.884 158.51c-1.424-.095-2.895-.048-4.272-.095-1.139-.048-3.561-.095-4.273-1.187-.379-.617-.047-1.756.333-2.326 1.899-2.658 7.833-2.801 10.491-1.614 2.706 1.139 7.976 4.177 7.216 7.785-.427 2.088-2.943-.095-3.703-.712-1.709-1.377-3.703-1.757-5.792-1.851z" fill="#FFEABF"/><path d="M303.241 183.573s11.916-9.921 19.227-21.219c7.263-11.25 17.232-15.901 26.489-7.927 9.257 7.927 10.587 34.462-25.825 55.633" fill="#FBC993"/><path d="M328.212 186.136c8.355-.759 17.327-4.604 22.217-11.677 1.709-2.468 2.991-5.079 4.035-7.832.95 11.819-6.266 28.908-31.284 43.481l-19.891-26.488s1.993-1.661 4.842-4.367c5.032 4.747 11.488 7.643 20.081 6.883z" fill="#F8BA8D"/><path d="M341.029 166.816s-.285.475-.712 1.377c-.427.854-.997 2.041-1.709 3.465-.332.712-.759 1.472-1.187 2.231-.379.807-.902 1.614-1.329 2.421-.522.807-.997 1.662-1.566 2.469-.523.854-1.14 1.613-1.709 2.42-.618.76-1.235 1.567-1.899 2.231-.618.712-1.377 1.33-2.042 1.994-.712.522-1.376 1.187-2.136 1.614-.38.237-.712.475-1.044.712-.38.19-.712.38-1.045.57-.664.379-1.329.664-1.899.902a9.78 9.78 0 01-1.566.617 23.15 23.15 0 00-1.424.569s.522.095 1.519.238c.237.047.522.047.807.095h.949c.665-.048 1.472-.048 2.326-.238.428-.095.855-.19 1.33-.285.427-.142.902-.332 1.376-.474.95-.333 1.852-.855 2.849-1.424.902-.617 1.851-1.282 2.658-2.089.902-.759 1.614-1.661 2.326-2.563.665-.95 1.33-1.852 1.852-2.848.569-.95.997-1.994 1.424-2.943.332-.997.712-1.947.949-2.896.238-.949.428-1.804.57-2.658.142-.807.237-1.567.285-2.279.047-.664.047-1.281.047-1.756.048-.949 0-1.472 0-1.472z" fill="#E6AD83"/><path d="M337.042 158.51c1.424-.095 2.896-.048 4.272-.095 1.14-.048 3.561-.095 4.273-1.187.38-.617.047-1.756-.333-2.326-1.898-2.658-7.833-2.801-10.491-1.614-2.706 1.139-7.975 4.177-7.216 7.785.427 2.088 2.944-.095 3.751-.712 1.614-1.377 3.655-1.757 5.744-1.851z" fill="#FFEABF"/><path d="M335.712 261.279c.143-32.896-10.728-67.026-37.978-87.39-11.868-8.876-27.914-14.525-43.01-14.335-31.189.38-57.489 20.316-70.876 47.8-4.225 8.64-7.264 18.513-8.973 27.959-3.94 21.931-4.177 47.611 5.65 68.07 4.984 10.396 13.862 22.073 23.403 28.766 13.435 9.446 33.896 13.433 49.894 13.433 9.115 0 18.325-1.091 27.155-3.845 35.462-11.012 54.593-43.053 54.735-80.458z" fill="#FDD396"/><path d="M329.683 265.408c-8.45-7.357-19.321-10.205-30.192-11.772-16.616-2.373-31.759.617-48.042 3.655-21.316 3.987-45.622 5.364-57.158-16.946-13.244-25.586 5.555-49.794 26.205-64.51 10.397-7.405 22.265-13.86 35.367-14.382 12.153-.475 23.974 3.37 33.943 10.3 18.989 13.196 32.472 33.37 41.634 54.541-5.412-20.459-16.141-39.256-33.658-52.357-11.868-8.877-27.914-14.526-43.01-14.336-31.19.38-57.49 20.317-70.877 47.801-4.225 8.639-7.263 18.513-8.972 27.959-3.941 21.93-4.178 47.611 5.649 68.069 4.984 10.396 13.862 22.073 23.404 28.766 13.435 9.446 33.895 13.434 49.894 13.434 9.114 0 18.324-1.092 27.154-3.845 32.281-10.063 51.033-37.548 54.214-70.586-1.709-2.088-3.513-4.034-5.555-5.791z" fill="#FAC491"/><path d="M264.219 257.956c-19.084-.19-38.216 1.566-56.872 5.743-10.539 2.374-20.794 5.222-30.668 9.684l-3.703 1.709c.997 9.921 3.371 19.652 7.548 28.386 4.985 10.395 13.862 22.073 23.404 28.766 13.435 9.446 33.896 13.433 49.894 13.433 9.115 0 18.325-1.092 27.155-3.845 30.429-9.493 48.801-34.462 53.501-64.984-20.223-13.671-45.431-18.607-70.259-18.892z" fill="#BF9C87"/><path d="M261.608 339.174c-12.391-1.329-24.734-4.557-35.7-10.538-10.776-5.886-22.692-14.715-28.958-25.585-16.331-28.434 33.563-40.206 51.935-42.342 29.48-3.418 60.005 2.088 85.356 17.8.095-.569.19-1.091.285-1.661-20.271-13.623-45.479-18.608-70.26-18.845-19.084-.19-38.215 1.567-56.872 5.744-10.539 2.373-20.793 5.221-30.667 9.683l-3.703 1.709c.997 9.921 3.37 19.652 7.548 28.386 4.984 10.396 13.862 22.073 23.404 28.766 13.435 9.446 33.895 13.434 49.894 13.434 9.114 0 18.324-1.092 27.154-3.845 3.228-.997 6.266-2.184 9.21-3.513-9.495 1.424-19.084 1.804-28.626.807z" fill="#B0907D"/><path d="M312.024 252.877c0 3.797-7.074 6.882-15.761 6.882-8.735 0-15.761-3.085-15.761-6.882 0-3.798 7.073-6.883 15.761-6.883 8.735 0 15.761 3.085 15.761 6.883zm-83.837.474c0 3.798-7.073 6.883-15.761 6.883-8.735 0-15.761-3.085-15.761-6.883 0-3.797 7.074-6.883 15.761-6.883 8.688 0 15.761 3.086 15.761 6.883z" fill="#E8A894"/><path d="M235.165 235.551c0 6.788-4.415 12.246-9.921 12.246-5.46 0-9.922-5.506-9.922-12.246 0-6.788 4.415-12.247 9.922-12.247 5.459 0 9.921 5.459 9.921 12.247z" fill="#423D33"/><path d="M235.45 235.028a4.255 4.255 0 01-4.272 4.273 4.255 4.255 0 01-4.273-4.273 4.255 4.255 0 014.273-4.272 4.255 4.255 0 014.272 4.272zm-8.735-5.506a2.026 2.026 0 01-2.041 2.041 2.026 2.026 0 01-2.041-2.041c0-1.139.902-2.041 2.041-2.041 1.139 0 2.041.949 2.041 2.041z" fill="#fff"/><path d="M291.705 235.551c0 6.788-4.415 12.246-9.921 12.246-5.507 0-9.922-5.506-9.922-12.246 0-6.788 4.415-12.247 9.922-12.247 5.506 0 9.921 5.459 9.921 12.247z" fill="#423D33"/><path d="M291.99 235.028a4.255 4.255 0 01-4.272 4.273 4.255 4.255 0 01-4.273-4.273 4.255 4.255 0 014.273-4.272 4.255 4.255 0 014.272 4.272zm-8.735-5.506a2.026 2.026 0 01-2.041 2.041 2.026 2.026 0 01-2.042-2.041c0-1.139.902-2.041 2.042-2.041 1.139 0 2.041.949 2.041 2.041z" fill="#fff"/><path d="M199.419 299.728c2.516 6.171 5.411 12.104 10.111 16.994 4.558 4.746 10.776 7.452 16.9 9.541 2.042.712 2.896-2.516.902-3.181-5.696-1.993-11.061-4.462-15.428-8.686-4.368-4.225-6.979-10.016-9.257-15.523-.807-1.993-4.035-1.139-3.228.855z" fill="#9B806E"/><path d="M224.864 278.082c0 4.225 2.468 7.595 5.507 7.595 3.038 0 5.507-3.418 5.507-7.595 0-4.224-2.469-7.595-5.507-7.595-3.039-.047-5.507 3.371-5.507 7.595z" fill="#836C5E"/><path d="M225.766 273.905c.997-2.089 2.658-3.418 4.605-3.418 3.038 0 5.507 3.418 5.507 7.595 0 1.377-.285 2.611-.712 3.75-.808-6.313-3.229-8.259-9.4-7.927z" fill="#665548"/><path d="M242.096 268.019s-.474-.095-1.234-.332a8.061 8.061 0 00-1.376-.38 44.925 44.925 0 00-1.71-.427c-.617-.143-1.281-.333-2.041-.427-.712-.143-1.471-.238-2.231-.333-.76-.047-1.567-.19-2.326-.142-.807-.048-1.567 0-2.374.047-.759.095-1.566.143-2.326.333-.76.142-1.472.379-2.231.569-.665.285-1.424.475-1.994.807-.332.143-.617.285-.95.427-.284.19-.569.333-.854.475-.57.285-1.044.617-1.519.902-.475.285-.855.57-1.14.807-.617.475-1.044.759-1.044.759s.143-.474.427-1.234c.143-.379.333-.854.665-1.329.285-.475.617-1.092 1.139-1.614.238-.285.475-.569.76-.854.285-.285.617-.522.902-.807.617-.57 1.424-1.044 2.231-1.519.855-.38 1.709-.855 2.706-1.092.949-.332 1.946-.427 2.943-.57.997-.047 1.994-.095 2.991.048.475.047.95.095 1.424.237.475.095.95.19 1.377.333.854.284 1.709.569 2.469.949.759.332 1.424.759 1.993 1.139.618.38 1.092.855 1.567 1.234.475.38.807.712 1.044 1.045l.712.949z" fill="#D6AD98"/><path d="M281.831 285.677c3.041 0 5.507-3.4 5.507-7.595 0-4.194-2.466-7.595-5.507-7.595-3.041 0-5.507 3.401-5.507 7.595 0 4.195 2.466 7.595 5.507 7.595z" fill="#836C5E"/><path d="M286.436 273.905c-.997-2.089-2.706-3.418-4.605-3.418-3.038 0-5.507 3.418-5.507 7.595 0 1.377.285 2.611.712 3.75.855-6.313 3.276-8.259 9.4-7.927z" fill="#665548"/><path d="M270.153 268.019s.285-.38.807-.997c.285-.332.569-.664 1.044-1.044.427-.38.95-.855 1.567-1.234.569-.428 1.282-.807 2.041-1.14.76-.379 1.567-.664 2.469-.949.427-.142.902-.237 1.376-.332.475-.095.95-.19 1.425-.238.949-.142 1.946-.094 2.99-.047.997.142 1.994.237 2.944.57.949.237 1.851.664 2.706 1.091.807.523 1.614.95 2.231 1.519.332.285.664.523.902.807.237.285.522.57.759.855.475.522.807 1.139 1.14 1.614.332.474.522.949.664 1.329.333.759.428 1.234.428 1.234s-.428-.285-1.045-.76c-.285-.237-.712-.522-1.139-.806-.475-.285-.95-.618-1.519-.902-.285-.143-.57-.333-.855-.475a18.704 18.704 0 00-.949-.427c-.617-.333-1.33-.522-1.994-.807-.712-.19-1.424-.427-2.231-.57-.76-.19-1.519-.237-2.327-.332-.807-.048-1.566-.095-2.373-.048-.807 0-1.567.095-2.326.143-.76.142-1.519.19-2.232.332-.712.095-1.376.285-2.041.427a30.82 30.82 0 00-1.709.427c-.522.143-.997.285-1.377.38-.902.285-1.376.38-1.376.38z" fill="#D6AD98"/><path d="M195.953 301.294c5.507-1.139 10.159-5.269 11.298-10.87.428-2.089-2.753-2.99-3.18-.902-.902 4.557-4.51 7.643-9.02 8.544-2.089.475-1.187 3.656.902 3.228z" fill="#9B806E"/><path d="M254.012 263.794c1.472 0 1.472-2.326 0-2.326s-1.472 2.326 0 2.326zm1.994 10.348c1.472 0 1.472-2.326 0-2.326s-1.472 2.326 0 2.326zm5.744-8.591c1.472 0 1.472-2.326 0-2.326s-1.472 2.326 0 2.326zm8.593 8.829c1.471 0 1.471-2.326 0-2.326-1.472 0-1.472 2.326 0 2.326zm-25.825 2.421c1.471 0 1.471-2.326 0-2.326-1.472 0-1.472 2.326 0 2.326zm5.079-6.409c1.472 0 1.472-2.326 0-2.326s-1.472 2.326 0 2.326zm2.231 12.817c1.472 0 1.472-2.326 0-2.326-1.471 0-1.519 2.326 0 2.326zm18.325-2.184c1.471 0 1.471-2.326 0-2.326-1.472 0-1.52 2.326 0 2.326zm-2.659-16.376c1.519 0 1.519-2.326 0-2.326-1.519.047-1.519 2.326 0 2.326zm-5.317 16.139c1.472 0 1.472-2.326 0-2.326-1.471 0-1.471 2.326 0 2.326zm-23.404 4.842c1.472 0 1.472-2.326 0-2.326-1.471 0-1.471 2.326 0 2.326zm.475-14.336c1.472 0 1.472-2.326 0-2.326-1.519 0-1.519 2.326 0 2.326zm-27.202 6.171c1.472 0 1.472-2.326 0-2.326-1.471 0-1.471 2.326 0 2.326zm-.854-10.585c1.471 0 1.471-2.326 0-2.326-1.519 0-1.519 2.326 0 2.326zm-11.061 5.506c1.519 0 1.519-2.326 0-2.326-1.472 0-1.472 2.326 0 2.326zm17.232 11.725c1.472 0 1.472-2.326 0-2.326s-1.472 2.326 0 2.326zm77.523 1.329c1.472 0 1.472-2.326 0-2.326s-1.519 2.326 0 2.326zm-.902-7.31c1.472 0 1.472-2.326 0-2.326s-1.472 2.326 0 2.326zm8.165-3.988c1.472 0 1.472-2.326 0-2.326-1.471 0-1.471 2.326 0 2.326zm-.427-6.408c1.472 0 1.472-2.326 0-2.326-1.519.048-1.519 2.326 0 2.326zm.665 14.81c1.471 0 1.471-2.326 0-2.326-1.472 0-1.519 2.326 0 2.326zm9.067-10.822c1.471 0 1.471-2.326 0-2.326-1.472 0-1.519 2.326 0 2.326zm-68.693-8.165c1.519 0 1.519-2.326 0-2.326-1.472 0-1.472 2.326 0 2.326zm20.983 9.731c1.472 0 1.472-2.326 0-2.326s-1.519 2.326 0 2.326zm45.241 5.269c1.472 0 1.472-2.326 0-2.326-1.471.047-1.471 2.326 0 2.326zm-106.291-.095c1.472 0 1.472-2.326 0-2.326-1.519 0-1.519 2.326 0 2.326zm4.937-6.598c1.472 0 1.472-2.326 0-2.326-1.471 0-1.471 2.326 0 2.326zm10.966 4.272c1.52 0 1.52-2.326 0-2.326-1.519 0-1.519 2.326 0 2.326zm27.819-10.585c1.472 0 1.472-2.326 0-2.326-1.519 0-1.519 2.326 0 2.326zm50.321 1.993c1.472 0 1.472-2.326 0-2.326-1.471 0-1.471 2.326 0 2.326zm10.302 3.323c1.519 0 1.519-2.326 0-2.326s-1.519 2.326 0 2.326zm10.254 4.272c1.472 0 1.472-2.326 0-2.326-1.519 0-1.519 2.326 0 2.326zm-46.048 11.915c1.471 0 1.471-2.326 0-2.326-1.472 0-1.472 2.326 0 2.326zm-11.584.332c1.519 0 1.519-2.326 0-2.326-1.519.048-1.519 2.326 0 2.326zm-13.909 2.326c1.471 0 1.471-2.326 0-2.326-1.472 0-1.519 2.326 0 2.326z" fill="#846E5F"/><path d="M245.752 289.712c1.471 0 1.471-2.326 0-2.326-1.472 0-1.519 2.326 0 2.326z" fill="#846E5F"/><path d="M227.522 165.345c3.323-6.598 7.169-15.048 12.818-20.174 1.329-1.234 5.744-5.079 7.975-3.655 3.703 2.373-3.085 7.832.855 9.921 3.893 2.041 7.311-5.079 11.916-3.988 5.269 1.235-.048 6.171.332 9.067 2.991.19 9.067-1.187 10.966 1.804 1.756 2.8-1.139 6.123-.76 9.019" fill="#FAC491"/><path d="M224.864 174.981s-12.58-16.566-9.922-31.139l-19.226 6.645 17.232 29.81c0-.047 6.646 3.94 11.916-5.316z" fill="#836C5E"/><path d="M214.8 151.674c-.333-2.611-.333-5.269.142-7.832l-19.226 6.645 17.232 29.81s.807.475 2.089.712c-3.276-9.588-3.845-19.889-.237-29.335z" fill="#766254"/><path d="M218.455 134.585c0 10.871-8.782 19.652-19.654 19.652-10.871 0-19.653-8.781-19.653-19.652 0-10.87 8.782-19.651 19.653-19.651 10.872 0 19.654 8.781 19.654 19.651z" fill="#8E705E"/><path d="M204.688 143.462c-9.922 3.418-19.654-1.092-25.54-9.114v.237c0 10.871 8.782 19.652 19.653 19.652 10.872 0 19.654-8.781 19.654-19.652 0-.379-.047-.759-.047-1.091-3.608 4.462-8.213 8.117-13.72 9.968z" fill="#816554"/><path d="M208.533 122.291c0 2.611-2.611 4.747-5.839 4.747s-5.839-2.136-5.839-4.747c0-2.611 2.611-4.747 5.839-4.747s5.839 2.136 5.839 4.747z" fill="#AE9282"/><path d="M280.454 173.794s12.581-16.566 9.922-31.139l19.226 6.646-17.232 29.81c0-.048-6.646 3.94-11.916-5.317z" fill="#836C5E"/><path d="M290.471 150.487c.332-2.61.332-5.269-.142-7.832l19.226 6.646-17.233 29.81s-.807.474-2.088.712c3.323-9.589 3.892-19.889.237-29.336z" fill="#766254"/><path d="M286.863 133.399c0 10.87 8.783 19.652 19.654 19.652s19.653-8.782 19.653-19.652c0-10.871-8.782-19.652-19.653-19.652-10.871 0-19.654 8.781-19.654 19.652z" fill="#8E705E"/><path d="M300.63 142.275c9.922 3.418 19.654-1.091 25.54-9.114v.238c0 10.87-8.782 19.652-19.653 19.652-10.871 0-19.654-8.782-19.654-19.652 0-.38.048-.76.048-1.092 3.607 4.462 8.212 8.117 13.719 9.968z" fill="#816554"/><path d="M296.785 121.104c0 2.611 2.611 4.747 5.839 4.747s5.839-2.136 5.839-4.747c0-2.61-2.611-4.746-5.839-4.746s-5.839 2.136-5.839 4.746z" fill="#AE9282"/><path d="M224.389 173.652c4.32-6.788 10.966-13.244 16.805-14.098.76-.095 2.232-.332 2.991-.048 1.282.475.665.475 1.519 1.567 3.466 4.462 8.071 4.13 13.435 2.895 3.323-.759 7.216-2.136 10.159-.047 2.136 1.519 4.273 5.838 6.599 6.408" fill="#FDD396"/><path d="M176.015 260.092c-.048 3.085-.285 6.171 0 9.256.094 1.044 1.756 1.044 1.661 0-.285-3.085-.047-6.171 0-9.256 0-1.092-1.661-1.092-1.661 0zm4.32-4.415c.379 2.184.759 4.367 1.898 6.314.57.901 1.994.094 1.425-.855-1.092-1.804-1.377-3.892-1.757-5.933-.142-1.045-1.709-.57-1.566.474zm-4.463-9.019c-.19 1.899-.475 3.75-.475 5.649 0 1.044 1.662 1.044 1.662 0 .047-1.899.332-3.75.475-5.649.095-1.044-1.567-1.044-1.662 0zm1.994-14.762c-.142.949-.332 1.898-.475 2.8-.19 1.045 1.377 1.472 1.614.427.19-.949.333-1.898.475-2.8.142-1.045-1.424-1.519-1.614-.427zm2.801 13.006c.142.949.142 1.899.332 2.8.19 1.045 1.804.618 1.614-.427-.19-.949-.19-1.898-.332-2.8-.142-1.045-1.757-.617-1.614.427zm2.136-20.269c-.142 1.709-.19 3.418-.332 5.126-.095 1.045 1.566 1.045 1.661 0 .143-1.708.19-3.417.333-5.126.095-1.044-1.567-1.044-1.662 0zm.712-11.82c-.664 1.662-1.187 3.323-1.804 4.984-.38.997 1.235 1.425 1.614.428.665-1.662 1.187-3.323 1.804-4.984.38-.95-1.234-1.377-1.614-.428zm7.833-13.101l-.997 2.136c-.475.949.95 1.804 1.424.855l.997-2.137c.475-.949-.949-1.803-1.424-.854zm11.963-14.905a53.276 53.276 0 01-4.51 5.316c-.759.76.428 1.947 1.187 1.187 1.757-1.756 3.276-3.655 4.747-5.649.618-.854-.807-1.708-1.424-.854zm-17.375 55.253c.19 2.089.522 4.13 1.045 6.171.237 1.044 1.851.617 1.614-.427-.475-1.899-.807-3.798-.95-5.744-.142-1.044-1.804-1.092-1.709 0zm2.849 16.424c.19.997.522 1.994.807 2.991.332.997 1.946.569 1.614-.428-.333-.996-.665-1.946-.807-2.99-.19-1.044-1.804-.617-1.614.427zm45.241-97.168c1.139-1.661 2.184-3.417 3.703-4.794.807-.712-.38-1.899-1.187-1.187-1.614 1.472-2.706 3.371-3.94 5.127-.617.902.854 1.709 1.424.854zm6.646-10.11c.522-.665 1.14-1.282 1.662-1.994.285-.38.047-.949-.285-1.139-.427-.238-.855-.048-1.139.285-.523.664-1.14 1.281-1.662 1.993-.285.38-.047.95.285 1.139.427.285.854.095 1.139-.284zm3.466 2.848c.332-.522.617-1.045 1.044-1.472.712-.759-.427-1.946-1.187-1.186-.522.569-.902 1.186-1.281 1.803-.57.902.854 1.709 1.424.855zm-.95 5.269c.665-.665 1.377-1.187 2.137-1.709.902-.57.095-1.994-.855-1.424a14.407 14.407 0 00-2.469 1.946c-.759.76.428 1.946 1.187 1.187zm6.457.664c2.278-2.231 4.984-3.892 7.595-5.648.855-.617.048-2.042-.854-1.424-2.754 1.851-5.555 3.607-7.976 5.933-.712.712.475 1.899 1.235 1.139zm6.598 2.659c.95-.807 1.899-1.567 2.991-2.184.902-.522.095-1.946-.854-1.424-1.187.712-2.279 1.566-3.324 2.468-.807.665.38 1.804 1.187 1.14zm8.308.142a22.593 22.593 0 012.943-1.234c.997-.332.57-1.946-.427-1.614-1.139.38-2.279.854-3.323 1.424-.997.475-.142 1.899.807 1.424zM164.194 188.13c1.044 1.424 2.136 2.8 3.608 3.797.902.57 1.709-.854.854-1.424-1.234-.807-2.136-1.994-3.038-3.18-.617-.855-2.041-.048-1.424.807zm8.26 8.402c1.424 1.044 2.896 1.898 4.652 2.231 1.045.19 1.472-1.377.428-1.614-1.614-.333-2.944-1.092-4.273-2.089-.807-.569-1.661.855-.807 1.472zm8.023.474c1.044 0 1.044-1.661 0-1.661s-1.044 1.661 0 1.661zm-1.139 6.124c1.091 0 1.091-1.662 0-1.662-1.092 0-1.092 1.662 0 1.662zm5.222-7.31c1.186.284 2.421.617 3.655.807 1.044.142 1.472-1.424.427-1.614-1.234-.19-2.421-.522-3.655-.807-.997-.238-1.424 1.329-.427 1.614zm-.902 4.794c1.281 0 2.516-.19 3.703-.712.996-.38.569-1.994-.428-1.614-1.044.427-2.136.617-3.275.617-1.092.095-1.092 1.756 0 1.709zm9.826-11.772c1.567-.38 3.086-.855 4.653-1.329.997-.285.569-1.899-.427-1.614-1.52.474-3.086.949-4.653 1.329-1.092.285-.617 1.851.427 1.614zm-34.607-9.304c1.329 1.471 2.753 2.896 4.32 4.13.807.664 1.994-.522 1.187-1.187-1.567-1.234-2.991-2.658-4.32-4.13-.712-.807-1.899.38-1.187 1.187zm187.991 4.937a11.363 11.363 0 01-3.987 3.512c-.95.475-.095 1.899.854 1.424 1.852-.949 3.371-2.421 4.605-4.082.57-.854-.854-1.709-1.472-.854zm-10.111 9.446c-.997.807-2.136 1.471-3.133 2.326-.807.664.332 1.851 1.186 1.187.997-.807 2.137-1.472 3.134-2.326.807-.712-.38-1.852-1.187-1.187zm-2.516-4.272c-.902.427-1.852.759-2.801 1.092-.997.332-.57 1.946.427 1.613 1.092-.379 2.136-.759 3.181-1.234.997-.522.142-1.946-.807-1.471zm-4.748 10.68c-1.044.143-2.088.095-3.085-.047-.428-.048-.807.427-.807.807 0 .474.379.759.807.807 1.187.142 2.326.142 3.513-.048 1.044-.095.617-1.661-.428-1.519zm-3.323-5.126c-.712.142-1.376.142-2.088.142-1.092 0-1.092 1.661 0 1.661.854 0 1.709-.047 2.516-.19 1.044-.189.617-1.803-.428-1.613zm-10.966-8.925c-.712-.189-1.424-.474-2.136-.664-1.044-.285-1.472 1.329-.427 1.614.712.19 1.424.475 2.136.664.997.238 1.424-1.376.427-1.614z" fill="#F5A886"/><path d="M177.296 589.997c0 12.247-9.922 22.168-22.169 22.168-12.248 0-22.17-9.921-22.17-22.168s9.922-22.168 22.17-22.168c12.247 0 22.169 9.921 22.169 22.168z" fill="#BF9C87"/><path d="M277.891 527.861s.664 46.376.664 68.876c0 22.5-3.323 33.133 23.167 31.804 20.888-1.044 15.903-35.791 15.903-35.791l.665-69.541" fill="#FDD396"/><path d="M277.891 528.051c.047 1.803.19 15.284.379 30.807 9.353-8.972 11.584-25.443-.379-30.807zm27.819 55.633c2.611 5.174 7.026 7.784 11.915 8.259l.285-29.478c-8.497 3.465-17.185 11.298-12.2 21.219z" fill="#BF9C87"/><path d="M307.514 598.256c-10.16 2.801-19.084 1.757-29.006.19-.143 21.361-2.611 31.377 23.214 30.095 18.609-.949 16.663-28.528 16.046-34.604-3.086 1.946-6.647 3.322-10.254 4.319z" fill="#A28673"/><path d="M317.768 594.174c-2.754 18.75-21.458 29.431-38.026 26.345 2.231 6.029 7.881 8.687 21.933 7.975 18.419-.902 16.757-27.817 16.093-34.32z" fill="#987D6C"/><path d="M357.977 623.225c.095-7.928-1.282-15.855-5.032-22.31-5.459-9.399-13.577-12.674-25.54-13.007-3.371-.095-7.596.617-10.587 2.184-2.326 5.174-6.503 11.677-9.399 15.474-8.83 11.725 23.404 35.792 23.404 35.792s13.007-2.564 27.154-18.133z" fill="#937A69"/><path d="M346.726 619.997c0 12.247-9.922 22.168-22.17 22.168-12.248 0-22.169-9.921-22.169-22.168s9.921-22.168 22.169-22.168c12.201-.047 22.17 9.874 22.17 22.168z" fill="#BF9C87"/><path d="M282.258 615.867c.712.902 2.469 2.421 3.513.997.95-1.282-.522-3.465-.664-4.794-.285-2.659 1.851-5.127 2.848-7.405.617-1.424-1.614-1.757-2.421-1.709-5.459.19-5.792 9.636-3.276 12.911z" fill="#BB9984"/><path d="M267.304 353.842c.048 3.18.475 6.36.902 9.493.143 1.045 1.757.618 1.615-.427-.428-2.99-.808-6.028-.855-9.066 0-1.045-1.662-1.045-1.662 0zm3.608 21.455c.427 1.662.807 3.323.855 5.079 0 1.045 1.661 1.092 1.661 0-.047-1.898-.474-3.702-.902-5.506-.285-1.092-1.899-.617-1.614.427zm-6.219-5.316c.428 1.661.807 3.323.855 5.079 0 1.044 1.661 1.044 1.661 0-.047-1.899-.474-3.702-.902-5.506-.284-1.044-1.851-.617-1.614.427zm-2.468-18.75c-.238 2.231-.38 4.509.474 6.646.38.996 1.994.569 1.614-.428-.807-1.993-.617-4.082-.427-6.17.143-1.14-1.519-1.14-1.661-.048zm13.387 36.836c.665 1.376 1.092 2.848 1.757 4.177.474.949 1.898.142 1.424-.855-.665-1.376-1.092-2.848-1.757-4.177-.475-.949-1.899-.095-1.424.855zm-5.602-.428c.855 2.136 1.804 4.272 2.659 6.409.38.996 1.994.569 1.614-.428-.855-2.136-1.804-4.272-2.659-6.408-.427-.997-2.041-.57-1.614.427zm30.668 33.465a51.275 51.275 0 005.079 5.08c.807.712 1.994-.475 1.187-1.187a51.383 51.383 0 01-5.08-5.079c-.712-.76-1.899.427-1.186 1.186zm-3.513 3.988a61.578 61.578 0 006.788 5.886c.855.617 1.709-.807.855-1.424-2.326-1.709-4.415-3.608-6.457-5.601-.759-.76-1.946.379-1.186 1.139zm17.375 4.319c1.091.665 2.183 1.33 3.323 1.994.902.57 1.756-.902.854-1.424-1.092-.665-2.231-1.329-3.323-1.994-.949-.522-1.756.902-.854 1.424zm-2.849 4.652c.712.475 1.424.855 2.041 1.424.76.712 1.947-.427 1.187-1.186-.712-.665-1.566-1.14-2.373-1.662-.95-.569-1.757.855-.855 1.424zm43.533 33.228c1.092 1.282 2.183 2.611 2.658 4.272.285 1.045 1.899.57 1.614-.427-.522-1.946-1.804-3.465-3.086-4.984-.712-.855-1.851.285-1.186 1.139zm8.497 13.291c1.757 2.469 3.133 5.127 4.653 7.738.522.902 1.946.095 1.424-.855-1.519-2.611-2.896-5.269-4.653-7.737-.617-.855-2.041-.048-1.424.854zm-7.833-2.278c1.282 1.519 2.326 3.228 3.418 4.889.57.902 1.994.095 1.425-.854-1.14-1.804-2.279-3.608-3.656-5.269-.712-.76-1.851.427-1.187 1.234zm29.813 54.399c.237 3.75.427 7.499.427 11.249 0 1.045 1.662 1.045 1.662 0 0-3.75-.238-7.499-.428-11.249-.094-1.045-1.756-1.045-1.661 0zm-4.89.664c.19 1.519.238 3.086.428 4.652.142 1.044 1.804 1.044 1.661 0-.19-1.519-.237-3.085-.427-4.652-.142-1.044-1.804-1.044-1.662 0zm.475 15.475c0 1.471-.19 2.943-.427 4.414-.143 1.045 1.424 1.472 1.614.428.237-1.614.475-3.228.475-4.842 0-1.092-1.662-1.092-1.662 0zm3.086 7.262c-.665 1.614-1.092 3.276-1.757 4.842-.427.997 1.187 1.424 1.614.427.665-1.614 1.092-3.275 1.757-4.841.427-.95-1.187-1.377-1.614-.428zm-19.654 48.418c-1.614 2.041-3.18 4.13-4.557 6.361-.57.902.854 1.756 1.424.854 1.282-2.088 2.753-4.082 4.273-6.028.664-.807-.475-1.994-1.14-1.187zm-6.266 2.516c1.044 0 1.044-1.661 0-1.661-1.045.047-1.045 1.661 0 1.661zm2.611-7.642c-.617 1.234-1.235 2.515-2.089 3.607-.665.855.522 1.994 1.187 1.187.949-1.234 1.661-2.563 2.326-3.94.475-.949-.95-1.804-1.424-.854zm-3.086-4.605c-.76 1.377-1.519 2.801-2.516 4.035-.665.807.475 1.994 1.187 1.187 1.092-1.329 1.899-2.848 2.801-4.367.474-.95-.95-1.804-1.472-.855zm19.511-42.009c-.237 1.993-.474 3.987-.854 5.981-.19 1.044 1.377 1.471 1.614.427.427-2.136.664-4.272.902-6.408.142-1.045-1.519-1.045-1.662 0zm-2.184-19.415c.238 2.184.428 4.415.428 6.646 0 1.044 1.661 1.044 1.661 0 0-2.231-.237-4.415-.427-6.646-.095-1.044-1.756-1.044-1.662 0zm-27.486-57.199c1.519 2.183 3.038 4.367 4.415 6.645.569.902 1.994.095 1.424-.854-1.377-2.279-2.896-4.462-4.415-6.646-.617-.854-2.041-.047-1.424.855zm10.729 16.709c.617.664.997 1.471 1.424 2.278.475.949 1.899.095 1.424-.854-.475-.95-.949-1.852-1.662-2.611-.759-.76-1.946.427-1.186 1.187zm-69.927-71.678c.949 1.614 2.136 3.038 3.465 4.367.76.76 1.899-.427 1.187-1.186-1.234-1.234-2.326-2.516-3.181-4.035-.569-.902-1.994-.095-1.471.854zm-22.597-28.908c.902 2.706 1.566 5.506 2.658 8.165.38.997 1.994.569 1.614-.428-1.092-2.658-1.756-5.458-2.658-8.164-.333-1.044-1.947-.617-1.614.427zm-3.513-12.579c.474 1.614.902 3.275 1.566 4.842.427.949 1.994.522 1.614-.427-.664-1.567-1.092-3.228-1.566-4.842-.333-1.044-1.899-.617-1.614.427zm-4.225-17.468c0 1.993 0 3.987.237 5.981.095 1.044 1.756 1.044 1.661 0-.189-1.994-.237-3.988-.237-5.981 0-1.045-1.661-1.045-1.661 0zm-.712-12.627c1.044 0 1.044-1.661 0-1.661-1.092 0-1.092 1.661 0 1.661zm23.451 214.889c0 1.899.19 3.845.237 5.744 0 1.044 1.662 1.044 1.662 0 0-1.899-.19-3.845-.238-5.744 0-1.091-1.661-1.091-1.661 0zm.19 14.336c.19 1.519.237 3.085.427 4.652.142 1.044 1.804 1.044 1.662 0-.19-1.519-.238-3.086-.428-4.652-.142-1.045-1.756-1.045-1.661 0zm.19 12.104c1.044 0 1.044-1.661 0-1.661-1.092 0-1.092 1.661 0 1.661zm-.807 1.377c0 1.329.19 2.658.237 3.987 0 1.044 1.662 1.092 1.662 0 0-1.329-.19-2.658-.238-3.987-.047-1.092-1.709-1.092-1.661 0zm4.415.237c.19 1.424.427 2.801.664 4.177.19 1.045 1.757.618 1.614-.427-.237-1.376-.474-2.8-.664-4.177-.143-1.092-1.757-.617-1.614.427zm0-34.699c-.19 1.993-.238 3.987-.238 5.981 0 1.044 1.662 1.044 1.662 0 0-1.994 0-3.988.237-5.981.095-1.045-1.566-1.045-1.661 0zm.664 18.323c.238 1.234.238 2.515.427 3.75.143 1.044 1.757.617 1.615-.428-.19-1.234-.19-2.516-.428-3.75-.19-1.044-1.804-.617-1.614.428zm28.484-37.738c-.237 3.228-.427 6.456-.427 9.731 0 1.092 1.661 1.045 1.661 0 0-3.228.238-6.455.427-9.731.048-1.044-1.614-1.044-1.661 0zm.57 14.525c1.091 0 1.091-1.661 0-1.661-1.045 0-1.045 1.661 0 1.661zm-4.368 3.798c-.19 1.756-.237 3.513-.237 5.317 0 1.044 1.661 1.044 1.661 0 0-1.757 0-3.561.237-5.317.143-1.044-1.519-1.044-1.661 0zm3.56 1.092v3.987c0 1.044 1.662 1.044 1.662 0v-3.987c0-1.045-1.662-1.045-1.662 0zm-3.75-11.488c-.237.95-.237 1.899-.237 2.849 0 1.044 1.661 1.044 1.661 0 0-.807 0-1.614.19-2.421.238-.997-1.376-1.472-1.614-.428z" fill="#F9BB7A"/><path d="M218.74 422.196c-2.564 4.225-5.887 7.785-8.403 12.057-.522.855-1.282 2.279-1.139 3.323.142 1.092.854 1.424.854 2.516 0 1.376-.997 3.228-1.424 4.509.048-.095 0-.142-.047-.19-1.14 1.424-2.232 3.371-2.754 5.079-.712 2.326.38 2.611 1.567 4.273 2.184 3.038-.19 7.215-1.614 10.063-1.424 2.801-2.374 6.93-.522 9.826.474.807.949 1.092 1.946.997" fill="#FDD396"/><path d="M401.652 482.196c3.75 1.756 7.026 2.848 11.108 1.804 3.324-.854 4.273-4.937 4.226-7.927-.048-4.795-1.947-9.209-4.938-12.912-2.516-3.038-6.029-6.028-7.5-9.778-1.14-2.848.997-5.649 3.513-6.836-1.377-.142-2.849-.189-4.225.238-3.134.997-5.412 4.604-6.409 7.595-.19-.76-.712-1.329-.95-2.041-2.753 1.091-3.228 7.927-3.086 10.538-.522-.38-1.566-.38-2.088-.76-4.558 6.883 4.7 17.421 10.349 20.079z" fill="#AA9078"/><path d="M414.802 474.934c-4.748 5.174-6.409-3.371-10.682-5.032-.427 4.177 0 7.737-5.222 4.177-4.13-2.801-7.548-6.171-8.26-10.965-2.991 6.93 5.602 16.519 10.966 19.035 3.751 1.756 7.026 2.848 11.109 1.804 2.943-.76 4.035-4.083 4.225-6.931-.76-.522-1.472-1.329-2.136-2.088z" fill="#927C67"/><path d="M291 619.186c0-9.424-7.006-17.54-16.607-20.419.13-1.179.26-2.488.26-3.666 0-14.398-11.548-25.917-25.689-25.917-3.633 0-7.006.785-10.12 2.094C234.562 561.199 223.534 554 210.56 554c-10.509 0-19.851 4.843-25.17 12.042a28.208 28.208 0 00-9.99-1.832c-13.883 0-25.3 10.341-27.376 23.692-1.167-.131-2.335-.262-3.503-.262-13.493 0-24.521 9.687-24.521 21.598 0 8.77 5.968 16.362 14.531 19.635 0 .523-.13 1.047-.13 1.57 0 12.828 10.25 23.169 22.965 23.169 4.67 0 8.952-1.44 12.585-3.796 4.8 9.032 15.18 15.184 27.246 15.184 9.6 0 18.163-4.058 23.742-10.21 5.06 5.89 12.585 9.556 20.889 9.556 13.752 0 25.299-10.21 27.246-23.562 12.455-1.44 21.926-10.472 21.926-21.598z" fill="#F0F0F0"/><path d="M283 619.599c0-9.34-7.006-17.382-16.607-20.236.13-1.167.26-2.464.26-3.632 0-14.269-11.548-25.684-25.689-25.684-3.633 0-7.006.778-10.12 2.076-4.282-9.989-15.31-17.123-28.284-17.123-10.509 0-19.851 4.8-25.17 11.934a28.422 28.422 0 00-9.99-1.816c-13.883 0-25.3 10.248-27.376 23.479-1.167-.13-2.335-.26-3.503-.26-13.493 0-24.521 9.599-24.521 21.404 0 8.691 5.968 16.214 14.531 19.457 0 .519-.13 1.038-.13 1.557 0 12.712 10.25 22.96 22.965 22.96 4.67 0 8.952-1.427 12.585-3.762 4.8 8.95 15.18 15.047 27.246 15.047 9.6 0 18.163-4.021 23.742-10.118 5.06 5.837 12.585 9.469 20.889 9.469 13.882 0 25.299-10.118 27.246-23.349C273.529 639.575 283 630.625 283 619.599z" fill="#EEF7FB"/></g><defs><clipPath id="clip0"><path fill="#fff" d="M0 0h468v666H0z"/></clipPath></defs></svg>