<svg width="85" height="91" fill="none" xmlns="http://www.w3.org/2000/svg"><path d="M30.851 74.208l-9.746-34.437c-2.356-8.66 2.554-17.715 11.214-20.07 8.66-2.356 17.715 2.554 20.071 11.214l1.439 4.89 4.623-.999c8.775-1.884 17.473 3.612 19.357 12.387 1.884 8.775-3.612 17.473-12.387 19.357l-34.57 7.658z" fill="#FCD298"/><path d="M68.816 40.684c-3.392 1.108-.47 3.5.737 5.896 1.243 2.637 1.56 5.654 1.5 8.603-.06 2.95-2.896 6.181-.836 6.86 2.436.748 3.904-1.794 4.48-3.716 2.277-7.07 1.65-10.532-1.038-14.674-1.342-1.642-3.439-3.419-4.843-2.969z" fill="#FFF2CF"/><path d="M29.617 35.305l-19.885-6.35c-4.97-1.644-7.791-6.947-6.148-11.917 1.644-4.97 6.947-7.792 11.917-6.148l2.841.875 1.003-2.57c1.91-4.874 7.383-7.334 12.257-5.424 4.874 1.91 7.333 7.383 5.424 12.257l-7.41 19.277z" fill="#FD9587"/><path d="M24.08 5.868c-.364 2.049 1.67 1.204 3.234 1.243 1.698.086 3.337.753 4.837 1.595 1.5.842 2.382 3.19 3.298 2.318 1.055-1.048.151-2.501-.678-3.327-3.01-3.116-4.963-3.746-7.832-3.503-1.214.238-2.705.828-2.86 1.674z" fill="#FFF2CF"/></svg>