<svg width="183" height="77" fill="none" xmlns="http://www.w3.org/2000/svg"><path d="M41.33 49.297c-2.592-1.967-5.304-2.921-8.078-2.921-1.929 0-3.978.715-6.27 2.146-2.591 1.67-3.918 3.697-3.918 6.082 0 1.908.844 3.458 2.532 4.77 1.387 1.073 2.894 1.669 4.401 1.669 1.085 0 2.23-.358 3.496-1.073 1.508-.895 2.291-1.968 2.291-3.22 0-.596-.24-1.252-.783-1.908-.483-.715-.965-1.013-1.387-1.013-.482 0-1.085.417-1.808 1.192-.242.298-.242.716.06.954.844.775 1.266 1.371 1.266 1.848 0 1.312-.603 1.968-1.748 1.968-.784 0-1.568-.656-2.291-1.908-.724-1.252-1.085-2.564-1.085-3.756 0-1.67.602-3.1 1.868-4.353 1.206-1.192 2.472-1.788 3.919-1.788 2.351 0 4.22.894 5.606 2.683 1.387 1.788 2.11 4.173 2.11 7.274 0 3.458-1.446 6.14-4.4 7.989-2.291 1.43-4.944 2.146-7.837 2.146h-1.327c-5.727 0-10.79-3.279-15.191-9.837-4.28-6.32-6.39-13.475-6.39-21.345 0-.537.06-1.312.12-2.266.12-.954.301-2.146.542-3.577.483-2.862.905-4.59 1.266-5.247.784-1.43 2.532-2.802 5.245-4.054 2.532-1.192 4.763-1.848 6.571-1.848 1.025-.06 1.93-.06 2.653-.06 2.773 0 4.1.477 4.1 1.49 0 1.372-.182 3.757-.543 7.096-.362 3.577-.724 5.723-1.085 6.558-.242.477-.784.895-1.749 1.252-.723.239-1.085.596-1.205 1.073 4.34-.834 7.234-1.311 8.68-1.311.302 0 1.086.119 2.231.417 1.145.239 1.93.417 2.29.417.061 0 .121 0 .121-.06a.45.45 0 00-.12-.297c-.06 0-.06 0-.06-.06s0-.12.06-.238c-.663.06-1.266-.477-1.809-1.61-.422-.954-.663-1.789-.663-2.504 0-.835-.06-2.683-.18-5.545-.121-2.862-.181-4.71-.181-5.485 0-.418.06-1.312.12-2.743.12-1.431.12-2.325.12-2.743 0-.417-.06-1.371-.24-2.861-.181-1.491-.242-2.445-.242-2.862 0-1.133.302-1.968.844-2.445.302-.298.905-.536 1.628-.775.663-.238 1.025-.477 1.085-.715-.542-.299-.904-.477-1.085-.418l-6.45.775c-2.834.358-4.944.537-6.27.537-.301 0-.965-.06-1.93-.12-1.024-.059-1.687-.119-1.989-.119-5.305 0-8.198-1.192-8.68-3.517h-.423c-.301 0-.542.179-.602.417-.422.954-1.447 2.325-3.015 4.114-1.024 1.192-1.868 2.206-2.471 2.921-.422.537.06 1.312.723 1.074l7.355-2.206c3.918-1.252 7.174-1.849 9.887-1.849.301 0 .542 0 .723.06-5.546 1.729-10.369 5.545-14.529 11.328C3.11 24.674 1 30.576 1 36.598c0 .238 0 .477.06.775 0 1.252.181 2.623.543 4.054l1.085 4.293c1.809 7.274 5.124 13.117 10.067 17.529 4.763 4.293 10.068 6.44 15.855 6.44h2.653c3.074 0 6.149-.955 9.103-2.803 3.677-2.325 5.486-5.306 5.486-9.003.06-3.399-1.447-6.26-4.521-8.586zM17.76 11.08c2.35-1.789 4.701-2.922 7.113-3.28a.69.69 0 01.723.358c.844 1.67 1.326 2.862 1.326 3.518v2.981c0 .417-.422.775-.844.656-.843-.179-1.627-.298-2.29-.298-1.87 0-3.919.357-6.21 1.013-.602.18-1.99.656-4.039 1.431-.603.239-1.205-.477-.844-1.013a23.836 23.836 0 015.064-5.366z" fill="url(#paint0_linear)"/><path d="M98.601 45.363c0 .119-.482.238-1.386.238-1.508.06-2.894.12-4.16.298h-.18c-.905-.179-1.87-.238-2.894-.298l-2.954-.179c-6.572-.656-12.118-2.564-16.579-5.723-1.627-1.193-3.858-3.16-6.691-5.963-3.256-3.22-5.547-5.425-6.933-6.618-2.412-2.027-4.703-3.398-6.812-4.233a.648.648 0 00-.905.596c0 .418-.06 1.014-.06 1.67 0 4.054.362 6.856 1.085 8.287.362.835 2.592 1.49 6.571 1.968a.65.65 0 01.482.477v.298c0 .298-.18.536-.482.596h-.361c-.664 0-2.231-.06-4.703-.179-2.411-.12-3.979-.179-4.702-.179-1.507 0-3.195.12-5.004.358-2.471.358-3.978.835-4.642 1.43h-.723c.422-.774 1.688-1.907 3.738-3.457 1.748-1.312 2.773-2.683 3.014-4.233.18-1.073.241-2.445.18-4.114l-.12-4.174c0-.298.06-.894.181-1.848.12-.954.181-1.55.181-1.848 0-2.385-.12-4.055-.301-5.068-.422-1.908-1.267-3.28-2.653-3.995-.18-.12-.422-.358-.784-.656-.06 0-.06-.06-.12-.06-.362-.178-.905-.476-1.628-.715-.422-.179-.784-.298-1.025-.536-.482-.299-.361-1.074.181-1.193h.18c.363 0 1.207.12 2.533.417 1.206.239 2.05.418 2.471.418h.181c.362-.06 1.146-.239 2.412-.537 3.737-.715 6.812-1.073 9.163-1.073.18 0 .603.06 1.146.12.542.059.844.119.904.119 3.496.298 6.028.775 7.716 1.55 2.653 1.192 3.979 3.279 3.979 6.14 0 3.876-2.894 6.917-8.741 9.123-.543.238-.603.954-.12 1.252a18.27 18.27 0 013.375 2.504 442.62 442.62 0 004.22 4.114c.844.835 2.351 2.146 4.582 3.995 2.532 2.087 4.039 3.22 4.46 3.339 8.621 4.59 15.735 6.916 21.342 6.916H98.6v.656zM62.008 15.73c0-2.683-1.025-4.71-3.074-6.14-1.748-1.253-4.04-1.849-6.813-1.849-.964 0-1.687.179-2.11.477a.54.54 0 00-.24.477 76.574 76.574 0 01-.362 4.293c-.241 2.146-.302 3.696-.302 4.531 0 2.743 1.749 4.054 5.185 4.054 2.29 0 4.1-.536 5.546-1.61 1.507-1.073 2.17-2.504 2.17-4.233z" fill="url(#paint1_linear)"/><path d="M109.211 8.276h-.603c.302 0-.542-.417-2.532-1.192-1.989-.775-3.496-1.192-4.581-1.192-.603 0-1.809.119-3.678.417-2.05.298-3.074.537-3.195.775-.482 1.014-.723 4.174-.783 9.42v-3.04c.06 1.252.06 5.723.06 13.414 0 1.014 0 2.505-.06 4.591-.06 2.624-.12 4.114-.12 4.591v1.014c0 .12 0 .238.06.358.06.238.18.596.3 1.132.182.537.664 1.014 1.568 1.312.422.179 1.146.418 2.17.775v.298c-.12.239-.482.358-1.024.358-.242 0-.724-.06-1.568-.12-.783-.118-1.326-.118-1.567-.118-1.025 0-2.653.357-4.883 1.132-2.291.716-3.376 1.133-3.316 1.133-.301 0-.482-.06-.603-.238.181-.298.965-.954 2.351-2.027 1.025-.776 1.568-1.73 1.568-2.803 0-2.086 0-5.187.06-9.3l.06-9.302c0-.775.06-2.444.12-5.068.061-2.623.121-4.292.121-5.068 0-1.252-.482-1.907-1.627-1.848-.241 0-.362.12-.543.18-.12.059-.361.059-.482.059-1.748.06-2.894.119-3.497.179-1.386.178-2.592.536-3.677 1.073-.06.06-.12.06-.18.119l-1.99 1.61c-1.206.954-1.87 1.49-1.99 1.49-.361 0-.542-.179-.542-.536 0-.239.603-1.014 1.808-2.445.724-.894 1.447-2.027 2.17-3.517 0 0 0-.06.06-.06.061-.179.182-.477.363-.894.18-.418.361-.656.482-.656.362 0 .663.238.844.775.06.12.12.238.241.358.844.894 2.411 1.311 4.702 1.311s5.366-.238 9.224-.656c4.581-.477 7.415-1.073 8.5-1.729.603-.357.965-.894 1.206-1.55.181-.477.361-.835.482-1.133.181-.298.543-.357.784-.178l.18.119.181.179c.121.298.362.954.724 2.027.361 1.133.663 1.848.964 2.146.362.418.905 1.073 1.628 1.908v.417h.06z" fill="url(#paint2_linear)"/><path d="M123.8 36.657l-.12.06c-.543 0-1.688-.12-3.497-.299-1.808-.179-3.014-.298-3.557-.298-.723 0-1.326.12-1.748.298-.301.12-.663 0-.723-.298a.596.596 0 01.301-.656l1.748-.775a.683.683 0 00.422-.477c.302-1.61.483-4.114.483-7.393 0-1.371-.061-2.385-.241-2.981-.242-1.014-.784-1.789-1.628-2.445v-.596c3.014-.835 5.064-2.385 6.089-4.59h.602v1.072c0 .656-.12 1.61-.422 2.803-.301 1.37-.482 2.265-.542 2.742-.121 1.431-.241 3.1-.241 5.008 0 1.431.181 2.982.482 4.532.482 2.265 1.085 3.458 1.989 3.458v.12l.603.715zm-2.411-23.61c0 .595-.302 1.251-.965 1.907-.663.656-1.205 1.014-1.808 1.014-.663 0-1.326-.298-1.99-.954-.663-.596-1.024-1.252-1.024-1.848 0-.418.422-1.014 1.266-1.67.844-.715 1.507-1.014 1.929-1.014.602 0 1.145.299 1.688.895.663.536.904 1.073.904 1.67z" fill="url(#paint3_linear)"/><path d="M152.978 37.254c-.542 0-1.748-.18-3.617-.537-1.869-.358-3.074-.537-3.617-.537-1.145 0-2.11.239-2.833.716-.302.238-.724.12-.965-.179-.06-.06-.06-.12-.121-.239-.18-.298-.06-.775.242-.894.241-.12.542-.358.783-.715.483-.596.663-1.133.663-1.61 0-1.312-1.808-4.054-5.365-8.168-.241-.298-.663-.298-.964-.12-.422.239-.784.477-1.206.716-.663.477-.965 1.073-.965 1.729 0 1.133.302 2.444.844 3.995.603 1.729 1.387 2.802 2.17 3.279.121.12.483.298 1.146.596.181.06.301.239.301.417v.18c.061.417-.301.774-.663.774h-2.713c-.301 0-1.205-.06-2.712-.119-1.447-.06-2.412-.06-2.894-.06h-1.688c-.603.06-1.387.12-2.231.299-.241.06-.482-.06-.602-.18l-.242-.238c.061-.238.422-.536 1.146-.894.964-.477 1.507-.835 1.748-1.014 1.206-1.013 1.809-2.802 1.809-5.306 0-.238 0-.715-.061-1.49 0-.776-.06-1.253-.06-1.431 0-.418-.06-1.61-.121-3.518 0-1.431-.06-3.518-.18-6.38-.121-2.862-.664-4.71-1.508-5.545-.12-.119-.241-.119-.361-.179-.362-.06-1.085-.06-2.05-.06-1.085 0-1.808-.118-2.17-.416l.301-.477c.121-.18.241-.239.483-.299 3.677-.655 6.45-1.61 8.198-2.861 1.085-.776 2.351-1.55 3.798-2.385l.061.417c0 .298-.121.716-.422 1.252l-.603 1.193s0 .06-.061.06c-.783 2.265-1.205 6.736-1.205 13.414 0 1.431.12 2.623.301 3.697.121.477.663.715 1.085.477.905-.597 1.749-1.372 2.532-2.206 1.266-1.372 1.929-2.624 1.929-3.697 0-.238 0-.417-.06-.596-.121-.417.121-.775.543-.835.783-.12 1.808-.238 3.074-.477.06 0 .06 0 .121-.06.241-.059 1.025-.417 2.351-.953.964-.418 1.869-.597 2.592-.597l.241.537c-1.205 1.252-3.737 3.28-7.535 6.022-.302.238-.362.596-.181.894.603.835 1.567 2.385 3.014 4.65 1.809 2.982 3.075 4.89 3.798 5.724 1.386 1.67 2.773 2.803 4.16 3.34.301.118.482.357.482.655v.239h.06z" fill="url(#paint4_linear)"/><g opacity=".16" stroke="#FE5C6B" stroke-width=".1"><path opacity=".16" d="M41.33 49.297c-2.592-1.967-5.304-2.921-8.078-2.921-1.929 0-3.978.715-6.27 2.146-2.591 1.67-3.918 3.697-3.918 6.082 0 1.908.844 3.458 2.532 4.77 1.387 1.073 2.894 1.669 4.401 1.669 1.085 0 2.23-.358 3.496-1.073 1.508-.895 2.291-1.968 2.291-3.22 0-.596-.24-1.252-.783-1.908-.483-.715-.965-1.013-1.387-1.013-.482 0-1.085.417-1.808 1.192-.242.298-.242.716.06.954.844.775 1.266 1.371 1.266 1.848 0 1.312-.603 1.968-1.748 1.968-.784 0-1.568-.656-2.291-1.908-.724-1.252-1.085-2.564-1.085-3.756 0-1.67.602-3.1 1.868-4.353 1.206-1.192 2.472-1.788 3.919-1.788 2.351 0 4.22.894 5.606 2.683 1.387 1.788 2.11 4.173 2.11 7.274 0 3.458-1.446 6.14-4.4 7.989-2.291 1.43-4.944 2.146-7.837 2.146h-1.327c-5.727 0-10.79-3.279-15.191-9.837-4.28-6.32-6.39-13.475-6.39-21.345 0-.537.06-1.312.12-2.266.12-.954.301-2.146.542-3.577.483-2.862.905-4.59 1.266-5.247.784-1.43 2.532-2.802 5.245-4.054 2.532-1.192 4.763-1.848 6.571-1.848 1.025-.06 1.93-.06 2.653-.06 2.773 0 4.1.477 4.1 1.49 0 1.372-.182 3.757-.543 7.096-.362 3.577-.724 5.723-1.085 6.558-.242.477-.784.895-1.749 1.252-.723.239-1.085.596-1.205 1.073 4.34-.834 7.234-1.311 8.68-1.311.302 0 1.086.119 2.231.417 1.145.239 1.93.417 2.29.417.061 0 .121 0 .121-.06a.45.45 0 00-.12-.297c-.06 0-.06 0-.06-.06s0-.12.06-.238c-.663.06-1.266-.477-1.809-1.61-.422-.954-.663-1.789-.663-2.504 0-.835-.06-2.683-.18-5.545-.121-2.862-.181-4.71-.181-5.485 0-.418.06-1.312.12-2.743.12-1.431.12-2.325.12-2.743 0-.417-.06-1.371-.24-2.861-.181-1.491-.242-2.445-.242-2.862 0-1.133.302-1.968.844-2.445.302-.298.905-.536 1.628-.775.663-.238 1.025-.477 1.085-.715-.542-.299-.904-.477-1.085-.418l-6.45.775c-2.834.358-4.944.537-6.27.537-.301 0-.965-.06-1.93-.12-1.024-.059-1.687-.119-1.989-.119-5.305 0-8.198-1.192-8.68-3.517h-.423c-.301 0-.542.179-.602.417-.422.954-1.447 2.325-3.015 4.114-1.024 1.192-1.868 2.206-2.471 2.921-.422.537.06 1.312.723 1.074l7.355-2.206c3.918-1.252 7.174-1.849 9.887-1.849.301 0 .542 0 .723.06-5.546 1.729-10.369 5.545-14.529 11.328C3.11 24.674 1 30.576 1 36.598c0 .238 0 .477.06.775 0 1.252.181 2.623.543 4.054l1.085 4.293c1.809 7.274 5.124 13.117 10.067 17.529 4.763 4.293 10.068 6.44 15.855 6.44h2.653c3.074 0 6.149-.955 9.103-2.803 3.677-2.325 5.486-5.306 5.486-9.003.06-3.399-1.447-6.26-4.521-8.586zM17.76 11.08c2.35-1.789 4.701-2.922 7.113-3.28a.69.69 0 01.723.358c.844 1.67 1.326 2.862 1.326 3.518v2.981c0 .417-.422.775-.844.656-.843-.179-1.627-.298-2.29-.298-1.87 0-3.919.357-6.21 1.013-.602.18-1.99.656-4.039 1.431-.603.239-1.205-.477-.844-1.013a23.836 23.836 0 015.064-5.366z"/><path opacity=".16" d="M98.601 45.363c0 .119-.482.238-1.386.238-1.508.06-2.894.12-4.16.298h-.18c-.905-.179-1.87-.238-2.894-.298l-2.954-.179c-6.572-.656-12.118-2.564-16.579-5.723-1.627-1.193-3.858-3.16-6.691-5.963-3.256-3.22-5.547-5.425-6.933-6.618-2.412-2.027-4.703-3.398-6.812-4.233a.648.648 0 00-.905.596c0 .418-.06 1.014-.06 1.67 0 4.054.362 6.856 1.085 8.287.362.835 2.592 1.49 6.571 1.968a.65.65 0 01.482.477v.298c0 .298-.18.536-.482.596h-.361c-.664 0-2.231-.06-4.703-.179-2.411-.12-3.979-.179-4.702-.179-1.507 0-3.195.12-5.004.358-2.471.358-3.978.835-4.642 1.43h-.723c.422-.774 1.688-1.907 3.738-3.457 1.748-1.312 2.773-2.683 3.014-4.233.18-1.073.241-2.445.18-4.114l-.12-4.174c0-.298.06-.894.181-1.848.12-.954.181-1.55.181-1.848 0-2.385-.12-4.055-.301-5.068-.422-1.908-1.267-3.28-2.653-3.995-.18-.12-.422-.358-.784-.656-.06 0-.06-.06-.12-.06-.362-.178-.905-.476-1.628-.715-.422-.179-.784-.298-1.025-.536-.482-.299-.361-1.074.181-1.193h.18c.363 0 1.207.12 2.533.417 1.206.239 2.05.418 2.471.418h.181c.362-.06 1.146-.239 2.412-.537 3.737-.715 6.812-1.073 9.163-1.073.18 0 .603.06 1.146.12.542.059.844.119.904.119 3.496.298 6.028.775 7.716 1.55 2.653 1.192 3.979 3.279 3.979 6.14 0 3.876-2.894 6.917-8.741 9.123-.543.238-.603.954-.12 1.252a18.27 18.27 0 013.375 2.504 442.62 442.62 0 004.22 4.114c.844.835 2.351 2.146 4.582 3.995 2.532 2.087 4.039 3.22 4.46 3.339 8.621 4.59 15.735 6.916 21.342 6.916H98.6v.656zM62.008 15.73c0-2.683-1.025-4.71-3.074-6.14-1.748-1.253-4.04-1.849-6.813-1.849-.964 0-1.687.179-2.11.477a.54.54 0 00-.24.477 76.574 76.574 0 01-.362 4.293c-.241 2.146-.302 3.696-.302 4.531 0 2.743 1.749 4.054 5.185 4.054 2.29 0 4.1-.536 5.546-1.61 1.507-1.073 2.17-2.504 2.17-4.233z"/><path opacity=".16" d="M109.211 8.276h-.603c.302 0-.542-.417-2.532-1.192-1.989-.775-3.496-1.192-4.581-1.192-.603 0-1.809.119-3.678.417-2.05.298-3.074.537-3.195.775-.482 1.014-.723 4.174-.783 9.42v-3.04c.06 1.252.06 5.723.06 13.414 0 1.014 0 2.505-.06 4.591-.06 2.624-.12 4.114-.12 4.591v1.014c0 .12 0 .238.06.358.06.238.18.596.3 1.133.182.536.664 1.013 1.568 1.311.422.179 1.146.418 2.17.775v.298c-.12.239-.482.358-1.024.358-.242 0-.724-.06-1.568-.12-.783-.118-1.326-.118-1.567-.118-1.025 0-2.653.357-4.883 1.132-2.291.716-3.376 1.133-3.316 1.133-.301 0-.482-.06-.603-.238.181-.298.965-.954 2.351-2.027 1.025-.776 1.568-1.73 1.568-2.803 0-2.086 0-5.187.06-9.3l.06-9.302c0-.775.06-2.444.12-5.068.061-2.623.121-4.292.121-5.068 0-1.252-.482-1.907-1.627-1.848-.241 0-.362.12-.543.18-.12.059-.361.059-.482.059-1.748.06-2.894.119-3.497.179-1.386.178-2.592.536-3.677 1.073-.06.06-.12.06-.18.119l-1.99 1.61c-1.206.954-1.87 1.49-1.99 1.49-.361 0-.542-.179-.542-.536 0-.239.603-1.014 1.808-2.445.724-.894 1.447-2.027 2.17-3.517 0 0 0-.06.06-.06.061-.179.182-.477.363-.894.18-.418.361-.656.482-.656.362 0 .663.238.844.775.06.12.12.238.241.358.844.894 2.411 1.311 4.702 1.311s5.366-.238 9.224-.656c4.581-.477 7.415-1.073 8.5-1.729.603-.357.965-.894 1.206-1.55.181-.477.361-.835.482-1.133.181-.298.543-.357.784-.178l.18.119.181.179c.121.298.362.954.724 2.027.361 1.133.663 1.848.964 2.146.362.418.905 1.073 1.628 1.908v.417h.06zM123.8 36.657l-.12.06c-.543 0-1.688-.12-3.497-.299-1.808-.179-3.014-.298-3.557-.298-.723 0-1.326.12-1.748.298-.301.12-.663 0-.723-.298a.596.596 0 01.301-.656l1.748-.775a.683.683 0 00.422-.477c.302-1.61.483-4.114.483-7.393 0-1.371-.061-2.385-.241-2.981-.242-1.014-.784-1.789-1.628-2.445v-.596c3.014-.835 5.064-2.385 6.089-4.59h.602v1.072c0 .656-.12 1.61-.422 2.803-.301 1.37-.482 2.265-.542 2.742-.121 1.431-.241 3.1-.241 5.008 0 1.431.181 2.982.482 4.532.482 2.265 1.085 3.458 1.989 3.458v.12l.603.715zm-2.411-23.61c0 .595-.302 1.251-.965 1.907-.663.656-1.205 1.014-1.808 1.014-.663 0-1.326-.298-1.99-.954-.663-.596-1.024-1.252-1.024-1.848 0-.418.422-1.014 1.266-1.67.844-.715 1.507-1.014 1.929-1.014.602 0 1.145.299 1.688.895.663.536.904 1.073.904 1.67zm31.589 24.207c-.542 0-1.748-.18-3.617-.537-1.869-.358-3.074-.537-3.617-.537-1.145 0-2.11.239-2.833.716-.302.238-.724.12-.965-.179-.06-.06-.06-.12-.121-.239-.18-.298-.06-.775.242-.894.241-.12.542-.358.783-.715.483-.596.663-1.133.663-1.61 0-1.312-1.808-4.054-5.365-8.168-.241-.298-.663-.298-.964-.12-.422.239-.784.477-1.206.716-.663.477-.965 1.073-.965 1.729 0 1.133.302 2.444.844 3.995.603 1.729 1.387 2.802 2.17 3.279.121.12.483.298 1.146.596.181.06.301.239.301.417v.18c.061.417-.301.774-.663.774h-2.713c-.301 0-1.205-.06-2.712-.119-1.447-.06-2.412-.06-2.894-.06h-1.688c-.603.06-1.387.12-2.231.299-.241.06-.482-.06-.602-.18l-.242-.238c.061-.238.422-.536 1.146-.894.964-.477 1.507-.835 1.748-1.014 1.206-1.013 1.809-2.802 1.809-5.306 0-.238 0-.715-.061-1.49 0-.776-.06-1.253-.06-1.431 0-.418-.06-1.61-.121-3.518 0-1.431-.06-3.518-.18-6.38-.121-2.862-.664-4.71-1.508-5.545-.12-.119-.241-.119-.361-.179-.362-.06-1.085-.06-2.05-.06-1.085 0-1.808-.118-2.17-.416l.301-.477c.121-.18.241-.239.483-.299 3.677-.655 6.45-1.61 8.198-2.861 1.085-.776 2.351-1.55 3.798-2.385l.061.417c0 .298-.121.716-.422 1.252l-.603 1.193s0 .06-.061.06c-.783 2.265-1.205 6.736-1.205 13.414 0 1.431.12 2.623.301 3.697.121.477.663.715 1.085.477.905-.597 1.749-1.372 2.532-2.206 1.266-1.372 1.929-2.624 1.929-3.697 0-.238 0-.417-.06-.596-.121-.417.121-.775.543-.835.783-.12 1.808-.238 3.074-.477.06 0 .06 0 .121-.06.241-.059 1.025-.417 2.351-.953.964-.418 1.869-.597 2.592-.597l.241.537c-1.205 1.252-3.737 3.28-7.535 6.022-.302.238-.362.596-.181.894.603.835 1.567 2.385 3.014 4.65 1.809 2.982 3.075 4.89 3.798 5.724 1.386 1.67 2.773 2.803 4.16 3.34.301.118.482.357.482.655v.239h.06z"/></g><path d="M164.673 18.055c.422-1.014 2.593-3.876 2.171-9.123a16.22 16.22 0 00-.905-3.458c-1.266-3.16-3.918-4.471-3.978-4.531.301.417 1.507 1.312 2.773 5.008 1.507 4.412.301 9.182-.061 12.104z" fill="#FEE080"/><path d="M160.212 6.488c2.351-1.49.905-2.623 1.085-3.756.181-.894 1.025-1.013 1.086-1.013-.784-.12-1.387.298-1.628.834-.121.298-.121.656-.121.954.121 1.431.543 1.372-1.868 2.564-.302.179-.664.358-.965.537-2.05 1.311-2.11 2.98-2.17 3.04.241-.238.301-1.013 2.592-2.325.482-.179.784-.358 1.989-.835zm-7.716 10.493c.301-1.848 1.326-3.756 3.074-3.04.784.238 1.869.417 2.773.357 1.628 1.312 2.291 3.458 2.291 3.518 0-.06.362-1.55-.663-3.1-1.326-2.027-3.135-2.206-3.918-3.28-.603-.775-.483-1.192-.483-1.252 0 .06-.422.656 0 1.55.543 1.074 1.206 1.372 2.653 2.445-.784-.298-1.326-.537-2.592-1.192-2.412-1.073-3.979 1.133-4.522 3.696-.181 1.193-.06 2.385.121 3.458.301 1.49 1.326 3.876 1.989 5.366-.542-5.127 0-.417-.723-5.545a8.251 8.251 0 010-2.98z" fill="#FEE080"/><path d="M160.815 21.572c-1.386.776-2.049 2.326-4.401 1.73-2.29-.537-2.652 1.61-2.712 1.73.12-.06.964-1.193 1.808-1.074.724.06 2.05.954 3.798-.12 1.085-.655 1.809-2.266 2.773-2.325.241-.06.422 0 .422 0-.12 0-.784-.537-1.688.06zm21.642 1.133v-.12c.181.12.302.24.362.358.121.12.181.12.181.12s-.06-.06-.121-.18c-.06-.118-.12-.297-.301-.536-1.869-2.921-5.486-5.068-10.912-4.71-2.712.179-5.727 1.67-5.787 1.67 1.326-.12 1.688-.358 5.848-.418 4.34-.06 8.5 1.61 10.61 3.637 0 0 .06 0 .06.06.06 0 .06.06.06.119-.241.537-.663.894-1.145.954-.844.06-1.326-.596-2.411-.417-1.387.417-1.568 1.669-2.472 3.04-1.507 2.206-2.11 2.087-2.472 2.385.061 0 1.809-.06 3.195-1.908 1.146-1.49 1.387-2.742 2.351-2.683.724.06 2.472.716 2.954-.954v-.417zm-10.369 5.605c-1.024-.835-1.085-2.683-3.014-4.114-1.507-1.074-3.014-.835-3.074-.895.06 0 2.351.835 3.556 2.683-.241 2.802 1.086 3.34-.361 4.531-1.387 1.074-3.979 1.133-5.727.776-4.341-.895-2.472-.656-5.546-1.074 1.386.716 3.797 1.968 5.244 2.326 4.883 1.252 7.656-1.014 7.777-2.743.121-.954-.422-1.371-1.145-3.518.542.835 1.446 2.803 3.195 2.683.301-.06.422-.119.422-.119-.061.06-.603.06-1.327-.537z" fill="#FEE080"/><path d="M158.344 29.86c1.446-.477 2.17-.954 1.868-2.505-.542-3.22 3.195-3.636 2.231-5.902-.06 0 .241.477-.603 1.312-.723.775-3.255 1.61-2.472 4.71.362 1.252.061 1.43-1.024 2.385z" fill="#FEE080"/><path d="M169.798 16.326c-.603.06-1.206.12-1.688.299a2.991 2.991 0 00-1.025.656 2.687 2.687 0 00-.241.358l.301-.299a3.264 3.264 0 011.025-.477c.482-.12 1.025-.12 1.628-.12.602 0 1.326-.059 1.989-.297.663-.299 1.266-.835 1.326-1.55.121-.717-.361-1.373-.904-1.552-.301-.06-.543 0-.784.12a.925.925 0 00-.361.477c-.061.298.06.477.06.477s-.121-.179 0-.417a.615.615 0 01.362-.299c.18-.06.361-.06.602 0 .422.12.664.716.603 1.193-.12.537-.542.954-1.145 1.193-.482.12-1.146.179-1.748.238zm-2.351-2.026c-.061.596-.061 1.192-.242 1.61-.12.417-.361.775-.542 1.014-.181.238-.302.298-.302.298s.181-.06.422-.239c.242-.179.543-.477.724-.954.181-.477.301-1.074.422-1.67.06-.597.181-1.252.422-1.79.241-.536.723-.954 1.266-1.013.482-.06 1.025.238 1.145.656.121.417-.06.775-.362.835-.241.12-.422 0-.422 0s.121.12.422.12c.121 0 .362-.12.483-.3.12-.178.181-.417.12-.715-.241-1.252-2.29-1.431-3.134.239-.302.656-.362 1.312-.422 1.908z" fill="#9BDBFE"/><path d="M164.576 16.266c0-1.128.312-2.016.312-2.016s-1.368.216-1.584.432c-.552.6-.552 1.248-.552 1.584v3.144h-2.976c-.432 0-1.272.072-1.632.456-.504.48-.624 1.416-.624 1.416s1.224-.384 2.256-.384h2.976v3.216c0 1.128-.552 1.704-.552 1.704s2.376.024 2.376-1.608v-3.312h3.144c1.872 0 1.848-2.016 1.848-2.016s-1.056.528-1.944.528h-3.048v-3.144z" fill="#FE5C6B"/><path d="M37.714 41.904c-.121-.835-.483-1.67-1.206-2.147a2.212 2.212 0 00-1.748-.238h-.121c-.06 0-.12.06-.18.06-.242.118-.483.238-.664.417-.06.06-.12.178-.18.238l-.061.06c-.06.06-.06.12-.06.179-.06.06-.06.119-.121.238-.06.12-.12.18-.12.299v.06c-.06.059-.06.118-.06.178s0 .179-.061.239c-.06.178-.12.357-.12.536-.061.477-.121 1.014 0 1.491l.18.537c0 .06.06.12.12.179.242.358.604.596.965.775.362.298.784.418 1.266.418.241 0 .483-.12.663-.18.06 0 .12 0 .181-.059.302-.119.603-.358.784-.596l.06-.06c.543-.775.603-1.67.483-2.624z" fill="url(#paint5_linear)"/><path opacity=".16" d="M37.714 41.904c-.121-.835-.483-1.67-1.206-2.147a2.212 2.212 0 00-1.748-.238h-.121c-.06 0-.12.06-.18.06-.242.118-.483.238-.664.417-.06.06-.12.178-.18.238l-.061.06c-.06.06-.06.12-.06.179-.06.06-.06.119-.121.238-.06.12-.12.18-.12.299v.06c-.06.059-.06.118-.06.178s0 .179-.061.239c-.06.178-.12.357-.12.536-.061.477-.121 1.014 0 1.491l.18.537c0 .06.06.12.12.179.242.358.604.596.965.775.362.298.784.418 1.266.418.241 0 .483-.12.663-.18.06 0 .12 0 .181-.059.302-.119.603-.358.784-.596l.06-.06c.543-.775.603-1.67.483-2.624z" stroke="#FE5C6B" stroke-width=".1" stroke-miterlimit="10"/><path d="M48.806 46.852c-.06-.417-.301-.775-.663-1.073a2.662 2.662 0 00-1.146-.418c-.361-.06-.723 0-1.085.06-.422.06-.783.239-1.085.537l-.723.715c-.242.24-.483.537-.724.835-.542.716-.663 1.61-.24 2.386.12.239.421.418.662.418.06.06.181.06.302.119.422.06.844 0 1.266-.12.361-.119.723-.238 1.025-.357a6.38 6.38 0 001.567-1.014c.482-.597.964-1.312.844-2.088z" fill="url(#paint6_linear)"/><path opacity=".16" d="M48.806 46.852c-.06-.417-.301-.775-.663-1.073a2.662 2.662 0 00-1.146-.418c-.361-.06-.723 0-1.085.06-.422.06-.783.239-1.085.537l-.723.715c-.242.24-.483.537-.724.835-.542.716-.663 1.61-.24 2.386.12.239.421.418.662.418.06.06.181.06.302.119.422.06.844 0 1.266-.12.361-.119.723-.238 1.025-.357a6.38 6.38 0 001.567-1.014c.482-.597.964-1.312.844-2.088z" stroke="#FE5C6B" stroke-width=".1" stroke-miterlimit="10"/><path d="M52.905 57.763c-.542-.537-1.386-.537-2.11-.656-.904-.179-1.808-.298-2.652.12-.362.178-.663.476-.904.834-.242.358-.302.656-.242 1.074-.12.537.12 1.193.603 1.61.302.239.603.418.965.537.422.12.844.12 1.326.12.362 0 .663.059 1.025.059.422 0 .844.06 1.266 0 .844-.18 1.206-.895 1.266-1.67.06-.775-.06-1.55-.543-2.028z" fill="url(#paint7_linear)"/><path opacity=".16" d="M52.905 57.763c-.542-.537-1.386-.537-2.11-.656-.904-.179-1.808-.298-2.652.12-.362.178-.663.476-.904.834-.242.358-.302.656-.242 1.074-.12.537.12 1.193.603 1.61.302.239.603.418.965.537.422.12.844.12 1.326.12.362 0 .663.059 1.025.059.422 0 .844.06 1.266 0 .844-.18 1.206-.895 1.266-1.67.06-.775-.06-1.55-.543-2.028z" stroke="#FE5C6B" stroke-width=".1"/><path d="M47.118 69.569c-.302-.835-.904-1.55-1.748-1.909-.844-.358-1.87-.715-2.773-.358-1.025.358-1.628 1.372-1.387 2.446.18.954 1.085 1.55 1.93 1.908.24.06.481.18.723.18.301.178.663.238 1.024.297.422.06.965.06 1.387-.06 1.085-.238 1.206-1.61.844-2.504z" fill="url(#paint8_linear)"/><path opacity=".16" d="M47.118 69.569c-.302-.835-.904-1.55-1.748-1.909-.844-.358-1.87-.715-2.773-.358-1.025.358-1.628 1.372-1.387 2.446.18.954 1.085 1.55 1.93 1.908.24.06.481.18.723.18.301.178.663.238 1.024.297.422.06.965.06 1.387-.06 1.085-.238 1.206-1.61.844-2.504z" stroke="#FE5C6B" stroke-width=".1" stroke-miterlimit="10"/><path d="M34.82 71.476c-.12-.417-.483-.716-.904-.835-.362-.12-.784-.12-1.146-.06-.482.06-.904.18-1.326.537-.302.239-.482.537-.603.895a8.874 8.874 0 00-.663 2.147c-.12.716-.12 1.55.422 2.087.603.656 1.507.597 2.29.418.724-.12 1.447-.418 1.87-1.014.24-.298.3-.716.422-1.074.12-.417.18-.834.24-1.252.06-.716-.06-1.431-.602-1.849z" fill="url(#paint9_linear)"/><path opacity=".16" d="M34.82 71.476c-.12-.417-.483-.716-.904-.835-.362-.12-.784-.12-1.146-.06-.482.06-.904.18-1.326.537-.302.239-.482.537-.603.895a8.874 8.874 0 00-.663 2.147c-.12.716-.12 1.55.422 2.087.603.656 1.507.597 2.29.418.724-.12 1.447-.418 1.87-1.014.24-.298.3-.716.422-1.074.12-.417.18-.834.24-1.252.06-.716-.06-1.431-.602-1.849z" stroke="#FE5C6B" stroke-width=".1" stroke-miterlimit="10"/><path d="M26.2 45.064c-.363-.716-1.026-1.193-1.81-1.491-1.326-.537-3.134-.358-3.858 1.014a2.503 2.503 0 000 2.266c.362.716 1.025 1.133 1.809 1.312.362.06.723.18 1.085.239.362.06.784.179 1.206.179h.603c.06 0 .18-.06.24-.06h.121c.06 0 .181-.06.241-.12.06 0 .12-.059.181-.119.06-.06.12-.06.181-.119.12-.06.18-.12.241-.238.06-.06.12-.18.181-.299.06-.119.06-.238.12-.358 0-.775-.18-1.55-.542-2.206z" fill="url(#paint10_linear)"/><path opacity=".16" d="M26.2 45.064c-.363-.716-1.026-1.193-1.81-1.491-1.326-.537-3.134-.358-3.858 1.014a2.503 2.503 0 000 2.266c.362.716 1.025 1.133 1.809 1.312.362.06.723.18 1.085.239.362.06.784.179 1.206.179h.603c.06 0 .18-.06.24-.06h.121c.06 0 .181-.06.241-.12.06 0 .12-.059.181-.119.06-.06.12-.06.181-.119.12-.06.18-.12.241-.238.06-.06.12-.18.181-.299.06-.119.06-.238.12-.358 0-.775-.18-1.55-.542-2.206z" stroke="#FE5C6B" stroke-width=".1" stroke-miterlimit="10"/><path d="M21.376 55.676c-.18-.656-.904-1.073-1.507-1.192-.723-.18-1.507-.18-2.29-.18-.362 0-.784 0-1.146.12-.362.12-.723.298-1.025.596-.542.477-1.085 1.312-.904 2.088.18.715.904 1.193 1.567 1.55.663.358 1.326.537 2.11.597.724.06 1.507-.06 2.11-.418.362-.238.663-.596.844-.954.12-.179.241-.417.302-.596v-.06c0-.06 0-.06.06-.06.06-.178.06-.298.12-.477v-.298c-.06-.358-.12-.537-.24-.716z" fill="url(#paint11_linear)"/><path opacity=".16" d="M21.376 55.676c-.18-.656-.904-1.073-1.507-1.192-.723-.18-1.507-.18-2.29-.18-.362 0-.784 0-1.146.12-.362.12-.723.298-1.025.596-.542.477-1.085 1.312-.904 2.088.18.715.904 1.193 1.567 1.55.663.358 1.326.537 2.11.597.724.06 1.507-.06 2.11-.418.362-.238.663-.596.844-.954.12-.179.241-.417.302-.596v-.06c0-.06 0-.06.06-.06.06-.178.06-.298.12-.477v-.298c-.06-.358-.12-.537-.24-.716z" stroke="#FE5C6B" stroke-width=".1" stroke-miterlimit="10"/><path d="M25.174 66.826c-.24-.418-.603-.656-1.025-.776-.663-.238-1.447-.119-2.11.06-.663.179-1.266.477-1.748.954-.542.477-.784 1.133-.904 1.79 0 .06-.06.178-.06.238-.06.12-.06.239-.121.358-.06.417.18.835.482 1.133.12.12.241.239.422.298 1.387.597 2.894-.179 3.98-1.014.3-.238.662-.477.843-.835.18-.298.302-.656.362-1.013.12-.418.12-.836-.12-1.193z" fill="url(#paint12_linear)"/><path opacity=".16" d="M25.174 66.826c-.24-.418-.603-.656-1.025-.776-.663-.238-1.447-.119-2.11.06-.663.179-1.266.477-1.748.954-.542.477-.784 1.133-.904 1.79 0 .06-.06.178-.06.238-.06.12-.06.239-.121.358-.06.417.18.835.482 1.133.12.12.241.239.422.298 1.387.597 2.894-.179 3.98-1.014.3-.238.662-.477.843-.835.18-.298.302-.656.362-1.013.12-.418.12-.836-.12-1.193z" stroke="#FE5C6B" stroke-width=".1" stroke-miterlimit="10"/><defs><linearGradient id="paint0_linear" x1="23.46" y1="2.856" x2="23.46" y2="69.776" gradientUnits="userSpaceOnUse"><stop stop-color="#FE5C6B"/><stop offset=".023" stop-color="#FE606B"/><stop offset=".217" stop-color="#FF7E69"/><stop offset=".382" stop-color="#FF9067"/><stop offset=".5" stop-color="#FF9767"/><stop offset=".619" stop-color="#FFB471"/><stop offset=".75" stop-color="#FECC79"/><stop offset=".87" stop-color="#FEDB7E"/><stop offset=".969" stop-color="#FEE080"/></linearGradient><linearGradient id="paint1_linear" x1="67.649" y1="5.513" x2="67.649" y2="45.885" gradientUnits="userSpaceOnUse"><stop stop-color="#FE5C6B"/><stop offset=".023" stop-color="#FE606B"/><stop offset=".217" stop-color="#FF7E69"/><stop offset=".382" stop-color="#FF9067"/><stop offset=".5" stop-color="#FF9767"/><stop offset=".619" stop-color="#FFB471"/><stop offset=".75" stop-color="#FECC79"/><stop offset=".87" stop-color="#FEDB7E"/><stop offset=".969" stop-color="#FEE080"/></linearGradient><linearGradient id="paint2_linear" x1="92.01" y1="1.248" x2="92.01" y2="43.234" gradientUnits="userSpaceOnUse"><stop stop-color="#FE5C6B"/><stop offset=".023" stop-color="#FE606B"/><stop offset=".217" stop-color="#FF7E69"/><stop offset=".382" stop-color="#FF9067"/><stop offset=".5" stop-color="#FF9767"/><stop offset=".619" stop-color="#FFB471"/><stop offset=".75" stop-color="#FECC79"/><stop offset=".87" stop-color="#FEDB7E"/><stop offset=".969" stop-color="#FEE080"/></linearGradient><linearGradient id="paint3_linear" x1="118.924" y1="10.448" x2="118.924" y2="36.715" gradientUnits="userSpaceOnUse"><stop stop-color="#FE5C6B"/><stop offset=".023" stop-color="#FE606B"/><stop offset=".217" stop-color="#FF7E69"/><stop offset=".382" stop-color="#FF9067"/><stop offset=".5" stop-color="#FF9767"/><stop offset=".619" stop-color="#FFB471"/><stop offset=".75" stop-color="#FECC79"/><stop offset=".87" stop-color="#FEDB7E"/><stop offset=".969" stop-color="#FEE080"/></linearGradient><linearGradient id="paint4_linear" x1="138.52" y1="4.171" x2="138.52" y2="37.279" gradientUnits="userSpaceOnUse"><stop stop-color="#FE5C6B"/><stop offset=".023" stop-color="#FE606B"/><stop offset=".217" stop-color="#FF7E69"/><stop offset=".382" stop-color="#FF9067"/><stop offset=".5" stop-color="#FF9767"/><stop offset=".619" stop-color="#FFB471"/><stop offset=".75" stop-color="#FECC79"/><stop offset=".87" stop-color="#FEDB7E"/><stop offset=".969" stop-color="#FEE080"/></linearGradient><linearGradient id="paint5_linear" x1="35.293" y1="39.417" x2="35.293" y2="45.434" gradientUnits="userSpaceOnUse"><stop stop-color="#FE5C6B"/><stop offset=".153" stop-color="#FE616C"/><stop offset=".333" stop-color="#FE6F6E"/><stop offset=".526" stop-color="#FE8772"/><stop offset=".73" stop-color="#FEA877"/><stop offset=".938" stop-color="#FED27E"/><stop offset="1" stop-color="#FEE080"/></linearGradient><linearGradient id="paint6_linear" x1="48.267" y1="45.843" x2="43.31" y2="50.048" gradientUnits="userSpaceOnUse"><stop stop-color="#FE5C6B"/><stop offset=".015" stop-color="#FE656A"/><stop offset=".061" stop-color="#FF7B69"/><stop offset=".112" stop-color="#FF8B68"/><stop offset=".169" stop-color="#FF9467"/><stop offset=".249" stop-color="#FF9767"/><stop offset=".487" stop-color="#FFAF6F"/><stop offset="1" stop-color="#FEE080"/></linearGradient><linearGradient id="paint7_linear" x1="53.472" y1="59.157" x2="47" y2="59.157" gradientUnits="userSpaceOnUse"><stop stop-color="#FE5C6B"/><stop offset=".041" stop-color="#FE656A"/><stop offset=".172" stop-color="#FF7B69"/><stop offset=".315" stop-color="#FF8B68"/><stop offset=".478" stop-color="#FF9467"/><stop offset=".701" stop-color="#FF9767"/><stop offset=".796" stop-color="#FFAF6F"/><stop offset="1" stop-color="#FEE080"/></linearGradient><linearGradient id="paint8_linear" x1="46.559" y1="72.037" x2="42.032" y2="67.462" gradientUnits="userSpaceOnUse"><stop stop-color="#FE5C6B"/><stop offset=".442" stop-color="#FE9474"/><stop offset="1" stop-color="#FEE080"/></linearGradient><linearGradient id="paint9_linear" x1="32.809" y1="76.739" x2="32.809" y2="70.534" gradientUnits="userSpaceOnUse"><stop offset=".031" stop-color="#FE5C6B"/><stop offset=".352" stop-color="#FF9767"/><stop offset=".852" stop-color="#FECF7A"/><stop offset="1" stop-color="#FEE080"/></linearGradient><linearGradient id="paint10_linear" x1="21.212" y1="43.812" x2="25.824" y2="48.474" gradientUnits="userSpaceOnUse"><stop stop-color="#FE5C6B"/><stop offset=".187" stop-color="#FF9767"/><stop offset=".933" stop-color="#FEDA7E"/><stop offset="1" stop-color="#FEE080"/></linearGradient><linearGradient id="paint11_linear" x1="14.506" y1="56.735" x2="21.536" y2="56.735" gradientUnits="userSpaceOnUse"><stop offset=".031" stop-color="#FE5C6B"/><stop offset=".24" stop-color="#FE8672"/><stop offset=".469" stop-color="#FEAD78"/><stop offset=".679" stop-color="#FEC97C"/><stop offset=".863" stop-color="#FEDA7F"/><stop offset="1" stop-color="#FEE080"/></linearGradient><linearGradient id="paint12_linear" x1="20.754" y1="71.196" x2="23.844" y2="65.786" gradientUnits="userSpaceOnUse"><stop offset=".031" stop-color="#FE5C6B"/><stop offset=".76" stop-color="#FF9767"/><stop offset=".945" stop-color="#FECF7A"/><stop offset="1" stop-color="#FEE080"/></linearGradient></defs></svg>