<svg width="220" height="87.9" xmlns="http://www.w3.org/2000/svg"><style>.st0{fill:#0b2852}</style><path fill="none" id="canvas_background" d="M-1-1h222v89.9H-1z"/><path id="svg_1" d="M8.775 83.5h70.5c.6 0 1-.4 1-1s-.4-1-1-1h-70.5c-3.6 0-6.5-2.9-6.5-6.5s2.9-6.5 6.5-6.5h4.9c.6 0 1-.4 1-1s-.4-1-1-1h-4.9c-4.7 0-8.5 3.8-8.5 8.5s3.8 8.5 8.5 8.5z" class="st0"/><path id="svg_2" d="M218.042 83.5h-138c-.6 0-1-.4-1-1s.4-1 1-1h138c.6 0 1 .4 1 1s-.4 1-1 1z" class="st0"/><path id="svg_3" d="M78.808 4.3c-4.5-4.1-16.2 6.9-25.2 16.8-4.7 5.2-9 10.4-12.5 15.2-1.4-1.1-3.4-.9-4.6.4l-2.3 2.5c-1.1 1.2-1.2 3-.3 4.3-3.1-.5-6.1.5-8.4 2.7-2.4 2.4-3.6 5.8-3.2 9.2l.1.5c.4 3.3.8 6.5-3.5 10.7-.3.3-.4.7-.3 1s.4.6.8.7c.2 0 2.2.4 5 .4 3.8 0 8.9-.6 13.1-3.3 3.5-2.3 5.9-6 6.2-9.9.1-1.1 0-2.2-.2-3.3.6.5 1.4.8 2.2.8h.2c.9 0 1.8-.4 2.4-1.1l2.3-2.5c.6-.7.9-1.6.9-2.5 0-.8-.4-1.6-.9-2.1 4.4-3.9 9.2-8.7 14-13.8 8.8-9.9 18.7-22.6 14.2-26.7zm-37.1 51.1c-.3 3.3-2.2 6.4-5.3 8.4-4.9 3.1-11.5 3.1-14.7 2.9 3.6-4.2 3.1-7.9 2.7-10.9l-.1-.5c-.3-2.8.6-5.6 2.6-7.5 1.8-1.8 4.3-2.5 6.7-2.2 1.8.3 3.6 1.1 5 2.4 2.2 1.9 3.3 4.6 3.1 7.4zm7.2-7.3l-2.3 2.5c-.3.3-.6.5-1 .5s-.8-.1-1-.4l-8.8-8.1c-.6-.5-.6-1.5-.1-2l2.3-2.5c.3-.3.7-.5 1.1-.5.3 0 .7.1 1 .4l8.8 8.1c.5.5.6 1.4 0 2zm14-18.4c-4.7 5.2-9.5 9.9-13.9 13.8l-6.4-5.8c3.4-4.8 7.7-10 12.4-15.1 14.6-16 20.9-18 22.4-16.7 1.5 1.2.1 7.8-14.5 23.8z" class="st0"/></svg>