<svg width="168" height="139" fill="none" xmlns="http://www.w3.org/2000/svg"><path d="M25.233.892C15.007.892 6.465 7.735 3.94 17.099c-.722-.12-1.324-.84-2.166-.6-1.203.36-1.323 1.8-1.203 2.88.12 2.522 2.406 5.163 2.045 7.564-1.443.12-3.007-.48-2.526 1.44.36 1.322 2.165 2.162 2.526 3.362 1.203.72 2.406 1.561 3.61 2.281 0 .12.12.24.12.36-1.684 1.081-2.286 2.882-.842 4.563 1.323 1.44 3.489.84 4.571 2.04-.962.961-1.203 2.162 0 3.002 1.564 1.2 5.294.48 7.94-.24 2.287.84 4.813 1.2 7.34 1.2 12.15 0 22.016-9.844 22.016-21.97C47.25 10.737 37.384.892 25.233.892z" fill="#423C32"/><path d="M21.864 35.587c5.174-5.642 11.19-10.445 17.325-15.247.12-.12.12-.12.24-.12-1.323-6.002-6.617-10.564-13.113-10.564-7.339 0-13.354 6.002-13.354 13.325 0 5.763 3.73 10.685 8.902 12.606z" fill="#EAC1C2"/><path d="M18.857 19.02c.722-4.803 3.489-7.804 7.339-9.485-7.34.12-13.234 6.003-13.234 13.326 0 5.763 3.73 10.805 8.902 12.606.241-.36.602-.6.843-.84-2.768-4.683-4.572-10.205-3.85-15.608z" fill="#E8B4BB"/><path d="M39.79 22.861c-.48-.84-1.082-3.24-2.406-3-2.406.24-1.925 5.041-4.932 4.441-1.083-.24-2.046-.84-3.128-.24-.963.6-1.204 1.8-1.444 2.761-.24.84-.12 2.641-1.203 3.122-1.203.48-2.888-1.321-4.331-1.08-1.685.24-2.767 3.24-2.767 4.561 0 2.161 1.203 3.962 1.684 6.003M142.172 1.853c10.226 0 18.768 6.843 21.295 16.207.722-.12 1.323-.84 2.165-.6 1.203.36 1.324 1.8 1.203 2.881-.12 2.521-2.406 5.163-2.045 7.564 1.444.12 3.008-.48 2.527 1.44-.361 1.32-2.166 2.161-2.527 3.362-1.203.84-2.406 1.56-3.609 2.28 0 .12-.12.24-.12.361 1.684 1.08 2.285 2.881.842 4.562-1.324 1.44-3.489.84-4.572 2.04.962.961 1.203 2.162 0 3.002-1.564 1.2-5.294.48-7.94-.24-2.286.84-4.813 1.2-7.339 1.2-12.151 0-22.016-9.844-22.016-21.97.12-12.245 9.985-22.089 22.136-22.089z" fill="#423C32"/><path d="M145.541 36.548c-5.173-5.643-11.189-10.445-17.324-15.247-.121-.12-.121-.12-.241-.12 1.323-6.003 6.617-10.565 13.114-10.565 7.338 0 13.354 6.003 13.354 13.326 0 5.763-3.73 10.685-8.903 12.606z" fill="#EAC1C2"/><path d="M130.503 23.102a18.67 18.67 0 014.692-3.962c5.774-3.482 12.391-2.641 18.286.12 0 0 .121 0 .121.12-1.925-5.162-6.738-8.764-12.512-8.764-6.497 0-11.791 4.562-13.114 10.565.12 0 .12 0 .241.12.722.6 1.564 1.2 2.286 1.8z" fill="#E8B4BB"/><path d="M127.495 21.54c.481-.84.962-3 2.285-2.88 2.286.24 1.925 4.802 4.572 4.201.963-.24 1.925-.84 3.008-.24.962.48 1.083 1.681 1.444 2.642.24.84.12 2.52 1.082 2.88 1.203.481 2.767-1.2 4.091-.96 1.564.24 2.647 3.002 2.647 4.322 0 2.041-1.203 3.722-1.564 5.763" fill="#423C32"/><path d="M156.369 76.405c0 32.295-18.287 62.548-72.305 62.548-58.59 0-73.147-30.253-73.147-62.548 0-3.481-3.008-1.8-2.407-5.162 3.008-16.327 16.483-36.376 32.604-45.98C52.423 18.54 67.942 14.218 82.74 14.218c13.354 0 28.754 2.64 39.581 8.283 21.896 11.285 34.048 32.415 34.048 53.904z" fill="#fff"/><path d="M154.684 65c1.083 2.04 4.692 7.924 5.655 9.964 1.323 1.681 3.368 7.564 2.045 9.725-1.323 2.16-3.489-1.32-5.294-1.32-.361 1.56.843 3.12 1.444 4.561.602 1.68 1.203 3.362 1.444 5.162.12 1.321.24 3.482-1.685 3.362-1.203 0-2.165-1.56-3.488-1.68-.241 3.36 1.443 7.322-.722 10.444-2.888 4.202-2.647-3.482-6.016-3.122M13.924 64.04c-1.203 2.16-5.895 9.244-6.857 11.405-1.444 1.8-3.61 8.043-2.166 10.324 1.444 2.281 3.73-1.44 5.655-1.32.36 1.68-.963 3.241-1.564 4.802-.722 1.8-1.324 3.602-1.444 5.522-.12 1.441-.24 3.602 1.805 3.602 1.323 0 2.285-1.68 3.73-1.8.24 3.601-1.445 7.803.841 11.164 3.128 4.442 2.888-3.721 6.377-3.361" fill="#fff"/><path d="M75.281 53.595c0 11.045-10.346 20.049-23.099 20.049s-23.1-9.004-23.1-20.049 10.347-20.05 23.1-20.05c12.753 0 23.1 9.005 23.1 20.05z" fill="#423C32"/><path d="M58.197 22.023C62.408 15.78 66.5 9.177 73.718 6.295c1.564-.6 3.49-1.44 4.211.24.722 1.681-1.203 2.882-1.083 4.442 2.647 1.081 5.174-.96 7.58-2.04 1.203-.6 9.745-4.202 9.143-.84-.12.72-1.925 3.24-1.323 4.081 1.924 2.401 5.534-.84 7.94 0 3.128 1.2.601 3.001 0 5.162-.722 3.122 2.647 3.122 4.933 3.722" fill="#fff"/><path d="M68.183 17.58c-.12 0-.24 0-.361-.12-.361-.24-.481-.6-.24-.96 1.443-2.281 3.368-4.323 4.33-5.283.241-.24.722-.24.963 0 .24.24.24.72 0 .96-.963.96-2.767 2.882-4.09 5.044a.662.662 0 01-.602.36zm13.113.96c-.12 0-.24 0-.36-.12-.362-.24-.482-.6-.241-.961 1.564-3.002 4.21-5.283 7.58-6.843.36-.12.721 0 .962.36.12.36 0 .72-.361.96-3.128 1.441-5.535 3.602-6.978 6.243a.662.662 0 01-.602.36zm9.384 2.883c-.12 0-.36-.12-.48-.24-.241-.24-.241-.72 0-.961 1.684-1.68 3.609-3.122 5.534-4.563.36-.24.721-.12.962.12.24.36.12.72-.12.961-1.805 1.32-3.73 2.762-5.294 4.443-.24.12-.36.24-.602.24zm-7.94 14.044c-.36 0-.722-.24-.722-.6-.24-3.002.361-5.763 1.925-8.644.24-.36.602-.48.963-.24.36.24.48.6.24.96-1.444 2.641-2.045 5.042-1.805 7.803.12.36-.12.72-.601.72zm-9.143-6.363c-.361 0-.722-.36-.722-.72 0-1.801.481-3.602.842-5.163.12-.36.24-.72.24-1.08.121-.36.482-.6.843-.48.36.12.601.48.481.84s-.24.72-.24 1.08c-.361 1.561-.843 3.122-.843 4.803.12.36-.24.72-.601.72zm2.285 12.246c-.36 0-.601-.24-.721-.6a181.234 181.234 0 01-.722-5.163c0-.36.24-.72.601-.84.361 0 .722.24.842.6.241 1.92.482 3.482.722 5.163.12.36-.12.72-.722.84.12 0 .12 0 0 0zm5.414 11.405c-.36 0-.721-.36-.721-.72 0-.84 0-1.561-.12-2.281 0-.72-.121-1.561-.121-2.402 0-.36.36-.72.722-.72.36 0 .722.36.722.72 0 .84 0 1.561.12 2.281 0 .72.12 1.561.12 2.402 0 .48-.24.72-.722.72zm3.61 5.403c-.361 0-.722-.36-.722-.72 0-.961 0-1.922.24-3.003.12-.36.482-.6.842-.48.361.12.602.48.482.84-.24.841-.24 1.682-.24 2.643.12.36-.242.72-.602.72zm-6.858 8.165c-.36 0-.722-.36-.722-.721 0-1.441 0-2.882.241-4.323.12-.36.481-.6.842-.6.361.12.602.48.602.84-.24 1.32-.24 2.642-.24 4.083 0 .48-.362.72-.723.72zm-11.91-30.856c-.12 0-.12 0 0 0-.482 0-.722-.36-.722-.84.12-.961.12-1.801.24-2.762 0-.96.12-1.92.241-2.881 0-.36.36-.6.842-.6.361 0 .602.36.602.84-.12.96-.12 1.8-.24 2.761 0 .96-.121 1.921-.242 2.882-.12.36-.48.6-.721.6zm22.738 2.041s-.12 0 0 0c-.481-.12-.722-.36-.722-.84.24-1.56.481-3.242.481-4.803 0-.36.361-.72.722-.72.36 0 .722.36.722.72 0 1.681-.24 3.362-.481 5.043-.12.36-.361.6-.722.6zm-1.684 10.566c-.361 0-.722-.36-.722-.72 0-.481.12-.962.12-1.442s.12-.84.12-1.32c0-.361.361-.721.722-.721s.722.36.722.72c0 .48-.12.96-.12 1.441 0 .48-.12.84-.12 1.321 0 .48-.362.72-.722.72zm-1.444 18.969c-.481-.12-.722-.48-.722-.841.24-1.201.602-2.642 1.203-4.083.12-.36.602-.48.963-.36.36.12.48.6.36.96-.601 1.441-.962 2.642-1.082 3.843 0 .24-.361.48-.722.48zm7.579-38.178h-.24c-.361-.12-.482-.6-.361-.96.24-.6.36-1.201.601-1.802.12-.6.361-1.32.602-1.921.12-.36.601-.48.962-.36s.481.6.361.96c-.24.6-.36 1.201-.601 1.802-.12.6-.361 1.32-.602 1.921-.24.24-.481.36-.722.36zm-.962 18.487c-.481-.12-.722-.36-.722-.84.12-.84.36-1.801.481-2.642.12-.84.361-1.68.481-2.52 0-.36.361-.6.843-.6.36 0 .601.36.601.84-.12.84-.36 1.8-.481 2.64-.12.841-.361 1.681-.481 2.522-.12.36-.361.6-.722.6zm-2.527 13.447c-.12 0-.12 0 0 0-.48-.12-.721-.36-.721-.84.24-1.441.601-2.642.962-3.843.12-.24.12-.6.24-.84.12-.36.482-.6.843-.48.36.12.601.48.48.84-.12.36-.12.6-.24.84-.36 1.201-.722 2.402-.842 3.723-.12.24-.36.6-.722.6zM61.205 28.143c-.36 0-.722-.36-.722-.72 0-1.92.24-3.722.361-5.642l.12-.6c0-.36.361-.721.722-.601.361 0 .722.36.602.72l-.12.6a40.75 40.75 0 00-.361 5.403c0 .6-.241.84-.602.84zM9.232 82.048h-.24c-.361-.12-.602-.48-.482-.84.722-2.882 2.406-5.403 3.85-7.444.24-.36.722-.36.963-.12.36.24.36.72.12.96-1.444 2.041-2.887 4.443-3.61 7.084 0 .12-.24.36-.6.36zm2.406 14.046s-.12 0 0 0c-.481 0-.722-.36-.722-.72.241-3.122 1.204-6.003 2.166-8.884.12-.36.481-.6.842-.48s.602.48.481.84c-.962 2.761-1.804 5.522-2.045 8.524-.12.48-.36.72-.722.72zm4.932 8.644c-.12 0-.12 0 0 0-.48 0-.721-.36-.721-.72.24-2.041.481-4.202.722-6.603 0-.36.36-.72.722-.6.36 0 .722.36.601.72-.24 2.4-.481 4.442-.722 6.603 0 .36-.24.6-.601.6zm1.324-16.566h-.24c-.361-.12-.602-.48-.482-.84.361-1.201.602-2.522.843-3.843l.12-.48a.904.904 0 01.842-.601c.361.12.602.48.602.84l-.12.48c-.241 1.322-.482 2.763-.843 4.084-.12.12-.36.36-.722.36zM16.33 77.607h-.12c-.361-.12-.602-.48-.481-.84l.722-2.763c.12-.36.48-.6.842-.48.36.12.601.48.481.84l-.722 2.763c-.12.24-.481.48-.722.48zm-1.925-9.846h-.12c-.36-.12-.601-.48-.481-.84.481-2.161 1.203-4.322 1.925-6.363.12-.36.481-.6.842-.48.36.12.601.48.481.84-.722 2.041-1.444 4.202-1.804 6.243-.241.36-.482.6-.843.6zm8.181 41.299c-.36 0-.601-.24-.722-.6-.48-3.002-.24-6.243 0-8.884 0-.36.361-.72.722-.6.361 0 .722.36.602.72-.24 2.521-.482 5.642 0 8.524.24.36 0 .72-.602.84.12 0 .12 0 0 0zm4.933 11.166a.662.662 0 01-.602-.36c-.48-.961-.962-1.561-1.564-2.522-.24-.36-.12-.72.12-.961.362-.24.723-.12.963.121.722.84 1.203 1.681 1.684 2.641.12.36 0 .721-.36.961 0 .12-.12.12-.241.12zm131.256-40.699c-.361 0-.602-.24-.722-.48-.722-2.641-2.286-5.043-3.609-7.084-.241-.36-.121-.72.12-.96.361-.24.722-.12.962.12 1.444 2.041 3.128 4.682 3.85 7.444.12.36-.12.72-.481.84 0 .12 0 .12-.12.12zm-2.286 14.046c-.361 0-.722-.24-.722-.6-.241-3.002-1.203-5.763-2.045-8.524-.121-.36.12-.72.481-.84s.722.12.842.48c.963 2.761 1.925 5.762 2.166 8.884 0 .24-.241.6-.722.6zm-4.933 8.644c-.361 0-.601-.24-.722-.6-.24-2.041-.481-4.202-.721-6.603 0-.36.24-.72.601-.72s.722.24.722.6c.24 2.28.481 4.441.722 6.602.12.361-.121.721-.602.721zm-1.443-16.686c-.241 0-.602-.24-.722-.48-.481-1.321-.722-2.762-.842-4.083l-.121-.48c-.12-.36.241-.721.602-.841s.722.24.842.6l.12.48c.241 1.201.482 2.643.843 3.843.12.36-.121.721-.482.841-.12.12-.12.12-.24.12zm1.684-10.445c-.361 0-.602-.24-.722-.48l-.722-2.763c-.12-.36.121-.72.481-.84.361-.12.722.12.843.48l.722 2.762c.12.36-.121.72-.482.84h-.12zm1.805-9.846c-.361 0-.602-.24-.722-.6-.481-2.04-1.203-4.202-1.805-6.243-.12-.36.12-.72.481-.84s.722.12.843.48c.721 2.041 1.443 4.202 1.924 6.363.121.36-.12.72-.481.84h-.24zm-8.181 41.179c-.482-.12-.722-.48-.722-.841.481-2.761.24-6.002 0-8.523 0-.36.24-.72.601-.72s.722.24.722.6c.241 2.64.481 5.882 0 8.884 0 .36-.241.6-.601.6zm-4.933 11.286c-.12 0-.241 0-.361-.12-.361-.12-.481-.601-.361-.961.481-1.081 1.083-1.801 1.684-2.642a.638.638 0 01.963-.12c.361.24.361.721.12.961-.601.841-1.083 1.561-1.564 2.522 0 .24-.24.36-.481.36z" fill="#ECE4E9"/><path d="M52.423 65.96c4.983 0 9.023-4.998 9.023-11.164 0-6.167-4.04-11.165-9.023-11.165-4.984 0-9.023 4.998-9.023 11.165 0 6.166 4.04 11.165 9.023 11.165z" fill="#fff"/><path d="M59.16 54.797c0 4.682-3.008 8.403-6.858 8.403-3.73 0-6.857-3.721-6.857-8.403s3.008-8.404 6.857-8.404c3.85 0 6.858 3.721 6.858 8.404z" fill="#423C32"/><path d="M60.242 54.316c0 1.8-1.443 3.241-3.248 3.241a3.231 3.231 0 01-3.248-3.241 3.232 3.232 0 013.248-3.242 3.231 3.231 0 013.248 3.242zm-6.737-4.2c0 .84-.722 1.561-1.564 1.561-.842 0-1.564-.72-1.564-1.561s.722-1.562 1.564-1.562c.842 0 1.564.721 1.564 1.562z" fill="#fff"/><path d="M137.841 53.955c0 11.045-10.346 20.05-23.099 20.05s-23.1-9.005-23.1-20.05c0-11.044 10.347-20.048 23.1-20.048 12.753.12 23.099 9.004 23.099 20.048z" fill="#423C32"/><path d="M124.006 55.156c0 6.242-4.091 11.165-9.023 11.165-5.053 0-9.023-5.043-9.023-11.165 0-6.243 4.09-11.165 9.023-11.165 4.932 0 9.023 5.042 9.023 11.165z" fill="#fff"/><path d="M121.72 55.157c0 4.682-3.008 8.403-6.858 8.403-3.729 0-6.857-3.721-6.857-8.403s3.007-8.404 6.857-8.404 6.858 3.722 6.858 8.404z" fill="#423C32"/><path d="M122.682 54.795a3.232 3.232 0 01-3.248 3.242 3.23 3.23 0 01-3.248-3.242 3.23 3.23 0 013.248-3.24c1.804-.12 3.248 1.44 3.248 3.24zm-6.617-4.2c0 .84-.722 1.56-1.564 1.56-.842 0-1.564-.72-1.564-1.56 0-.84.722-1.56 1.564-1.56.842 0 1.564.72 1.564 1.56z" fill="#fff"/><path d="M85.387 51.914c-28.994-4.682-38.619 39.858-28.513 61.108 6.858 14.406 34.649 13.205 44.153 5.882 9.023-6.963 9.023-21.37 7.94-32.174-1.684-15.967-6.015-25.932-16.482-32.295a26.434 26.434 0 00-7.098-2.52z" fill="#EFE9E3"/><path d="M74.68 83.008c-.963 5.283 1.443 10.325 7.218 10.685 5.654.36 8.903-5.763 7.098-10.685-.481-1.44-2.767-.84-2.286.6 1.444 3.722-.721 7.684-4.812 7.684-4.21 0-5.654-4.322-4.932-7.803.36-1.321-1.925-1.921-2.286-.48zM93.448 63.32c-.12 1.32-.482 2.52-1.083 3.601-2.166 3.962-6.376 7.683-11.068 7.683-6.617 0-11.79-7.443-11.79-11.285 0-3.721 3.488-8.884 11.549-4.802 1.203.6 3.248-2.28 7.94-1.44 3.369.6 4.572 3.361 4.452 6.242z" fill="#423C32"/><path d="M128.337 73.764c0 2.882-5.414 5.282-12.151 5.282s-12.151-2.4-12.151-5.282c0-2.881 5.414-5.282 12.151-5.282s12.151 2.401 12.151 5.282zm-71.222 0c0 2.882-5.414 5.282-12.151 5.282-6.738 0-12.151-2.4-12.151-5.282 0-2.881 5.413-5.282 12.15-5.282 6.738 0 12.152 2.401 12.152 5.282z" fill="#EAC1C2"/><path d="M92.245 61.04c-.24.96-1.805 1.32-3.369.84-1.564-.48-2.647-1.681-2.406-2.642.24-.96 1.805-1.321 3.368-.84 1.685.48 2.768 1.68 2.407 2.641z" fill="#EFF3EF"/></svg>