<svg width="360" height="427" fill="none" xmlns="http://www.w3.org/2000/svg"><path d="M97.702 258.447c-1.899-2.948-2.743-6.738-1.055-10.108.844-1.684 2.954-3.79 4.854-4.422.633-.21 1.477-.421 2.11-.21-1.477-3.369 3.165-6.949 6.119-7.791 3.377-.842 11.817 1.263 8.019 6.317 2.11-2.948 8.652-2.316 10.551.632 2.11 3.158 1.266 8.212-2.532 9.475 5.697-.631 3.165 12.634-4.009 10.529-.423 1.684-1.9 3.579-2.955 4.422-3.798 2.948-8.23 2.105-11.184-1.474-2.11 4.001-7.175 4.422-10.34 1.474-2.11-2.106-4.642-9.265.422-8.844z" fill="#FFFDFD"/><path d="M124.502 302.036c74.49 0 134.841-71.596 134.841-159.616 0-61.066-28.909-114.131-71.535-141.085 3.587-.21 6.963-.42 10.551-.42C287.62.914 360 86.617 360 192.325c0 105.709-72.38 191.413-161.641 191.413-63.095 0-117.75-42.747-144.338-105.077 20.47 14.74 44.736 23.374 70.481 23.374z" fill="#FCD298"/><path d="M192.45 3.02c33.13 12.003 55.287 41.694 66.471 74.123 11.818 33.902 16.249 74.122 8.441 109.498-7.174 32.639-27.01 60.645-55.709 77.491 29.121-29.269 47.479-72.858 47.479-121.711 0-61.067-28.909-114.131-71.535-141.085 1.266 0 2.321-.21 3.587-.21 0 .631.422 1.474 1.266 1.895z" fill="#FFE5B2"/><path d="M184.642 351.521c89.262 0 161.642-85.704 161.642-191.412 0-24.637-4.01-48.011-10.973-69.49C350.926 120.1 360 155.055 360 192.327c0 105.708-72.38 191.412-161.641 191.412-63.095 0-117.75-42.747-144.338-105.077 2.321 1.685 4.643 3.159 6.964 4.633 29.543 41.694 74.068 68.226 123.657 68.226z" fill="#F9C191"/><path d="M293.107 66.403c0 3.369 2.743 6.106 6.119 6.106 3.377 0 6.12-2.737 6.12-6.106 0-3.37-2.743-6.107-6.12-6.107-3.376 0-6.119 2.738-6.119 6.107zm14.771 13.265c0 3.37 2.743 6.107 6.12 6.107 3.376 0 6.119-2.738 6.119-6.107s-2.743-6.106-6.119-6.106c-3.377.21-6.12 2.737-6.12 6.106zm-15.615 2.107c0 2.317 1.899 4.423 4.431 4.423 2.321 0 4.431-1.896 4.431-4.423 0-2.317-1.899-4.422-4.431-4.422s-4.431 2.106-4.431 4.422zm31.231 20.215c-3.38 0-6.12-2.734-6.12-6.106 0-3.373 2.74-6.107 6.12-6.107 3.379 0 6.119 2.734 6.119 6.107 0 3.372-2.74 6.106-6.119 6.106z" fill="#FFEBBB"/><path d="M307.878 79.669c0 3.369 2.743 6.106 6.12 6.106 3.376 0 6.119-2.737 6.119-6.106 0-3.37-2.743-6.106-6.119-6.106-3.377.21-6.12 2.737-6.12 6.106zm-4.009 13.898c0 2.316 1.899 4.422 4.431 4.422 2.321 0 4.432-1.895 4.432-4.422 0-2.317-1.9-4.422-4.432-4.422-2.532 0-4.431 1.895-4.431 4.422zm-135.475 238.16c-1.899-2.738-5.698-3.58-8.441-1.685-2.743 1.895-3.587 5.686-1.688 8.423 1.899 2.738 5.697 3.58 8.441 1.685 2.743-1.895 3.587-5.686 1.688-8.423zm-19.625-3.158c-1.899-2.738-5.697-3.58-8.441-1.685-2.743 1.895-3.587 5.685-1.688 8.423 1.899 2.737 5.698 3.58 8.441 1.685 2.743-1.685 3.376-5.475 1.688-8.423zm12.028-10.109c-1.266-2.106-4.009-2.527-6.119-1.263-2.111 1.263-2.533 4.001-1.267 6.107 1.267 2.106 4.01 2.528 6.12 1.264 1.899-1.474 2.532-4.212 1.266-6.108zm-28.91 1.895c-1.899-2.738-5.697-3.58-8.44-1.685-2.744 1.895-3.588 5.685-1.688 8.423 1.899 2.737 5.697 3.579 8.44 1.684 2.744-1.895 3.588-5.685 1.688-8.422z" fill="#FFEBBB"/><path d="M148.769 328.567c-1.899-2.737-5.697-3.58-8.441-1.685-2.743 1.896-3.587 5.686-1.688 8.424 1.899 2.737 5.698 3.58 8.441 1.685 2.743-1.685 3.376-5.476 1.688-8.424zm-4.22-13.687c-1.266-2.106-4.01-2.527-6.12-1.263-2.11 1.263-2.532 4.001-1.266 6.107s4.009 2.528 6.12 1.264c1.899-1.264 2.532-4.002 1.266-6.108z" fill="#FFEBBB"/><path d="M166.917 228.544c-5.698 4.001-14.139 12.003-18.359 14.319-8.019 4.422-16.248 5.896-25.111 8.002-17.304 4.211-30.81 20.215-29.965 38.324.21 2.527.422 5.265 1.055 7.792.633 3.369 2.321 6.106 4.22 8.844 1.689 2.526 2.533 5.053 4.01 7.58 3.376 5.265 9.285 9.055 15.193 10.74 10.973 2.948 27.644 1.895 38.617-1.474 20.891-6.318 40.727-25.059 52.755-43.168 10.762-16.425 20.469-51.591-2.321-61.909-12.662-5.896-26.167 1.053-40.094 10.95z" fill="#FCEDF5"/><path d="M189.496 256.341c-13.716-7.792-19.203-13.477-22.157-28.007 13.716-9.686 27.01-16.425 39.883-10.739 18.78 8.423 17.936 26.532 10.128 44.431-8.018-.631-20.89-1.895-27.854-5.685z" fill="#FAE1EE"/><path d="M136.319 312.353c2.321-4.211 4.853-8.423 8.019-12.213 6.541-7.37 14.138-14.108 22.79-19.162 8.441-4.844 18.147-9.476 28.065-9.897 4.854-.211 13.084-.211 16.882 4.001-.844 1.474-1.688 2.948-2.532 4.211-11.817 18.11-31.653 36.851-52.755 43.168-5.698 1.685-13.083 2.738-20.469 2.948-2.11-3.58-2.743-7.791 0-13.056z" fill="#FFFDFD"/><path d="M149.613 272.344c.633-2.106 1.266-4.422 1.688-6.528.633-2.948.633-5.896.422-8.844-.211-2.527-1.055-5.054.211-7.371 2.955-5.685 4.854-8.001 10.129-11.16 8.23 4.633 9.496 9.897 11.817 18.32 1.689 6.528 2.322 8.634 5.698 14.53 4.431 7.791 12.028 20.847 19.414 25.058-3.799 3.58-7.597 6.949-11.817 9.897-2.322 1.896-4.854 3.37-7.386 5.054-1.477 1.053-2.532 2.106-4.853 2.948-1.9.632-3.377-3.369-5.065-4.422-.844-.632-1.899-.632-2.743-1.053-.844-.421-1.477-1.474-2.11-2.316-1.267-1.685-2.744-4.001-4.854-5.054-1.055-.632-2.321-.421-3.376-1.263-1.899-1.474-2.532-4.633-2.954-6.739-.634-2.948-.212-7.37-1.9-9.897-1.055-1.684-2.11-2.527-2.321-4.633-.422-1.895-.422-4.632 0-6.527z" fill="#F2E7ED"/><path d="M99.18 275.713c3.165-6.738 6.963-12.002 15.193-12.002 2.954 0 5.697.632 8.441 1.685 6.752 2.105 9.495 9.054 10.973 15.371 1.688 7.791 2.532 16.004 0 23.584-2.111 6.107-6.542 13.898-3.799 20.425 0 .211.211.422.211.632-4.22-.21-8.441-.632-11.817-1.684-19.836-4.844-27.01-31.165-19.203-48.011z" fill="#F8D1E4"/><path d="M156.577 290.874c-.633-1.263-.633-2.948-.844-4.211 0-.632-1.266-6.739-1.688-6.528-1.478.842-2.111-.421-2.533-1.895-.633-2.527 0-4.844.422-7.37.422-2.317.422-4.633.633-6.949 0-1.053 0-1.896-.211-2.948 0-5.475-.633-11.372.633-16.846 1.689-7.371 8.441-12.424 15.405-6.739 3.798 2.948 3.587 9.265 3.587 13.477 0 2.948 0 5.896.211 8.844.211 6.738 3.799 12.213 7.386 17.688 3.798 5.686 7.175 11.582 11.606 16.425 6.542 7.16 12.028 13.266 17.093 21.479-1.055 1.684.211 5.685-2.322 8.633-5.064 5.897-10.762 1.475-15.826-1.684-2.321-1.474-4.431-3.159-6.753-4.843a93.513 93.513 0 01-15.826-15.793c-2.11 2.105-3.799-1.264-4.854-3.159-1.055-2.106-1.477-4.422-3.587-5.475-1.055-.632-1.899-.421-2.532-2.106z" fill="#FCEDF5"/><path d="M154.889 259.712c.211 0 .211-.211.211-.421v-1.685c0-1.264-.211-2.528 0-3.792 0-.211-.211-.421-.422-.632-.211 0-.422.211-.633.421-.211 1.264-.211 2.528 0 4.003v1.685c0 .21.211.421.422.421h.422zm1.266 10.318c.211 0 .211-.211.211-.422 0-.421-.211-.632-.211-.843 0-.211-.211-.421-.211-.843 0-.211-.211-.422-.633-.422-.211 0-.422.211-.422.633 0 .421.211.632.211.843 0 .211.211.421.211.843.211 0 .422.211.844.211-.211 0-.211 0 0 0zm-1.477 8.842c.211 0 .211-.211.211-.421-.211-.632-.211-1.264-.422-1.896-.211-.632-.211-1.264-.422-1.896 0-.211-.211-.422-.634-.422-.211 0-.422.211-.422.632.211.632.211 1.264.422 1.896.212.632.212 1.264.423 1.896.211 0 .422.211.844.211zm4.22 3.58c.211-.211.211-.422.211-.632-.422-1.053-.844-2.107-1.055-3.37l-.844.21.422-.21-.422.21c.211.843.422 1.475.844 2.317v.421l.422.843c0 .421.211.421.422.211 0 .21 0 0 0 0zm.422 6.95c.211-.211.422-.422.211-.632-.633-1.264-1.055-2.317-1.477-4.003 0-.21-.422-.421-.633-.421-.211 0-.422.421-.422.632.422 1.264.844 2.739 1.688 4.213 0 .421.422.421.633.211zm6.12 6.317s.211 0 0 0c.211-.211.422-.421.211-.632-.844-1.053-1.478-2.106-2.111-3.37-.211-.211-.422-.421-.633-.211-.211.211-.422.421-.211.632.633 1.264 1.266 2.317 2.111 3.581h.633zm1.688 4.631c.211-.211.211-.632 0-.842-.633-.632-1.266-1.264-1.688-1.896-.211-.211-.422-.211-.633-.211-.211.211-.211.422-.211.632.422.843 1.266 1.475 1.899 1.896.211.421.422.421.633.421zm5.064 3.37s0-.211 0 0c.211-.211.211-.632.211-.843-.422-.632-1.055-1.264-1.688-2.106-.211-.211-.422-.211-.633-.211-.211.211-.211.421-.211.632.633.843 1.266 1.685 1.688 2.317.211.211.422.211.633.211zm-13.294-28.217c.211 0 .211-.211.211-.422l-.422-3.369c0-.211-.211-.421-.422-.421s-.422.21-.422.421l.422 3.369c0 .422.211.632.633.422 0 .21 0 .21 0 0zm0-10.318c.211 0 .211-.211.211-.422-.211-1.263-.211-2.738 0-4.634 0-.21-.211-.421-.422-.631-.211 0-.422.21-.633.421-.422 1.896-.422 3.581 0 5.055.211.211.422.421.844.211-.211 0 0 0 0 0zm0-10.74c.211 0 .211-.21.211-.421 0-.842.211-1.895.422-2.738 0-.21 0-.421.211-.421 0-.21 0-.421-.422-.632-.211 0-.422 0-.633.422 0 .21 0 .421-.211.421-.211 1.053-.422 1.895-.422 2.948.211.421.422.632.844.421 0 .211 0 .211 0 0zm-4.853 12.425c.211 0 .211-.211.211-.422-.211-1.053-.211-1.896-.211-2.738 0-.211-.211-.421-.423-.421-.211 0-.422.21-.422.421 0 .842 0 1.896.211 2.949 0 0 .211.211.634.211zm9.284 22.952c.211-.21.422-.421.211-.632-.633-1.053-1.055-2.316-1.477-3.369 0-.211-.422-.421-.633-.211-.211 0-.422.421-.211.632.422 1.264 1.055 2.317 1.688 3.58h.422z" fill="#F7CAE0"/><path d="M206.166 155.477l1.689-.421c.844 8.002 4.009 6.738 4.009 6.738 3.165 0 2.954-7.58 2.954-7.58h2.322c-1.9 10.107 3.376 8.633 3.376 8.633 3.587-1.053 6.752-10.739 7.597-13.055l1.688.421c-.633 2.316-2.744 12.424-.422 14.951 0 0 3.798 3.79 7.385-5.686l2.111 1.053s-4.01 6.317-1.267 8.002c0 0 2.111 2.737 6.964-3.791l1.266 1.264s-4.642 5.896-7.174 16.214l-16.882-4.632-.422-.211-.633-.211-16.671-4.843c2.955-9.265 2.11-16.846 2.11-16.846z" fill="#F8BF90"/><path d="M204.478 170.848c5.276 3.369 10.973 5.685 17.093 6.107 9.074.631 18.148-2.948 23.845-10.319.211-.21.211-.21.211-.421l.211.211s-4.642 5.896-7.174 16.214l-16.882-4.632-.422-.211-.633-.211-16.671-4.843c0-.632.211-1.263.422-1.895z" fill="#F6AF80"/><path d="M242.462 165.162c-.422 1.264.422 2.738 1.688 2.949 1.266.421 2.743-.421 2.954-1.685.422-1.264-.422-2.738-1.688-2.949-1.266-.421-2.532.211-2.954 1.685z" fill="#FBCC96"/><path d="M243.728 164.321c0 .421.211.631.422.842.422 0 .844 0 .844-.421s-.211-.632-.422-.842c-.422-.211-.633 0-.844.421z" fill="#FDEEEC"/><path d="M235.709 159.687c-.422 1.263.422 2.738 1.688 2.949 1.267.421 2.744-.422 2.955-1.686.422-1.263-.422-2.738-1.688-2.948-1.267-.422-2.533.421-2.955 1.685z" fill="#FBCC96"/><path d="M236.975 158.844c0 .421.211.632.422.843.422 0 .845 0 .845-.422 0-.421-.211-.632-.423-.843-.211 0-.633.211-.844.422z" fill="#FDEEEC"/><path d="M213.341 153.581c-.422 1.264.422 2.738 1.688 2.948 1.266.421 2.744-.421 2.955-1.684.422-1.264-.422-2.738-1.689-2.948-1.266-.421-2.743.421-2.954 1.684z" fill="#FBCC96"/><path d="M214.607 152.739c0 .421.211.632.422.843.422 0 .844 0 .844-.422 0-.421-.211-.632-.422-.843-.422 0-.844.211-.844.422z" fill="#FDEEEC"/><path d="M204.478 154.424c-.422 1.264.422 2.739 1.688 2.949 1.267.422 2.744-.421 2.955-1.685.422-1.264-.422-2.738-1.688-2.949-1.267-.421-2.744.421-2.955 1.685z" fill="#FBCC96"/><path d="M205.744 153.582c0 .421.211.632.422.843.423 0 .845 0 .845-.422 0-.421-.211-.632-.423-.843-.422 0-.844.211-.844.422z" fill="#FDEEEC"/><path d="M226.424 149.369c-.422 1.264.422 2.738 1.689 2.948 1.266.421 2.743-.421 2.954-1.684.422-1.264-.422-2.738-1.688-2.948-1.055-.421-2.533.421-2.955 1.684z" fill="#FBCC96"/><path d="M227.901 148.528c0 .422.212.632.423.843.422 0 .844 0 .844-.421 0-.422-.211-.633-.422-.844-.422 0-.845.211-.845.422z" fill="#FDEEEC"/><path d="M207.011 162.846s0 2.105-1.478 8.212c0 0 .633 2.316 1.478 0 .844-2.316 1.899-4.843.844-8.844-1.055-4.001-.844.632-.844.632z" fill="#FCDCBC"/><path d="M179.578 177.796c-1.266-.842-2.532-1.474-3.798-2.316-1.267-.632-1.689-1.053-1.267-.843-.844-.631-2.321-1.895-2.11-3.158.211-1.474 2.11-1.264 1.899-2.948-.211-3.37-5.064-5.054-5.697-8.423-.422-2.106 1.266-.843 2.321-1.685 1.266-1.053 0-2.737-.633-3.79-1.055-1.895-1.899-3.37-2.532-5.475-.422-1.053-.844-2.106-1.055-3.159-.211-1.263-.211-1.053.422-1.684.844-.632 1.266-.632 1.688-1.475.422-.842.633-1.895.422-2.737" fill="#E9C2CF"/><path d="M197.093 179.691c1.266.421 18.569-57.697-4.854-87.599-16.881-22.741-35.873 3.16-29.543 27.796 7.386 24.848 18.148 65.909 17.726 65.909" fill="#E9C2CF"/><path d="M196.671 179.902c1.266.421 18.147-55.17-3.588-84.019-15.826-21.9-33.974-.421-27.854 23.163 6.963 23.795 17.514 64.015 17.092 63.804" fill="#FCEDF5"/><path d="M194.771 172.532c.844.21 9.707-35.377-2.954-53.486-9.074-13.688-17.726.21-14.56 15.161 3.798 15.161 9.285 40.641 9.074 40.43" fill="#E9C2CF"/><path d="M188.019 174.216c-3.166-10.528-4.854-22.11-4.221-33.06.633-8.212 2.533-14.74 9.707-18.741-.633-1.053-1.055-2.106-1.899-2.948-9.074-13.688-17.726.21-14.56 15.161 3.798 15.162 9.285 40.641 9.074 40.431l1.899-.843z" fill="#E7ADC2"/><path d="M198.57 171.689c1.688-1.895 3.798-3.158 4.642-5.685.422-1.264-.422-1.264-.633-2.106 0-.421.422-1.053.633-1.474.211-.421.422-.632.844-1.053.633-.631 1.899-2.948 1.266-3.79-.422-.632-1.477-.421-1.688-1.264-.211-.631.211-1.263.422-1.895.422-1.474 1.266-2.948 1.688-4.422.211-.632.633-2.316.211-2.948-.633-1.053-1.688-.842-1.477-2.316.422-1.685.844-3.369 1.055-5.265 0-.631.211-1.684 0-2.105-.422-.843-1.477-.211-2.321-.421m-20.68 40.851c-1.266-.842-2.532-1.474-3.798-2.316-1.266-.632-1.688-1.053-1.266-.843-.844-.631-2.321-1.895-2.11-3.158.211-1.474 2.11-1.264 1.899-2.948-.211-3.37-5.065-5.054-5.698-8.423-.422-2.106 1.266-.843 2.321-1.685 1.267-1.053 0-2.737-.633-3.79-1.055-1.895-1.899-3.37-2.532-5.475-.422-1.053-.844-2.106-1.055-3.159-.211-1.263-.211-1.053.422-1.684.844-.632 1.266-.632 1.688-1.475.422-.842.633-1.895.422-2.737" fill="#FCEDF5"/><path d="M256.178 199.274h5.909c1.055-.21 3.165-.421 3.587-1.684.633-1.264-1.055-2.106 0-3.58 2.11-2.737 6.964-1.895 9.074-4.211 1.477-1.474-.633-1.474-1.055-2.527-.422-1.474 1.477-2.316 2.532-2.948 1.899-1.053 3.376-1.895 5.065-3.159.844-.631 1.899-1.263 2.532-2.105.844-.843.633-.843.422-1.685-.211-1.053-.844-1.053-.844-2.105 0-.843.422-1.896 1.055-2.527" fill="#E9C2CF"/><path d="M240.352 191.905c-1.266-.211 14.138-58.961 49.8-72.438 26.378-10.74 29.121 21.478 10.973 38.956-19.202 17.268-49.8 46.959-49.378 47.169" fill="#E9C2CF"/><path d="M240.563 192.115c-1.266-.21 13.083-56.644 46.635-69.91 24.689-10.529 29.121 17.267 11.817 34.113-18.359 16.635-48.323 45.694-47.901 45.694" fill="#FCEDF5"/><path d="M246.049 186.85c-.844-.21 10.129-35.165 30.387-44.22 14.983-6.949 15.194 9.476 4.432 20.426-11.185 10.949-29.121 29.901-28.699 29.901" fill="#E9C2CF"/><path d="M250.903 191.694c8.229-7.37 15.615-16.425 20.68-26.322 3.798-7.37 5.486-14.108 1.477-21.057 1.055-.632 2.11-1.264 3.165-1.685 14.983-6.949 15.194 9.476 4.432 20.426-11.185 10.949-29.121 29.901-28.699 29.901l-1.055-1.263z" fill="#E7ADC2"/><path d="M243.095 184.113c-.422-2.527-1.477-4.633-.844-7.37.211-1.264 1.055-.842 1.688-1.474.211-.421.211-1.053.211-1.474 0-.421 0-.842-.211-1.264 0-.842 0-3.369.844-3.79.633-.21 1.477.211 2.11-.21.422-.421.422-1.264.633-1.896.422-1.473.422-3.158 1.055-4.632.211-.632.634-2.316 1.478-2.527 1.055-.421 1.899.211 2.532-1.263.633-1.685 1.055-3.369 1.688-5.054.211-.421.633-1.474 1.055-1.895.844-.632 1.477.421 2.11.842m-3.798 45.484h5.908c1.056-.21 3.166-.421 3.588-1.684.633-1.264-1.055-2.106 0-3.58 2.11-2.738 6.963-1.895 9.074-4.212 1.477-1.474-.633-1.474-1.055-2.527-.422-1.474 1.477-2.316 2.532-2.948 1.899-1.053 3.376-1.895 5.064-3.158.844-.632 1.899-1.264 2.533-2.106.844-.842.633-.842.422-1.685-.211-1.053-.844-1.053-.844-2.105 0-.843.422-1.896 1.055-2.527" fill="#FCEDF5"/><path d="M162.907 224.333c-1.055-1.474-5.486-6.317-6.33-8.002-1.266-1.263-3.588-5.685-2.743-7.581.844-1.895 2.954.632 4.431.421 0-1.263-1.055-2.316-1.688-3.579-.633-1.264-1.266-2.527-1.688-4.001-.211-1.053-.633-2.738 1.055-2.948 1.055 0 1.899 1.053 2.954 1.053-.211-2.738-1.899-5.897-.633-8.424 1.899-3.79 3.587 1.685 6.331 1.053m82.086 53.907c1.688-.631 8.019-2.737 9.707-3.579 1.688-.421 6.12-3.159 6.331-5.054.211-2.106-2.954-.842-4.01-1.895.633-1.264 2.111-1.474 3.166-2.106 1.266-.632 2.532-1.474 3.587-2.527.844-.842 1.899-2.106.633-2.948-.844-.632-2.11 0-3.165-.842 1.688-2.316 4.642-4.001 4.853-6.949.211-4.212-4.009-.421-5.908-2.316" fill="#E9C2CF"/><path d="M236.975 182.217c-1.688-4.843-2.954-9.896-7.385-13.266-.844-.631-2.111-1.684-2.744-.631-.844 1.053.211 2.105 0 3.158-1.899.211-3.165-1.474-4.642-2.737-.633-.632-5.698-4.633-5.909-2.316 0 .631.633 2.526.211 2.948-1.688 1.263-3.587-1.685-5.275-1.474-2.321.21-1.055 1.895-1.055 3.369 0 2.105-2.321 1.684-4.01 1.474" fill="#FCEDF5"/><path d="M159.531 199.276c-6.331 22.531 1.477 44.22 39.25 54.749 40.727 11.371 55.709-4.001 62.04-26.533 6.33-22.531-11.184-46.957-39.25-54.749-28.066-7.791-55.92 4.001-62.04 26.533z" fill="#E9C2CF"/><path d="M162.274 200.118c-5.908 21.268.422 44.431 36.085 54.328 38.405 10.739 53.599-6.528 59.718-27.796.633-2.316 2.322-.632 2.533-2.948 1.055-11.371-4.221-26.954-13.084-36.219-6.119-6.528-15.615-12.213-25.322-14.951-8.863-2.526-19.414-3.579-27.644-1.895-16.459 3.58-28.276 15.162-32.286 29.481z" fill="#FCEDF5"/><path d="M162.485 221.386c-.844-1.263-3.587-5.054-4.431-6.528-1.055-1.052-2.743-5.053-1.899-6.527.844-1.474 2.532.631 3.587.631.211-1.053-.844-2.105-1.266-2.948-.422-1.053-1.055-2.316-1.266-3.369-.211-.842-.422-2.316 1.055-2.316.844 0 1.477 1.053 2.532 1.053 0-2.317-1.266-4.844 0-7.16 1.688-2.948 2.11 2.316 4.221 1.895m80.82 48.641c1.477-.631 7.175-2.316 8.652-3.158 1.477-.421 5.276-2.738 5.698-4.633.211-1.895-2.533-.842-3.588-1.684.633-1.053 1.899-1.264 2.955-1.895 1.055-.632 2.321-1.474 3.165-2.317.633-.631 1.688-1.895.633-2.737-.633-.421-1.899 0-2.743-.632 1.477-2.105 4.22-3.579 4.431-6.317.211-3.579-3.165.843-4.853-1.053" fill="#FCEDF5"/><path d="M231.067 177.587h.211c.211 0 .422-.421.422-.632-.422-1.685-1.477-3.37-1.899-4.212-.211-.211-.422-.211-.633-.211-.211.211-.211.421-.211.632.422.843 1.266 2.527 1.688 4.002l.422.421zm-8.652-1.897h.211c.211 0 .422-.211.422-.632-.422-2.316-1.688-4.211-3.798-5.895-.211-.211-.422-.211-.633 0-.211.21-.211.421 0 .631 1.899 1.474 2.954 3.369 3.376 5.475 0 .21.211.421.422.421zm-6.753.212h.422c.211-.211.211-.421.211-.632-.844-1.474-1.899-2.738-2.743-4.001-.211-.211-.422-.211-.633 0-.211.21-.211.421 0 .632 1.055 1.263 1.899 2.527 2.743 3.79-.211 0-.211.211 0 .211zm2.533 10.738c.211 0 .422 0 .633-.211.633-1.895.844-3.79.211-6.106 0-.211-.422-.422-.633-.422-.211 0-.422.422-.422.632.422 2.106.422 3.79-.211 5.475 0 .21.211.421.422.632zm7.385-2.526c.211 0 .422 0 .633-.421.422-1.264.422-2.527.422-3.581v-.842c0-.211-.211-.421-.422-.421s-.422.21-.422.421v.842c0 1.054 0 2.317-.422 3.37-.211.211-.211.632.211.632zm-3.798 7.581c.211 0 .422 0 .633-.211.422-1.053.844-2.106 1.477-3.37 0-.21 0-.421-.211-.632-.211 0-.422 0-.633.211-.422 1.264-1.055 2.317-1.477 3.159-.211.422-.211.632.211.843-.211 0-.211 0 0 0zm-5.698 6.528c.211 0 .422 0 .633-.422.211-.421.423-1.053.423-1.474.211-.421.422-1.053.422-1.474 0-.211 0-.421-.422-.632-.212 0-.423 0-.634.421-.211.422-.422 1.053-.422 1.475-.211.421-.422 1.053-.422 1.474 0 .421 0 .632.422.632zm-3.376 2.948c.211 0 .422 0 .633-.422.211-.632.422-1.264.422-2.106a.454.454 0 00-.422-.422.454.454 0 00-.422.422c0 .632-.211 1.264-.422 1.685-.211.421 0 .843.211.843zm2.954 6.528c.211 0 .422 0 .633-.422.211-.842.633-1.895.633-2.948 0-.211-.211-.422-.422-.632-.211 0-.422.21-.633.421 0 .843-.422 1.896-.633 2.738 0 .632.211.843.422.843zm3.588-5.475c.211 0 .422 0 .633-.422.211-.842.422-1.474.844-2.316.211-.842.633-1.474.844-2.317 0-.21 0-.421-.422-.631-.211 0-.422 0-.633.421-.211.842-.422 1.474-.844 2.316-.211.843-.633 1.474-.844 2.317 0 .421.211.632.422.632zm5.064-5.053c.211 0 .422 0 .633-.211.422-1.053 1.055-2.106 1.477-3.159l.422-.632c.211-.211 0-.421-.211-.632-.211-.211-.422 0-.633.211l-.422.631c-.633 1.054-1.055 2.107-1.688 3.16 0 .211.211.632.422.632zm4.854-7.582c.211 0 .211 0 0 0 .422 0 .633-.21.633-.421 0-.632.211-1.264.422-1.896.211-.632.211-1.264.422-1.895 0-.211-.211-.422-.422-.632-.211 0-.422.21-.633.421 0 .632-.211 1.264-.422 1.896-.211.632-.211 1.264-.422 1.895.211.422.211.632.422.632zm-15.194-2.737c.422 0 .633-.211.633-.421.211-1.054.211-2.318.633-3.16 0-.211 0-.422-.422-.632-.211 0-.422 0-.633.421-.211 1.053-.422 2.317-.633 3.371 0 .21 0 .421.422.421zm-1.055 7.159c.211 0 .422 0 .633-.421 0-.421.211-.632.211-1.053 0-.211 0-.632.211-.843 0-.21 0-.421-.422-.632-.211 0-.422 0-.633.422 0 .421-.211.632-.211 1.053 0 .21 0 .632-.211.842.211.422.211.632.422.632zm-2.532 12.844s.211 0 0 0c.422 0 .633-.21.633-.421v-2.948c0-.211-.211-.422-.633-.422-.211 0-.422.211-.422.632.211 1.053.211 1.896 0 2.738 0 .211.211.421.422.421zm2.11-26.531c.211 0 .211 0 0 0 .422 0 .633-.211.633-.421v-2.738c0-.21-.211-.421-.633-.421-.211 0-.422.211-.422.632v2.737c.211 0 .211.211.422.211zm-2.743 12.424c.422 0 .633-.211.633-.422 0-.631.211-1.263.211-1.895 0-.632 0-1.264.211-1.685 0-.211-.211-.421-.422-.632-.211 0-.422.211-.633.421 0 .632-.211 1.264-.211 1.896 0 .632 0 1.264-.211 1.685 0 .21.211.421.422.632zm-.844 9.265s.211 0 0 0c.422 0 .633-.211.633-.422.211-1.053.211-1.895 0-2.738v-.631a.454.454 0 00-.422-.422.454.454 0 00-.422.422v3.159c0 .21 0 .421.211.632zm24.9-16.216c.211 0 .422 0 .633-.421.422-1.263.633-2.526.844-3.79v-.421c0-.21-.211-.421-.422-.631-.211 0-.422.21-.633.421v.421c-.211 1.263-.422 2.316-.844 3.579 0 .421.211.842.422.842z" fill="#F7CAE0"/><path d="M213.552 196.959c20.047 2.316 18.148 33.27 7.597 45.484-7.175 8.212-25.745 2.316-30.598-4.212-4.642-6.106-1.477-15.793 1.266-22.742 4.009-10.107 8.863-16.003 16.882-18.109 1.477-.421 3.165-.631 4.853-.421z" fill="#FFFDFD"/><path d="M214.818 219.28c-.422 3.58-2.954 6.528-6.752 5.686-3.799-.843-4.854-5.476-2.744-8.424.633-.842 1.9 0 1.478.843-1.689 2.106-1.056 5.264 1.688 5.896 2.743.842 4.431-1.685 4.642-4.212.211-.631 1.688-.631 1.688.211z" fill="#625A4D"/><path d="M177.679 199.064c-.633 1.895 2.532 4.422 6.963 5.685 4.432 1.264 8.441.632 8.863-1.263.633-1.895-2.532-4.422-6.963-5.686-4.221-1.263-8.23-.842-8.863 1.264zm52.966 14.32c-.633 1.895 2.532 4.422 6.963 5.686 4.432 1.263 8.441.631 8.863-1.264.633-1.895-2.532-4.422-6.963-5.685-4.221-1.264-8.23-.632-8.863 1.263z" fill="#F4CAD6"/><path d="M206.166 202.854a5.123 5.123 0 000 2.527c.634 2.948 2.744 6.107 5.909 7.16 4.431 1.264 9.074-2.738 9.707-5.265.633-2.527-.633-6.528-6.753-5.264-.844.21-1.688-2.106-5.064-2.317-2.11-.21-3.376 1.264-3.799 3.159z" fill="#423C32"/><path d="M207.222 201.592c0 .633 1.055 1.265 2.11 1.265s2.11-.632 2.11-1.265c0-.632-1.055-1.264-2.11-1.264s-2.11.632-2.11 1.264z" fill="#EFF3EF"/><path d="M230.223 202.012c-1.055 3.369.422 6.739 3.165 7.581 2.743.843 5.698-1.474 6.753-4.843 1.055-3.37-.422-6.739-3.166-7.582-2.743-.842-5.697 1.264-6.752 4.844z" fill="#625A4D"/><path d="M230.223 201.593c-.422 1.263.422 2.316 1.477 2.737 1.266.421 2.321-.421 2.743-1.474.422-1.263-.422-2.316-1.477-2.737-1.266-.421-2.532.21-2.743 1.474zm5.064-1.474c-.211.632.211 1.053.844 1.264.633.21 1.055-.211 1.266-.843.211-.632-.211-1.053-.844-1.264-.422 0-1.055.211-1.266.843z" fill="#fff"/><path d="M192.45 191.484c-1.055 3.369.422 6.738 3.165 7.58 2.744.842 5.698-1.263 6.753-4.843 1.055-3.369-.422-6.738-3.165-7.58-2.743-.843-5.698 1.263-6.753 4.843z" fill="#625A4D"/><path d="M192.45 191.064c-.422 1.263.422 2.316 1.477 2.737 1.266.422 2.322-.421 2.744-1.474.422-1.263-.422-2.316-1.478-2.738-1.266-.421-2.321.211-2.743 1.475zm5.276-1.475c-.211.632.211 1.053.844 1.264.633.21 1.055-.211 1.266-.632.211-.632-.211-1.053-.633-1.264-.844-.21-1.477 0-1.477.632z" fill="#fff"/><path d="M255.756 204.75c.211-1.685.211-3.58.211-5.264-.844-2.317 0-6.107-1.688-8.213-.844-1.053-1.899-.631-2.532-2.105s-.211-3.58-.844-5.265c-1.055-3.58-2.955 1.474-4.643-1.684-.633-1.053-1.055-2.738-2.532-1.685-.633.211-.633 1.053-1.055 1.474-.633.632-1.266 1.053-2.11 1.474h-.211m-62.884-2.738c.844-1.474 1.688-3.158 2.532-4.632 1.899-1.474 3.165-5.265 5.698-6.107 1.266-.421 2.11.421 3.165-.421 1.266-1.053 2.11-2.948 3.376-4.001 2.743-2.527 1.899 2.738 5.065.842 1.055-.631 2.11-1.684 3.165-.21.211.632 0 1.263.211 1.684.211.843.422 1.474 1.055 2.317v.21M126.19 273.819c1.688 4.632 2.743 9.476 3.165 12.424 1.899 10.949 1.055 30.322-7.174 39.587 0 0 14.138 1.264 11.817 12.845-2.744 13.266-38.195 1.896-34.397-10.949-1.055-8.634-1.899-17.057-2.954-25.69-.844-5.686-2.954-9.476-1.899-15.372 1.055-6.107 3.798-11.582 7.386-16.425 2.532-3.369 5.908-8.002 10.34-8.844 6.963-1.263 11.184 5.264 13.716 12.424z" fill="#FCEDF5"/><path d="M101.923 279.925c.211 0 .422-.21.422-.421 0-.421 0-.632.211-.842v-.843c0-.21-.211-.421-.422-.631-.211 0-.422.21-.633.421 0 .421 0 .632-.211.842v.842c0 .422.211.632.633.632zm-4.221 7.793c.211 0 .422-.21.422-.421.211-.632.211-1.264.211-1.896 0-.632.211-1.264.211-1.896 0-.21-.21-.421-.422-.631-.21 0-.422.21-.633.421-.21.632-.21 1.264-.21 1.896 0 .631-.212 1.263-.212 1.895 0 .422.211.632.633.632-.21 0-.21 0 0 0zm2.532 5.053c.211 0 .423-.211.423-.421v-3.58h-1.056.422-.422v2.948l.211.842s.211.211.422.211zm-1.899 6.738c.211 0 .422-.21.422-.631-.21-1.264-.21-2.527 0-4.423 0-.21-.21-.421-.422-.421-.21 0-.422.211-.422.421 0 1.264-.21 2.738 0 4.633-.21.211.211.421.422.421zm3.588 7.79s.211 0 0 0c.422 0 .422-.421.422-.631-.422-1.263-.633-2.526-.844-3.789 0-.211-.211-.421-.633-.421-.212 0-.423.21-.423.631.212 1.263.423 2.526.845 4 .211.21.422.21.633.21zm0 5.055c0-.211 0-.211 0 0 .422-.211.422-.421.422-.632-.422-.842-.844-1.474-1.055-2.316 0-.211-.422-.421-.633-.421-.212 0-.423.421-.423.632.211.842.634 1.684 1.056 2.526.211 0 .422.211.633.211zm3.587 4.842c.422-.21.422-.421.422-.631-.211-.632-.633-1.685-.844-2.527 0-.21-.422-.421-.633-.421-.211 0-.422.421-.422.632.211 1.052.633 1.895.844 2.737.211 0 .422.21.633.21zm-2.743-30.952c.211 0 .422-.21.422-.421l.844-3.369c0-.211 0-.422-.422-.632-.211 0-.422 0-.633.421l-.844 3.369c0 .211.211.632.633.632zm3.376-9.898c.211 0 .422-.21.422-.421.211-1.264.633-2.738 1.688-4.212.211-.21 0-.421-.211-.632-.211-.21-.422 0-.633.211-1.055 1.685-1.477 3.159-1.688 4.633 0 .211 0 .421.422.421zm3.798-9.896a.454.454 0 00.422-.422c.211-.842.845-1.685 1.267-2.316 0-.211.211-.211.211-.422.211-.21 0-.421-.211-.631-.211-.211-.422 0-.633.21 0 .211-.212.211-.212.421-.633.843-1.266 1.685-1.477 2.738.211.211.211.422.633.422zm-8.862 9.897a.454.454 0 00.422-.422c.211-1.053.422-1.896.844-2.738 0-.211 0-.422-.211-.632-.211 0-.422 0-.633.21-.211.843-.633 1.896-.844 2.739 0 .632.211.843.422.843zm1.055 24.638c.211 0 .422-.211.422-.632-.211-1.264-.211-2.528-.211-3.792 0-.21-.211-.421-.422-.421s-.422.211-.422.421c0 1.264.211 2.528.211 3.792-.211.632 0 .632.422.632z" fill="#F7CAE0"/><path d="M280.023 422.273v2.106c0 3.159-.422 6.107-1.266 8.844H87.995c-8.651-5.054-14.349-13.687-14.349-23.374 0-12.423 9.285-22.742 21.946-26.532-.211-1.685-.422-3.159-.422-4.843 0-18.741 15.193-33.903 33.974-33.903 4.643 0 9.285 1.053 13.294 2.738 5.698-13.266 20.258-22.532 37.351-22.532 13.927 0 26.166 6.318 33.341 15.583 4.009-1.474 8.441-2.527 13.083-2.527 18.359 0 33.341 13.477 36.085 30.954 1.477-.21 2.954-.21 4.642-.21 17.937 0 32.286 12.634 32.286 28.217-.211 11.16-8.019 21.057-19.203 25.479z" fill="#F0F0F0"/><path d="M284.455 429.434v3.791H83.985c-3.586-4.633-5.908-10.108-5.908-16.004 0-12.424 9.285-22.742 21.946-26.533-.21-1.474-.422-3.158-.422-4.843 0-18.741 15.194-33.902 33.975-33.902 4.642 0 9.284 1.052 13.294 2.737 5.697-13.266 20.258-22.532 37.35-22.532 13.928 0 26.167 6.318 33.342 15.583 4.009-1.474 8.44-2.527 13.083-2.527 18.358 0 33.341 13.477 36.084 30.955 1.477-.211 2.954-.211 4.643-.211 17.936 0 32.286 12.635 32.286 28.217 0 10.95-7.808 20.847-19.203 25.269z" fill="#EEF7FB"/><path d="M339.109 409.85v1.052c0 8.634-6.964 15.372-15.404 15.372-3.166 0-6.12-.842-8.441-2.527-2.532 4.422-6.964 8.002-12.45 9.476h-11.818c-4.009-1.053-7.596-3.158-10.129-6.106-2.743 3.158-6.33 5.264-10.551 6.106h-7.174c-7.597-1.474-13.716-7.58-14.772-15.372-8.229-.842-14.56-6.949-14.56-14.319 0-6.317 4.642-11.792 11.184-13.687-.211-.842-.211-1.684-.211-2.527 0-9.686 7.808-17.267 17.304-17.267 2.321 0 4.642.421 6.752 1.474 2.955-6.738 10.34-11.581 18.992-11.581 7.175 0 13.294 3.158 17.093 8.002 2.11-.843 4.431-1.264 6.752-1.264 9.285 0 17.093 6.949 18.359 15.793.844 0 1.477-.21 2.321-.21 9.074 0 16.46 6.527 16.46 14.318 0 5.897-4.009 10.95-9.707 13.267z" fill="#F0F0F0"/><path d="M341.43 413.431v1.053c0 8.633-6.963 15.372-15.404 15.372-3.166 0-6.12-.843-8.441-2.527-1.266 2.105-2.954 4.211-4.854 5.685h-27.01c-.844-.632-1.899-1.474-2.532-2.316-.844.842-1.688 1.684-2.533 2.316h-23.212c-3.587-2.948-6.119-6.949-6.963-11.792-8.23-.842-14.561-6.949-14.561-14.319 0-6.317 4.643-11.792 11.184-13.687-.211-.842-.211-1.685-.211-2.527 0-9.686 7.808-17.267 17.304-17.267 2.321 0 4.642.421 6.753 1.474 2.954-6.738 10.34-11.582 18.991-11.582 7.175 0 13.295 3.159 17.093 8.002 2.11-.842 4.431-1.263 6.753-1.263 9.284 0 17.092 6.949 18.358 15.793.844 0 1.477-.211 2.322-.211 9.073 0 16.459 6.528 16.459 14.319.211 6.107-3.798 11.161-9.496 13.477z" fill="#EEF7FB"/><path d="M138.007 402.48v1.263c0 11.161-9.074 20.215-20.258 20.215-4.22 0-8.019-1.263-11.184-3.369-3.165 5.896-9.074 10.318-16.248 12.213H74.912c-5.275-1.474-9.918-4.211-13.294-8.002-3.587 4.001-8.441 6.949-13.717 8.002h-9.284c-9.918-1.895-17.937-10.107-19.414-20.215C8.44 411.534 0 403.533 0 393.846c0-8.212 6.12-15.371 14.771-17.898-.21-1.053-.21-2.106-.21-3.159 0-12.634 10.128-22.742 22.79-22.742 3.165 0 6.12.632 8.862 1.895 3.799-8.844 13.506-15.161 24.9-15.161 9.286 0 17.515 4.212 22.369 10.529 2.743-1.053 5.697-1.685 8.863-1.685 12.239 0 22.368 9.055 24.056 20.636 1.055-.21 2.11-.21 2.954-.21 12.028 0 21.735 8.423 21.735 18.741-.211 8.212-5.486 14.74-13.083 17.688z" fill="#F0F0F0"/><path d="M141.172 407.323v1.264c0 11.16-9.074 20.215-20.258 20.215-4.22 0-8.018-1.264-11.184-3.369-1.477 2.948-3.798 5.474-6.541 7.58h-35.24c-1.267-1.053-2.322-1.895-3.377-3.158-1.055 1.052-2.11 2.105-3.376 3.158H30.809c-4.643-3.79-8.019-9.055-9.074-15.372-10.762-1.053-19.203-9.054-19.203-18.741 0-8.212 6.12-15.372 14.772-17.898-.211-1.053-.211-2.106-.211-3.159 0-12.634 10.129-22.742 22.79-22.742 3.165 0 6.12.632 8.863 1.895 3.798-8.844 13.505-15.161 24.9-15.161 9.285 0 17.515 4.211 22.368 10.529 2.743-1.053 5.698-1.685 8.863-1.685 12.239 0 22.368 9.055 24.056 20.636 1.055-.21 2.11-.21 2.954-.21 12.029 0 21.735 8.423 21.735 18.741.423 8.001-4.853 14.529-12.45 17.477z" fill="#EEF7FB"/></svg>