<svg width="676" height="657" fill="none" xmlns="http://www.w3.org/2000/svg"><path d="M336.459 1.194C200.89 10.744-3.659 110.227 66.119 277.358c19.139 45.762 20.335 79.984 2.79 126.542-19.936 54.119-25.917 106.646 11.165 154.398 84.133 108.237 286.689 112.217 409.498 83.566 167.468-38.998 210.132-218.465 175.044-366.893-17.146-72.424-50.241-176.284-109.253-226.423C507.914 7.958 437.338.398 377.528 0c-13.955 0-27.911.398-41.069 1.194z" fill="#E5F4FD"/><path d="M284.597 545.052c0-15.566-11.659-28.749-27.63-33.514.32-1.906.48-3.97.48-6.035 0-23.507-19.165-42.567-42.802-42.567-5.909 0-11.658 1.271-16.769 3.336C190.689 449.753 172.323 438 150.922 438c-17.567 0-33.059 7.783-42.002 19.695a47.437 47.437 0 00-16.61-3.018c-22.998 0-42.163 16.836-45.516 38.914-1.917-.159-3.833-.318-5.75-.318-22.518 0-40.725 15.883-40.725 35.419 0 14.454 9.902 26.684 24.116 32.243 0 .794-.16 1.747-.16 2.541 0 20.966 17.089 37.96 38.17 37.96 7.826 0 15.012-2.382 21.081-6.353 7.986 14.771 25.394 24.937 45.357 24.937 16.13 0 30.344-6.512 39.607-16.836a45.942 45.942 0 0034.656 15.724c22.998 0 42.003-16.836 45.517-38.755 20.282-2.065 35.934-16.995 35.934-35.101z" fill="#A0CDCF"/><path d="M240.039 576.341c-23.158 17.948-60.369 16.836-81.131-4.606-9.902 9.847-33.538 13.341-46.475 8.259-7.666-3.018-28.747-13.342-31.94-30.655-2.077-11.435-15.013-9.37-23.318-17.947-10.54-11.277-10.86-26.843-10.062-41.296-.319 1.112-.479 2.223-.638 3.335-1.917-.159-3.833-.318-5.75-.318C18.206 493.113 0 508.997 0 528.533c0 14.453 9.902 26.683 24.116 32.242 0 .794-.16 1.747-.16 2.542 0 20.965 17.089 37.96 38.17 37.96 7.825 0 15.012-2.382 21.081-6.353 7.985 14.771 25.393 24.936 45.357 24.936 16.13 0 30.344-6.512 39.607-16.836a45.937 45.937 0 0034.656 15.724c21.72 0 39.927-14.93 44.718-35.101-2.555-2.065-5.11-4.606-7.506-7.306z" fill="#81C3CD"/><path d="M126.488 611.444c-1.118 0-2.076-.159-3.035-.318-.798-.159-1.277-.794-1.277-1.588.159-.794.798-1.271 1.597-1.271.958.159 1.756.159 2.715.159.798 0 1.437.635 1.277 1.429.16.953-.479 1.589-1.277 1.589zm8.464-.318c-.639 0-1.278-.476-1.437-1.271-.16-.794.479-1.429 1.277-1.588.959-.159 1.917-.159 2.715-.317.799-.159 1.438.476 1.598 1.111.159.794-.48 1.43-1.118 1.589a9.37 9.37 0 01-3.035.476c.16 0 .16 0 0 0zm61.008-.635h-1.118a1.428 1.428 0 01-1.437-1.43c0-.794.639-1.429 1.437-1.429h2.715c.799-.159 1.437.635 1.437 1.429s-.638 1.43-1.437 1.43c-.319 0-.958.159-1.597 0zm-80.652-.953h-.319c-.958-.318-1.917-.636-2.715-.953-.799-.318-1.118-1.112-.799-1.747.32-.794 1.118-1.112 1.757-.794.799.317 1.757.635 2.555.794.799.159 1.118.953.959 1.747-.32.476-.799.953-1.438.953zm71.229 0h-.319c-.958-.159-1.917-.477-2.875-.794-.798-.159-1.118-.953-.958-1.747.16-.795.958-1.112 1.757-.953.798.317 1.757.476 2.715.794.798.159 1.277.953 1.118 1.747-.32.476-.799.953-1.438.953zm19.644-.159c-.639 0-1.277-.477-1.437-1.112-.16-.794.319-1.588.958-1.747.799-.159 1.757-.476 2.715-.794.799-.159 1.597.159 1.757.953.319.794-.16 1.588-.958 1.747-.959.318-1.917.635-2.875.794.16.159 0 .159-.16.159zm-60.049-.635c-.639 0-1.118-.318-1.278-.953-.319-.794.16-1.589.798-1.747.799-.318 1.757-.636 2.556-.953.798-.318 1.597 0 1.916.794.32.794 0 1.588-.798 1.906-.959.317-1.757.635-2.715.953h-.479zm29.865-3.336c-.16 0-.479 0-.639-.159-.799-.476-1.757-.953-2.555-1.588-.639-.476-.799-1.271-.48-1.906.48-.635 1.278-.794 1.917-.476l2.396 1.429c.638.318.958 1.271.479 1.906a1.2 1.2 0 01-1.118.794zm-71.229-.317c-.16 0-.479 0-.639-.159-.799-.477-1.757-.953-2.556-1.589-.638-.476-.798-1.27-.479-1.906.48-.635 1.278-.794 1.917-.476l2.395 1.429c.639.318.959 1.271.48 1.906-.16.636-.639.795-1.118.795zm111.954 0c-.479 0-.958-.318-1.278-.636-.319-.635-.159-1.588.479-1.906l2.396-1.429c.639-.477 1.597-.318 1.916.317.48.636.32 1.589-.319 1.906-.799.477-1.597 1.112-2.555 1.589-.16.159-.32.159-.639.159zm-60.369-1.271c-.479 0-.958-.159-1.118-.635-.479-.636-.16-1.589.479-1.906.799-.477 1.597-.953 2.236-1.589.639-.476 1.597-.317 1.916.318.479.635.32 1.588-.319 1.906-.799.635-1.597 1.112-2.396 1.588-.319.318-.638.318-.798.318zm10.54-5.241c-.319 0-.798-.159-.958-.477l-2.076-2.065c-.479-.635-.479-1.429.16-2.065.639-.476 1.437-.476 2.076.159.639.636 1.278 1.43 1.916 2.065.48.477.639 1.43 0 2.065-.319.159-.798.318-1.118.318zm-71.229-.159c-.32 0-.639-.159-.958-.477l-2.076-2.065c-.48-.635-.48-1.429.16-2.064.638-.477 1.437-.477 2.076.158l1.916 1.906c.64.477.64 1.43 0 2.065-.32.318-.638.477-1.118.477zm130.001-.159c-.319 0-.638-.159-.958-.477-.639-.476-.639-1.429 0-2.064.639-.636 1.278-1.271 1.917-2.065.479-.636 1.437-.636 2.076-.159.639.476.639 1.429.16 2.065-.639.794-1.278 1.429-1.917 2.223-.479.318-.798.477-1.278.477zm-158.269-3.494s-.16 0 0 0c-1.118 0-2.076-.159-3.034-.318-.799-.159-1.278-.794-1.118-1.588.16-.795.799-1.271 1.597-1.112.958.159 1.757.317 2.715.317.799 0 1.437.795 1.278 1.589-.16.476-.799 1.112-1.438 1.112zm8.465-.477c-.64 0-1.278-.476-1.438-1.112-.16-.794.32-1.429 1.118-1.588.959-.159 1.757-.318 2.715-.635.799-.159 1.597.317 1.757.953.16.794-.32 1.588-.958 1.747-.958.317-1.917.476-2.875.635h-.32zm-19.484-2.224c-.16 0-.32 0-.48-.158-.958-.318-1.756-.795-2.715-1.271-.638-.318-.958-1.271-.638-1.906.319-.635 1.277-.953 1.916-.635.799.476 1.597.794 2.396 1.112.798.317 1.118 1.111.798 1.905-.16.636-.798.953-1.277.953zm30.184-1.588c-.479 0-.958-.317-1.278-.794-.319-.635-.16-1.588.48-1.906a14.582 14.582 0 002.076-1.271c.32-.158.798-.317 1.118-.158.32.158.639.317.958.635l.16.318c.319.635.16 1.588-.64 1.906-.319.158-.478.158-.798.158-.479.318-.958.636-1.437.795-.16.317-.48.317-.639.317zm145.812-1.27c-.16 0-.479 0-.639-.159-.639-.318-.958-1.271-.639-1.906.48-.794.799-1.589 1.278-2.383.32-.635 1.118-.953 1.917-.635.638.318.958 1.112.638 1.906-.479.953-.798 1.747-1.277 2.541-.16.318-.639.636-1.278.636zm-185.579-3.177c-.32 0-.639-.159-.958-.318a12.686 12.686 0 01-2.076-2.065c-.48-.635-.48-1.429 0-2.064a1.685 1.685 0 012.076 0l1.916 1.906c.64.476.64 1.429.16 2.064-.32.318-.639.477-1.118.477zm189.572-7.465h-.32c-.798-.159-1.277-.953-1.118-1.747.16-.794.32-1.589.48-2.542a1.726 1.726 0 011.277-1.27c.799 0 1.597.476 1.597 1.27 0 .318 0 .636-.159.953-.16.795-.32 1.43-.48 2.065 0 .794-.479 1.271-1.277 1.271zm-196.599-1.271c-.479 0-.958-.317-1.278-.794-.479-.794-.958-1.747-1.277-2.7-.32-.635 0-1.588.639-1.906.638-.318 1.597 0 1.916.635.32.794.799 1.589 1.278 2.383.32.635.16 1.588-.48 1.906-.319.317-.638.476-.798.476zm205.702-3.018c-.639 0-1.118-.317-1.278-.953-.319-.794.16-1.588.959-1.747.798-.317 1.756-.635 2.555-.953.798-.317 1.597 0 1.916.795.32.794 0 1.588-.798 1.905-.958.318-1.757.636-2.715.953h-.639zm10.221-4.923c-.479 0-.958-.159-1.118-.636-.479-.635-.319-1.588.32-1.906.798-.476 1.437-1.111 2.236-1.588.638-.476 1.437-.476 2.076.159.479.635.479 1.429-.16 2.065-.798.635-1.597 1.27-2.395 1.747-.48 0-.799.159-.959.159zm-219.596-2.7c-.639 0-1.278-.477-1.438-1.112-.16-.953-.319-1.906-.319-2.859 0-.794.48-1.43 1.278-1.588.798 0 1.437.476 1.597 1.27 0 .953.16 1.747.32 2.7.159.794-.32 1.43-1.119 1.589h-.32zm227.582-5.242c-.32 0-.639-.159-.799-.317-.639-.477-.798-1.271-.319-1.906.479-.795.958-1.43 1.437-2.224.479-.635 1.278-.953 1.916-.477.639.477.959 1.271.48 1.906-.48.795-1.118 1.748-1.597 2.542-.16.317-.639.476-1.118.476zM32.58 557.283c-.16 0-.479 0-.638-.159-.959-.477-1.757-.953-2.556-1.43-.639-.317-.958-1.27-.479-1.906.32-.635 1.278-.953 1.916-.476.8.476 1.598.953 2.396 1.27.639.318.958 1.112.639 1.906-.16.477-.799.795-1.278.795zm235.887-6.036h-.32c-.798-.159-1.277-.953-1.118-1.747.16-.794.32-1.747.48-2.7.159-.794.798-1.271 1.597-1.271.798.159 1.277.794 1.277 1.588-.159.953-.319 1.906-.639 2.859 0 .795-.638 1.271-1.277 1.271zm-245.15-.318c-.32 0-.639-.158-.958-.317l-2.076-2.065c-.48-.635-.48-1.43.16-2.065.638-.476 1.437-.476 2.076.159l1.916 1.906c.64.476.64 1.429 0 2.065-.32.159-.798.317-1.118.317zm245.948-6.194a1.427 1.427 0 01-1.437-1.429c0-.953 0-1.748-.16-2.701-.159-.794.479-1.429 1.278-1.588.798 0 1.437.477 1.597 1.271.16.953.16 1.906.16 3.018 0 .794-.639 1.429-1.438 1.429zM16.61 541.717c-.48 0-1.118-.317-1.278-.794a19.328 19.328 0 01-1.118-2.7c-.32-.794.16-1.588.799-1.747.798-.318 1.597.159 1.756.794.32.794.64 1.747.959 2.541.319.636 0 1.589-.64 1.906h-.478zm250.419-7.941c-.479 0-1.118-.318-1.277-.794-.32-.795-.799-1.589-1.118-2.383-.32-.635-.16-1.588.639-1.906.638-.318 1.597-.159 1.916.635.479.795.958 1.748 1.278 2.701.319.794 0 1.588-.799 1.906-.319-.318-.479-.159-.639-.159zm-253.134-2.859a1.428 1.428 0 01-1.438-1.43v-3.018c0-.794.799-1.429 1.597-1.27.799 0 1.438.794 1.278 1.588v2.7c.16.636-.48 1.271-1.437 1.43.16 0 .16 0 0 0zm246.746-6.512c-.319 0-.798-.159-.958-.477l-1.917-1.906c-.638-.476-.638-1.429-.159-2.065.479-.635 1.437-.635 2.076-.158.798.635 1.437 1.27 2.076 2.064.479.636.479 1.43 0 2.065-.319.318-.639.477-1.118.477zm-244.51-4.606c-.16 0-.48 0-.64-.159-.638-.318-.957-1.112-.638-1.906.479-.953.958-1.747 1.437-2.7.48-.636 1.278-.794 1.917-.477.639.477.798 1.271.479 1.906-.48.794-.958 1.588-1.278 2.383-.32.635-.798.953-1.277.953zm235.407-2.065c-.16 0-.479 0-.639-.159-.798-.477-1.597-.794-2.396-1.112-.798-.317-1.117-1.112-.798-1.906.319-.794 1.118-1.112 1.916-.794.959.318 1.757.794 2.715 1.271.639.317.959 1.27.639 1.906-.319.476-.798.794-1.437.794zm-6.708-6.512a1.428 1.428 0 01-1.437-1.43v-2.7c0-.794.639-1.429 1.437-1.429.799 0 1.438.635 1.438 1.429v2.859c0 .635-.639 1.271-1.438 1.271zm-221.672-.159c-.48 0-.799-.159-1.118-.477-.48-.635-.48-1.429.16-2.064.798-.636 1.596-1.271 2.395-1.747.639-.477 1.597-.318 1.916.317.48.636.32 1.588-.319 1.906-.799.477-1.437 1.112-2.236 1.588a.879.879 0 01-.798.477zm9.901-5.4c-.638 0-1.117-.318-1.277-.953-.32-.794.16-1.589.798-1.747.959-.318 1.917-.636 2.715-.953.799-.159 1.597.158 1.757.953.16.794-.16 1.588-.958 1.747-.958.317-1.757.476-2.556.794-.16.159-.319.159-.479.159zm11.02-2.7c-.639 0-1.278-.477-1.437-1.271-.16-.794.479-1.43 1.277-1.588.959-.159 1.917-.159 2.875-.318.799 0 1.438.476 1.597 1.271 0 .794-.479 1.429-1.277 1.588-.959 0-1.917.159-2.715.318h-.32zm12.298 0h-.16c-.32 0-.639 0-.958-.159-.799-.159-1.278-.794-1.278-1.589 0-.635.48-1.111 1.118-1.27 0-.159.16-.477.16-.636.16-.794.958-1.27 1.597-1.111.798.158 1.277.953 1.118 1.588-.16.635-.16 1.271-.32 1.747 0 .953-.639 1.43-1.277 1.43zm187.655-3.018c-.639 0-1.278-.477-1.438-1.112-.159-.953-.319-1.747-.638-2.7-.16-.794.319-1.588.958-1.747.798-.159 1.597.317 1.757.953.319.953.479 1.906.638 2.859.16.794-.319 1.429-1.118 1.588 0 .159 0 .159-.159.159zm-184.94-6.989c-.16 0-.32 0-.48-.159-.798-.317-1.117-1.111-.798-1.906.32-.953.798-1.747 1.118-2.7.32-.635 1.118-.953 1.916-.635.64.318.959 1.112.64 1.906-.32.794-.8 1.747-1.119 2.541-.32.636-.798.953-1.277.953zm181.266-3.653c-.479 0-.958-.317-1.277-.794l-1.438-2.382c-.479-.636-.159-1.589.48-1.906.638-.477 1.597-.159 1.916.476.479.794.958 1.747 1.437 2.541.32.636.16 1.589-.638 1.906 0 0-.16.159-.48.159zM64.202 482.95c-.32 0-.479 0-.798-.318-.64-.476-.799-1.27-.32-1.906.48-.794 1.118-1.588 1.757-2.382.48-.635 1.437-.794 1.916-.318.64.477.799 1.43.32 1.906-.48.794-1.118 1.43-1.597 2.224-.32.476-.799.794-1.278.794zm169.289-2.541c-.319 0-.639-.159-.958-.318-.639-.635-1.438-1.112-2.076-1.588-.639-.477-.799-1.271-.32-1.906.479-.636 1.278-.794 1.917-.318l2.395 1.906c.639.477.639 1.429.16 2.065-.319 0-.798.159-1.118.159zm-34.656-3.812c-.479 0-1.118-.318-1.278-.794-.319-.795 0-1.589.799-1.906.798-.318 1.756-.795 2.715-1.112.798-.318 1.597.159 1.916.794.32.794 0 1.588-.798 1.906-.959.318-1.757.635-2.556 1.112h-.798zm-6.388-.636c-.48 0-.959-.317-1.278-.794l-1.438-2.382c-.479-.636-.159-1.589.48-1.906.638-.477 1.597-.159 1.916.476.479.794.958 1.747 1.437 2.542.32.635.16 1.588-.638 1.906 0 .158-.16.158-.479.158zm31.142-1.111h-.479c-.798-.318-1.757-.477-2.555-.795-.799-.158-1.278-.953-.958-1.747.159-.794.958-1.27 1.756-.953.959.318 1.917.477 2.875.794.799.318 1.118 1.112.958 1.748-.319.476-.958.953-1.597.953zm-151.88-.477c-.32 0-.8-.159-1.119-.476-.479-.636-.479-1.43 0-2.065.64-.636 1.438-1.271 2.236-1.906.64-.477 1.438-.477 2.077.159.479.635.479 1.429-.16 2.064-.639.636-1.438 1.112-2.076 1.748-.32.317-.64.476-.959.476zm137.986-1.271c-.639 0-1.278-.476-1.438-1.27-.159-.794.48-1.43 1.118-1.588.959-.159 1.757-.159 2.556-.159h.479c.798 0 1.437.635 1.437 1.429s-.639 1.43-1.437 1.43h-.639c-.639 0-1.278 0-1.916.158h-.16zm-128.724-5.241c-.479 0-.958-.318-1.277-.794-.32-.635-.16-1.588.638-1.906.8-.477 1.757-.794 2.716-1.271.798-.317 1.597 0 1.916.794.32.795 0 1.589-.799 1.906-.798.318-1.597.795-2.555 1.112-.32.159-.479.159-.639.159zm104.928-1.112a1.73 1.73 0 01-1.118-.476c-.639-.636-1.278-1.271-1.917-2.065-.479-.477-.479-1.43 0-2.065.479-.476 1.437-.476 2.076 0l2.076 2.065c.48.635.48 1.429-.159 2.065-.32.317-.639.476-.958.476zm-80.173-1.747h-.32c-.958-.159-1.756-.318-2.715-.476-.798-.159-1.277-.795-1.118-1.589.16-.794.799-1.27 1.598-1.112l2.874.477c.799.159 1.278.953 1.118 1.747-.159.477-.798.953-1.437.953zm7.346-.318c-.319 0-.638-.158-.958-.317-.639-.477-.639-1.43-.16-2.065a12.759 12.759 0 012.077-2.065c.479-.476 1.437-.635 2.076 0 .479.477.639 1.43 0 2.065s-1.278 1.271-1.917 2.065c-.319.159-.639.317-1.118.317zm-21.4-.317c-.64 0-1.278-.477-1.438-1.271-.16-.794.48-1.429 1.118-1.588.959-.159 1.917-.318 2.875-.318.798 0 1.437.477 1.437 1.271 0 .794-.479 1.429-1.277 1.429-.959 0-1.757.159-2.715.318.16.159 0 .159 0 .159zm85.762-5.242a1.22 1.22 0 01-.798-.317c-.799-.477-1.438-1.112-2.236-1.589-.639-.476-.799-1.27-.32-1.906.479-.635 1.278-.794 1.917-.317.798.476 1.597 1.112 2.395 1.588.639.477.799 1.271.32 1.906-.32.477-.799.635-1.278.635zm-55.897-1.906c-.479 0-.958-.158-1.118-.635-.479-.635-.32-1.588.319-1.906.799-.476 1.597-1.112 2.556-1.588.638-.318 1.597-.159 1.916.476.319.636.16 1.589-.479 1.906l-2.396 1.43c-.159.317-.479.317-.798.317zm46.155-3.812c-.16 0-.479 0-.639-.158-.798-.318-1.757-.795-2.555-1.112-.799-.318-1.118-1.112-.799-1.906.32-.794 1.118-1.112 1.917-.794.958.317 1.757.794 2.715 1.112.639.317.958 1.111.639 1.905-.16.636-.799.953-1.278.953zm-35.934-1.27c-.639 0-1.118-.318-1.278-.953-.319-.794.16-1.588.799-1.747.958-.318 1.916-.636 2.715-.953.798-.159 1.597.159 1.757.953.159.794-.16 1.588-.959 1.747-.958.318-1.756.476-2.555.794-.16.159-.319.159-.479.159zm25.234-2.224h-.32c-.958-.159-1.757-.317-2.715-.476-.798-.159-1.277-.794-1.277-1.589.159-.794.798-1.27 1.597-1.27l2.874.476c.799.159 1.278.953 1.118 1.589-.159.794-.639 1.27-1.277 1.27zm-14.214-.317c-.639 0-1.278-.477-1.438-1.271-.159-.794.48-1.43 1.278-1.588.958-.159 1.917-.159 2.875-.318.798 0 1.437.476 1.437 1.271 0 .794-.479 1.429-1.278 1.429-.958 0-1.916.159-2.715.318 0 .159-.159.159-.159.159z" fill="#fff"/></svg>