<svg width="201" height="205" fill="none" xmlns="http://www.w3.org/2000/svg"><path d="M133.777 3.726c3.153 2.552-6.754 28.971-6.754 28.971s20.565 18.614 19.964 21.916c-.6 3.303-29.571 2.552-29.571 2.552s-11.859 25.669-14.711 25.819c-2.852.15-11.558-27.32-11.558-27.32s-28.221-2.702-29.122-6.005c-.9-3.302 22.517-19.363 22.517-19.363S79.138 3.425 81.239.724c2.102-2.702 25.369 15.311 25.369 15.311s24.167-14.86 27.169-12.309z" fill="#FCD298"/><path d="M131.826 7.479s-10.057 15.16-7.956 22.516c2.252 7.356 12.159-27.62 7.956-22.516z" fill="#FFF2CF"/><path d="M62.337 163.978c.248 2.354-14.745 9.169-14.745 9.169s.805 16.17-.806 17.285c-1.61 1.115-13.258-11.152-13.258-11.152s-15.488 5.7-16.728 4.585c-1.239-1.115 6.506-16.046 6.506-16.046s-10.533-12.763-9.541-14.497c.99-1.735 17.285 1.301 17.285 1.301s8.86-13.321 10.842-13.568c1.982-.248 4.15 16.789 4.15 16.789s16.109 3.841 16.295 6.134z" fill="#FCD298"/><path d="M59.983 164.721s-10.409 2.107-12.577 6.01c-2.107 3.965 16.418-6.381 12.577-6.01z" fill="#FFF2CF"/><path d="M169.013 170.279c1.257-.944 10.25 5.276 10.25 5.276s8.939-5.97 10.123-5.433c1.184.538-1.835 11.355-1.835 11.355s8.527 6.882 8.314 7.968c-.213 1.086-11.36 1.763-11.36 1.763s-3.681 10.35-5.008 10.377c-1.326.026-5.15-10.292-5.15-10.292s-10.609-.507-11.426-1.552c-.816-1.045 8.151-8.088 8.151-8.088s-3.301-10.487-2.059-11.374z" fill="#FCD298"/><path d="M170.239 171.367s4.748 5.212 7.711 5.117c2.977-.151-9.232-7.179-7.711-5.117z" fill="#FFF2CF"/></svg>