<svg width="163" height="162" fill="none" xmlns="http://www.w3.org/2000/svg"><path d="M153.444 94.268c-1.465 2.467-20.974-1.774-20.974-1.774s-10.934 16.299-13.308 16.215c-2.373-.083-4.804-20.444-4.804-20.444s-19.183-5.684-19.579-7.666c-.396-1.981 17.949-10.88 17.949-10.88s-.988-20.035 1.233-21.003c2.22-.967 15.855 13.79 15.855 13.79s18.262-6.526 20.368-5.33c2.107 1.195-8.131 19.324-8.131 19.324s12.871 15.405 11.391 17.768z" fill="#FCD298"/><path d="M150.617 93.284s-11.642-5.495-16.577-3.273c-4.92 2.328 20.579 5.695 16.577 3.273z" fill="#FFF2CF"/><path d="M33.95 60.6c-1.623.413-7.924-9.389-7.924-9.389s-11.24 2.214-12.185 1.2c-.945-1.014 6.455-10.421 6.455-10.421s-5.571-10.263-4.917-11.244c.654-.982 11.899 2.917 11.899 2.917s7.861-8.677 9.177-8.16c1.316.517.853 12.236.853 12.236s10.23 4.844 10.606 6.206c.376 1.363-11.332 4.62-11.332 4.62S35.536 60.235 33.95 60.6z" fill="#FCD298"/><path d="M33.19 59.027s-2.537-7.073-5.491-8.193c-2.992-1.07 6.143 10.844 5.49 8.193z" fill="#FFF2CF"/><path d="M40.424 135.935c.789.783-2.648 7.715-2.648 7.715s5.092 5.649 4.837 6.533c-.256.884-8.138-.126-8.138-.126s-3.948 6.672-4.73 6.634c-.783-.039-2.394-7.774-2.394-7.774s-7.623-1.521-7.777-2.447c-.154-.926 6.68-4.657 6.68-4.657s-.727-7.479-.078-8.158c.648-.679 6.494 4.882 6.494 4.882s7.006-3.382 7.754-2.602z" fill="#FCD298"/><path d="M39.787 136.904s-3.164 3.856-2.796 5.921c.41 2.069 4.085-7.197 2.796-5.921z" fill="#FFF2CF"/></svg>