<svg width="314" height="286" fill="none" xmlns="http://www.w3.org/2000/svg"><path d="M128.648 126.912c1.751-.602 9.579 9.63 9.579 9.63s12.185-3.454 13.318-2.422c1.133 1.032-6.172 12.065-6.172 12.065s7.065 10.805 6.432 11.946c-.632 1.14-13.374-2.141-13.374-2.141s-7.879 10.27-9.375 9.819c-1.497-.451-2.044-13.405-2.044-13.405s-11.71-4.413-12.247-5.881c-.537-1.468 12.069-6.113 12.069-6.113s.099-12.954 1.814-13.498z" fill="#FCD298"/><path d="M129.628 128.576s3.434 7.564 6.79 8.532c3.392.909-7.748-11.394-6.79-8.532z" fill="#FFF2CF"/><path d="M100.253 257.696c.956.889-2.59 9.141-2.59 9.141s6.289 6.287 6.05 7.312c-.24 1.025-9.503.334-9.503.334s-4.185 8.012-5.107 8.045c-.922.034-3.265-8.918-3.265-8.918s-9-1.288-9.194-2.394c-.238-1.082 7.472-5.866 7.472-5.866s-1.294-8.671-.59-9.466c.723-.86 7.886 5.309 7.886 5.309s7.885-4.385 8.841-3.497z" fill="#FCD298"/><path d="M99.55 258.878s-3.478 4.723-2.885 7.095c.636 2.348 4.336-8.709 2.885-7.095z" fill="#FFF2CF"/><path d="M56.15 16.954c1.88 1.748-5.094 17.981-5.094 17.981s12.37 12.366 11.899 14.381c-.471 2.016-18.692.657-18.692.657s-8.23 15.759-10.045 15.825c-1.814.067-6.423-17.543-6.423-17.543s-17.7-2.532-18.084-4.707c-.466-2.129 14.7-11.538 14.7-11.538s-2.547-17.057-1.16-18.62c1.42-1.692 15.51 10.443 15.51 10.443s15.508-8.626 17.389-6.879z" fill="#FCD298"/><path d="M54.767 19.279s-6.842 9.29-5.674 13.955c1.25 4.62 8.528-17.129 5.674-13.956z" fill="#FFF2CF"/><path d="M279.607 168.338c1.681-1.054 12.403 7.399 12.403 7.399s11.705-6.76 13.115-6.006c1.411.755-3.248 14.085-3.248 14.085s10.117 9.296 9.804 10.663c-.313 1.368-14.38 1.286-14.38 1.286s-5.43 12.706-7.131 12.558c-1.682-.078-5.673-13.28-5.673-13.28s-13.242-1.512-14.131-2.859c-.979-1.399 10.898-9.49 10.898-9.49s-3.338-13.301-1.657-14.356z" fill="#FCD298"/><path d="M281.065 169.835s5.567 6.966 9.283 7.027c3.698-.009-11.081-9.792-9.283-7.027z" fill="#FFF2CF"/></svg>