<svg width="254" height="205" fill="none" xmlns="http://www.w3.org/2000/svg"><g clip-path="url(#clip0)"><path d="M120.777 4.278c3.153 2.552-6.755 28.971-6.755 28.971s20.565 18.614 19.965 21.916c-.601 3.303-29.572 2.552-29.572 2.552s-11.858 25.669-14.71 25.819c-2.852.15-11.559-27.32-11.559-27.32s-28.22-2.702-29.12-6.004c-.902-3.303 22.515-19.364 22.515-19.364S66.138 3.978 68.24 1.276c2.102-2.702 25.368 15.311 25.368 15.311s24.168-14.86 27.17-12.309z" fill="#FCD298"/><path d="M118.826 8.031s-10.057 15.161-7.956 22.517c2.252 7.355 12.159-27.62 7.956-22.517z" fill="#FFF2CF"/><path d="M49.337 164.53c.248 2.354-14.745 9.169-14.745 9.169s.805 16.17-.806 17.286c-1.61 1.115-13.258-11.152-13.258-11.152s-15.489 5.7-16.728 4.584c-1.239-1.115 6.506-16.046 6.506-16.046S-.227 155.609.764 153.874c.99-1.735 17.285 1.301 17.285 1.301s8.86-13.32 10.842-13.568c1.982-.248 4.15 16.79 4.15 16.79s16.109 3.841 16.295 6.133z" fill="#FCD298"/><path d="M46.983 165.274s-10.409 2.106-12.577 6.009c-2.107 3.965 16.418-6.381 12.577-6.009z" fill="#FFF2CF"/><path d="M156.013 170.831c1.257-.943 10.25 5.276 10.25 5.276s8.938-5.97 10.123-5.433c1.184.538-1.835 11.355-1.835 11.355s8.527 6.882 8.313 7.968c-.213 1.086-11.359 1.763-11.359 1.763s-3.682 10.351-5.008 10.377c-1.326.027-5.15-10.292-5.15-10.292s-10.609-.507-11.426-1.552c-.817-1.045 8.151-8.088 8.151-8.088s-3.302-10.487-2.059-11.374z" fill="#FCD298"/><path d="M157.239 171.919s4.748 5.212 7.711 5.117c2.977-.151-9.232-7.179-7.711-5.117z" fill="#FFF2CF"/></g><defs><clipPath id="clip0"><path fill="#fff" d="M0 0h257v205H0z"/></clipPath></defs></svg>