<svg width="280" height="265" fill="none" xmlns="http://www.w3.org/2000/svg"><path d="M54.035 22.876l-3.643-12.87c-.88-3.237.955-6.621 4.191-7.502 3.237-.88 6.621.955 7.502 4.192l.537 1.828 1.728-.374c3.28-.704 6.53 1.35 7.235 4.63.704 3.279-1.35 6.53-4.63 7.234l-12.92 2.862z" fill="#FCD298"/><path d="M68.223 10.347c-1.267.414-.175 1.308.276 2.204.464.985.583 2.112.56 3.215-.022 1.102-1.082 2.31-.312 2.564.91.28 1.459-.67 1.675-1.39.85-2.642.616-3.936-.388-5.484-.502-.613-1.286-1.277-1.81-1.11z" fill="#FFF2CF"/><path d="M168.648 131.912c1.751-.602 9.579 9.63 9.579 9.63s12.185-3.454 13.318-2.422c1.133 1.032-6.172 12.065-6.172 12.065s7.065 10.805 6.432 11.945c-.632 1.141-13.374-2.14-13.374-2.14s-7.879 10.27-9.375 9.819c-1.496-.451-2.044-13.405-2.044-13.405s-11.71-4.414-12.247-5.881c-.537-1.468 12.069-6.113 12.069-6.113s.099-12.954 1.814-13.498z" fill="#FCD298"/><path d="M169.628 133.576s3.434 7.564 6.79 8.532c3.393.909-7.748-11.395-6.79-8.532z" fill="#FFF2CF"/><path d="M181.547 231.62c.956.888-2.59 9.141-2.59 9.141s6.289 6.287 6.05 7.312c-.24 1.024-9.504.333-9.504.333s-4.184 8.012-5.106 8.046c-.922.034-3.266-8.919-3.266-8.919s-8.998-1.287-9.194-2.393c-.237-1.082 7.473-5.866 7.473-5.866s-1.294-8.672-.589-9.467c.722-.86 7.885 5.31 7.885 5.31s7.885-4.386 8.841-3.497z" fill="#FCD298"/><path d="M180.844 232.801s-3.479 4.724-2.885 7.096c.636 2.348 4.336-8.709 2.885-7.096z" fill="#FFF2CF"/><path d="M56.15 37.954c1.88 1.748-5.094 17.981-5.094 17.981s12.37 12.366 11.9 14.381c-.472 2.016-18.693.657-18.693.657s-8.23 15.759-10.044 15.825c-1.815.067-6.423-17.543-6.423-17.543s-17.7-2.531-18.085-4.707c-.466-2.129 14.7-11.538 14.7-11.538s-2.547-17.057-1.16-18.62c1.42-1.692 15.51 10.443 15.51 10.443s15.508-8.626 17.389-6.879z" fill="#FCD298"/><path d="M54.767 40.279s-6.842 9.29-5.674 13.956c1.25 4.618 8.528-17.13 5.674-13.956z" fill="#FFF2CF"/><path d="M269.801 262.171l-10.193-6.139c-2.54-1.566-3.407-4.879-1.841-7.419s4.878-3.407 7.418-1.841l1.461.859.894-1.293c1.701-2.452 5.06-3.096 7.512-1.395 2.452 1.7 3.096 5.06 1.395 7.511l-6.646 9.717zM103.948 136.173l-1.49-10.024c-.348-2.518 1.359-4.883 3.877-5.231 2.517-.348 4.882 1.359 5.23 3.877l.227 1.425 1.334-.113c2.533-.211 4.777 1.647 4.988 4.18.211 2.532-1.647 4.776-4.18 4.987l-9.986.899z" fill="#FD9587"/><path d="M270.604 245.116c-.471 1.088.768.887 1.631 1.115.93.271 1.751.857 2.472 1.521.721.665.901 2.083 1.524 1.72.723-.442.413-1.368.062-1.935-1.259-2.124-2.26-2.73-3.883-2.974-.704-.027-1.609.104-1.806.553z" fill="#FFF2CF"/></svg>