<svg width="359" height="171" fill="none" xmlns="http://www.w3.org/2000/svg"><path fill="#fff" d="M0 0h359v171H0z"/><path d="M56.071 3.976c1.087-.518 7.055 5.147 7.055 5.147s7.4-3.39 8.19-2.949c.843.573-2.737 8.288-2.737 8.288s5.55 6.14 5.331 6.916c-.31.737-8.692.023-8.692.023s-3.964 7.337-4.963 7.133c-1.038-.113-2.686-8.297-2.686-8.297s-7.9-1.596-8.313-2.421c-.504-.864 7.023-5.07 7.023-5.07s-1.295-8.251-.208-8.77z" fill="#FCD298"/><path d="M56.89 4.864s2.888 4.475 5.187 4.685c2.168.263-6.102-6.373-5.187-4.685z" fill="#FFF2CF"/><path d="M107.079 88.928c1.131 1.517-6.353 12.669-6.353 12.669s7.443 10.987 6.831 12.407c-.613 1.419-14.026-2.16-14.026-2.16s-8.393 10.563-9.688 10.309c-1.295-.253-2.255-13.998-2.255-13.998s-12.794-4.399-12.755-6.021c-.05-1.592 12.532-6.472 12.532-6.472s.49-13.043 1.77-13.99c1.247-1.038 10.012 9.991 10.012 9.991s12.711-4.22 13.932-2.735z" fill="#FCD298"/><path d="M105.718 90.508s-6.412 5.851-6.154 9.482c.168 3.663 8.713-11.378 6.154-9.482z" fill="#FFF2CF"/><path d="M158.429 168.773l-10.192-6.139c-2.54-1.566-3.407-4.879-1.842-7.419 1.566-2.54 4.879-3.407 7.419-1.841l1.46.859.895-1.293c1.7-2.452 5.06-3.096 7.511-1.395 2.452 1.7 3.096 5.06 1.395 7.512l-6.646 9.716zM6.948 25.173l-1.49-10.025c-.348-2.517 1.36-4.882 3.877-5.23 2.517-.348 4.882 1.359 5.23 3.877l.227 1.425 1.335-.113c2.532-.211 4.776 1.647 4.987 4.18.212 2.532-1.647 4.776-4.18 4.987l-9.986.899z" fill="#FD9587"/><path d="M159.232 151.718c-.471 1.088.768.887 1.631 1.115.93.271 1.751.857 2.472 1.521.722.665.902 2.083 1.524 1.72.723-.442.413-1.368.062-1.935-1.259-2.124-2.259-2.73-3.882-2.974-.705-.027-1.609.104-1.807.553z" fill="#FFF2CF"/><path d="M137.584 43.152c.659.303.11 5.32.11 5.32s4.387 2.316 4.429 2.915c.042.599-5.012 1.75-5.012 1.75s-.921 4.972-1.409 5.124c-.487.152-3.21-4.224-3.21-4.224s-5.01.78-5.312.247c-.302-.533 3.046-4.351 3.046-4.351s-2.124-4.418-1.879-4.98c.244-.56 5.073 1.533 5.073 1.533s3.531-3.644 4.164-3.334z" fill="#FCD298"/></svg>