<svg width="99" height="100" fill="none" xmlns="http://www.w3.org/2000/svg"><path d="M68.561 18.65c2.983 1.504-.057 24.972-.057 24.972S88.92 55.096 89.072 57.816c.151 2.72-23.865 7.621-23.865 7.621s-4.94 23.255-7.187 23.873c-2.246.619-14.593-20.3-14.593-20.3s-23.681 3.122-24.898.533c-1.334-2.47 14.703-20.057 14.703-20.057s-9.5-20.953-8.226-23.453c1.155-2.618 23.695 7.884 23.695 7.884s16.76-16.65 19.86-15.267z" fill="#FCD298"/><path d="M67.656 22.212s-5.522 14.267-2.254 19.79c3.15 5.644 4.803-24.791 2.254-19.79z" fill="#FFF2CF"/></svg>