<svg width="315" height="410" fill="none" xmlns="http://www.w3.org/2000/svg"><path d="M100.573 403.591v.784c0 6.431 5.207 11.45 11.518 11.45 2.367 0 4.576-.628 6.311-1.882 1.894 3.293 5.207 5.96 9.309 7.058h8.836c2.998-.785 5.68-2.353 7.574-4.549 2.051 2.353 4.733 3.921 7.889 4.549h5.364c5.68-1.098 10.256-5.647 11.045-11.45 6.153-.627 10.886-5.176 10.886-10.665 0-4.706-3.471-8.784-8.362-10.195.158-.628.158-1.255.158-1.882 0-7.215-5.838-12.862-12.938-12.862-1.736 0-3.471.314-5.049 1.098-2.209-5.019-7.731-8.626-14.2-8.626-5.365 0-9.94 2.353-12.78 5.96-1.578-.627-3.314-.941-5.049-.941-6.943 0-12.78 5.176-13.727 11.763-.631 0-1.105-.157-1.736-.157-6.784 0-12.306 4.863-12.306 10.666 0 4.391 2.997 8.156 7.257 9.881z" fill="#F0F0F0"/><path d="M98.838 406.257v.784c0 6.431 5.206 11.45 11.518 11.45 2.366 0 4.575-.628 6.311-1.882.947 1.568 2.209 3.137 3.629 4.234h20.196c.631-.47 1.42-1.097 1.893-1.725.631.628 1.262 1.255 1.893 1.725h17.356c2.682-2.195 4.576-5.175 5.207-8.783 6.153-.627 10.887-5.176 10.887-10.665 0-4.705-3.472-8.783-8.363-10.195.158-.627.158-1.255.158-1.882 0-7.215-5.838-12.861-12.938-12.861-1.735 0-3.471.313-5.049 1.098-2.209-5.019-7.731-8.627-14.2-8.627-5.365 0-9.94 2.353-12.78 5.96-1.578-.627-3.314-.941-5.049-.941-6.942 0-12.78 5.176-13.727 11.763-.631 0-1.104-.156-1.736-.156-6.784 0-12.306 4.862-12.306 10.665-.158 4.548 2.84 8.313 7.1 10.038z" fill="#EEF7FB"/><path d="M251.739 337.442c0-9.127-6.792-16.879-16.352-19.755.126-1.126.252-2.376.252-3.626 0-13.879-11.32-25.132-25.282-25.132-3.522 0-6.792.75-9.937 2-4.15-9.753-14.968-16.629-27.672-16.629-10.314 0-19.37 4.626-24.653 11.628-3.018-1.125-6.289-1.876-9.811-1.876-13.584 0-24.779 9.878-26.791 22.882-1.132-.125-2.264-.25-3.396-.25-13.207 0-24.024 9.377-24.024 20.756 0 8.502 5.911 15.754 14.213 19.005 0 .5-.126 1-.126 1.5 0 12.379 10.063 22.382 22.515 22.382 4.528 0 8.805-1.376 12.327-3.751 4.779 8.752 14.967 14.754 26.665 14.754 9.434 0 17.861-3.876 23.27-9.878 4.905 5.626 12.326 9.252 20.502 9.252 13.584 0 24.779-9.877 26.791-22.756 12.201-1 21.509-9.878 21.509-20.506z" fill="#F0F0F0"/><path d="M248.343 342.819c0-9.128-6.792-16.88-16.352-19.755.126-1.126.252-2.376.252-3.627 0-13.878-11.32-25.132-25.282-25.132-3.522 0-6.792.751-9.937 2.001-4.151-9.753-14.968-16.63-27.672-16.63-10.314 0-19.37 4.627-24.653 11.629-3.019-1.126-6.289-1.876-9.811-1.876-13.584 0-24.779 9.878-26.791 22.881-1.132-.125-2.264-.25-3.396-.25-13.207 0-24.024 9.378-24.024 20.756 0 8.503 5.911 15.755 14.213 19.006 0 .5-.126 1-.126 1.5 0 12.378 10.063 22.381 22.515 22.381 4.528 0 8.805-1.375 12.326-3.751 4.78 8.753 14.968 14.754 26.666 14.754 9.434 0 17.861-3.876 23.27-9.877 4.905 5.626 12.326 9.252 20.502 9.252 13.584 0 24.779-9.878 26.791-22.756 12.201-1.126 21.509-9.878 21.509-20.506z" fill="#EEF7FB"/><path d="M314.881 376.203c0-7.127-5.408-13.253-12.829-15.504.125-.875.251-1.875.251-2.751 0-10.878-8.93-19.755-19.873-19.755-2.767 0-5.409.5-7.799 1.625-3.27-7.627-11.823-13.129-21.76-13.129-8.05 0-15.219 3.626-19.37 9.128a21.997 21.997 0 00-7.673-1.375c-10.691 0-19.496 7.752-21.005 18.005-.881-.125-1.761-.125-2.642-.125-10.44 0-18.867 7.252-18.867 16.379 0 6.627 4.654 12.379 11.195 14.879v1.126c0 9.627 7.924 17.505 17.609 17.505 3.648 0 6.918-1.126 9.685-2.876 3.774 6.877 11.698 11.503 21.006 11.503 7.421 0 13.961-3.001 18.238-7.752 3.899 4.501 9.685 7.252 16.1 7.252 10.691 0 19.496-7.752 21.005-17.88 9.434-1 16.729-7.877 16.729-16.255z" fill="#F0F0F0"/><path d="M312.114 380.33c0-7.127-5.409-13.254-12.83-15.505.126-.875.252-1.875.252-2.751 0-10.878-8.931-19.755-19.873-19.755-2.768 0-5.409.5-7.799 1.625-3.27-7.627-11.823-13.128-21.76-13.128-8.05 0-15.22 3.626-19.37 9.127a21.997 21.997 0 00-7.673-1.375c-10.691 0-19.496 7.752-21.006 18.005-.88-.125-1.76-.125-2.641-.125-10.44 0-18.867 7.252-18.867 16.38 0 6.626 4.654 12.378 11.194 14.879v1.125c0 9.628 7.925 17.505 17.61 17.505 3.647 0 6.918-1.125 9.685-2.876 3.773 6.877 11.698 11.503 21.005 11.503 7.422 0 13.962-3 18.239-7.752 3.899 4.501 9.685 7.252 16.1 7.252 10.691 0 19.496-7.752 21.005-17.88 9.434-.875 16.729-7.877 16.729-16.254z" fill="#EEF7FB"/><path d="M158.283 345.82s-15.974.25-20.25 15.254c0 0-8.679-7.377-16.604-1.626-8.93 6.627 12.201 29.009 20.503 21.506l29.433-12.253-13.082-22.881z" fill="#BC9E83"/><path d="M133.001 375.828c7.296-1 15.849-1.5 21.761-6.377 2.893-2.375 4.779-6.126 6.163-9.627a51.535 51.535 0 001.887-6.252l8.678 15.254-29.432 12.254c-2.264 2.125-5.66 1.875-8.931.25v-5.502h-.126z" fill="#B4987F"/><path d="M121.43 359.449c6.414-1.626 10.188 2.125 13.961 6.251 2.139 2.376 5.66 6.752 6.541 9.878.503 1.876.503 3.626 0 5.377l-.126.125c-8.176 7.377-29.307-14.88-20.376-21.631z" fill="#A98F78"/><path d="M128.222 367.451c-.378.25.377 3.126.377 3.126s-2.516 1.75-2.39 2.125c0 .375 3.145.625 3.145.625s1.006 2.876 1.258 3.001c.251 0 1.635-2.75 1.635-2.75s3.018.125 3.27-.251c.126-.375-2.138-2.375-2.138-2.375s.88-2.751.754-3.126c-.251-.375-2.893 1.375-2.893 1.375s-2.641-2-3.018-1.75z" fill="#EDD6CE"/><path d="M232.243 345.445s15.974.25 20.251 15.254c0 0 8.679-7.377 16.603-1.626 8.93 6.627-12.201 29.009-20.503 21.506l-29.432-12.253 13.081-22.881z" fill="#BC9E83"/><path d="M257.399 375.453c-7.295-1-15.848-1.501-21.76-6.377-2.893-2.376-4.78-6.127-6.163-9.628-.755-2-1.384-4.126-1.887-6.251l-8.679 15.254 29.433 12.253c2.264 2.126 5.66 1.876 8.93.25v-5.501h.126z" fill="#B4987F"/><path d="M268.971 359.074c-6.415-1.626-10.188 2.125-13.962 6.252-2.138 2.375-5.66 6.751-6.54 9.877-.504 1.876-.504 3.626 0 5.377l.125.125c8.176 7.377 29.307-15.004 20.377-21.631z" fill="#A98F78"/><path d="M262.179 366.95c.377.25-.378 3.251-.378 3.251s2.516 1.75 2.39 2.125c0 .376-3.144.626-3.144.626s-1.007 2.875-1.258 3.001c-.252 0-1.635-2.751-1.635-2.751s-3.019.125-3.271-.25c-.125-.375 2.139-2.376 2.139-2.376s-.881-2.751-.755-3.126c.252-.375 2.893 1.375 2.893 1.375s2.767-2 3.019-1.875z" fill="#EDD6CE"/><path d="M234.255 332.816c0 23.256-9.182 40.261-40.753 40.261-26.791 0-35.973-18.005-35.973-41.261 0-23.257 14.339-40.262 38.363-40.262 24.15 0 38.363 17.88 38.363 41.262z" fill="#C2A387"/><path d="M214.382 341.068c0 13.379-4.402 23.132-19.622 23.132-12.83 0-17.358-10.253-17.358-23.632 0-13.379 6.918-23.131 18.49-23.131s18.49 10.252 18.49 23.631z" fill="#EAC1C2"/><path d="M184.572 371.952c-10.44-11.128-11.698-24.882-13.836-37.135-.503-3.126-.126-12.879-.503-16.13-.378-3.876-.252-2.626 0-6.502.126-2-.252-.625-3.019-.875-1.761-.125-3.522.25-5.283.375-2.767 5.752-4.276 12.629-4.276 20.006 0 20.505 7.169 36.885 27.294 40.511-.251 0-.251-.125-.377-.25z" fill="#B79A80"/><path d="M177.402 305.558c.881-6.502-1.383-11.128-12.955-6.252 0 0-25.031 29.634-.755 71.395 0 0 .755 1.626 3.27 3.126 2.768 1.626 10.44-.125 10.818-2.125.251-1.251-.629-3.251-1.007-4.377-.754-3-1.761-6.001-2.767-9.002-2.264-7.377-4.276-15.254-5.157-23.007-.88-7.752-.88-17.755 3.774-24.381" fill="#C2A387"/><path d="M157.906 311.185c-1.258 1.875-2.39 3.876-3.647 5.626-1.258 1.626-2.642 3.126-3.145 5.127-.252 1.125-.377 2.376 1.132 2.25.377 0-1.132 4.877-1.258 5.377-.377 1.125-1.006 2.251-1.006 3.501-.126 1.5.503 1.625 1.258 2.626 1.132 1.625.629 3.376.503 5.376-.126 2.001 0 5.377 2.767 4.001" fill="#C2A387"/><path d="M207.464 371.577c10.44-11.128 11.698-24.882 13.836-37.136.503-3.126.126-12.878.503-16.129.377-3.876.252-2.626 0-6.502-.126-2.001.252-.625 3.019-.875 1.761-.125 3.522.25 5.283.375 2.767 5.751 4.276 12.628 4.276 20.005 0 20.506-7.169 36.886-27.294 40.512.251 0 .251-.125.377-.25z" fill="#B79A80"/><path d="M214.633 305.183c-.88-6.502 1.384-11.128 12.956-6.252 0 0 25.03 29.633.755 71.395 0 0-.755 1.626-3.271 3.126-2.767 1.626-10.44-.125-10.817-2.126-.251-1.25.629-3.25 1.006-4.376.755-3.001 1.761-6.001 2.768-9.002 2.264-7.377 4.276-15.255 5.157-23.007.88-7.752.88-17.755-3.774-24.382" fill="#C2A387"/><path d="M234.13 310.809c1.257 1.876 2.389 3.876 3.647 5.627 1.258 1.625 2.642 3.126 3.145 5.126.251 1.125.377 2.376-1.132 2.251-.378 0 1.132 4.876 1.258 5.376.377 1.126 1.006 2.251 1.006 3.501.126 1.501-.503 1.626-1.258 2.626-1.132 1.625-.629 3.376-.503 5.376.126 2.001 0 5.377-2.767 4.002m-56.225-102.278c2.39-3.501 4.654-7.127 8.679-8.753.881-.375 2.013-.75 2.39.125.378.875-.629 1.626-.629 2.501 1.51.625 2.893-.5 4.151-1.125.755-.376 5.534-2.376 5.157-.501-.126.375-1.132 1.876-.755 2.251 1.007 1.375 3.145-.5 4.403 0 1.761.625.377 1.751 0 2.876-.378 1.75 1.509 1.75 2.767 2.125" fill="#C2A387"/><path d="M238.029 268.173c.754 1.375 1.635 2.876 2.264 4.251 1.006 1.251 2.39 5.252 1.383 6.877-.88 1.501-2.389-.875-3.647-.875-.252 1.125.629 2.126 1.006 3.126.503 1.125.881 2.376 1.006 3.626.126.875.126 2.376-1.257 2.376-.881 0-1.51-1.126-2.516-1.126-.126 2.376 1.006 5.127-.503 7.252-2.013 2.876-1.887-2.5-4.277-2.25m-78.362-23.507c-.754 1.375-2.264 4.251-2.892 5.627-1.007 1.25-2.39 5.251-1.384 6.877.88 1.5 2.39-.876 3.648-.876.251 1.126-.629 2.126-1.007 3.126-.503 1.126-.88 2.376-1.006 3.626-.126.875-.126 2.376 1.258 2.376.88 0 1.509-1.125 2.516-1.125.125 2.375-1.007 5.126.503 7.252 2.012 2.875 1.886-2.501 4.276-2.251" fill="#A98F78"/><path d="M238.658 272.674c0 19.006-11.069 34.51-43.143 34.51-34.716 0-43.143-15.504-43.143-34.51 0-19.005 19.244-34.509 43.143-34.509 23.898.125 43.143 15.504 43.143 34.509z" fill="#A98F78"/><path d="M236.268 272.674c0 18.005-10.188 34.885-40.502 34.885-32.703 0-40.879-16.88-40.879-34.885 0-2.001-1.761-1-1.383-2.876 1.635-9.127 9.182-20.255 18.238-25.632 6.289-3.751 15.094-6.127 23.27-6.127 7.546 0 16.1 1.501 22.137 4.627 12.327 6.251 19.119 18.13 19.119 30.008z" fill="#C2A387"/><path d="M161.805 233.414c-5.66 0-10.439 3.876-11.949 9.003-.377-.125-.755-.501-1.258-.376-.754.126-.754 1.001-.754 1.626.125 1.375 1.383 2.876 1.132 4.251-.881 0-1.635-.25-1.384.75.252.751 1.132 1.251 1.384 1.876.629.375 1.383.875 2.012 1.25l.126.125c-.881.625-1.258 1.626-.503 2.501.755.75 1.887.5 2.515 1.125-.503.5-.628 1.251 0 1.626.881.625 3.019.25 4.403-.125 1.258.5 2.641.75 4.151.75 6.792 0 12.326-5.502 12.326-12.254.126-6.626-5.408-12.128-12.201-12.128z" fill="#C2A387"/><path d="M159.919 252.669c2.893-3.126 6.289-5.877 9.685-8.503h.126c-.755-3.375-3.774-5.876-7.296-5.876-4.151 0-7.547 3.376-7.547 7.502 0 3.126 2.139 5.877 5.032 6.877z" fill="#EAC1C2"/><path d="M158.283 243.541c.378-2.625 2.013-4.376 4.151-5.251-4.151 0-7.421 3.376-7.421 7.502 0 3.251 2.138 6.002 5.031 7.002l.504-.5c-1.761-2.751-2.768-5.752-2.265-8.753z" fill="#E8B4BB"/><path d="M167.214 246.792c-.252-.375-.377-1.25-.881-1.125-.88.125-.754 2-1.886 1.75-.378-.125-.755-.375-1.258-.125-.377.25-.503.75-.629 1.125-.126.376-.126 1.001-.503 1.126-.503.25-1.132-.5-1.635-.375-.629.125-1.132 1.25-1.132 1.75 0 .875.503 1.501.629 2.376m68.173-19.88c5.66 0 10.44 3.876 11.949 9.003.378-.125.755-.501 1.258-.376.755.126.755 1.001.755 1.626-.126 1.375-1.384 2.876-1.132 4.251.88 0 1.635-.25 1.383.75-.251.751-1.132 1.251-1.383 1.876-.629.375-1.384.875-2.013 1.25l-.125.125c.88.625 1.257 1.626.503 2.501-.755.75-1.887.5-2.516 1.125.503.5.629 1.251 0 1.626-.88.625-3.019.25-4.402-.125-1.258.5-2.642.75-4.151.75-6.792 0-12.327-5.502-12.327-12.254-.125-6.626 5.409-12.128 12.201-12.128z" fill="#C2A387"/><path d="M229.979 252.669c-2.893-3.126-6.289-5.877-9.685-8.503h-.126c.755-3.375 3.773-5.876 7.295-5.876 4.151 0 7.547 3.376 7.547 7.502 0 3.126-2.138 5.877-5.031 6.877z" fill="#EAC1C2"/><path d="M221.552 245.292a11.413 11.413 0 012.641-2.251c3.27-1.875 6.918-1.5 10.188.125h.126c-1.006-2.876-3.773-4.876-7.044-4.876-3.647 0-6.666 2.501-7.295 5.876h.126c.377.376.88.751 1.258 1.126z" fill="#E8B4BB"/><path d="M222.684 246.792c.251-.375.377-1.25.88-1.125.88.125.755 2 1.887 1.75.377-.125.754-.375 1.258-.125.377.25.503.75.628 1.125.126.376.126 1.001.504 1.126.503.25 1.132-.5 1.635-.375.629.125 1.132 1.25 1.132 1.75 0 .875-.503 1.501-.629 2.376m5.283 13.128c.628 1.126 2.641 4.377 3.144 5.502.755 1 1.887 4.251 1.132 5.501-.755 1.251-1.887-.75-2.893-.75-.126.876.503 1.751.755 2.501.377.875.629 1.875.755 2.876.125.75.125 1.875-1.007 1.875-.629 0-1.132-.875-2.012-.875-.126 1.876.755 4.126-.378 5.877-1.635 2.375-1.509-2.001-3.396-1.751m-74.839-21.381c-.629 1.25-3.271 5.127-3.9 6.377-.754 1-2.012 4.501-1.257 5.752.754 1.25 2.012-.751 3.144-.751.252 1.001-.503 1.876-.88 2.626-.378 1-.755 2.001-.881 3.126-.126.75-.126 2.001 1.006 2.001.755 0 1.258-1.001 2.139-1.001.125 2.001-.881 4.376.377 6.252 1.761 2.501 1.635-2.126 3.648-1.876" fill="#C2A387"/><path d="M186.836 239.915h-.252c-.126-.125-.251-.375-.126-.5.755-1.251 1.887-2.376 2.39-3.001.126-.125.378-.125.503 0a.378.378 0 010 .5 20.48 20.48 0 00-2.264 2.751c0 .25-.125.25-.251.25zm7.421.5h-.126c-.251-.125-.251-.375-.126-.5.881-1.626 2.39-3.001 4.277-3.876.251-.125.377 0 .503.25s0 .375-.252.5c-1.76.75-3.018 2.001-3.899 3.501-.126.125-.251.125-.377.125zm5.283 1.626c-.126 0-.252 0-.252-.125a.378.378 0 010-.5c.881-.876 2.013-1.751 3.019-2.501.126-.125.377-.125.503.125.126.125.126.375-.126.5-1.006.75-2.138 1.5-3.019 2.501h-.125zm-4.528 7.877c-.252 0-.378-.125-.378-.376-.126-1.625.252-3.25 1.132-4.751.126-.25.378-.25.503-.125.252.125.252.375.126.5-.754 1.501-1.132 2.876-1.006 4.376 0 .126-.126.376-.377.376zm-5.157-3.626c-.252 0-.378-.125-.378-.375 0-1 .252-2.001.503-2.876 0-.25.126-.375.126-.625s.252-.375.503-.25c.252 0 .378.25.252.5 0 .25-.126.375-.126.625-.252.875-.503 1.751-.503 2.626 0 .25-.126.375-.377.375zm1.383 6.877c-.251 0-.377-.125-.377-.376-.126-.875-.252-1.875-.378-2.875 0-.25.126-.375.378-.501.251 0 .377.126.377.376.126 1 .252 2 .378 2.875 0 .25-.126.501-.378.501zm3.019 6.376c-.252 0-.377-.125-.377-.375 0-.5 0-.875-.126-1.25 0-.375-.126-.875-.126-1.375 0-.251.126-.376.377-.376.252 0 .378.125.378.376 0 .5 0 .875.125 1.25 0 .375.126.875.126 1.375 0 .25-.126.375-.377.375zm1.887 3.001c-.252 0-.378-.125-.378-.375 0-.5 0-1.125.126-1.625 0-.25.252-.375.503-.25.252 0 .378.25.252.5-.126.5-.126 1-.126 1.5.126.125-.126.25-.377.25zm-3.774 4.627c-.251 0-.377-.126-.377-.376 0-.75 0-1.625.126-2.375 0-.25.251-.375.503-.375.251 0 .377.25.377.5-.126.75-.126 1.5-.126 2.25-.125.125-.251.376-.503.376zm-1.509-5.127c-.252 0-.378-.125-.378-.375 0-.625-.125-1.25-.125-1.875-.126-.626-.126-1.376-.126-2.001 0-.25.126-.375.377-.375.252 0 .378.125.378.375 0 .625.125 1.25.125 1.876.126.625.126 1.375.126 2 0 .125-.251.375-.377.375zm-2.893-5.127c-.252 0-.377-.125-.377-.375-.126-1-.252-1.875-.504-2.875l-.125-.501c0-.25.125-.375.251-.5.252 0 .378.125.503.25l.126.5c.252 1.001.377 1.876.503 2.876 0 .375-.126.625-.377.625zm-2.264-7.001c-.252 0-.378-.25-.378-.501.126-.5.126-1 .126-1.5s.126-1 .126-1.625c0-.25.252-.375.503-.375.252 0 .378.25.378.375-.126.5-.126 1-.126 1.5s-.126 1-.126 1.625c-.126.251-.377.501-.503.501zm12.704 1.125c-.252 0-.378-.25-.378-.5.126-.875.252-1.751.252-2.751 0-.25.126-.375.377-.375.252 0 .378.125.378.375 0 1-.126 1.876-.252 2.751 0 .375-.126.5-.377.5zm-.881 5.877c-.251 0-.377-.125-.377-.375 0-.251 0-.626.126-.876 0-.25.125-.5.125-.75s.126-.375.378-.375c.251 0 .377.125.377.375s0 .625-.126.875c0 .25-.125.5-.125.751 0 .25-.126.375-.378.375zm-.754 10.627c-.126 0-.126 0 0 0-.252 0-.378-.25-.378-.5.126-.75.378-1.5.629-2.25.126-.25.252-.25.503-.25.252.125.252.25.252.5-.252.75-.503 1.5-.629 2.125-.126.25-.252.375-.377.375zm4.15-21.381h-.125c-.252-.125-.252-.25-.252-.5.126-.25.252-.625.377-1l.378-1.125c.125-.25.251-.25.503-.25.251.125.251.25.251.5-.125.25-.251.625-.251 1l-.378 1.125c-.251.25-.377.25-.503.25zm-.503 10.379c-.251 0-.377-.25-.377-.5.126-.501.126-1.001.251-1.501.126-.5.252-1 .252-1.375 0-.25.251-.375.503-.375s.377.25.377.5c-.125.5-.125 1-.251 1.5s-.252 1.001-.252 1.376c-.126.25-.377.375-.503.375zm-1.509 7.502c-.252 0-.377-.25-.377-.5.125-.751.251-1.501.503-2.126 0-.125.125-.375.125-.5 0-.25.252-.375.504-.25.251 0 .377.25.251.5 0 .125-.126.375-.126.5-.251.75-.377 1.376-.503 2.001 0 .125-.126.375-.377.375zm-15.974-18.256c-.252 0-.378-.125-.378-.375 0-1.125.126-2.125.252-3.125v-.376c0-.25.251-.375.377-.375.252 0 .377.25.377.375v.376c-.125 1-.251 2-.251 3 0 .375-.126.5-.377.5zm-29.056 30.134s-.126 0 0 0c-.251-.125-.377-.25-.377-.5.377-1.625 1.383-3.001 2.138-4.126.126-.125.377-.25.503-.125s.252.375.126.5c-.755 1.126-1.635 2.501-2.012 3.876 0 .25-.252.375-.378.375zm1.258 7.753c-.252 0-.377-.251-.377-.376.125-1.75.629-3.375 1.257-4.876.126-.25.252-.375.504-.25.251.125.377.25.251.5-.503 1.501-1.006 3.126-1.132 4.751-.126.126-.251.251-.503.251zm2.767 4.876c-.251 0-.377-.25-.377-.375.126-1.125.251-2.376.377-3.626 0-.25.252-.375.378-.375.251 0 .377.25.377.375-.126 1.25-.252 2.501-.377 3.626 0 .25-.126.375-.378.375zm.881-9.253c-.126 0-.126 0 0 0-.378-.125-.503-.25-.378-.5.252-.625.378-1.375.503-2.125v-.25c0-.25.252-.375.504-.375.251 0 .377.25.377.5v.25c-.126.75-.252 1.5-.503 2.25-.252.125-.378.25-.503.25zm-1.007-5.876c-.251-.125-.377-.25-.377-.5l.377-1.626c0-.25.252-.375.504-.25.251 0 .377.25.251.5l-.377 1.626c0 .125-.126.25-.378.25zm-1.006-5.502c-.251 0-.377-.25-.377-.5.251-1.25.629-2.376 1.006-3.626.126-.25.252-.375.503-.25.252.125.378.25.252.5-.378 1.125-.755 2.376-1.007 3.501 0 .25-.251.375-.377.375zm4.654 23.007c-.252 0-.377-.125-.377-.376-.252-1.625-.126-3.501 0-4.876 0-.25.251-.375.377-.375.252 0 .377.25.377.375-.125 1.375-.251 3.126 0 4.751 0 .25-.125.376-.377.501zm2.641 6.251c-.125 0-.251-.125-.377-.25-.251-.5-.503-.875-.88-1.375-.126-.125-.126-.375.125-.5.126-.125.378-.125.504.125.377.5.628.875 1.006 1.5.126.25 0 .375-.126.5h-.252zm73.582-22.756c-.125 0-.377-.125-.377-.25-.377-1.501-1.258-2.876-2.012-3.876-.126-.125-.126-.376.125-.501.126-.125.378-.125.503.125.881 1.126 1.761 2.626 2.139 4.127 0 .125-.126.375-.378.375zm-1.383 7.877c-.252 0-.378-.125-.378-.375-.125-1.626-.628-3.251-1.132-4.752-.125-.25 0-.375.252-.5s.377 0 .503.25c.503 1.626 1.006 3.126 1.258 4.877-.126.25-.252.5-.503.5zm-2.767 4.751c-.252 0-.378-.125-.378-.375-.125-1.125-.251-2.376-.377-3.626 0-.25.126-.375.377-.375.252 0 .378.125.378.375.125 1.25.251 2.501.377 3.626.126.25-.126.375-.377.375zm-.755-9.252c-.126 0-.377-.125-.377-.25-.252-.751-.378-1.501-.503-2.251v-.25c0-.25.125-.375.377-.5.251 0 .377.125.503.375v.25c.126.625.252 1.5.503 2.126-.126.25-.126.5-.503.5 0 0 .126 0 0 0zm.88-5.877c-.125 0-.377-.125-.377-.25l-.377-1.626c0-.25.126-.375.251-.5.252 0 .378.125.503.25l.378 1.626c.126.25 0 .5-.378.5.126 0 .126 0 0 0zm1.132-5.502c-.125 0-.377-.125-.377-.25-.251-1.125-.629-2.375-1.006-3.501-.126-.25 0-.375.251-.5.252-.125.378 0 .504.25.377 1.126.754 2.376 1.006 3.626 0 .125-.126.375-.378.375zm-4.653 23.007c-.252 0-.378-.25-.378-.5.252-1.626.126-3.376 0-4.752 0-.25.126-.375.378-.375.251 0 .377.125.377.375.126 1.501.251 3.251 0 4.877 0 .25-.126.375-.377.375zm-2.768 6.252h-.125c-.252-.125-.252-.375-.126-.5.251-.625.629-1 1.006-1.501.126-.125.377-.25.503-.125s.252.376.126.501c-.377.5-.629.875-.881 1.375-.251.25-.377.25-.503.25z" fill="#B4967A"/><path d="M196.521 259.045c-16.226-2.625-21.634 22.257-15.974 34.01 3.899 8.002 19.37 7.377 24.653 3.251 5.031-3.876 5.031-12.003 4.402-17.88-.88-8.878-3.396-14.504-9.182-18.005-1.258-.625-2.641-1.125-3.899-1.376z" fill="#E2CDB2"/><path d="M190.483 276.425c-.503 3.001.755 5.752 4.025 6.002 3.145.25 5.032-3.251 4.025-6.002-.251-.75-1.509-.5-1.257.375.754 2.126-.378 4.252-2.768 4.252-2.389 0-3.144-2.376-2.767-4.377.252-.75-1.006-1.125-1.258-.25z" fill="#625A4D"/><path d="M223.061 268.048c0 1.626-3.019 3.001-6.792 3.001-3.774 0-6.792-1.375-6.792-3.001 0-1.625 3.018-3.001 6.792-3.001 3.773 0 6.792 1.376 6.792 3.001zm-43.772.125c0 1.625-3.019 3.001-6.792 3.001-3.774 0-6.792-1.376-6.792-3.001 0-1.626 3.018-3.001 6.792-3.001 3.773.125 6.792 1.375 6.792 3.001z" fill="#EAC1C2"/><path d="M201.049 265.422c0 .75-.251 1.375-.629 2.001-1.132 2.25-3.522 4.251-6.163 4.251-3.648 0-6.541-4.126-6.541-6.252 0-2.126 1.887-5.001 6.415-2.751.755.375 1.887-1.25 4.528-.75 1.761.375 2.39 1.876 2.39 3.501z" fill="#423C32"/><path d="M200.42 264.172c-.126.5-1.006.75-1.886.5-.881-.25-1.51-.875-1.384-1.5.126-.5 1.006-.75 1.887-.5.88.25 1.509.875 1.383 1.5z" fill="#EFF3EF"/><path d="M182.308 260.671c0 2.876-1.887 5.252-4.277 5.252s-4.276-2.376-4.276-5.252 1.886-5.251 4.276-5.251c2.39 0 4.277 2.375 4.277 5.251z" fill="#625A4D"/><path d="M180.547 262.296a1.88 1.88 0 001.886-1.875 1.88 1.88 0 00-1.886-1.876c-1.042 0-1.887.84-1.887 1.876a1.88 1.88 0 001.887 1.875zm-1.887-4.251a.857.857 0 01-.88.876.857.857 0 01-.881-.876c0-.5.377-.875.881-.875.503 0 .88.375.88.875z" fill="#fff"/><path d="M214.382 260.671c0 2.876-1.887 5.252-4.277 5.252-2.389 0-4.276-2.376-4.276-5.252s1.887-5.251 4.276-5.251c2.39 0 4.277 2.375 4.277 5.251z" fill="#625A4D"/><path d="M212.621 262.296a1.88 1.88 0 001.887-1.875 1.882 1.882 0 00-1.887-1.876c-1.042 0-1.887.84-1.887 1.876a1.88 1.88 0 001.887 1.875zm-1.887-4.251a.857.857 0 01-.88.876.858.858 0 01-.881-.876c0-.5.378-.875.881-.875s.88.375.88.875z" fill="#fff"/><path d="M231.111 309.309c-.126 0-.252-.125-.378-.25-.251-.375-.377-.875-.628-1.25-.504-1.001-.881-1.876-1.51-2.751-.126-.125-.126-.375.126-.5.126-.125.377-.125.503.125.629.875 1.132 1.875 1.509 2.876.126.375.378.75.629 1.25.126.25 0 .375-.125.5h-.126zm3.144 8.127c-.125 0-.377-.125-.377-.25-.126-.25-.126-.5-.126-.75s-.126-.375-.126-.625c-.125-.25 0-.375.252-.5s.377 0 .503.25.126.5.126.75.126.375.126.625c.125.125 0 .375-.378.5.126 0 .126-.125 0 0zm4.403 5.877c-.126 0-.378-.125-.378-.25-.125-.5-.377-1.125-.503-1.625l-.377-1.501c-.126-.25 0-.375.251-.5.252-.125.378 0 .504.25.125.5.377 1.125.503 1.626l.377 1.5c.126.125 0 .375-.377.5.125 0 .125 0 0 0zm-1.635 4.376c-.252 0-.378-.125-.378-.375-.126-1-.251-1.875-.377-2.876l.755-.125-.378.125.378-.125c.125.625.251 1.251.377 2.001.126.125.126.125.126.25v.75c-.126.125-.252.375-.503.375zm2.389 5.252c-.251 0-.377-.125-.377-.375 0-1.126-.126-2.126-.377-3.626 0-.25.125-.376.251-.501.252 0 .378.126.503.251.252 1 .503 2.25.503 3.751-.125.25-.251.5-.503.5zm-2.264 6.877c-.251 0-.377-.25-.377-.5.126-1.126.252-2.126.252-3.251 0-.25.125-.375.377-.375.251 0 .377.125.377.375 0 1.125-.126 2.25-.251 3.376 0 .125-.126.375-.378.375zm.629 4.001h-.126c-.251-.125-.251-.25-.251-.5.251-.75.503-1.376.629-2.001 0-.25.251-.375.503-.375.251 0 .377.25.377.375-.126.75-.377 1.501-.629 2.126-.125.25-.251.375-.503.375zm-2.39 4.251s-.125 0 0 0c-.251-.125-.377-.25-.377-.5.126-.625.377-1.376.377-2.251 0-.25.252-.375.378-.375.251 0 .377.25.377.375-.126.875-.251 1.751-.503 2.376.126.375-.126.375-.252.375zm-1.132-25.507c-.125 0-.251-.125-.377-.25l-1.006-2.626c-.126-.25 0-.375.251-.5.252-.125.378 0 .503.25l1.007 2.626c.125.25 0 .375-.252.5h-.126zm-3.773-7.627c-.126 0-.377-.125-.377-.25-.252-1.126-.881-2.126-1.761-3.376-.126-.125-.126-.376.125-.501.126-.125.378-.125.504.125 1.006 1.376 1.635 2.501 1.886 3.626 0 .126-.126.251-.377.376zm-4.277-7.752c-.125 0-.251-.125-.377-.25-.252-.626-.755-1.251-1.258-1.876-.126-.125-.126-.25-.251-.25a.378.378 0 010-.5c.125-.125.377-.125.503 0s.126.25.251.25c.503.625 1.132 1.25 1.51 2.126.125.25 0 .375-.252.5h-.126zm8.428 7.126c-.126 0-.378-.125-.378-.25-.251-.75-.629-1.375-.88-2.125-.126-.25 0-.375.126-.5.251-.125.377 0 .503.125.377.75.754 1.375 1.006 2.25 0 .25-.126.375-.377.5zm1.886 20.256c-.251 0-.377-.125-.377-.375 0-1-.126-2.125-.126-3.126 0-.25.126-.375.378-.375.251 0 .377.125.377.375.126 1.001.126 2.126.126 3.126 0 .25-.126.375-.378.375zm-76.097-24.006h-.126c-.252-.125-.252-.375-.126-.5.252-.375.377-.75.629-1.251.503-1 .881-2 1.509-2.875.126-.125.378-.25.504-.125.125.125.251.375.125.5-.629.875-1.006 1.75-1.509 2.751-.126.375-.377.75-.629 1.25-.126.25-.252.25-.377.25zm-3.145 8.002s-.126 0 0 0c-.377-.125-.503-.25-.377-.5s.126-.5.126-.625c0-.25.125-.5.125-.75.126-.25.252-.376.504-.25.251.125.377.25.251.5s-.126.5-.126.625c0 .25-.125.5-.125.75 0 .125-.252.25-.378.25zm-4.402 6.002c-.377-.125-.503-.25-.377-.501l.377-1.5c.126-.5.251-1 .503-1.625.126-.251.252-.376.503-.251.252.126.377.251.252.501l-.378 1.5c-.125.5-.251 1-.503 1.626 0 .125-.126.25-.377.25zm1.761 4.376s-.126-.125 0 0c-.252 0-.378-.125-.378-.375v-.751c0-.125 0-.25.126-.25.126-.625.252-1.375.378-2 0-.25.251-.375.503-.375.251 0 .377.25.377.5-.126.875-.377 1.875-.377 2.876-.252.125-.503.375-.629.375zm-2.39 5.126c-.252 0-.377-.125-.377-.375 0-1.5.251-2.75.503-3.751 0-.25.251-.375.503-.25.251 0 .377.25.251.5-.251 1.376-.377 2.501-.377 3.626-.126.125-.377.25-.503.25zm2.138 6.877c-.251 0-.377-.125-.377-.375-.126-1.125-.252-2.25-.252-3.376 0-.25.126-.375.378-.375.251 0 .377.125.377.375 0 1.126.126 2.126.252 3.251.125.25-.126.5-.378.5zm-1.006 3.751c-.252-.75-.503-1.375-.629-2.125 0-.25.126-.375.377-.5.252 0 .378.125.378.375.126.625.377 1.25.629 2l-.755.25zm2.893 4.627c-.126 0-.377-.125-.377-.25-.126-.625-.378-1.501-.504-2.376 0-.25.126-.375.378-.375.251 0 .377.125.377.375.126.75.252 1.626.377 2.251.126.125 0 .375-.251.375zm1.006-25.508h-.126c-.251-.125-.251-.25-.251-.5l1.006-2.625c.126-.251.252-.25.503-.25.252.125.252.25.252.5l-1.006 2.625c0 .125-.252.25-.378.25zm3.899-7.626s-.125 0 0 0c-.251-.125-.377-.251-.377-.501.252-1.125.881-2.25 1.887-3.626.126-.125.377-.25.503-.125s.252.375.126.501c-.881 1.25-1.51 2.25-1.761 3.375-.126.251-.252.376-.378.376zm4.151-7.753h-.126c-.251-.125-.251-.25-.251-.5.377-.75.88-1.5 1.509-2.126.126-.125.126-.25.252-.25a.384.384 0 01.503 0c.126.125.126.375 0 .501-.126.125-.126.25-.252.25-.503.625-1.006 1.125-1.257 1.875 0 .125-.252.25-.378.25zm-8.301 7.127s-.126 0 0 0c-.378-.125-.503-.25-.378-.5.252-.75.629-1.5 1.007-2.251.125-.25.377-.25.503-.125.251.125.251.375.125.501-.377.75-.628 1.375-.88 2.125 0 .125-.252.25-.377.25zm-1.887 20.256c-.252 0-.377-.125-.377-.375 0-1 .125-2.126.125-3.126 0-.25.252-.375.378-.375.251 0 .377.25.377.375-.126 1-.126 2.126-.126 3.126 0 .25-.251.375-.377.375z" fill="#B4967A"/><path d="M211.866 389.582c0-5.001-3.773-9.378-8.93-10.878.126-.625.126-1.25.126-2.001 0-7.627-6.289-13.878-13.962-13.878-1.887 0-3.773.375-5.409 1.125-2.264-5.377-8.301-9.253-15.219-9.253-5.66 0-10.692 2.501-13.585 6.377-1.635-.625-3.521-1-5.408-1-7.547 0-13.71 5.501-14.717 12.628-.628-.125-1.257-.125-1.886-.125-7.296 0-13.207 5.127-13.207 11.504 0 4.626 3.27 8.627 7.798 10.503v.875c0 6.752 5.535 12.378 12.452 12.378 2.516 0 4.906-.75 6.793-2 2.641 4.751 8.175 8.127 14.716 8.127 5.157 0 9.811-2.126 12.83-5.502 2.767 3.126 6.792 5.127 11.32 5.127 7.421 0 13.71-5.502 14.716-12.629 6.415-.625 11.572-5.501 11.572-11.378z" fill="#F0F0F0"/><path d="M209.98 392.458c0-5.002-3.774-9.378-8.931-10.878.126-.626.126-1.251.126-2.001 0-7.627-6.289-13.879-13.962-13.879-1.886 0-3.773.375-5.408 1.125-2.264-5.376-8.302-9.252-15.22-9.252-5.66 0-10.691 2.5-13.584 6.377a15.369 15.369 0 00-5.409-1.001c-7.547 0-13.71 5.502-14.716 12.629-.629-.125-1.258-.125-1.887-.125-7.295 0-13.207 5.126-13.207 11.503 0 4.626 3.27 8.627 7.798 10.503v.875c0 6.752 5.535 12.379 12.453 12.379 2.515 0 4.905-.75 6.792-2.001 2.641 4.752 8.176 8.127 14.716 8.127 5.157 0 9.811-2.125 12.83-5.501 2.767 3.126 6.792 5.126 11.32 5.126 7.421 0 13.711-5.501 14.717-12.628 6.415-.625 11.572-5.377 11.572-11.378z" fill="#EEF7FB"/><path d="M217.401 224.036l-1.635-.875c-3.271 8.252-6.29 6.001-6.29 6.001-3.396-1-.88-8.877-.88-8.877l-2.516-.625c-1.006 11.253-6.163 8.252-6.163 8.252-3.522-2.126-4.025-13.379-4.151-16.13h-2.012c-.126 2.751-.629 14.004-4.151 16.13 0 0-5.157 3.001-6.163-8.252l-2.516.625s2.39 7.877-.88 8.877c0 0-3.019 2.251-6.289-6.001l-1.636.875s3.271 7.752 2.768 19.38l19.37.125h1.258l19.37-.125c-.629-11.628 2.516-19.38 2.516-19.38z" fill="#F8BF90"/><path d="M214.634 240.915c-6.541 2.001-13.459 2.876-20.125 1.501-9.937-2.001-18.49-8.503-22.264-18.005-.126-.125 0-.375 0-.5l-.251.125s3.27 7.752 2.767 19.38l19.37.125h1.258l19.37-.125c-.125-.875-.125-1.75-.125-2.501z" fill="#F6AF80"/><path d="M175.767 223.536c0 1.5-1.258 2.75-2.767 2.75s-2.767-1.25-2.767-2.75c0-1.501 1.258-2.751 2.767-2.751s2.767 1.25 2.767 2.751z" fill="#FBCC96"/><path d="M174.635 222.285c0 .375-.377.75-.755.75-.377 0-.754-.25-.754-.75 0-.375.377-.75.754-.75.378 0 .755.375.755.75z" fill="#FDEEEC"/><path d="M184.572 219.784c0 1.501-1.258 2.751-2.767 2.751-1.51 0-2.768-1.25-2.768-2.751 0-1.5 1.258-2.75 2.768-2.75 1.509.125 2.767 1.25 2.767 2.75z" fill="#FBCC96"/><path d="M183.314 218.534c0 .375-.377.75-.755.75-.377 0-.754-.25-.754-.75 0-.375.377-.75.754-.75.503.125.755.375.755.75z" fill="#FDEEEC"/><path d="M210.357 220.034c0 1.501-1.258 2.751-2.767 2.751-1.51 0-2.767-1.25-2.767-2.751 0-1.5 1.257-2.75 2.767-2.75 1.509 0 2.767 1.125 2.767 2.75z" fill="#FBCC96"/><path d="M209.225 218.659c0 .375-.377.75-.755.75-.377 0-.754-.25-.754-.75 0-.375.377-.75.754-.75.378.125.755.375.755.75z" fill="#FDEEEC"/><path d="M219.539 223.536c0 1.5-1.258 2.75-2.767 2.75-1.51 0-2.767-1.25-2.767-2.75 0-1.501 1.257-2.751 2.767-2.751 1.509 0 2.767 1.25 2.767 2.751z" fill="#FBCC96"/><path d="M218.407 222.285c0 .375-.377.75-.755.75-.377 0-.754-.25-.754-.75s.377-.75.754-.75c.378 0 .755.375.755.75z" fill="#FDEEEC"/><path d="M197.527 211.532c0 1.5-1.258 2.751-2.767 2.751s-2.767-1.251-2.767-2.751 1.258-2.751 2.767-2.751c1.509.125 2.767 1.251 2.767 2.751z" fill="#FBCC96"/><path d="M196.269 210.282c0 .375-.377.75-.754.75-.378 0-.755-.25-.755-.75 0-.375.377-.751.755-.751.377.126.754.376.754.751z" fill="#FDEEEC"/><path d="M214.382 231.663s-.629 2.25-.881 9.252c0 0-1.383 2.376-1.635-.5-.251-2.75-.503-5.626 1.635-9.627 2.265-4.002.881.875.881.875z" fill="#FCDCBC"/><path d="M159.938 352.816a.452.452 0 01-.372-.076c-4.695-3.82-5.67-10.39-6.457-15.693-.185-1.197-.343-2.409-.528-3.605-1.022-7.34-28.69-72.092-31.872-78.699-5.19-10.629-12.421-20.195-20.637-30.643-5.074-6.353-11.359-14.291-11.948-23.579-.028-.238.17-.46.397-.445.239-.029.463.169.448.394.56 9.052 6.794 16.838 11.777 23.098 8.248 10.503 15.494 20.096 20.732 30.806 3.217 6.731 30.89 71.554 31.943 78.947.158 1.212.344 2.409.529 3.606.762 5.136 1.713 11.538 6.141 15.149.192.143.209.423.065.614l-.218.126z" fill="#ABC4D3"/><path d="M86.593 197.382c-1.653 2.107-3.545 8.44-.872 8.716 1.948.221 2.514-1.877 3.263-3.031 1-1.478 1.196-1.265 3.049-1.46 5.077-.598-2.088-6.04-4.743-4.842-.234.098-.475.309-.697.617z" fill="#BED9F0"/><path d="M97.243 139.989c11.366 22.392 4.113 50.839-8.58 58.449-13.675 8.175-42.096-4.901-53.463-27.293-11.367-22.392-6.68-47.485 10.46-56.091 17.11-8.59 40.231 2.569 51.583 24.935z" fill="#A1CED0"/><path d="M58.984 182.068c-9.131-5.942-19.233-17.443-23.475-27.567-3.004-7.179-2.648-19.543-2.201-27.11-6.186 11.729-5.971 28.398 1.864 43.77 11.367 22.392 39.788 35.468 53.463 27.293 3.737-2.217 6.997-6.259 9.453-11.433-16.388 4.194-27.4 2.661-39.104-4.953z" fill="#86C5CE"/><path d="M84.77 189.164c.627 1.269.14 2.814-1.135 3.438-1.276.624-2.831.141-3.459-1.127-.627-1.269-.141-2.814 1.135-3.438a2.561 2.561 0 013.458 1.127zm-37.05-68.995a2.532 2.532 0 01-1.135 3.438c-1.276.624-2.831.141-3.459-1.127-.627-1.269-.141-2.814 1.135-3.438a2.54 2.54 0 013.458 1.127zm41.08 49.166c.627 1.268.141 2.814-1.135 3.438-1.276.624-2.831.141-3.459-1.128a2.532 2.532 0 011.135-3.438 2.563 2.563 0 013.459 1.128zm-21.66 9.789c.628 1.268.142 2.814-1.134 3.437a2.561 2.561 0 01-3.458-1.127c-.628-1.269-.142-2.814 1.134-3.438a2.602 2.602 0 013.459 1.128zm-19.776-6.781c.628 1.268.142 2.814-1.134 3.437-1.276.624-2.831.141-3.459-1.127-.627-1.269-.141-2.814 1.135-3.438 1.26-.651 2.803-.125 3.458 1.128zm48.398-18.729c.627 1.268.141 2.814-1.135 3.437-1.276.624-2.83.141-3.458-1.127-.628-1.269-.142-2.814 1.134-3.438 1.26-.651 2.804-.125 3.459 1.128zm-25.396 8.495c.628 1.268.142 2.814-1.134 3.437-1.276.624-2.831.141-3.459-1.127-.627-1.268-.141-2.814 1.135-3.438a2.56 2.56 0 013.458 1.128zm-22.127-10.39c.627 1.268.141 2.814-1.135 3.437-1.276.624-2.83.141-3.458-1.127-.628-1.269-.142-2.814 1.134-3.438 1.276-.624 2.831-.141 3.459 1.128zm28.229-11.389c.628 1.269.142 2.814-1.134 3.438-1.276.624-2.831.141-3.459-1.127-.627-1.269-.141-2.814 1.135-3.438a2.602 2.602 0 013.458 1.127zm-20.437-5.787c.628 1.269.142 2.814-1.134 3.438-1.276.624-2.831.141-3.459-1.127-.627-1.269-.141-2.814 1.135-3.438a2.543 2.543 0 013.458 1.127zm-18.047 4.785c.627 1.268.141 2.814-1.135 3.437a2.561 2.561 0 01-3.458-1.127c-.628-1.268-.142-2.814 1.135-3.438a2.56 2.56 0 013.458 1.128zm29.96-20.633c.628 1.268.142 2.814-1.134 3.438-1.276.623-2.831.141-3.459-1.128-.627-1.268-.141-2.814 1.135-3.438 1.276-.623 2.83-.141 3.458 1.128z" fill="#D6EEFD"/><path opacity=".6" d="M79.907 123.808c7.516 5.856 10.997 13.919 7.78 17.973-3.2 4.08-11.904 2.634-19.42-3.222-7.515-5.856-10.997-13.919-7.78-17.973 3.2-4.08 11.905-2.634 19.42 3.222z" fill="#EBEAF4"/><path d="M153.148 335.95a.445.445 0 01-.572-.106c-3.666-4.808-3.062-11.416-2.565-16.768.096-1.213.235-2.415.359-3.644.741-7.374 1.509-15.017-.04-22.198-2.562-11.558-7.32-22.508-12.825-34.62-3.44-7.364-7.708-16.531-6.059-25.729.042-.241.272-.409.487-.352.243.042.412.271.354.485-1.579 8.941 2.638 17.957 6.014 25.211 5.521 12.14 10.337 23.128 12.892 34.799 1.542 7.294.779 15.007.041 22.451a181.071 181.071 0 00-.332 3.628c-.477 5.196-1.063 11.649 2.403 16.174.154.201.112.442-.091.595-.039.059-.039.058-.066.074z" fill="#C9B6D9"/><path d="M130.637 229.55c-2.105 1.642-5.419 7.344-2.877 8.274 1.833.649 2.877-1.253 3.909-2.171 1.297-1.215 1.455-.944 3.29-.73 5.079.595-.595-6.354-3.487-5.816-.266.044-.539.2-.835.443z" fill="#E59A85"/><path d="M154.515 176.252c5.795 24.396-7.977 50.396-22.119 54.821-15.224 4.757-39.77-14.56-45.564-38.956-5.795-24.396 4.677-47.742 23.371-52.101 18.707-4.403 38.545 11.825 44.312 36.236z" fill="#E59A85"/><path d="M107.413 208.244c-7.47-7.909-14.77-21.417-16.316-32.291-2.238-15.327 2.037-19.626 4.242-26.863-8.779 9.96-12.473 26.231-8.523 43 5.795 24.396 30.356 43.74 45.564 38.956 4.159-1.301 8.264-4.453 11.866-8.909-16.906.293-27.265-3.75-36.833-13.893z" fill="#DC7E61"/><path d="M130.807 221.128a2.582 2.582 0 01-1.919 3.092c-1.379.321-2.787-.536-3.109-1.907a2.58 2.58 0 011.918-3.091c1.379-.321 2.787.535 3.11 1.906zm-19.754-75.701a2.582 2.582 0 01-1.919 3.092c-1.379.321-2.787-.536-3.11-1.907a2.582 2.582 0 011.919-3.091c1.379-.321 2.787.535 3.11 1.906zm28.339 57.383a2.582 2.582 0 01-1.918 3.092c-1.379.321-2.787-.536-3.11-1.907a2.58 2.58 0 011.918-3.091 2.573 2.573 0 013.11 1.906zm-23.364 4.47a2.582 2.582 0 01-1.918 3.092c-1.379.321-2.787-.536-3.11-1.907a2.58 2.58 0 011.918-3.091c1.395-.294 2.76.551 3.11 1.906zm-17.641-11.191a2.58 2.58 0 01-1.918 3.091c-1.38.321-2.787-.536-3.11-1.906a2.582 2.582 0 011.918-3.092c1.38-.321 2.787.536 3.11 1.907zm51.453-6.947a2.58 2.58 0 01-1.918 3.091c-1.379.321-2.787-.536-3.11-1.906a2.582 2.582 0 011.918-3.092c1.423-.309 2.787.536 3.11 1.907zm-26.67 2.35a2.58 2.58 0 01-1.918 3.091c-1.379.322-2.787-.535-3.11-1.906a2.582 2.582 0 011.918-3.092 2.573 2.573 0 013.11 1.907zm-19.044-15.236a2.582 2.582 0 01-1.918 3.092c-1.379.321-2.787-.536-3.11-1.907a2.58 2.58 0 011.918-3.091 2.558 2.558 0 013.11 1.906zm30.114-4.508a2.58 2.58 0 01-1.918 3.091c-1.379.321-2.787-.535-3.11-1.906a2.582 2.582 0 011.918-3.092c1.38-.321 2.787.536 3.11 1.907zm-18.525-10.395a2.582 2.582 0 01-1.918 3.092c-1.38.321-2.787-.536-3.11-1.907a2.58 2.58 0 011.918-3.091 2.572 2.572 0 013.11 1.906zm-18.634.453a2.58 2.58 0 01-1.918 3.091c-1.38.322-2.787-.535-3.11-1.906a2.582 2.582 0 011.918-3.092 2.584 2.584 0 013.11 1.907zm33.975-13.093a2.581 2.581 0 01-1.918 3.091c-1.379.321-2.787-.536-3.11-1.907a2.58 2.58 0 011.918-3.091c1.38-.321 2.787.536 3.11 1.907z" fill="#F1D9DA"/><path opacity=".6" d="M144.817 155.291c5.931 7.453 7.412 16.085 3.34 19.291-4.073 3.206-12.176-.214-18.107-7.667-5.931-7.454-7.412-16.085-3.34-19.291 4.073-3.206 12.176.214 18.107 7.667z" fill="#F0E2C2"/><path d="M165.855 354.667a.465.465 0 01-.461.084c-5.506-2.522-8.15-8.641-10.24-13.557-.463-1.11-.941-2.247-1.404-3.357-2.858-6.864-5.842-13.946-10.587-19.546-7.733-8.989-17.137-16.403-27.752-24.461-6.51-4.877-14.632-10.964-17.554-19.819-.056-.221.056-.467.263-.549.223-.056.47.056.553.262 2.85 8.606 10.839 14.588 17.275 19.4 10.646 8.112 20.093 15.538 27.873 24.608 4.836 5.693 7.824 12.845 10.714 19.764a931.7 931.7 0 011.403 3.356c2.055 4.792 4.604 10.748 9.805 13.12.204.1.318.36.217.562-.027.016-.066.075-.105.133z" fill="#D5A086"/><path d="M95.55 271.354c-1.081 2.466-1.306 9.037 1.383 8.652 1.946-.285 1.956-2.462 2.416-3.739.591-1.678.842-1.497 2.552-2.189 4.748-1.856-3.555-5.306-5.82-3.5-.202.153-.37.43-.532.776z" fill="#EFCC9C"/><path d="M91.274 213.153c16.701 18.788 16.906 48.166 6.538 58.712-11.139 11.351-41.986 5.821-58.687-12.967s-18.535-44.263-4.167-56.888c14.422-12.657 39.615-7.645 56.316 11.143z" fill="#FDD398"/><path d="M64.97 263.463c-10.353-3.468-23.183-11.956-29.734-20.79-9.242-12.465-7.5-18.242-9.008-25.665-3.009 12.874 1.466 28.98 12.94 41.901 16.701 18.788 47.532 24.292 58.687 12.968 3.049-3.089 5.179-7.822 6.225-13.417-14.849 8.16-25.876 9.423-39.11 5.003z" fill="#F9C091"/><path d="M91.707 263.861c.94 1.053.825 2.675-.234 3.609-1.06.933-2.692.82-3.63-.233-.94-1.053-.826-2.675.233-3.609a2.565 2.565 0 013.63.233zm-53.39-57.446c.94 1.053.825 2.675-.234 3.608-1.06.934-2.691.821-3.63-.232-.94-1.053-.826-2.675.234-3.609a2.565 2.565 0 013.63.233zm52.256 37.251c.94 1.053.825 2.675-.234 3.609-1.06.934-2.692.821-3.63-.233-.94-1.053-.826-2.675.233-3.608a2.566 2.566 0 013.63.232zm-18.495 14.921c.939 1.054.825 2.675-.235 3.609-1.06.934-2.69.821-3.63-.233-.94-1.053-.826-2.674.234-3.608 1.075-.907 2.691-.821 3.63.232zm-20.849-1.605c.94 1.053.825 2.675-.234 3.609-1.06.933-2.691.82-3.63-.233-.94-1.053-.826-2.675.233-3.609 1.033-.918 2.691-.82 3.63.233zm42.065-30.259c.94 1.054.825 2.675-.234 3.609-1.06.934-2.691.821-3.63-.233-.94-1.053-.826-2.674.233-3.608a2.566 2.566 0 013.63.232zm-22.416 14.566c.94 1.054.826 2.675-.234 3.609-1.06.934-2.691.821-3.63-.232-.94-1.054-.826-2.675.234-3.609 1.075-.907 2.69-.821 3.63.232zm-24.018-4.492c.94 1.054.826 2.675-.234 3.609-1.06.934-2.69.821-3.63-.232-.94-1.054-.826-2.675.234-3.609 1.033-.918 2.691-.821 3.63.232zm24.38-18.081c.939 1.053.825 2.675-.235 3.609-1.06.934-2.69.821-3.63-.233-.94-1.053-.826-2.675.234-3.608 1.06-.934 2.719-.837 3.63.232zm-21.247-.473c.94 1.053.825 2.675-.234 3.609-1.06.934-2.691.821-3.63-.233-.94-1.053-.826-2.675.233-3.608a2.566 2.566 0 013.63.232zm-16.217 9.127c.939 1.053.825 2.675-.235 3.609-1.06.934-2.69.82-3.63-.233s-.826-2.675.234-3.609c1.032-.918 2.691-.82 3.63.233zm23.743-27.451c.939 1.053.825 2.675-.235 3.609-1.06.934-2.69.82-3.63-.233s-.826-2.675.234-3.609a2.566 2.566 0 013.63.233z" fill="#FEE7CC"/><path opacity=".6" d="M72.749 199.248c8.746 3.775 14.178 10.682 12.09 15.427-2.086 4.744-10.84 5.533-19.601 1.731-8.746-3.774-14.178-10.682-12.091-15.426 2.087-4.744 10.856-5.507 19.602-1.732z" fill="#FEE7CC"/><path d="M182.071 81.977c1.087-.519 7.054 5.146 7.054 5.146s7.4-3.39 8.19-2.949c.844.573-2.736 8.289-2.736 8.289s5.55 6.14 5.331 6.915c-.311.738-8.693.024-8.693.024s-3.963 7.336-4.962 7.132c-1.038-.113-2.686-8.297-2.686-8.297s-7.901-1.596-8.313-2.421c-.504-.864 7.022-5.07 7.022-5.07s-1.294-8.251-.207-8.77z" fill="#FCD298"/><path d="M182.89 82.865s2.888 4.474 5.187 4.684c2.168.264-6.102-6.373-5.187-4.684z" fill="#FFF2CF"/><path d="M233.079 166.928c1.131 1.518-6.353 12.669-6.353 12.669s7.443 10.987 6.831 12.407c-.613 1.42-14.026-2.16-14.026-2.16s-8.393 10.563-9.688 10.309c-1.295-.253-2.255-13.998-2.255-13.998s-12.794-4.399-12.755-6.021c-.051-1.592 12.531-6.472 12.531-6.472s.491-13.043 1.77-13.99c1.248-1.038 10.013 9.992 10.013 9.992s12.711-4.221 13.932-2.736z" fill="#FCD298"/><path d="M231.718 168.508s-6.412 5.851-6.154 9.483c.168 3.662 8.713-11.378 6.154-9.483z" fill="#FFF2CF"/><path d="M284.429 246.773l-10.193-6.139c-2.54-1.565-3.407-4.878-1.841-7.418s4.878-3.407 7.418-1.842l1.461.86.894-1.294c1.701-2.451 5.06-3.095 7.512-1.395 2.452 1.701 3.096 5.06 1.395 7.512l-6.646 9.716zm-151.481-143.6l-1.49-10.024c-.348-2.518 1.359-4.883 3.877-5.23 2.517-.348 4.882 1.359 5.23 3.876l.227 1.425 1.335-.113c2.532-.211 4.776 1.647 4.987 4.18.212 2.533-1.647 4.776-4.179 4.988l-9.987.898z" fill="#FD9587"/><path d="M51.85 74.209L42.102 39.77c-2.356-8.66 2.554-17.715 11.215-20.07 8.66-2.356 17.715 2.554 20.07 11.215l1.439 4.89 4.623-1c8.775-1.884 17.473 3.612 19.357 12.387 1.884 8.775-3.612 17.473-12.387 19.357L51.85 74.21z" fill="#FCD298"/><path d="M285.232 229.718c-.471 1.088.768.888 1.631 1.115.93.271 1.751.857 2.472 1.521.721.665.901 2.083 1.524 1.72.723-.442.413-1.367.062-1.935-1.259-2.124-2.26-2.73-3.883-2.973-.704-.028-1.609.103-1.806.552zM89.814 40.684c-3.392 1.108-.47 3.5.738 5.896 1.242 2.637 1.56 5.654 1.5 8.603-.06 2.95-2.897 6.181-.837 6.86 2.437.748 3.904-1.794 4.481-3.716 2.276-7.07 1.649-10.532-1.038-14.674-1.342-1.642-3.44-3.419-4.844-2.969z" fill="#FFF2CF"/><path d="M50.615 35.305l-19.885-6.35c-4.97-1.643-7.791-6.947-6.148-11.917 1.644-4.97 6.947-7.791 11.917-6.148l2.841.875 1.003-2.57c1.91-4.873 7.383-7.333 12.257-5.423 4.874 1.909 7.334 7.383 5.424 12.256l-7.41 19.277z" fill="#FD9587"/><path d="M45.077 5.868c-.363 2.049 1.67 1.204 3.235 1.243 1.698.086 3.337.753 4.837 1.595 1.5.842 2.382 3.19 3.298 2.318 1.055-1.048.151-2.501-.678-3.327-3.01-3.116-4.963-3.746-7.832-3.503-1.214.238-2.704.828-2.86 1.674z" fill="#FFF2CF"/><path d="M263.584 121.152c.659.303.11 5.32.11 5.32s4.386 2.316 4.428 2.915c.042.599-5.012 1.75-5.012 1.75s-.92 4.972-1.408 5.124c-.487.152-3.21-4.223-3.21-4.223s-5.01.779-5.312.246c-.303-.532 3.046-4.351 3.046-4.351s-2.124-4.418-1.88-4.979c.245-.561 5.073 1.532 5.073 1.532s3.532-3.643 4.165-3.334z" fill="#FCD298"/><path d="M263.412 121.889s-1.073 3.072-.384 4.254c.715 1.175.886-5.324.384-4.254z" fill="#FFF2CF"/><path d="M3.483 174.511c.4-.251 2.957 1.764 2.957 1.764s2.79-1.612 3.127-1.432c.336.18-.775 3.358-.775 3.358s2.412 2.216 2.338 2.542c-.075.327-3.429.307-3.429.307s-1.295 3.029-1.7 2.994c-.401-.019-1.353-3.166-1.353-3.166s-3.157-.36-3.369-.682c-.233-.333 2.599-2.262 2.599-2.262s-.796-3.171-.395-3.423z" fill="#FCD298"/><path d="M3.83 174.868s1.327 1.661 2.214 1.675c.881-.002-2.642-2.334-2.214-1.675z" fill="#FFF2CF"/></svg>