<svg width="450" height="484" fill="none" xmlns="http://www.w3.org/2000/svg"><path d="M205.648 1.764C108.085 8.627-39.12 80.12 11.096 200.225c13.773 32.886 14.634 57.479 2.008 90.937-14.347 38.892-18.651 76.639 8.035 110.955C81.686 479.9 227.456 482.76 315.836 462.17c120.519-28.025 151.223-156.996 125.971-263.661-12.339-52.046-36.156-126.683-78.624-162.715C329.036 6.626 278.246 1.192 235.203.906c-10.043 0-20.086.286-29.555.858z" fill="#E5F4FD"/><path d="M185.167 409.383c0-13.682 10.289-25.084 24.293-29.36-.286-1.71-.285-3.42-.285-5.415 0-20.808 16.862-37.341 37.44-37.341 5.144 0 10.289 1.14 14.576 2.851 6.287-14.538 22.292-24.799 41.155-24.799 15.434 0 28.867 6.841 36.869 17.387 4.573-1.71 9.432-2.565 14.576-2.565a40.032 40.032 0 0139.727 34.205c1.715-.285 3.429-.285 5.144-.285 19.721 0 35.726 13.967 35.726 31.069 0 12.542-8.574 23.374-21.15 28.22v2.28c0 18.528-14.861 33.35-33.439 33.35-6.859 0-13.147-1.996-18.291-5.416-7.145 13.112-22.293 21.948-39.727 21.948-14.004 0-26.58-5.701-34.582-14.822-7.431 8.551-18.292 13.682-30.295 13.682-20.007 0-36.869-14.822-39.727-33.92-18.006-1.995-32.01-15.107-32.01-31.069z" fill="#F0F0F0"/><path d="M190.312 417.364c0-13.682 10.288-25.084 24.293-29.36-.286-1.71-.286-3.42-.286-5.415 0-20.808 16.862-37.341 37.44-37.341 5.145 0 10.289 1.14 14.576 2.851 6.288-14.537 22.293-24.799 41.156-24.799 15.433 0 28.866 6.841 36.869 17.388 4.573-1.711 9.431-2.566 14.576-2.566a40.031 40.031 0 0139.726 34.205c1.715-.285 3.43-.285 5.145-.285 19.72 0 35.725 13.967 35.725 31.07 0 12.541-8.574 23.373-21.149 28.219v2.28c0 18.528-14.862 33.35-33.439 33.35-6.859 0-13.147-1.995-18.292-5.416-7.145 13.112-22.292 21.948-39.726 21.948-14.005 0-26.58-5.701-34.583-14.822-7.43 8.551-18.291 13.682-30.295 13.682-20.006 0-36.868-14.822-39.726-33.92-18.292-1.995-32.01-15.107-32.01-31.069z" fill="#B9E2F7"/></svg>