<svg width="350" height="182" fill="none" xmlns="http://www.w3.org/2000/svg"><path d="M0 94.453c0-13.705 10.289-25.126 24.293-29.409-.285-1.713-.285-3.426-.285-5.425 0-20.843 16.862-37.404 37.44-37.404 5.144 0 10.289 1.143 14.576 2.856C82.31 10.509 98.317.23 117.179.23c15.434 0 28.867 6.853 36.869 17.417 4.573-1.713 9.432-2.57 14.576-2.57 20.292 0 36.869 14.847 39.727 34.263 1.715-.285 3.43-.285 5.144-.285 19.721 0 35.726 13.99 35.726 31.122 0 12.563-8.574 23.413-21.15 28.267v2.284c0 18.559-14.861 33.406-33.439 33.406-6.859 0-13.147-1.998-18.291-5.425-7.145 13.135-22.293 21.986-39.727 21.986-14.004 0-26.58-5.711-34.582-14.847-7.431 8.565-18.291 13.99-30.295 13.99-20.006 0-36.869-14.847-39.727-33.977C14.004 123.577 0 110.442 0 94.453z" fill="#F0F0F0"/><path d="M1.22 102.448c0-13.705 10.29-25.126 24.294-29.41-.286-1.712-.286-3.426-.286-5.424 0-20.844 16.863-37.404 37.44-37.404 5.145 0 10.29 1.142 14.577 2.855 6.287-14.562 22.292-24.84 41.155-24.84 15.434 0 28.866 6.852 36.869 17.416 4.573-1.713 9.431-2.855 14.576-2.855 20.292 0 36.869 14.847 39.727 34.263 1.714-.285 3.429-.285 5.144-.285 19.72 0 35.725 13.99 35.725 31.122 0 12.563-8.574 23.413-21.149 28.267v2.284c0 18.559-14.862 33.407-33.439 33.407-6.859 0-13.147-1.999-18.291-5.425-7.146 13.134-22.293 21.985-39.727 21.985-14.005 0-26.58-5.71-34.582-14.847-7.431 8.566-18.292 13.705-30.296 13.705-20.006 0-36.868-14.847-39.726-33.978-18.292-1.713-32.01-14.847-32.01-30.836z" fill="#B9E2F7"/><path d="M197.84 138.48c0-8.246 6.014-15.07 14.605-17.344-.286-1.138-.286-1.991-.286-3.128 0-12.227 10.023-22.178 22.337-22.178 3.15 0 6.014.568 8.878 1.706 3.723-8.53 13.46-14.786 24.629-14.786 9.164 0 17.183 3.98 22.051 10.236 2.578-1.137 5.728-1.706 8.592-1.706 12.028 0 22.051 8.815 23.769 20.188.859 0 2.005-.284 2.864-.284 11.742 0 21.479 8.245 21.479 18.482 0 7.392-5.155 13.932-12.601 16.775v1.422c0 11.089-8.878 19.904-20.047 19.904-4.009 0-7.732-1.138-10.882-3.412-4.296 7.677-13.174 13.079-23.77 13.079-8.305 0-15.751-3.412-20.619-8.814-4.296 5.118-10.883 8.246-18.042 8.246-12.028 0-22.052-8.815-23.77-20.188-11.169-.853-19.187-8.815-19.187-18.198z" fill="#F0F0F0"/><path d="M200.703 143.031c0-8.246 6.014-15.07 14.606-17.345-.287-1.137-.287-1.99-.287-3.128 0-12.226 10.024-22.178 22.338-22.178 3.15 0 6.014.569 8.878 1.706 3.723-8.53 13.46-14.785 24.629-14.785 9.164 0 17.182 3.98 22.051 10.236 2.577-1.138 5.728-1.706 8.591-1.706 12.028 0 22.052 8.814 23.77 20.188.859 0 2.005-.285 2.864-.285 11.741 0 21.478 8.246 21.478 18.482 0 7.393-5.155 13.933-12.6 16.776v1.422c0 11.089-8.878 19.903-20.047 19.903-4.009 0-7.732-1.137-10.883-3.412-4.295 7.677-13.173 13.08-23.769 13.08-8.305 0-15.751-3.412-20.62-8.815-4.295 5.118-10.882 8.246-18.042 8.246-12.028 0-22.051-8.814-23.769-20.188-10.883-.853-19.188-8.53-19.188-18.197z" fill="#B9E2F7"/></svg>