<svg width="50" height="50" viewBox="0 0 50 50" fill="none" xmlns="http://www.w3.org/2000/svg">
<circle cx="25" cy="25" r="25" fill="#2DC2E3"/>
<path d="M12.901 16C12.6792 16 12.4701 16.0389 12.2722 16.1185L16.2347 20.2519L20.2412 24.4593L20.3141 24.5484L20.4311 24.6669L20.5481 24.7855L20.782 25.0372L24.2182 28.6074C24.2752 28.6435 24.4413 28.799 24.571 28.8649C24.738 28.9492 24.9186 29.0275 25.1048 29.0341C25.306 29.0412 25.5114 28.9829 25.6925 28.8938C25.8282 28.8269 25.8885 28.7312 26.0457 28.6079L30.0227 24.4451L34.0437 20.2524L37.9183 16.2081C37.6669 16.0703 37.3853 15.9989 37.0995 16.0005H12.901V16ZM11.6873 16.5035C11.2648 16.9093 11 17.5189 11 18.2073V31.7775C11 32.3346 11.1764 32.8409 11.4679 33.2291L12.0233 32.6958L16.1612 28.6217L19.8313 25.0216L19.7583 24.9329L15.7373 20.7402L11.7163 16.5329L11.6873 16.5035ZM38.4446 16.6371L34.5261 20.7407L30.5196 24.9334L30.4466 25.0073L34.2627 28.7553L38.4006 32.8295L38.6491 33.0665C38.8718 32.7043 39 32.2582 39 31.7775V18.2073C39 17.5938 38.7904 17.0373 38.4446 16.6371ZM20.2992 25.5108L16.6441 29.1109L12.4916 33.185L11.9652 33.7037C12.2427 33.8848 12.5585 34 12.901 34H37.0995C37.5112 34 37.8846 33.8398 38.1962 33.5852L37.9332 33.3187L33.7808 29.2446L29.9647 25.5113L26.5286 29.0962C26.3428 29.2213 26.2184 29.3598 26.0368 29.4446C25.7444 29.5816 25.4244 29.6973 25.1025 29.6926C24.7796 29.6874 24.4629 29.5594 24.1733 29.4153C24.0277 29.3427 23.9501 29.2706 23.7798 29.1261L20.2992 25.5108Z" fill="white"/>
</svg>
