<svg width="50" height="50" viewBox="0 0 50 50" fill="none" xmlns="http://www.w3.org/2000/svg">
<circle cx="25" cy="25" r="25" fill="url(#paint0_radial)"/>
<circle cx="25" cy="25" r="25" fill="url(#paint1_radial)"/>
<path d="M20.8343 25C20.8343 22.6989 22.6993 20.833 25.0005 20.833C27.3017 20.833 29.1677 22.6989 29.1677 25C29.1677 27.3011 27.3017 29.167 25.0005 29.167C22.6993 29.167 20.8343 27.3011 20.8343 25ZM18.5816 25C18.5816 28.545 21.4554 31.4186 25.0005 31.4186C28.5456 31.4186 31.4194 28.545 31.4194 25C31.4194 21.455 28.5456 18.5814 25.0005 18.5814C21.4554 18.5814 18.5816 21.4548 18.5816 25ZM30.1735 18.3269C30.1734 18.6236 30.2612 18.9136 30.426 19.1604C30.5907 19.4071 30.8249 19.5994 31.099 19.7131C31.373 19.8267 31.6746 19.8566 31.9656 19.7988C32.2566 19.741 32.524 19.5983 32.7338 19.3886C32.9437 19.1789 33.0867 18.9117 33.1447 18.6207C33.2027 18.3298 33.1731 18.0282 33.0597 17.754C32.9462 17.4799 32.7541 17.2455 32.5075 17.0806C32.2608 16.9157 31.9708 16.8276 31.6742 16.8275H31.6736C31.2759 16.8277 30.8945 16.9857 30.6133 17.2668C30.332 17.548 30.1739 17.9292 30.1735 18.3269ZM19.9503 35.1748C18.7315 35.1193 18.0691 34.9163 17.6289 34.7448C17.0453 34.5176 16.6289 34.247 16.191 33.8098C15.7532 33.3726 15.4822 32.9566 15.256 32.373C15.0844 31.933 14.8814 31.2704 14.826 30.0517C14.7654 28.7341 14.7533 28.3383 14.7533 25.0002C14.7533 21.6621 14.7664 21.2674 14.826 19.9487C14.8815 18.73 15.086 18.0687 15.256 17.6274C15.4832 17.0438 15.7538 16.6274 16.191 16.1896C16.6283 15.7518 17.0443 15.4808 17.6289 15.2546C18.0689 15.083 18.7315 14.88 19.9503 14.8246C21.268 14.764 21.6638 14.7519 25.0005 14.7519C28.3372 14.7519 28.7334 14.7648 30.0522 14.8248C31.271 14.8803 31.9323 15.0848 32.3736 15.2548C32.9572 15.481 33.3736 15.7526 33.8115 16.1898C34.2493 16.627 34.5193 17.044 34.7465 17.6276C34.9181 18.0676 35.1211 18.7302 35.1765 19.9489C35.2371 21.2676 35.2492 21.6623 35.2492 25.0004C35.2492 28.3385 35.2371 28.7332 35.1765 30.0519C35.121 31.2706 34.917 31.933 34.7465 32.3732C34.5193 32.9568 34.2487 33.3732 33.8115 33.81C33.3742 34.2468 32.9572 34.5178 32.3736 34.745C31.9336 34.9166 31.271 35.1196 30.0522 35.175C28.7345 35.2356 28.3387 35.2477 25.0005 35.2477C21.6623 35.2477 21.2676 35.2356 19.9503 35.175V35.1748ZM19.8468 12.5757C18.516 12.6363 17.6067 12.8473 16.8126 13.1563C15.9906 13.4754 15.2939 13.9035 14.5982 14.5981C13.9025 15.2927 13.4754 15.9895 13.1563 16.8124C12.8473 17.607 12.6363 18.5158 12.5757 19.8465C12.5141 21.1793 12.5 21.6054 12.5 25C12.5 28.3946 12.5141 28.8207 12.5757 30.1535C12.6363 31.4843 12.8473 32.393 13.1563 33.1876C13.4754 34.0095 13.9026 34.7076 14.5982 35.4019C15.2938 36.0962 15.9896 36.5237 16.8126 36.8437C17.6082 37.1527 18.516 37.3637 19.8468 37.4243C21.1803 37.4849 21.6058 37.5 25.0005 37.5C28.3952 37.5 28.8214 37.4859 30.1542 37.4243C31.4851 37.3637 32.3938 37.1527 33.1884 36.8437C34.0104 36.5237 34.7071 36.0965 35.4028 35.4019C36.0985 34.7073 36.5247 34.0095 36.8447 33.1876C37.1537 32.393 37.3657 31.4842 37.4253 30.1535C37.4859 28.8197 37.5 28.3946 37.5 25C37.5 21.6054 37.4859 21.1793 37.4253 19.8465C37.3647 18.5157 37.1537 17.6065 36.8447 16.8124C36.5247 15.9905 36.0974 15.2938 35.4028 14.5981C34.7082 13.9024 34.0104 13.4754 33.1894 13.1563C32.3938 12.8473 31.485 12.6353 30.1552 12.5757C28.8222 12.5148 28.3962 12.5 25.002 12.5C21.6078 12.5 21.1808 12.5141 19.8473 12.5757" fill="white"/>
<defs>
<radialGradient id="paint0_radial" cx="0" cy="0" r="1" gradientUnits="userSpaceOnUse" gradientTransform="translate(3.23595 48.9047) scale(63.4814)">
<stop offset="0.09" stop-color="#FA8F21"/>
<stop offset="0.78" stop-color="#D82D7E"/>
</radialGradient>
<radialGradient id="paint1_radial" cx="0" cy="0" r="1" gradientUnits="userSpaceOnUse" gradientTransform="translate(34.6333 47.2992) scale(55.8643)">
<stop offset="0.64" stop-color="#8C3AAA" stop-opacity="0"/>
<stop offset="1" stop-color="#8C3AAA"/>
</radialGradient>
</defs>
</svg>
