<svg width="76" height="11" viewBox="0 0 76 11" fill="none" xmlns="http://www.w3.org/2000/svg">
<path d="M6.91027 10.168C6.38761 10.168 5.92561 10.0513 5.52427 9.818C5.13227 9.57533 4.82427 9.24867 4.60027 8.838C4.37627 8.42733 4.26427 7.96533 4.26427 7.452V2.566C4.26427 2.18333 4.12894 1.86133 3.85827 1.6C3.59694 1.33867 3.28427 1.208 2.92027 1.208C2.55627 1.208 2.24361 1.33867 1.98227 1.6C1.73027 1.86133 1.60427 2.18333 1.60427 2.566V10H0.260273V2.748C0.260273 2.23467 0.372273 1.77267 0.596273 1.362C0.820274 0.951333 1.13294 0.629333 1.53427 0.395999C1.93561 0.153333 2.39761 0.0319998 2.92027 0.0319998C3.45227 0.0319998 3.91894 0.153333 4.32027 0.395999C4.72161 0.629333 5.03427 0.951333 5.25827 1.362C5.48227 1.77267 5.59427 2.23467 5.59427 2.748V7.634C5.59427 8.01667 5.72494 8.33867 5.98627 8.6C6.24761 8.86133 6.55561 8.992 6.91027 8.992C7.26494 8.992 7.56827 8.86133 7.82027 8.6C8.07227 8.33867 8.19827 8.01667 8.19827 7.634V0.199999H9.54227V7.452C9.54227 7.96533 9.43027 8.42733 9.20627 8.838C8.98227 9.24867 8.67427 9.57533 8.28227 9.818C7.89027 10.0513 7.43294 10.168 6.91027 10.168Z" fill="#7259D6"/>
<path d="M10.5466 10L13.8786 1.138C14.0279 0.755333 14.2332 0.475333 14.4946 0.298C14.7559 0.120666 15.0592 0.0319998 15.4046 0.0319998C15.7499 0.0319998 16.0532 0.120666 16.3146 0.298C16.5759 0.466 16.7812 0.741333 16.9306 1.124L20.2766 10H18.8066L17.9526 7.634H12.8286L11.9606 10H10.5466ZM13.2486 6.444H17.5466L15.7966 1.586C15.7499 1.46467 15.6986 1.37133 15.6426 1.306C15.5866 1.24067 15.5072 1.208 15.4046 1.208C15.3112 1.208 15.2366 1.24067 15.1806 1.306C15.1339 1.37133 15.0872 1.46467 15.0406 1.586L13.2486 6.444Z" fill="#BC42BE"/>
<path d="M27.9376 10.168C27.415 10.168 26.953 10.0513 26.5516 9.818C26.1596 9.57533 25.8516 9.24867 25.6276 8.838C25.4036 8.42733 25.2916 7.96533 25.2916 7.452V2.566C25.2916 2.18333 25.1563 1.86133 24.8856 1.6C24.6243 1.33867 24.3116 1.208 23.9476 1.208C23.5836 1.208 23.271 1.33867 23.0096 1.6C22.7576 1.86133 22.6316 2.18333 22.6316 2.566V10H21.2876V2.748C21.2876 2.23467 21.3996 1.77267 21.6236 1.362C21.8476 0.951333 22.1603 0.629333 22.5616 0.395999C22.963 0.153333 23.425 0.0319998 23.9476 0.0319998C24.4796 0.0319998 24.9463 0.153333 25.3476 0.395999C25.749 0.629333 26.0616 0.951333 26.2856 1.362C26.5096 1.77267 26.6216 2.23467 26.6216 2.748V7.634C26.6216 8.01667 26.7523 8.33867 27.0136 8.6C27.275 8.86133 27.583 8.992 27.9376 8.992C28.2923 8.992 28.5956 8.86133 28.8476 8.6C29.0996 8.33867 29.2256 8.01667 29.2256 7.634V0.199999H30.5696V7.452C30.5696 7.96533 30.4576 8.42733 30.2336 8.838C30.0096 9.24867 29.7016 9.57533 29.3096 9.818C28.9176 10.0513 28.4603 10.168 27.9376 10.168Z" fill="#25B07E"/>
<path d="M37.2299 10.182C36.4552 10.182 35.7552 10.0513 35.1299 9.79C34.5046 9.52867 33.9679 9.16467 33.5199 8.698C33.0719 8.23133 32.7266 7.69 32.4839 7.074C32.2506 6.458 32.1339 5.79533 32.1339 5.086C32.1339 4.386 32.2506 3.73267 32.4839 3.126C32.7266 2.51 33.0719 1.96867 33.5199 1.502C33.9679 1.03533 34.5046 0.671333 35.1299 0.409999C35.7552 0.148666 36.4552 0.0179992 37.2299 0.0179992C38.0046 0.0179992 38.7046 0.148666 39.3299 0.409999C39.9552 0.671333 40.4872 1.03533 40.9259 1.502C41.3739 1.96867 41.7192 2.51 41.9619 3.126C42.2046 3.73267 42.3259 4.386 42.3259 5.086C42.3259 5.79533 42.2046 6.458 41.9619 7.074C41.7192 7.69 41.3739 8.23133 40.9259 8.698C40.4872 9.16467 39.9552 9.52867 39.3299 9.79C38.7046 10.0513 38.0046 10.182 37.2299 10.182ZM37.2299 8.992C37.9486 8.992 38.5879 8.824 39.1479 8.488C39.7172 8.14267 40.1652 7.676 40.4919 7.088C40.8186 6.5 40.9819 5.83267 40.9819 5.086C40.9819 4.34867 40.8186 3.69067 40.4919 3.112C40.1652 2.524 39.7172 2.062 39.1479 1.726C38.5879 1.38067 37.9486 1.208 37.2299 1.208C36.5112 1.208 35.8672 1.38067 35.2979 1.726C34.7286 2.062 34.2806 2.524 33.9539 3.112C33.6366 3.69067 33.4779 4.34867 33.4779 5.086C33.4779 5.83267 33.6366 6.5 33.9539 7.088C34.2806 7.676 34.7286 8.14267 35.2979 8.488C35.8672 8.824 36.5112 8.992 37.2299 8.992Z" fill="#FA8F21"/>
<path d="M48.3392 10C47.5926 9.99067 46.9112 9.86 46.2952 9.608C45.6792 9.34667 45.1472 8.992 44.6992 8.544C44.2606 8.096 43.9199 7.578 43.6772 6.99C43.4439 6.402 43.3272 5.772 43.3272 5.1C43.3272 4.428 43.4439 3.798 43.6772 3.21C43.9199 2.622 44.2606 2.104 44.6992 1.656C45.1472 1.208 45.6792 0.857999 46.2952 0.606C46.9112 0.344666 47.5926 0.209333 48.3392 0.199999H49.5992V1.39H48.3812C47.6812 1.39 47.0512 1.55333 46.4912 1.88C45.9312 2.20667 45.4879 2.65 45.1612 3.21C44.8439 3.77 44.6852 4.4 44.6852 5.1C44.6852 5.8 44.8439 6.43 45.1612 6.99C45.4879 7.55 45.9312 7.99333 46.4912 8.32C47.0512 8.63733 47.6812 8.80067 48.3812 8.81H49.5992V10H48.3392Z" fill="#D63860"/>
<path d="M51.1626 10V0.199999H52.5066V4.414H57.6726V0.199999H59.0166V10H57.6726V5.604H52.5066V10H51.1626Z" fill="#1E96C8"/>
<path d="M60.8071 10V8.81H62.6971V1.39H60.8071V0.199999H65.9171V1.39H64.0411V8.81H65.9171V10H60.8071Z" fill="#45C816"/>
<path d="M67.7056 10V0.199999H71.8356C72.4516 0.199999 73.0116 0.339999 73.5156 0.62C74.0196 0.899999 74.4209 1.28733 74.7196 1.782C75.0183 2.27667 75.1676 2.85067 75.1676 3.504C75.1676 4.148 75.0183 4.71733 74.7196 5.212C74.4303 5.70667 74.0289 6.094 73.5156 6.374C73.0116 6.654 72.4423 6.794 71.8076 6.794H69.0496V10H67.7056ZM69.0496 5.604H71.6536C72.0549 5.604 72.4189 5.52467 72.7456 5.366C73.0723 5.198 73.3336 4.95533 73.5296 4.638C73.7256 4.32067 73.8236 3.94267 73.8236 3.504C73.8236 3.056 73.7256 2.67333 73.5296 2.356C73.3336 2.03867 73.0723 1.80067 72.7456 1.642C72.4189 1.474 72.0596 1.39 71.6676 1.39H69.0496V5.604Z" fill="#B829CF"/>
</svg>
