<svg width="50" height="50" viewBox="0 0 50 50" fill="none" xmlns="http://www.w3.org/2000/svg">
<circle cx="25" cy="25" r="25" fill="#010101"/>
<path fill-rule="evenodd" clip-rule="evenodd" d="M31.0522 21.3855C32.7309 22.5848 34.7876 23.2906 37.0087 23.2906V19.0185C36.5883 19.0186 36.1691 18.9748 35.7578 18.8876V22.2504C33.5368 22.2504 31.4804 21.5447 29.8013 20.3453V29.0634C29.8013 33.4246 26.264 36.9598 21.9008 36.9598C20.2728 36.9598 18.7596 36.4679 17.5026 35.6243C18.9372 37.0904 20.9379 38 23.1514 38C27.5149 38 31.0523 34.4648 31.0523 30.1034V21.3855H31.0522ZM32.5953 17.0754C31.7374 16.1387 31.1741 14.9279 31.0522 13.5894V13.04H29.8668C30.1651 14.7411 31.1829 16.1945 32.5953 17.0754ZM20.2622 32.2777C19.783 31.6496 19.5239 30.881 19.525 30.0909C19.525 28.0962 21.143 26.479 23.1391 26.479C23.5111 26.4787 23.8808 26.5358 24.2354 26.6482V22.2807C23.8211 22.2239 23.403 22.1999 22.985 22.2087V25.6082C22.6302 25.4958 22.2603 25.4387 21.8882 25.439C19.8921 25.439 18.2743 27.0562 18.2743 29.0511C18.2743 30.4615 19.083 31.6828 20.2622 32.2777Z" fill="#EE1D52"/>
<path fill-rule="evenodd" clip-rule="evenodd" d="M29.8012 20.3453C31.4804 21.5447 33.5368 22.2504 35.7578 22.2504V18.8876C34.5181 18.6238 33.4205 17.9762 32.5953 17.0754C31.1829 16.1945 30.1651 14.7411 29.8667 13.04H26.753V30.1032C26.746 32.0924 25.1308 33.703 23.139 33.703C21.9652 33.703 20.9224 33.1439 20.2621 32.2777C19.0828 31.6828 18.2741 30.4615 18.2741 29.0511C18.2741 27.0562 19.892 25.439 21.888 25.439C22.2705 25.439 22.6391 25.4985 22.9848 25.6082V22.2087C18.6983 22.2972 15.2508 25.7979 15.2508 30.1034C15.2508 32.2525 16.1093 34.2009 17.5026 35.6244C18.7596 36.4681 20.2728 36.96 21.9008 36.96C26.264 36.96 29.8012 33.4246 29.8012 29.0635V20.3453Z" fill="white"/>
<path fill-rule="evenodd" clip-rule="evenodd" d="M35.7578 18.8876V17.9783C34.6398 17.98 33.5438 17.6671 32.5953 17.0753C33.4349 17.9941 34.5406 18.6277 35.7578 18.8876ZM29.8667 13.04C29.8382 12.8774 29.8164 12.7138 29.8012 12.5495V12H25.502V29.0634C25.4951 31.0524 23.88 32.663 21.888 32.663C21.3032 32.663 20.7511 32.5244 20.2621 32.2777C20.9224 33.1439 21.9652 33.703 23.139 33.703C25.1306 33.703 26.746 32.0924 26.753 30.1032V13.04H29.8667ZM22.9849 22.2087V21.2407C22.6257 21.1915 22.2635 21.167 21.9009 21.1672C17.5372 21.1672 14 24.7026 14 29.0634C14 31.7974 15.3902 34.2069 17.5027 35.6243C16.1094 34.2008 15.2509 32.2524 15.2509 30.1032C15.2509 25.7979 18.6983 22.2972 22.9849 22.2087Z" fill="#69C9D0"/>
</svg>
