<svg width="50" height="50" viewBox="0 0 50 50" fill="none" xmlns="http://www.w3.org/2000/svg">
<circle cx="25" cy="25" r="25" fill="#7B519D"/>
<path fill-rule="evenodd" clip-rule="evenodd" d="M34.5295 31.8147C33.7366 31.1764 32.8893 30.6035 32.0553 30.0182C30.392 28.85 28.8706 28.7592 27.6294 30.6387C26.9324 31.6939 25.9567 31.7401 24.9364 31.2772C22.1239 30.0019 19.952 28.037 18.6799 25.1783C18.1171 23.9135 18.1245 22.7796 19.4412 21.885C20.1383 21.412 20.8407 20.8522 20.7845 19.8185C20.7112 18.4706 17.4386 13.9663 16.1463 13.4909C15.6115 13.2942 15.079 13.307 14.535 13.4898C11.5047 14.5089 10.2495 17.0011 11.4516 19.9519C15.0376 28.7557 21.3484 34.8845 30.0357 38.6253C30.531 38.8383 31.0812 38.9234 31.3598 38.9998C33.3376 39.0197 35.6545 37.1142 36.3237 35.2231C36.9679 33.4037 35.6064 32.6816 34.5295 31.8147ZM24.7889 14.3935C31.1398 15.3701 34.0688 18.39 34.8775 24.7867C34.9525 25.3775 34.7324 26.2666 35.5754 26.283C36.4564 26.2998 36.2442 25.4239 36.2516 24.8325C36.3261 18.808 31.0731 13.2231 24.9725 13.0171C24.5123 13.0834 23.5599 12.6997 23.5005 13.7314C23.4609 14.4269 24.2627 14.3126 24.7889 14.3935Z" fill="white"/>
<path fill-rule="evenodd" clip-rule="evenodd" d="M26.0312 16.1474C25.4203 16.0738 24.6139 15.786 24.4711 16.6336C24.3221 17.5233 25.2209 17.4329 25.7984 17.5622C29.7209 18.4388 31.0867 19.8665 31.7325 23.7574C31.8268 24.3247 31.6394 25.2076 32.6035 25.0612C33.3179 24.9524 33.0598 24.1956 33.1196 23.7536C33.1512 20.018 29.9503 16.618 26.0312 16.1474Z" fill="white"/>
<path fill-rule="evenodd" clip-rule="evenodd" d="M26.3913 19.202C25.9836 19.2121 25.5834 19.2562 25.4335 19.692C25.2084 20.3433 25.6819 20.4986 26.1639 20.576C27.773 20.8343 28.6198 21.7831 28.7805 23.3877C28.8239 23.8232 29.1003 24.1761 29.521 24.1264C30.104 24.0569 30.1567 23.538 30.1388 23.0452C30.1676 21.2425 28.1301 19.1589 26.3913 19.202Z" fill="white"/>
</svg>
