<svg width="50" height="50" viewBox="0 0 50 50" fill="none" xmlns="http://www.w3.org/2000/svg">
<circle cx="25" cy="25" r="25" fill="#5181B8"/>
<path fill-rule="evenodd" clip-rule="evenodd" d="M36.4598 19.4518C36.6503 18.7939 36.4598 18.3333 35.5707 18.3333H32.6072C31.8452 18.3333 31.5065 18.75 31.316 19.2105C31.316 19.2105 29.8131 23.0263 27.6751 25.4825C26.9766 26.2062 26.6802 26.4254 26.2992 26.4254C26.1087 26.4254 25.8335 26.2062 25.8335 25.5483V19.4518C25.8335 18.6623 25.6218 18.3333 24.9868 18.3333H20.3299C19.8642 18.3333 19.5678 18.7061 19.5678 19.0351C19.5678 19.7807 20.6262 19.9562 20.7532 22.0176V26.5351C20.7532 27.5219 20.5839 27.6974 20.2029 27.6974C19.208 27.6974 16.7525 23.8816 15.3131 19.4956C15.0168 18.6842 14.7416 18.3333 13.9795 18.3333H11.0161C10.1693 18.3333 10 18.75 10 19.2105C10 20.0219 10.9949 24.057 14.6781 29.386C17.1336 33.0263 20.5839 35 23.7167 35C25.6007 35 25.8335 34.5614 25.8335 33.8158V31.0526C25.8335 30.1754 26.0029 30 26.6167 30C27.0613 30 27.8021 30.2193 29.5591 31.9737C31.57 34.057 31.9087 35 33.0306 35H35.9941C36.8408 35 37.2641 34.5614 37.0101 33.7062C36.7349 32.8509 35.7824 31.6009 34.5123 30.1097C33.8138 29.2544 32.7766 28.3553 32.4802 27.8947C32.0357 27.3026 32.1627 27.0395 32.4802 26.5351C32.4802 26.5132 36.0999 21.25 36.4598 19.4518Z" fill="white"/>
</svg>
