<svg width="50" height="50" viewBox="0 0 50 50" fill="none" xmlns="http://www.w3.org/2000/svg">
<circle cx="25" cy="25" r="25" fill="url(#paint0_radial)"/>
<circle cx="25" cy="25" r="25" fill="url(#paint1_linear)"/>
<path d="M35.0386 14.1175C32.3752 11.4637 28.8331 10.0015 25.0591 10C17.2833 10 10.9547 16.2979 10.9516 24.0389C10.9506 26.5134 11.6002 28.9288 12.8347 31.0579L10.8333 38.3333L18.3119 36.381C20.3725 37.4995 22.6924 38.0889 25.0535 38.0899H25.0593C32.8344 38.0899 39.1635 31.7913 39.1667 24.0501C39.1682 20.2987 37.7022 16.7712 35.0386 14.1175ZM25.0593 35.7187H25.0545C22.9505 35.7179 20.8869 35.1554 19.0866 34.0921L18.6584 33.8393L14.2205 34.9978L15.405 30.6917L15.1262 30.2502C13.9524 28.3922 13.3325 26.2447 13.3334 24.0399C13.336 17.6058 18.5961 12.3712 25.0639 12.3712C28.1957 12.3724 31.1398 13.5879 33.3536 15.7935C35.5674 17.9992 36.7859 20.9312 36.7847 24.0492C36.7822 30.4838 31.5221 35.7187 25.0593 35.7187ZM31.491 26.979C31.1385 26.8034 29.4055 25.9547 29.0823 25.8376C28.7593 25.7205 28.5243 25.662 28.2892 26.0132C28.0543 26.3644 27.3788 27.1546 27.1731 27.3887C26.9675 27.6228 26.7618 27.6521 26.4094 27.4765C26.0568 27.3009 24.9211 26.9305 23.5747 25.7353C22.5268 24.8052 21.8193 23.6563 21.6137 23.3051C21.4081 22.9539 21.5919 22.7641 21.7683 22.5891C21.9269 22.432 22.1208 22.1794 22.2971 21.9746C22.4733 21.7697 22.5321 21.6233 22.6495 21.3892C22.7671 21.1551 22.7083 20.9502 22.6202 20.7746C22.5321 20.599 21.8271 18.8723 21.5333 18.1699C21.2472 17.4859 20.9566 17.5784 20.7402 17.5677C20.5348 17.5575 20.2996 17.5554 20.0646 17.5554C19.8296 17.5554 19.4477 17.6431 19.1246 17.9944C18.8016 18.3456 17.8909 19.1943 17.8909 20.921C17.8909 22.6476 19.154 24.3158 19.3303 24.5499C19.5065 24.784 21.8158 28.3275 25.3519 29.847C26.1929 30.2084 26.8495 30.4243 27.3614 30.586C28.2058 30.8529 28.9743 30.8153 29.5817 30.725C30.2589 30.6243 31.6672 29.8764 31.961 29.0569C32.2547 28.2374 32.2547 27.5351 32.1666 27.3887C32.0785 27.2424 31.8435 27.1546 31.491 26.979Z" fill="white"/>
<defs>
<radialGradient id="paint0_radial" cx="0" cy="0" r="1" gradientUnits="userSpaceOnUse" gradientTransform="translate(3.23595 48.9047) scale(63.4814)">
<stop offset="0.09" stop-color="#FA8F21"/>
<stop offset="0.78" stop-color="#D82D7E"/>
</radialGradient>
<linearGradient id="paint1_linear" x1="25" y1="0" x2="25" y2="50" gradientUnits="userSpaceOnUse">
<stop stop-color="#61FD7D"/>
<stop offset="1" stop-color="#2BB826"/>
</linearGradient>
</defs>
</svg>
